<svg id="OBJECTS" xmlns="http://www.w3.org/2000/svg" viewBox="0 0 221.71527 201.90089">
  <defs>
    <style>
      .cls-1 {
        fill: #dc5656;
      }

      .cls-2 {
        fill: #fff;
      }

      .cls-3 {
        fill: #8dd5b6;
      }

      .cls-4 {
        fill: #e59146;
      }

      .cls-5, .cls-6 {
        fill: #ade5dc;
      }

      .cls-6 {
        opacity: 0.62;
      }

      .cls-10, .cls-12, .cls-13, .cls-7, .cls-8 {
        fill: #8b3433;
      }

      .cls-7 {
        opacity: 0.2;
      }

      .cls-9 {
        fill: #edbc89;
      }

      .cls-10, .cls-11 {
        opacity: 0.48;
      }

      .cls-11 {
        fill: #c04a4a;
      }

      .cls-12 {
        opacity: 0.49;
      }

      .cls-13 {
        opacity: 0.21;
      }
    </style>
  </defs>
  <g>
    <g>
      <g>
        <path class="cls-1" d="M34.7216,429.721s-2.1997,4.0436-2.702,5.1962c-.2625.6026,69.3013,38.068,72.419,38.4837,7.852-16.9773,26.1591-53.7023,37.6737-49.0666l11.365-12.7109s.9723-23.6098,32.7036-34.3793c26.14469-8.8734-22.1775-22.1407-22.1775-22.1407Z" transform="translate(-21.5299 -271.50001)"/>
        <path class="cls-2" d="M188.4641,371.9288c-.9749.2437-35.5133,11.0186-38.702,36.9858L141.191,419.202s-14.6949-9.7999-40.4183,48.502l-63.268-32.3449-2.3763-1.2186-8.3376-19.346,4.7223-4.0317,76.349-64.3164,63.9994,22.1404Z" transform="translate(-21.5299 -271.50001)"/>
        <path class="cls-1" d="M28.6551,399.0195l-7.1252-4.0716a5.85969,5.85969,0,0,1,2.9263-3.9444l5.5985,2.7993Z" transform="translate(-21.5299 -271.50001)"/>
        <path class="cls-3" d="M35.0169,393.1665l-12.9781-7.2524s.3817-3.0537,2.5447-3.6899l12.0875,6.8707Z" transform="translate(-21.5299 -271.50001)"/>
        <path class="cls-4" d="M45.3232,385.0235l-12.7238-7.3798a4.51643,4.51643,0,0,1,3.3082-3.3083l11.1968,6.6165Z" transform="translate(-21.5299 -271.50001)"/>
        <path class="cls-5" d="M143.6707,410.1771,65.7243,363.9288s-42.0912.5197-39.7528,52.4839l66.7741,40.5322S106.5162,401.3431,143.6707,410.1771Z" transform="translate(-21.5299 -271.50001)"/>
        <path class="cls-6" d="M145.6644,414.1309a32.13856,32.13856,0,0,0-5.2669-.9072,46.20063,46.20063,0,0,0-5.3032-.1807c-1.768.0648-3.5371.1863-5.3004.4219-1.7662.219-3.5228.532-5.3059.8355.8343-.3408,1.686-.6449,2.5434-.938.872-.2319,1.7367-.524,2.6304-.6788a30.91012,30.91012,0,0,1,5.4066-.6552,28.127,28.127,0,0,1,5.4383.4136A17.61155,17.61155,0,0,1,145.6644,414.1309Z" transform="translate(-21.5299 -271.50001)"/>
        <path class="cls-6" d="M146.5481,412.8936a27.08885,27.08885,0,0,1,1.11-8.3968,25.87061,25.87061,0,0,1,1.5453-3.9758,15.66572,15.66572,0,0,1,2.3977-3.5187c-.6313,1.2719-1.1668,2.5482-1.6718,3.8367-.4677,1.3043-.9116,2.612-1.2972,3.9429C147.8542,407.4443,147.2258,410.1465,146.5481,412.8936Z" transform="translate(-21.5299 -271.50001)"/>
        <path class="cls-6" d="M143.8386,415.8961c-1.3047-.0114-2.6046.0187-3.9015.0972-1.2962.0515-2.5912.1254-3.8788.262a69.45888,69.45888,0,0,0-7.6615,1.1088,47.38729,47.38729,0,0,0-7.4005,2.1507,26.80409,26.80409,0,0,0-3.4729,1.6744,28.576,28.576,0,0,0-3.2703,2.1032,21.52187,21.52187,0,0,1,3.007-2.5257,12.99129,12.99129,0,0,1,1.6766-1.0423c.582-.3064,1.1529-.6439,1.7485-.9262a35.15226,35.15226,0,0,1,7.507-2.4282,45.54606,45.54606,0,0,1,7.8185-.8908A41.17547,41.17547,0,0,1,143.8386,415.8961Z" transform="translate(-21.5299 -271.50001)"/>
        <path class="cls-6" d="M42.1762,432.3735l-5.6463-1.2796.9748,4.2652-2.3763-1.2186-8.3376-19.346,4.7223-4.0317,2.4474-.7311,15.4057,15.1518c-.3859,0-15.7916-2.4373-15.7916-2.4373l.7718,2.9553,5.1285,2.8231-4.7426-.518Z" transform="translate(-21.5299 -271.50001)"/>
        <path class="cls-3" d="M51.4409,424.7407l2.4009,1.4005s9.6035-33.0121,38.2141-43.2159l-3.0011-2.0007S61.8447,390.328,51.4409,424.7407Z" transform="translate(-21.5299 -271.50001)"/>
        <path class="cls-3" d="M57.0995,427.5072l2.4009,1.4005s9.6036-33.0122,38.2141-43.2159l-3.0011-2.0008S67.5034,393.0945,57.0995,427.5072Z" transform="translate(-21.5299 -271.50001)"/>
        <path class="cls-3" d="M45.3295,420.6373l2.4009,1.4005s9.6035-33.0122,38.2141-43.2159l-3.0011-2.0008S55.7333,386.2246,45.3295,420.6373Z" transform="translate(-21.5299 -271.50001)"/>
        <path class="cls-3" d="M39.9671,417.1134l2.4009,1.4005s9.6035-33.0121,38.2141-43.2159l-3.0011-2.0007S50.3709,382.7007,39.9671,417.1134Z" transform="translate(-21.5299 -271.50001)"/>
        <path class="cls-5" d="M143.6707,410.1771s7.3169-34.8218,39.6512-41.6805l-81.2648-28.4797s-31.6974-4.1717-36.3328,23.9119Z" transform="translate(-21.5299 -271.50001)"/>
      </g>
      <path class="cls-3" d="M143.6707,410.1771c-6.6024-3.674-13.148-7.4436-19.685-11.2277l-19.547-11.4603L85.0116,375.8268l-9.6711-5.9029-9.6162-5.9951,9.8703,5.567,9.8156,5.6592,19.5461,11.4618,19.4262,11.6638C130.8366,402.2045,137.282,406.143,143.6707,410.1771Z" transform="translate(-21.5299 -271.50001)"/>
      <path class="cls-3" d="M79.2292,441.6303l2.4009,1.4005s9.6035-33.0122,38.2141-43.216l-3.0011-2.0007S89.6331,407.2176,79.2292,441.6303Z" transform="translate(-21.5299 -271.50001)"/>
      <path class="cls-3" d="M85.5579,445.5527l2.4009,1.4006s9.6036-33.0122,38.2141-43.216l-3.0011-2.0007S95.9618,411.1401,85.5579,445.5527Z" transform="translate(-21.5299 -271.50001)"/>
      <path class="cls-3" d="M66.225,421.2365s6.6647-16.7244,19.9939-25.401l13.0778,9.1796a75.40563,75.40563,0,0,0-18.4849,23.892Z" transform="translate(-21.5299 -271.50001)"/>
    </g>
    <g>
      <g>
        <path class="cls-4" d="M242.13509,369.4946c-1.593,6.0845-3.8525,9.6314-6.3993,11.9837-2.5932,2.4078-5.4732,3.5655-8.2329,4.8805a20.23531,20.23531,0,0,0-5.6957,3.7136c-2.56519,2.5097-3.9173,6.0938-5.0008,9.3999-1.6206,4.9546-2.6301,9.298-6.1677,8.5478a3.31343,3.31343,0,0,1-1.7226-.9909,2.48958,2.48958,0,0,1-.2778-.3426,3.89106,3.89106,0,0,1-.25929-.3797,6.30961,6.30961,0,0,1-.71311-1.6392c-1.2132-4.1582.176-11.2243,4.40811-16.0585a15.16947,15.16947,0,0,1,4.71389-3.6858c.4908-.2408.991-.4908,1.491-.7502,7.7236-3.8989,15.688-8.8627,17.892-18.5403a27.41354,27.41354,0,0,0,.3243-9.8166c0-.0278-.00919-.0557-.00919-.0834a29.66933,29.66933,0,0,0-2.47281-8.5479c-.1018-.2037-.1944-.4167-.2963-.6205-.0927-.2037-.2037-.4074-.3057-.6112-.2129-.3982-.4259-.7964-.64819-1.1761a31.006,31.006,0,0,0-2.59311-3.797c-.1666-.2037-.3334-.4074-.5001-.6019a35.53938,35.53938,0,0,0-2.9542-3.1117c-.1574-.1574-.3241-.3057-.4817-.4353-.3516-.3149-.713-.6204-1.0556-.9168a33.00534,33.00534,0,0,0-6.6955-4.4175c-.0464-.0185-.0649-.0278-.0649-.0278l1.1297-4.899a40.80707,40.80707,0,0,1,12.96541,9.0757c.64819.6761,1.26869,1.3707,1.86149,2.0744.2963.3613.5834.7224.8704,1.0836.2037.25.3983.5093.5835.7687.0833.1018.1574.2129.2409.3241a.01285.01285,0,0,1,0,.0185c.1296.176.2592.3334.3796.5094v.0093q.18045.2637.36111.5278a38.62757,38.62757,0,0,1,2.84309,4.9916h.0093c.2872.602.5557,1.204.8151,1.8244a.009.009,0,0,1,.0092.0093c.1297.3149.2592.639.3797.9632A34.01742,34.01742,0,0,1,242.13509,369.4946Z" transform="translate(-21.5299 -271.50001)"/>
        <path class="cls-7" d="M242.19049,369.5594c-1.58349,6.0753-3.8432,9.6222-6.3806,11.9838-2.62089,2.4355-5.5381,3.5931-8.3256,4.9267a19.95457,19.95457,0,0,0-5.6214,3.6767c-2.5468,2.5004-3.89889,6.0473-4.9731,9.335-1.6392,4.9823-2.6486,9.3628-6.1957,8.6034a3.21261,3.21261,0,0,1-1.778-1.0558,2.48958,2.48958,0,0,1-.2778-.3426,3.89106,3.89106,0,0,1-.25929-.3797,6.98565,6.98565,0,0,1-.69451-1.667c-1.1577-4.1767.25-11.1873,4.4544-15.9843a15.15616,15.15616,0,0,1,4.7046-3.6581c.4908-.2408.9816-.4816,1.4724-.7409,7.7607-3.9174,15.7528-8.909,17.9293-18.6701a27.72735,27.72735,0,0,0,.2964-9.7054c-.0093-.0371-.0093-.0834-.0187-.1205a29.01467,29.01467,0,0,0-2.5097-8.5756c-.0926-.2129-.1853-.4167-.2963-.6205-.0927-.2037-.2037-.4074-.3057-.6112-.2129-.3982-.4259-.7964-.64819-1.1761a31.006,31.006,0,0,0-2.59311-3.797c-.1666-.2037-.3334-.4074-.5001-.6019a35.53938,35.53938,0,0,0-2.9542-3.1117c-.1574-.1482-.3241-.2963-.4817-.4353-.3516-.3149-.713-.6204-1.0556-.9168a32.14837,32.14837,0,0,0-6.7048-4.3711l.0093-.0464,1.1204-4.8527a40.87144,40.87144,0,0,1,12.90981,9.0016c.64819.6761,1.26869,1.3707,1.86149,2.0744.2963.3613.5834.7224.8704,1.0836.2037.25.3983.5093.5835.7687.0833.1018.1574.2129.2409.3241a.01285.01285,0,0,1,0,.0185c.1296.176.2592.3334.3796.5094v.0093q.18045.2637.36111.5278a36.72163,36.72163,0,0,1,2.86169,4.9916c.2871.602.5556,1.2133.8058,1.8244a.009.009,0,0,1,.0092.0093c.1297.3149.2592.639.3797.9632A33.88663,33.88663,0,0,1,242.19049,369.5594Z" transform="translate(-21.5299 -271.50001)"/>
        <path class="cls-8" d="M216.88979,399.4816c-1.6392,4.9823-2.6486,9.3628-6.1957,8.6034a3.21261,3.21261,0,0,1-1.778-1.0558,2.48958,2.48958,0,0,1-.2778-.3426,3.89106,3.89106,0,0,1-.25929-.3797,6.30961,6.30961,0,0,1-.71311-1.6392c.0092-.0092.0186-.0186.0186-.0278,1.79651-2.2874,4.973-5.2509,9.1219-5.1676A.25538.25538,0,0,1,216.88979,399.4816Z" transform="translate(-21.5299 -271.50001)"/>
        <path class="cls-8" d="M217.82509,389.9613c-2.1114,1.028-4.4544-.3612-5.6862-1.3057a.16782.16782,0,0,1-.06489-.0464,15.16947,15.16947,0,0,1,4.71389-3.6858c.4908-.2408.991-.4908,1.491-.7502a.32424.32424,0,0,1,.037.0834C219.05669,386.0254,219.89029,388.9519,217.82509,389.9613Z" transform="translate(-21.5299 -271.50001)"/>
        <path class="cls-8" d="M235.80989,381.5432c-2.62089,2.4355-5.5381,3.5931-8.3256,4.9267a.46363.46363,0,0,1,.0186-.1111,7.024,7.024,0,0,1,3.8153-5.4269,3.96135,3.96135,0,0,1,4.4176.5464A.4577.4577,0,0,1,235.80989,381.5432Z" transform="translate(-21.5299 -271.50001)"/>
        <path class="cls-8" d="M236.24519,365.5865a.32951.32951,0,0,0-.0743.0464,27.41354,27.41354,0,0,0,.3243-9.8166c0-.0278-.00919-.0557-.00919-.0834.00919.0092.02769.0185.03689.0277,1.4263.9817,3.3524,2.6765,3.584,4.7509C240.36619,362.873,237.78239,364.7068,236.24519,365.5865Z" transform="translate(-21.5299 -271.50001)"/>
        <path class="cls-8" d="M239.67169,345.9533h-.0186c-1.4353-.0833-2.9634-.5185-3.5746-1.8429a6.55,6.55,0,0,1-.0092-4.1952c.1296.176.2592.3334.3796.5094v.0093q.18045.2637.36111.5278A36.72163,36.72163,0,0,1,239.67169,345.9533Z" transform="translate(-21.5299 -271.50001)"/>
      </g>
      <g>
        <path class="cls-4" d="M164.5799,370.9739s1.2532,18.015,22.5578,18.1717c0,0-5.1694,13.4718,1.4099,18.3281,6.5794,4.8562,1.8798-11.9055,5.6395-15.9784,3.75959-4.073,6.89259-8.4592,1.8797-12.5322,0,0,15.97849-12.8453,6.42279-26.1607S164.5799,370.9739,164.5799,370.9739Z" transform="translate(-21.5299 -271.50001)"/>
        <path class="cls-7" d="M164.5529,371.0073s1.2533,18.0149,22.5579,18.1715c0,0-5.1695,13.4721,1.4099,18.3281,6.5793,4.8563,1.8798-11.9054,5.6395-15.9784,3.7596-4.0728,6.89249-8.4591,1.8797-12.532,0,0,15.97849-12.8454,6.42279-26.1609C192.9069,339.5203,164.5529,371.0073,164.5529,371.0073Z" transform="translate(-21.5299 -271.50001)"/>
        <path class="cls-8" d="M192.3428,405.073a4.475,4.475,0,0,1-3.1614-3.8052" transform="translate(-21.5299 -271.50001)"/>
      </g>
      <g>
        <path class="cls-4" d="M82.5655,355.556a66.69894,66.69894,0,0,0-18.4186,16.5227c-7.8549,10.5635-1.625,18.6895,4.063,18.6895,5.6881,0,21.3981-17.3352,33.316-19.5022,11.9179-2.1669.5417-20.5855.5417-20.5855Z" transform="translate(-21.5299 -271.50001)"/>
        <path class="cls-7" d="M82.5907,355.5363A66.69565,66.69565,0,0,0,64.172,372.0589c-7.855,10.5636-1.6252,18.6894,4.0629,18.6894,5.6882,0,21.3981-17.3351,33.316-19.5021,11.9181-2.1668.5418-20.5854.5418-20.5854Z" transform="translate(-21.5299 -271.50001)"/>
        <path class="cls-8" d="M67.2989,390.6772a8.33058,8.33058,0,0,1-.2829-2.2838,10.79182,10.79182,0,0,1,.2371-2.2908,8.08542,8.08542,0,0,1,.792-2.1949,4.21534,4.21534,0,0,1,1.5794-1.7187,10.39352,10.39352,0,0,0-.851,2.0309c-.2132.6842-.3818,1.3867-.5284,2.097C67.9216,387.7361,67.7049,389.1845,67.2989,390.6772Z" transform="translate(-21.5299 -271.50001)"/>
        <path class="cls-8" d="M61.3689,386.026a5.49241,5.49241,0,0,1-.0286-1.9662,7.73017,7.73017,0,0,1,.5382-1.8947,5.50493,5.50493,0,0,1,2.6299-2.8831c-.3229.5898-.6469,1.1028-.9239,1.6493-.2684.5471-.549,1.0768-.7757,1.6396C62.3148,383.6808,61.9075,384.8204,61.3689,386.026Z" transform="translate(-21.5299 -271.50001)"/>
      </g>
      <path class="cls-4" d="M219.78809,314.9872a27.04868,27.04868,0,0,0-3.0975-7.6063,28.56013,28.56013,0,0,0-6.4994-7.5353,35.25139,35.25139,0,0,0-6.0729-4.0418c-.28429-.1524-.5788-.3148-.8835-.457a35.13575,35.13575,0,0,0-7.36269-2.7014,41.94072,41.94072,0,0,0-7.8094-1.1678,55.81417,55.81417,0,0,0-11.2521.5078,70.80674,70.80674,0,0,0-7.647,1.4928,87.61215,87.61215,0,0,0-18.5336,6.8853,32.60247,32.60247,0,0,0-10.0436-.6905l-.2742.0304a30.93507,30.93507,0,0,0-8.2868,2.0311c-.0304.0102-.0507.0203-.0812.0305a28.964,28.964,0,0,0-6.3572,3.4629c-.457.3352-.6906.5383-.6906.5383a37.4635,37.4635,0,0,0-5.7784-3.1584,42.72884,42.72884,0,0,0-9.1601-2.7419,25.64507,25.64507,0,0,0-2.8029-.3757s-.0102.4468.0203,1.2593l.0002.0055c-4.4757-.179-9.7566,1.1192-15.7621,3.9567-.1435.0673-.2872.1347-.4272.2087-1.3417.6411-2.712,1.3573-4.1243,2.1553l-.0067.0036c-.5762.3303-1.1554.6707-1.7481,1.0182q-3.81945,2.2884-7.9465,5.2857c-.0862.0627-.1757.1356-.2621.1982-.302.2194-.6072.4491-.8922.6682-.7959.6085-1.5448,1.2093-2.2497,1.8123a4.78958,4.78958,0,0,0-.3871.3327c-.0366.0279-.0762.0658-.1127.0936a34.65189,34.65189,0,0,0-6.9569,7.9959,19.7942,19.7942,0,0,0-3.0571,11.9828q.0291.394.0783.7776a22.43309,22.43309,0,0,0,.5656,3.0539,1.20888,1.20888,0,0,0,.0402.1408c.1297.5031.2827,1.0023.439,1.4913.0794.2312.1553.4554.2379.6762a33.58276,33.58276,0,0,0,1.4078,3.2912c.0567.1236.1166.237.1766.3502.0567.1237.1201.2436.1802.357.2962.5601.6017,1.0895.9234,1.5848a.31611.31611,0,0,0,.0454.0699,20.97458,20.97458,0,0,0,1.2382,1.7767c.1947.2555.3927.5006.587.7391a24.71389,24.71389,0,0,0,9.3409,6.7578c6.966,3.0963,22.1035,1.4382,22.1035,1.4382s6.939-7.0855,16.5168-18.9795l.0039.0078a63.31718,63.31718,0,0,0,23.0933,25.3478c.6296.3859,1.2491.7515,1.8686,1.0866,29.8161,16.929,47.9028-5.4636,50.7361-9.3429.2539-.3454.3859-.5484.3859-.5484a28.97687,28.97687,0,0,1,4.5192.0203h.0305c4.39719.2132,10.47019.5077,14.87759-1.3913a3.61235,3.61235,0,0,0,1.98031-2.417c1.45219-5.7479,3.341-11.5161,4.641-17.3453C220.76289,328.697,221.46369,321.9132,219.78809,314.9872Z" transform="translate(-21.5299 -271.50001)"/>
      <path class="cls-9" d="M188.7736,357.9926a32.82657,32.82657,0,0,1,4.047-.8984c-2.8245,3.8804-20.9112,26.264-50.7314,9.3444,4.8898-1.63,13.6135-5.9641,15.9566-16.4105,4.5286-.9353,12.7245-3.2691,18.9015-8.7052a17.9321,17.9321,0,0,0,6.2882,5.1121s-9.1127,3.0931-9.761,7.9735a6.498,6.498,0,0,0-.0185,1.843C173.9653,359.7984,178.0865,361.0764,188.7736,357.9926Z" transform="translate(-21.5299 -271.50001)"/>
      <path class="cls-10" d="M111.4964,334.9093c.1771-.6835.3635-1.3628.5232-2.0484.1643-.6836.3289-1.3677.437-2.0551l.0694-.4421.2385.3931a2.74679,2.74679,0,0,0,.3555.4711c.1265.1376.3.2463.3798.2293a.18647.18647,0,0,0,.1154-.0808.32046.32046,0,0,0,.0292-.1821,2.06592,2.06592,0,0,0-.1343-.5512,8.061,8.061,0,0,0-.5277-1.1089,8.27041,8.27041,0,0,0-.6679-1.0246l-.475-.5984.7232.2373a4.39375,4.39375,0,0,0,.9232.2049c.3039.0308.6221-.0058.6853-.1701a1.00345,1.00345,0,0,0-.1082-.7794,4.889,4.889,0,0,0-.4897-.8185l-.0811-.1116.0743-.1034a10.03467,10.03467,0,0,0,1.0949-1.9905,8.57413,8.57413,0,0,0,.3897-1.0778,9.27146,9.27146,0,0,0,.2464-1.1265,7.84894,7.84894,0,0,1-.4248,2.2848,10.20825,10.20825,0,0,1-1.0181,2.1156l-.0069-.2147a4.25879,4.25879,0,0,1,.5773.8729,2.22012,2.22012,0,0,1,.1854.5188.96676.96676,0,0,1-.0561.6269.68652.68652,0,0,1-.2378.2704.9312.9312,0,0,1-.3048.1216,1.98023,1.98023,0,0,1-.5642.0244,4.82345,4.82345,0,0,1-1.0322-.2172l.2482-.361a8.14885,8.14885,0,0,1,.7079,1.0994,7.50605,7.50605,0,0,1,.5427,1.1843,2.43754,2.43754,0,0,1,.1404.6805.69674.69674,0,0,1-.1104.4242.57217.57217,0,0,1-.4076.2415.88284.88284,0,0,1-.6863-.3739,3.05688,3.05688,0,0,1-.3764-.5598l.308-.0489c-.1529.6981-.3449,1.379-.563,2.052C111.9925,333.5872,111.7637,334.2554,111.4964,334.9093Z" transform="translate(-21.5299 -271.50001)"/>
      <g>
        <g>
          <path class="cls-1" d="M86.0236,409.3216c-2.7098-3.896,1.9634-16.0493,1.4013-21.4169l-.0021-.0123a5.07577,5.07577,0,0,0-.2772-1.2236,6.13,6.13,0,0,1,.4002-4.6923.01208.01208,0,0,1,.01-.0143c.1925-.4115.4115-.8151.6347-1.1944a17.48488,17.48488,0,0,1,1.4883-2.0741q.28185-.33255.5334-.6224c.0324-.0308.0526-.0596.0849-.0903a10.05633,10.05633,0,0,1,.9709-1.0012.49074.49074,0,0,0,.0747-.0761l.0697.0382,24.2225,13.7565-.0706.1006a.55724.55724,0,0,1-.0806.115l-.2521.3589c-.0382.0697-.1008.1435-.1612.2297-.2823.4021-.7021.9543-1.2089,1.5845-.1935.2606-.3994.5233-.6197.776-.1656.2053-.3433.4127-.519.6324-.0928.1171-.1879.2219-.2929.3411-.283.3264-.5759.6675-.8832.9983-1.9467,2.1168-4.2413,4.118-6.015,4.2018a1.41073,1.41073,0,0,1-.4162-.0027C102.008,399.621,88.9544,413.5438,86.0236,409.3216Z" transform="translate(-21.5299 -271.50001)"/>
          <path class="cls-11" d="M85.963,409.4076c-2.757-3.9506,2.1112-16.4277,1.3709-21.6633a4.39855,4.39855,0,0,0-.2487-.9892,6.06847,6.06847,0,0,1,.4606-4.7786.01208.01208,0,0,1,.01-.0143c.1925-.4115.4115-.8151.6347-1.1944a17.48488,17.48488,0,0,1,1.4883-2.0741q.28185-.33255.5334-.6224c.0324-.0308.0526-.0596.0849-.0903.5721-.6166.9852-.9911.9852-.9911l24.282,13.8091a.55724.55724,0,0,1-.0806.115l-.2521.3589c-.0382.0697-.1008.1435-.1612.2297-.2823.4021-.7021.9543-1.2089,1.5845-.1935.2606-.3994.5233-.6197.776-.1656.2053-.3433.4127-.519.6324-.0928.1171-.1879.2219-.2929.3411-.2808.3388-.5759.6675-.8832.9983-1.795,1.9768-3.8844,3.8541-5.6212,4.2211a2.20651,2.20651,0,0,1-.8704.0642C101.9374,399.7216,88.896,413.6423,85.963,409.4076Z" transform="translate(-21.5299 -271.50001)"/>
        </g>
        <path class="cls-12" d="M105.9255,400.056a1.92,1.92,0,0,1-.3938-.0193c-8.8572-.6658-15.2075-8.0175-18.1068-12.132l-.0021-.0123a.87394.87394,0,0,1-.0889-.1481,4.39855,4.39855,0,0,0-.2487-.9892,6.06847,6.06847,0,0,1,.4606-4.7786.01208.01208,0,0,1,.01-.0143c.1925-.4115.4115-.8151.6347-1.1944a17.48488,17.48488,0,0,1,1.4883-2.0741q.28185-.33255.5334-.6224c.0324-.0308.0526-.0596.0849-.0903a10.05633,10.05633,0,0,1,.9709-1.0012l.1444-.0379,24.2225,13.7565-.0706.1006a.55724.55724,0,0,1-.0806.115l-.2521.3589c-.0382.0697-.1008.1435-.1612.2297-.2823.4021-.7021.9543-1.2089,1.5845-.1935.2606-.3994.5233-.6197.776-.1656.2053-.3433.4127-.519.6324-.0928.1171-.1879.2219-.2929.3411-.2808.3388-.5759.6675-.8832.9983C109.7517,397.8117,107.6623,399.689,105.9255,400.056Z" transform="translate(-21.5299 -271.50001)"/>
        <path class="cls-1" d="M114.1483,394.7361s-19.2176,3.5916-24.9898-20.5435c0,0,5.4334-7.4774,13.4964-18.4257.7249-.9827,1.4646-1.9988,2.2343-3.0202q5.1096-6.9414,10.2512-13.878,5.6427-7.60695,11.319-15.1991,5.7399-7.67025,11.5168-15.3058,5.40375-7.1166,10.8682-14.1819,4.61415-5.97315,9.3378-11.852c2.261-2.8084,4.5438-5.6102,6.9494-8.2996a10.69236,10.69236,0,0,1,2.157-2.0479,3.42618,3.42618,0,0,1,2.7537-.3481,34.803,34.803,0,0,1,22.0623,17.6023c.0798.1613.1614.3326.2411.4939a3.03173,3.03173,0,0,1,.316,1.2746,2.98672,2.98672,0,0,1-.5925,1.8565c-6.2429,8.3305-38.4998,51.3308-60.4452,80.2673-.9234,1.203-1.8286,2.3925-2.7073,3.5567C122.9116,384.49,117.7314,390.8818,114.1483,394.7361Z" transform="translate(-21.5299 -271.50001)"/>
        <path class="cls-8" d="M128.912,376.686c-3.3782-.0886-16.981-1.6743-26.2573-20.9193.7221-.9828,1.4645-1.9945,2.229-3.0226,3.1038,5.9302,12.0349,20.1097,26.7426,20.3811C130.7039,374.3321,129.7918,375.5244,128.912,376.686Z" transform="translate(-21.5299 -271.50001)"/>
        <path class="cls-12" d="M192.6617,291.0051c-12.6994.9554-23.307-14.2295-25.3731-19.0227a3.42618,3.42618,0,0,1,2.7537-.3481,34.803,34.803,0,0,1,22.0623,17.6023c.0798.1613.1614.3326.2411.4939A3.03173,3.03173,0,0,1,192.6617,291.0051Z" transform="translate(-21.5299 -271.50001)"/>
        <path class="cls-12" d="M144.9671,336.8111c-10.3633,14.2443-20.9759,24.1828-23.7038,22.1981-2.7279-1.9846,3.4619-15.1408,13.8252-29.3852,10.3634-14.2443,20.976-24.1827,23.7039-22.198C161.5202,309.4106,155.3305,322.5668,144.9671,336.8111Z" transform="translate(-21.5299 -271.50001)"/>
      </g>
      <path class="cls-4" d="M74.3666,316.0522a40.59225,40.59225,0,0,1-2.5275,5.2845,16.25967,16.25967,0,0,1-1.5658,2.2502c-.8894,1.0406-1.8322,1.6947-2.7247,1.4688a4.51633,4.51633,0,0,1-1.2463-.5703c-.0467-.0265-.0968-.0569-.1398-.0865a15.79414,15.79414,0,0,1-5.4247-6.8633,2.85765,2.85765,0,0,1-.1579-1.5785,1.03386,1.03386,0,0,1,.2165-.4172c1.6364-1.8902,4.1078-2.0853,6.3222-1.4268,1.5222.4513,3,1.3102,4.5673,1.6098.1187.0201,1.1417.2248,1.8922.3211l.1756.0192C74.0801,316.1024,74.3252,316.1045,74.3666,316.0522Z" transform="translate(-21.5299 -271.50001)"/>
      <path class="cls-4" d="M112.2173,301.6934c-.2176.1041-14.5581,6.8185-17.3778,2.9857a8.23716,8.23716,0,0,1-.7116-1.1661c-1.9758-3.8753-1.1807-9.2503.255-10.2487l.0039-.0031c1.5856-1.0994,4.733,1.7523,7.6542,3.5872A99.56,99.56,0,0,0,112.2173,301.6934Z" transform="translate(-21.5299 -271.50001)"/>
      <path class="cls-8" d="M102.9987,301.6756a17.90671,17.90671,0,0,0-5.9221.7595,22.58568,22.58568,0,0,0-2.9487,1.0779c-1.9758-3.8753-1.1807-9.2504.255-10.2487l.0039-.0031a7.77782,7.77782,0,0,1,2.7862,3.8149,7.064,7.064,0,0,0,.3233.6826A7.60963,7.60963,0,0,0,102.9987,301.6756Z" transform="translate(-21.5299 -271.50001)"/>
      <path class="cls-8" d="M70.4621,319.0701s-1.7595,2.1045-3.162,3.8712c-.4324.5394-.8337,1.0536-1.1376,1.4576a15.79414,15.79414,0,0,1-5.4247-6.8633,2.85765,2.85765,0,0,1-.1579-1.5785s.9685-.2068,2.8068,1.0934c.6697.4752,1.2942.9417,1.9195,1.3376A5.36313,5.36313,0,0,0,70.4621,319.0701Z" transform="translate(-21.5299 -271.50001)"/>
      <path class="cls-11" d="M106.5564,338.2338a3.5936,3.5936,0,0,0,3.0862,4.3136,6.54368,6.54368,0,0,0,6.5363-5.3173c.2687-2.491-2.6352-4.7722-4.5184-4.2735a6.97567,6.97567,0,0,0-3.7854,2.749A7.40444,7.40444,0,0,0,106.5564,338.2338Z" transform="translate(-21.5299 -271.50001)"/>
      <path class="cls-11" d="M84.2937,348.4248a4.41111,4.41111,0,0,1,2.6187,5.0279,5.02233,5.02233,0,0,1-6.7652,3.0744c-2.2135-1.0643-3.1635-4.864-2.0946-6.2912a5.15026,5.15026,0,0,1,3.6367-1.9534A6.00608,6.00608,0,0,1,84.2937,348.4248Z" transform="translate(-21.5299 -271.50001)"/>
      <path class="cls-8" d="M85.1054,308.1005c-.6721,2.5967-.398,5.6778-.2436,8.0345.0823,1.2928.2326,2.5823.4267,3.8623a3.14584,3.14584,0,0,1-.7662,2.8072,3.25443,3.25443,0,0,1-3.5173.3293,6.37068,6.37068,0,0,1-2.9765-3.2774,12.77419,12.77419,0,0,1-1.1293-6.2791c.085-.0617.1739-.1268.2628-.1917Q81.2888,310.38125,85.1054,308.1005Z" transform="translate(-21.5299 -271.50001)"/>
      <path class="cls-8" d="M70.2738,345.072a6.5922,6.5922,0,0,1-3.902,1.5354c-.0619-.1169-.1236-.234-.1848-.358-.0587-.1131-.1206-.2302-.1785-.3502a33.10946,33.10946,0,0,1-1.4064-3.294C68.1574,343.0977,72.175,343.264,70.2738,345.072Z" transform="translate(-21.5299 -271.50001)"/>
      <path class="cls-8" d="M71.863,348.3219a6.52729,6.52729,0,0,1-2.6976,2.4533q-.2967-.3579-.5913-.7369c-.4263-.5551-.8419-1.1448-1.2386-1.7749-.0149-.0265-.0307-.0461-.0453-.0726C69.9415,347.2937,72.6559,346.6344,71.863,348.3219Z" transform="translate(-21.5299 -271.50001)"/>
      <path class="cls-8" d="M66.5014,340.1001a5.18145,5.18145,0,0,1-2.5726.3404,1.45463,1.45463,0,0,1-.0416-.1397,22.60235,22.60235,0,0,1-.5683-3.0562C65.8333,338.1813,68.1132,339.313,66.5014,340.1001Z" transform="translate(-21.5299 -271.50001)"/>
      <path class="cls-8" d="M90.9869,304.9185c-.126.7615-.2691,1.6132-.3595,2.2436-.2826,1.996-.2889,4.52-1.027,5.2853-1.541,1.6021-3.4456.3232-3.4683-2.261a7.44647,7.44647,0,0,1,.7243-3.1068l.004-.0031Q88.97585,305.8789,90.9869,304.9185Z" transform="translate(-21.5299 -271.50001)"/>
      <path class="cls-8" d="M76.004,314.2508c-.1362,1.8272.1983,4.5201-.5426,5.4737-1.1174,1.4351-2.9785,1.057-2.892-.1532a11.18787,11.18787,0,0,1,.6862-3.0826Q74.5348,315.3754,76.004,314.2508Z" transform="translate(-21.5299 -271.50001)"/>
      <path class="cls-10" d="M76.1719,356.4662c.6664.3033,1.3328.6035,2.0106.8705.337.1374.6772.2655,1.0201.378a4.0254,4.0254,0,0,0,1.0255.221l.0818.0034.0481.0742a4.70449,4.70449,0,0,0,.5707.735c.2026.2131.4886.4061.6516.3362.0783-.0312.108-.0689.1052-.1999a1.35584,1.35584,0,0,0-.1106-.4037,4.72457,4.72457,0,0,0-.4581-.8036l-.4418-.6483.6872.3707a8.29012,8.29012,0,0,0,.929.4295,3.75546,3.75546,0,0,0,.9604.2563.736.736,0,0,0,.416-.0525c.1136-.0635.1863-.1492.164-.2489a1.40642,1.40642,0,0,0-.5901-.6847l-.3343-.2368.3998-.011a16.03547,16.03547,0,0,0,1.7373-.1586,8.78851,8.78851,0,0,0,1.7041-.4022,7.50468,7.50468,0,0,1-1.6734.5661,13.27536,13.27536,0,0,1-1.7559.2631l.0655-.2479a2.74091,2.74091,0,0,1,.4415.3395,1.0562,1.0562,0,0,1,.3239.5181.502.502,0,0,1-.0678.364.68893.68893,0,0,1-.2503.2339,1.05962,1.05962,0,0,1-.6047.1086,3.68885,3.68885,0,0,1-1.0677-.261,8.62385,8.62385,0,0,1-.9802-.4429l.2451-.2775a4.5955,4.5955,0,0,1,.4975.8831,1.692,1.692,0,0,1,.1345.5311c-.0021.0536-.0026.1061-.0099.1606a.7317.7317,0,0,1-.0608.1711.51374.51374,0,0,1-.2876.2312.73285.73285,0,0,1-.6119-.1019,2.076,2.076,0,0,1-.4053-.3438,4.52612,4.52612,0,0,1-.5929-.8154l.1296.0775a4.23858,4.23858,0,0,1-1.0996-.2925c-.3453-.1338-.6828-.2814-1.0153-.4376C77.4437,357.1935,76.7962,356.85,76.1719,356.4662Z" transform="translate(-21.5299 -271.50001)"/>
      <g>
        <g>
          <path class="cls-2" d="M111.5049,331.7071a9.85,9.85,0,0,1-6.4031,5.6387,5.51809,5.51809,0,0,1-1.7697.1191,9.83859,9.83859,0,0,1-6.6504-4.2133c-.0376-.0468-.0711-.0967-.105-.1467a7.2866,7.2866,0,0,1-.3375-7.3054c1.3885-2.7103,4.402-5.353,7.6244-5.0036a8.33331,8.33331,0,0,1,3.7107,1.4448l.0038-.0031C110.6644,324.3183,112.8612,328.2535,111.5049,331.7071Z" transform="translate(-21.5299 -271.50001)"/>
          <path class="cls-8" d="M111.5049,331.7071a10.41757,10.41757,0,0,1-4.6776,5.0694,7.34444,7.34444,0,0,1-2.228.7759,5.94392,5.94392,0,0,1-2.3746-.1235,9.24691,9.24691,0,0,1-2.2228-.8597,10.802,10.802,0,0,1-3.5847-3.1371l.0147.02a7.38084,7.38084,0,0,1-1.3061-5.3701,7.60188,7.60188,0,0,1,.8915-2.661,10.98235,10.98235,0,0,1,1.6373-2.242,8.21711,8.21711,0,0,1,4.8178-2.6228,6.20159,6.20159,0,0,1,2.7548.3095,9.20354,9.20354,0,0,1,2.4326,1.2491l-.1809.0071.004-.0029.0916-.0704.0887.0629a10.823,10.823,0,0,1,2.0446,1.8891,10.6173,10.6173,0,0,1,1.4857,2.3363,7.98577,7.98577,0,0,1,.7087,2.6608A6.01055,6.01055,0,0,1,111.5049,331.7071Zm0,0a5.99823,5.99823,0,0,0,.3722-2.7075,7.44794,7.44794,0,0,0-.7591-2.6271,9.428,9.428,0,0,0-1.547-2.252,10.58166,10.58166,0,0,0-2.0781-1.7566l.1805-.0074-.0037.0031-.0834.0699-.0977-.0626a8.83927,8.83927,0,0,0-2.3855-1.0955,5.71454,5.71454,0,0,0-2.5554-.1768,6.69771,6.69771,0,0,0-2.3802.9257,9.02368,9.02368,0,0,0-1.9823,1.6559,8.72234,8.72234,0,0,0-2.318,4.5129,7.58076,7.58076,0,0,0-.0739,1.273,7.85871,7.85871,0,0,0,.1571,1.2656,6.56677,6.56677,0,0,0,.385,1.217c.0752.2003.1824.3855.274.5783.1072.1753.2169.3855.3221.528l.0147.02a10.27427,10.27427,0,0,0,3.2701,3.121,8.88364,8.88364,0,0,0,2.0912.9168,5.66268,5.66268,0,0,0,2.2614.2181,8.23723,8.23723,0,0,0,4.1536-1.9224A9.5868,9.5868,0,0,0,111.5049,331.7071Z" transform="translate(-21.5299 -271.50001)"/>
        </g>
        <path class="cls-8" d="M106.7373,334.2551a5.95366,5.95366,0,0,0,2.9933-5.2418,6.05821,6.05821,0,0,0-11.3323-2.7067c-2.3449,4.2702,2.2294,9.4018,6.7439,8.5584A4.96524,4.96524,0,0,0,106.7373,334.2551Z" transform="translate(-21.5299 -271.50001)"/>
        <path class="cls-13" d="M107.5743,322.2407c-9.7888,2.3308-10.8035,10.0357-10.8926,11.0109-.0376-.0468-.0711-.0967-.105-.1467a7.2866,7.2866,0,0,1-.3375-7.3054c1.3885-2.7103,4.402-5.353,7.6244-5.0036A8.33331,8.33331,0,0,1,107.5743,322.2407Z" transform="translate(-21.5299 -271.50001)"/>
      </g>
      <g>
        <g>
          <path class="cls-2" d="M84.471,343.7387c.4168,2.364-1.1411,4.64-2.9457,5.9855a4.9665,4.9665,0,0,1-.7878.4719c-3.3062,1.583-7.9691-.8727-9.0574-4.3454a4.85253,4.85253,0,0,1-.2243-1.1019c-.2782-3.302,2.7629-7.076,6.1292-7.2905a4.44129,4.44129,0,0,1,2.3243.6601,9.81387,9.81387,0,0,1,1.4435.9761A8.25879,8.25879,0,0,1,84.471,343.7387Z" transform="translate(-21.5299 -271.50001)"/>
          <path class="cls-8" d="M84.471,343.7387a4.98169,4.98169,0,0,1,.0482,1.2646,5.40781,5.40781,0,0,1-.2803,1.2363,7.22228,7.22228,0,0,1-1.2643,2.1968,8.964,8.964,0,0,1-.8761.9294,6.05187,6.05187,0,0,1-1.0191.7872,5.51329,5.51329,0,0,1-2.4853.7157,7.61526,7.61526,0,0,1-4.8813-1.6352,7.51657,7.51657,0,0,1-1.7856-1.9531l-.3167-.5938c-.0924-.204-.167-.4167-.2501-.6252a4.8343,4.8343,0,0,1-.2859-1.328,7.05445,7.05445,0,0,1,1.7631-4.916,7.75973,7.75973,0,0,1,2.002-1.6951,5.963,5.963,0,0,1,2.4813-.8231,3.14951,3.14951,0,0,1,1.3166.1214,5.70526,5.70526,0,0,1,1.1908.5171,10.74934,10.74934,0,0,1,2.045,1.5285,10.1186,10.1186,0,0,1,1.6364,1.9405A6.35215,6.35215,0,0,1,84.471,343.7387Zm0,0a7.69564,7.69564,0,0,0-2.6692-4.1927,9.95422,9.95422,0,0,0-2.0861-1.3948,3.81711,3.81711,0,0,0-2.3524-.4708,6.44107,6.44107,0,0,0-4.0135,2.5513,7.55139,7.55139,0,0,0-1.1689,2.1105,5.62736,5.62736,0,0,0-.3457,2.3322,4.082,4.082,0,0,0,.2337,1.1457c.0725.1842.1348.373.2141.5544l.2741.5287a7.05693,7.05693,0,0,0,1.5665,1.8195,7.17357,7.17357,0,0,0,4.4636,1.766,5.20761,5.20761,0,0,0,2.3751-.5436,5.83621,5.83621,0,0,0,1.0258-.7058,7.33605,7.33605,0,0,0,.9058-.8718,6.88914,6.88914,0,0,0,1.3178-2.1377,5.38623,5.38623,0,0,0,.2931-1.228A4.97,4.97,0,0,0,84.471,343.7387Z" transform="translate(-21.5299 -271.50001)"/>
        </g>
        <path class="cls-8" d="M78.0273,348.5573c.1893.0084,2.2788.507,4.0989-2.0408,1.82-2.5476-.7806-5.412-1.9072-6.1382a4.34536,4.34536,0,0,0-6.1031.9728C71.9654,344.164,74.771,348.4123,78.0273,348.5573Z" transform="translate(-21.5299 -271.50001)"/>
        <path class="cls-13" d="M81.3528,339.0945c-4.6138.6004-8.0631,4.5287-9.6727,6.7562a4.85253,4.85253,0,0,1-.2243-1.1019c-.2782-3.302,2.7629-7.076,6.1292-7.2905a4.44129,4.44129,0,0,1,2.3243.6601A9.81387,9.81387,0,0,1,81.3528,339.0945Z" transform="translate(-21.5299 -271.50001)"/>
      </g>
      <path class="cls-8" d="M76.4307,359.0615a40.56323,40.56323,0,0,1,2.4594-3.3842,40.08537,40.08537,0,0,1,2.7576-3.1462,40.1101,40.1101,0,0,1-2.4594,3.3844A40.61961,40.61961,0,0,1,76.4307,359.0615Z" transform="translate(-21.5299 -271.50001)"/>
      <path class="cls-8" d="M73.78,356.8141a37.83453,37.83453,0,0,1,3.0846-2.6091,37.414,37.414,0,0,1,3.317-2.3064,37.40622,37.40622,0,0,1-3.0846,2.6091A37.83937,37.83937,0,0,1,73.78,356.8141Z" transform="translate(-21.5299 -271.50001)"/>
      <path class="cls-8" d="M71.9899,352.8884a37.83639,37.83639,0,0,1,3.9175-.9868,37.3618,37.3618,0,0,1,3.9933-.613,37.367,37.367,0,0,1-3.9176.9869A37.84073,37.84073,0,0,1,71.9899,352.8884Z" transform="translate(-21.5299 -271.50001)"/>
      <path class="cls-2" d="M97.2949,300.7984a3.26044,3.26044,0,0,1-1.1405.5434c-.3474-.0096.7964-.9722.7964-.9722-.7812.2165-1.8043-.084-1.6148-.2555a3.84189,3.84189,0,0,1,1.2753-.2157c-1.5349-.4668-2.2835-2.4298-1.4184-2.9575.3697-.2261,1.3298.2274,2.3034.8178a7.60963,7.60963,0,0,0,5.5024,3.9169,17.90671,17.90671,0,0,0-5.9221.7595A2.44044,2.44044,0,0,1,97.2949,300.7984Z" transform="translate(-21.5299 -271.50001)"/>
      <path class="cls-2" d="M67.3001,322.9413a6.08907,6.08907,0,0,1-.4344-2.2345c-.035.06-.3884.7218-.7508.7817-.3799.0616.2322-1.013.2322-1.013s-.6464.6084-.8668.4456c-.2213-.1558.5244-.6643.5244-.6643-.7362.0971-2.7121-.5283-2.3809-1.3774.2168-.5522,1.092-.5561,1.6824-.4913a5.36313,5.36313,0,0,0,5.1559.682S68.7026,321.1746,67.3001,322.9413Z" transform="translate(-21.5299 -271.50001)"/>
      <g>
        <path class="cls-11" d="M87.2684,340.849a5.01762,5.01762,0,0,0-1.344,3.6785,4.7641,4.7641,0,0,0,3.2088,4.5382,6.176,6.176,0,0,0,3.667-.2547,12.5723,12.5723,0,0,0,5.8993-3.4797,5.81429,5.81429,0,0,0,1.2596-2.3084,5.28,5.28,0,0,0-.8226-4.1705,5.0734,5.0734,0,0,0-3.5761-2.1873,7.66355,7.66355,0,0,0-4.7719,1.5652A21.04945,21.04945,0,0,0,87.2684,340.849Z" transform="translate(-21.5299 -271.50001)"/>
        <path class="cls-8" d="M88.9021,337.4478s-1.9904-.5944-2.3771.0289c-.3868.6236,2.6161,1.5308,3.3656,1.2944.7495-.2363.6481-3.3151.0312-3.4988C89.3052,335.0891,88.9021,337.4478,88.9021,337.4478Z" transform="translate(-21.5299 -271.50001)"/>
        <path class="cls-8" d="M96.9172,344.8559c-.6312-.4845-1.2442-.9906-1.8643-1.4887l-1.8265-1.5338c-.6102-.5107-1.1987-1.0456-1.7919-1.576-.5888-.5379-1.1794-1.0664-1.7377-1.656l.3203-.1908c.5035,1.4519,1.0648,2.8881,1.633,4.3181.2855.7147.5782,1.4269.8934,2.129q.45645,1.0614.9876,2.0897c-.4267-.6443-.7925-1.3269-1.1545-2.0103-.3522-.6886-.6746-1.3913-.9942-2.0953-.3233-.7025-.6078-1.4213-.896-2.1382-.2851-.7186-.5626-1.4384-.8282-2.1669l-.3185-.8746.6389.6838c.5306.5682,1.1137,1.1136,1.6913,1.6544l1.7525,1.6119,1.7545,1.6128Z" transform="translate(-21.5299 -271.50001)"/>
      </g>
      <path class="cls-8" d="M113.4643,334.6309a40.5505,40.5505,0,0,1,3.6683-2.011,40.04635,40.04635,0,0,1,3.8366-1.6683,45.85082,45.85082,0,0,1-7.5049,3.6793Z" transform="translate(-21.5299 -271.50001)"/>
      <path class="cls-8" d="M119.2201,328.1393a37.82344,37.82344,0,0,1-2.9697,2.739,37.42576,37.42576,0,0,1-3.2149,2.4466,37.42123,37.42123,0,0,1,2.9697-2.7391A37.86173,37.86173,0,0,1,119.2201,328.1393Z" transform="translate(-21.5299 -271.50001)"/>
      <path class="cls-8" d="M115.3294,325.9024a37.82722,37.82722,0,0,1-1.4628,3.7659,37.41222,37.41222,0,0,1-1.8115,3.6109,37.36845,37.36845,0,0,1,1.4627-3.7658A37.83259,37.83259,0,0,1,115.3294,325.9024Z" transform="translate(-21.5299 -271.50001)"/>
      <path class="cls-11" d="M105.6538,339.2996s2.9074-5.2436,8.0376-7.4629" transform="translate(-21.5299 -271.50001)"/>
      <path class="cls-11" d="M85.9716,349.5863s-3.0851-1.5144-9.7864,2.1635" transform="translate(-21.5299 -271.50001)"/>
      <g>
        <path class="cls-4" d="M156.2121,355.1217a.009.009,0,0,0-.0092.0092,15.31048,15.31048,0,0,1-.6205,1.9078,1.764,1.764,0,0,0-.3612-.213,23.57142,23.57142,0,0,1-9.8629,8.307,2.59958,2.59958,0,0,1-.1019.2871c-.6205.1945-1.2502.3797-1.8614.5465a60.77366,60.77366,0,0,1-19.0868,2.0744s-4.5471,5.3065-9.3443.5c-4.8064-4.797,1.2595-18.9478,13.1413-20.2165.6297-.0649,1.2688-.1297,1.8985-.1945,3.1209-.3242,6.2418-.6297,9.2053-1.0095h.0093c7.7236-.9909,14.3359-2.4912,16.9383-6.1215C156.1566,340.9987,157.9902,348.4538,156.2121,355.1217Z" transform="translate(-21.5299 -271.50001)"/>
        <path class="cls-8" d="M117.4229,369.7687a6.36064,6.36064,0,0,1,.2425-2.3771,8.36691,8.36691,0,0,1,.984-2.2012,7.26248,7.26248,0,0,1,1.6135-1.8082,5.74529,5.74529,0,0,1,2.1258-1.1072c-.5531.5889-1.1064,1.0905-1.5749,1.6769a14.64534,14.64534,0,0,0-1.3087,1.7844A29.14563,29.14563,0,0,0,117.4229,369.7687Z" transform="translate(-21.5299 -271.50001)"/>
        <path class="cls-8" d="M113.4504,363.0875a4.26968,4.26968,0,0,1,.5052-1.8855,5.57461,5.57461,0,0,1,1.1973-1.5741,5.09849,5.09849,0,0,1,1.6899-1.0438,4.24184,4.24184,0,0,1,1.9345-.2816c-.5566.3616-1.0885.6362-1.5718.9862a10.64561,10.64561,0,0,0-1.3665,1.087A19.54029,19.54029,0,0,0,113.4504,363.0875Z" transform="translate(-21.5299 -271.50001)"/>
        <path class="cls-8" d="M140.0332,353.4177c-1.0094,1.491-3.2876,1.6206-4.8712.7594a11.18627,11.18627,0,0,1-3.6396-3.9359,21.3897,21.3897,0,0,0-1.5187-2.1115c3.1209-.3242,6.2418-.6297,9.2053-1.0095h.0093a15.308,15.308,0,0,1,.8057,1.8337C140.5519,350.4078,140.9038,352.1304,140.0332,353.4177Z" transform="translate(-21.5299 -271.50001)"/>
        <path class="cls-8" d="M155.2212,356.8257a23.57142,23.57142,0,0,1-9.8629,8.307c.7779-2.1115,1.2132-4.4823,2.5931-6.2418a6.6736,6.6736,0,0,1,5.3528-2.519A4.35788,4.35788,0,0,1,155.2212,356.8257Z" transform="translate(-21.5299 -271.50001)"/>
      </g>
      <path class="cls-10" d="M138.6997,367.3368l1.3221-.3911,1.2851-.4936,1.2777-.4942a9.73157,9.73157,0,0,0,1.2625-.5158,28.93726,28.93726,0,0,0,4.7326-2.6551,24.936,24.936,0,0,0,4.0892-3.5038,22.54476,22.54476,0,0,0,3.1455-4.3526l-.0486.1966a.45074.45074,0,0,1,.1389-.32.43843.43843,0,0,1,.2931-.1221l-.3739.2364a21.60337,21.60337,0,0,0,1.7799-4.2497c.2112-.7435.4297-1.4892.5876-2.2517.161-.7615.2868-1.5326.4008-2.3093a20.43253,20.43253,0,0,1-.4503,4.7005,20.81573,20.81573,0,0,1-1.5414,4.5104l-.3742.2366a.419.419,0,0,0,.2799-.117.43345.43345,0,0,0,.1338-.3069l-.0487.1969c-.4682.812-.8753,1.6629-1.4219,2.434a22.65287,22.65287,0,0,1-1.762,2.2015,22.07513,22.07513,0,0,1-4.3121,3.5953,23.73982,23.73982,0,0,1-5.0174,2.4464,21.66811,21.66811,0,0,1-2.6671.7874l-1.3404.3436C139.6132,367.2169,139.1535,367.2712,138.6997,367.3368Z" transform="translate(-21.5299 -271.50001)"/>
      <path class="cls-8" d="M210.19419,299.8431c-.0556.176-.1205.3427-.1853.5094a14.3552,14.3552,0,0,1-.99089,2.0004,5.53311,5.53311,0,0,1-1.69481,1.9911,2.3374,2.3374,0,0,1-2.49119.1296,2.7927,2.7927,0,0,1-1.01871-1.5651,6.60786,6.60786,0,0,1-.12029-3.3987,13.60319,13.60319,0,0,0,.42589-3.7045A34.9721,34.9721,0,0,1,210.19419,299.8431Z" transform="translate(-21.5299 -271.50001)"/>
      <path class="cls-8" d="M219.78839,314.9847l-.1111.0834a7.13338,7.13338,0,0,1-5.7418,1.1669,2.7392,2.7392,0,0,1-1.6207-.9632,2.3999,2.3999,0,0,1-.3147-1.6762c.3796-2.6764,3.1301-4.1581,4.6951-6.2141A27.16352,27.16352,0,0,1,219.78839,314.9847Z" transform="translate(-21.5299 -271.50001)"/>
      <path class="cls-8" d="M115.4084,301.223a9.149,9.149,0,0,1-.5,1.7689,12.53079,12.53079,0,0,1-.815,1.7039,4.87063,4.87063,0,0,1-1.5188,1.7781,2.1576,2.1576,0,0,1-2.2319.1297,2.38077,2.38077,0,0,1-.9446-2.1392,16.59359,16.59359,0,0,1,.4631-2.4172,7.38993,7.38993,0,0,0,.1203-.9631,6.66246,6.66246,0,0,0-.0277-1.2224A39.66445,39.66445,0,0,1,115.4084,301.223Z" transform="translate(-21.5299 -271.50001)"/>
      <path class="cls-8" d="M126.4752,309.6875a5.2289,5.2289,0,0,1-1.8058,3.8341,3.36209,3.36209,0,0,1-.5186.3426,3.43449,3.43449,0,0,1-3.547-.0371,4.13091,4.13091,0,0,1-1.5929-2.9634,16.58676,16.58676,0,0,1,.1205-3.4544c.0185-.2593.0369-.5278.0462-.7872a28.94818,28.94818,0,0,0-.0556-4.0099,36.475,36.475,0,0,1,5.7789,3.158s.2315-.2038.6853-.5371a1.66588,1.66588,0,0,1,.0741.1944A10.41623,10.41623,0,0,1,126.4752,309.6875Z" transform="translate(-21.5299 -271.50001)"/>
      <path class="cls-8" d="M140.4138,303.7554a3.86765,3.86765,0,0,1-.4875,1.3304,2.56075,2.56075,0,0,1-1.564,1.0155c-2.1224.4672-4.1738-1.2288-5.5651-3.2192-.2234-.3047-.4976-.7008-.7718-1.1476a30.93507,30.93507,0,0,1,8.2868-2.0311A10.09639,10.09639,0,0,1,140.4138,303.7554Z" transform="translate(-21.5299 -271.50001)"/>
      <path class="cls-8" d="M180.8195,352.3144a3.73188,3.73188,0,0,1-.913-1.0245,2.97279,2.97279,0,0,1-.4017-1.3835,2.48435,2.48435,0,0,1,.4031-1.4232,2.181,2.181,0,0,1,1.0965-.8864c-.1364.4656-.3014.8331-.3736,1.2112a3.95424,3.95424,0,0,0-.1113,1.0761,7.1178,7.1178,0,0,0,.1246,1.1244A6.2934,6.2934,0,0,1,180.8195,352.3144Z" transform="translate(-21.5299 -271.50001)"/>
      <path class="cls-9" d="M208.36329,356.1774c-5.04729.5382-12.288-.2945-19.58969,1.8178a51.651,51.651,0,0,1-6.3268,1.4522c-.4976-.264-.9749-.6703-.8328-1.2491a1.59709,1.59709,0,0,1,.4469-.721c1.2796-1.2999,3.3005-1.7061,4.9964-2.153a53.889,53.889,0,0,1,9.8405-1.6756,33.35791,33.35791,0,0,1,9.7492.2742,3.17514,3.17514,0,0,1,1.31.5382A1.46287,1.46287,0,0,1,208.36329,356.1774Z" transform="translate(-21.5299 -271.50001)"/>
      <path class="cls-9" d="M183.9039,352.611c-.0206.0111-.0408.0224-.0608.0341-.5868.3418-.8397,1.1866-.0244,1.4018a2.87244,2.87244,0,0,0,2.8164-.5789.54219.54219,0,0,0,.0116-.7088,1.02893,1.02893,0,0,0-.4592-.296,2.71043,2.71043,0,0,0-1.5024-.129A2.89883,2.89883,0,0,0,183.9039,352.611Z" transform="translate(-21.5299 -271.50001)"/>
      <path class="cls-9" d="M177.1101,355.5812c-.0232.0126-.0461.0254-.0688.0386-.6639.3868-.9501,1.3428-.0276,1.5863a3.25034,3.25034,0,0,0,3.187-.6552.61354.61354,0,0,0,.0131-.802,1.16483,1.16483,0,0,0-.5196-.3349,3.06787,3.06787,0,0,0-1.7001-.146A3.28194,3.28194,0,0,0,177.1101,355.5812Z" transform="translate(-21.5299 -271.50001)"/>
      <path class="cls-7" d="M214.30409,353.3745c-1.0866,1.8178-3.1888,2.5185-5.9408,2.8029-5.04729.5382-12.288-.2945-19.58969,1.8178a51.651,51.651,0,0,1-6.3268,1.4522c-6.0526.9241-8.5915-.457-8.9875-3.1989,2.8739-2.6404,9.221-6.0526,22.748-5.819C206.42359,350.5919,211.64339,351.9528,214.30409,353.3745Z" transform="translate(-21.5299 -271.50001)"/>
      <path class="cls-10" d="M193.6541,312.0953a29.597,29.597,0,0,0-12.7777,2.6438,16.05853,16.05853,0,0,0-5.1664,3.8605,13.04428,13.04428,0,0,0-2.8425,5.7024,19.58728,19.58728,0,0,0,1.8085,12.5605,19.30158,19.30158,0,0,0,8.7695,9.1246l1.0616.5005-1.1126.4159a25.697,25.697,0,0,0-6.5195,3.4505,8.93342,8.93342,0,0,0-2.4065,2.6222c-.1103.2634-.2581.5165-.3442.7857-.0592.2791-.1454.5374-.1923.8316a5.34974,5.34974,0,0,0,.0239,1.7389,3.11023,3.11023,0,0,0,2.0068,2.4445,9.372,9.372,0,0,0,3.5381.501,35.958,35.958,0,0,0,7.3624-1.187c1.208-.3062,2.4253-.6661,3.6803-.9347,1.2473-.2685,2.5067-.4682,3.7699-.6131a70.46593,70.46593,0,0,1,7.59129-.3752,59.47462,59.47462,0,0,0,7.536-.2819,8.37216,8.37216,0,0,0,3.5076-1.1952,4.866,4.866,0,0,0,2.0245-3.0512,4.93963,4.93963,0,0,1-1.93079,3.184,8.58584,8.58584,0,0,1-3.55511,1.3433,57.46467,57.46467,0,0,1-7.57289.5216,69.88349,69.88349,0,0,0-7.518.5194c-1.2411.1672-2.4732.3878-3.688.6744-1.2086.2829-2.4071.6628-3.6389,1.0014a34.24963,34.24963,0,0,1-7.546,1.2876,10.21093,10.21093,0,0,1-3.9084-.5444,4.3353,4.3353,0,0,1-1.7124-1.2069,4.01978,4.01978,0,0,1-.8736-1.9155,6.289,6.289,0,0,1-.0448-2.0286c.0482-.329.1492-.6768.2265-1.0132a10.12183,10.12183,0,0,1,.4074-.948,9.87,9.87,0,0,1,2.6465-2.943,24.87875,24.87875,0,0,1,6.8121-3.6052l-.051.9163a20.231,20.231,0,0,1-9.1625-9.6257,19.82272,19.82272,0,0,1-1.7154-13.1256,13.72238,13.72238,0,0,1,3.1039-5.9349,16.13164,16.13164,0,0,1,5.4268-3.8771A28.974,28.974,0,0,1,193.6541,312.0953Z" transform="translate(-21.5299 -271.50001)"/>
    </g>
  </g>
</svg>
