<svg id="OBJECTS" xmlns="http://www.w3.org/2000/svg" viewBox="0 0 233.20108 229.20282">
  <defs>
    <style>
      .cls-1 {
        fill: #ade5dc;
      }

      .cls-2 {
        fill: #f09c46;
      }

      .cls-10, .cls-13, .cls-3, .cls-4, .cls-8 {
        fill: #8b3433;
      }

      .cls-3 {
        opacity: 0.2;
      }

      .cls-11, .cls-5 {
        fill: #8dd5b6;
      }

      .cls-6 {
        fill: #edbc89;
      }

      .cls-7 {
        fill: #fff;
      }

      .cls-8, .cls-9 {
        opacity: 0.48;
      }

      .cls-9 {
        fill: #c04a4a;
      }

      .cls-10 {
        opacity: 0.21;
      }

      .cls-11 {
        opacity: 0.41;
      }

      .cls-12 {
        fill: #dc5656;
      }

      .cls-13 {
        opacity: 0.49;
      }
    </style>
  </defs>
  <g>
    <g>
      <path class="cls-1" d="M77.3826,69.5099s3.0018-17.3858-10.9568-12.3044c0,0,1.1076-15.4019-15.5852-7.9206,0,0-4.2596-9.6584-14.9486-9.9093S16.5298,59.6327,25.0883,68.7836c8.5585,9.1511,19.7113-2.1246,22.764-5.5713,3.0526-3.4467,2.6022,4.6214,8.9923,5.3797,6.3901.7584,6.1025-6.1598,10.7105-5.3035a5.91784,5.91784,0,0,1,4.7998,5.4683Z" transform="translate(-13.70269 -30.7267)"/>
      <path class="cls-1" d="M51.2471,43.5518a3.08749,3.08749,0,0,0,2.0508.4949,8.90209,8.90209,0,0,0,2.458-.2246,3.10132,3.10132,0,0,0-.1898-6.0168C52.9949,37.3106,48.5601,41.2431,51.2471,43.5518Z" transform="translate(-13.70269 -30.7267)"/>
      <path class="cls-1" d="M14.8274,59.7856c-1.0763.8646-1.1561,2.4485-1.1174,3.8287a1.81869,1.81869,0,0,0,.1396.7815,1.59257,1.59257,0,0,0,.9125.6787,5.72767,5.72767,0,0,0,3.8383.054,1.51705,1.51705,0,0,0,.6513-.3739,1.74306,1.74306,0,0,0,.3056-.5863c.4779-1.2977.8958-3.0573-.3495-4.0568C18.1423,59.2563,15.9166,58.9107,14.8274,59.7856Z" transform="translate(-13.70269 -30.7267)"/>
    </g>
    <g>
      <g>
        <path class="cls-2" d="M246.85849,155.469c-.0224.0883-.0448.1656-.0672.2539a1.22374,1.22374,0,0,1-.0784.2429,4.54133,4.54133,0,0,1-.23389.4633.057.057,0,0,1-.02221.044,5.24736,5.24736,0,0,1-.4889.6503c-.1221.1322-.2552.2754-.3994.4074-2.13,2.0254-6.5131,3.7105-10.7646,5.573-3.9301,1.709-7.7725,3.562-9.6495,5.92a7.48594,7.48594,0,0,0-1.0126,1.7645c-.05579.1324-.1115.2758-.1674.4193-.1116.2869-.2122.5849-.3129.894l-.1681.5962-.011-.0001c-.0449.1657-.0897.3313-.1347.5079l-.0001.0221c-.1009.3865-.1909.8062-.2699,1.2259-.09.4196-.169.8392-.2371,1.2811-.317,1.9551-.5577,4.1646-.7658,6.5401l-.0111-.0001a2.51989,2.51989,0,0,1-.0231.2872c-.19659,2.2209-.3714,4.5854-.5907,6.994-.0465.5745-.104,1.149-.1615,1.7236-.0921.9611-.1952,1.9223-.3205,2.8834-.0575.5524-.12589,1.0937-.2054,1.635-.2391,1.8116-.5333,3.601-.8937,5.3459q-.2703,1.3086-.60679,2.5839c-.14591.5631-.30281,1.1262-.47081,1.6781-.0784.276-.1679.552-.2573.8169-.0895.265-.17889.541-.2794.7947-.1899.5408-.391,1.0596-.6028,1.5672-.1005.2538-.212.5075-.3236.7613a6.38719,6.38719,0,0,1-.3454.7392c-.1115.2427-.234.4854-.3565.717-.2784.5404-.5677,1.0588-.8903,1.566q-.3501.56235-.7336,1.0914a17.03281,17.03281,0,0,1-2.6085,2.8746,20.98776,20.98776,0,0,1-10.7713,4.4677,39.1108,39.1108,0,0,1-13.41579-.4608c-4.7599-.9579-9.0304-2.7096-11.7296-4.9527l-.011-.011,4.1216-8.3065s16.1287,7.7327,24.83279-2.3577a13.70676,13.70676,0,0,0,2.0353-3.2968c.1784-.4192.346-.8497.5134-1.2911.1453-.3974.2795-.8169.4027-1.2364.0336-.1104.0672-.2318.1009-.3533.2465-.8722.4489-1.7777.6294-2.7164.1467-.7731.2712-1.5574.3739-2.3749.0682-.486.1364-.972.1826-1.4803.1029-.8727.1836-1.7566.2534-2.6626.0115-.0995.0118-.1879.0233-.2873.035-.4862.0701-.9944.1051-1.4916q.05326-.87855.1063-1.757c.0476-.8729.08421-1.746.1318-2.6299.0235-.3536.0358-.7073.0482-1.0609.0476-.8509.084-1.7017.1316-2.5526.11861-2.0884.248-4.1547.4547-6.1434.0232-.2762.0574-.5634.0917-.8506.1487-1.2816.3193-2.5299.5449-3.7226.0678-.3867.1467-.7621.2255-1.1376.0563-.2651.1125-.5189.17981-.773l.00009-.022c.1235-.4969.24691-.9938.3925-1.4685.0672-.2428.1455-.4857.2239-.7285.1006-.3202.2124-.6292.3351-.9382.0672-.1988.1452-.3863.2233-.5739.21211-.5407.4462-1.0482.7024-1.5557.2449-.4743.5119-.9264.7899-1.3674a11.23338,11.23338,0,0,1,.9112-1.2454,9.6158,9.6158,0,0,1,.86561-.9141,8.972,8.972,0,0,1,.96479-.8472,34.33631,34.33631,0,0,1,5.62821-3.4709,33.39968,33.39968,0,0,1,15.74159-3.6638c4.1661.193,7.24441,1.5422,8.0308,3.9879l-.0001.022A2.7367,2.7367,0,0,1,246.85849,155.469Z" transform="translate(-13.70269 -30.7267)"/>
        <path class="cls-3" d="M246.85849,155.469c-.0224.0883-.0448.1656-.0672.2539a1.22374,1.22374,0,0,1-.0784.2429,4.54133,4.54133,0,0,1-.23389.4633.057.057,0,0,1-.02221.044,3.22461,3.22461,0,0,1-.4889.6503c-.1221.1322-.2552.2754-.3994.4074-2.119,2.0475-6.5023,3.7548-10.7757,5.6061-3.9303,1.72-7.7615,3.562-9.6386,5.9201a8.05478,8.05478,0,0,0-1.0124,1.7313c-.05579.1324-.1115.2758-.1674.4193-.1116.2869-.2122.5849-.3129.894l-.1681.5962c-.0449.1656-.0898.3422-.1457.5078.0111.0112.011.0222-.0001.0221q-.1347.5964-.2699,1.2259c-.09.4196-.169.8392-.2371,1.2811-.317,1.9551-.5577,4.1646-.7658,6.5401-.0114.0883-.02279.1878-.0342.2871-.19659,2.2209-.3714,4.5854-.5907,6.994-.0465.5745-.104,1.149-.1615,1.7236-.0921.9611-.1952,1.9223-.3205,2.8834-.0575.5524-.12589,1.0937-.2054,1.635-.2391,1.8116-.5333,3.601-.8937,5.3459q-.2703,1.3086-.60679,2.5839c-.14591.5631-.30281,1.1262-.47081,1.6781-.0784.276-.1679.552-.2573.8169-.0895.265-.17889.541-.2794.7947-.1789.5409-.3799,1.0596-.6028,1.5672-.1005.2538-.212.5075-.3236.7613a6.38719,6.38719,0,0,1-.3454.7392c-.1115.2427-.234.4854-.3565.717-.2784.5404-.5677,1.0588-.8903,1.566q-.3501.56235-.7336,1.0914a16.794,16.794,0,0,1-2.6086,2.9077,20.9887,20.9887,0,0,1-10.7713,4.4678,39.73587,39.73587,0,0,1-13.42679-.4609c-4.7709-.9579-9.0305-2.7207-11.7296-4.9637l.0111-.0221,4.1105-8.2954s16.1287,7.7438,24.83269-2.3467a12.56706,12.56706,0,0,0,2.0355-3.3299,13.08352,13.08352,0,0,0,.5134-1.2911c.1453-.3974.2795-.8169.4027-1.2364.0336-.1104.0672-.2318.1009-.3533.2465-.8722.4489-1.7777.6294-2.7164.1467-.7731.2712-1.5574.3739-2.3749.0682-.486.1364-.972.1826-1.4803.1029-.8727.1836-1.7566.2534-2.6626.0115-.0995.0118-.1879.0233-.2873.035-.4862.0701-.9944.1051-1.4916q.05326-.87855.1063-1.757c.0476-.8729.08421-1.746.1318-2.6299.0235-.3536.0358-.7073.0482-1.0609.0476-.8509.084-1.7017.1316-2.5526.11861-2.0884.248-4.1547.4547-6.1434.0232-.2762.0574-.5634.0917-.8506.1487-1.2816.3193-2.5299.5449-3.7226.0678-.3867.1467-.7621.2255-1.1376.0563-.2651.1125-.5189.17981-.773l.00009-.022c.1235-.4969.24691-.9938.3925-1.4685.0672-.2428.1455-.4857.2239-.7285.1006-.3202.2124-.6292.3351-.9382.0672-.1988.1452-.3863.2233-.5739.21211-.5407.4462-1.0482.7024-1.5557.2449-.4743.5119-.9264.7899-1.3674a14.98243,14.98243,0,0,1,.9221-1.2344c.27771-.3194.5552-.6278.85471-.9251a11.33843,11.33843,0,0,1,.96469-.8141,33.66615,33.66615,0,0,1,5.6282-3.4818h.011a33.40009,33.40009,0,0,1,15.7417-3.6638c4.155.1928,7.2333,1.5532,8.0197,3.9877A2.7367,2.7367,0,0,1,246.85849,155.469Z" transform="translate(-13.70269 -30.7267)"/>
      </g>
      <path class="cls-4" d="M246.85849,155.469c-.0224.0883-.0448.1656-.0672.2539a1.22374,1.22374,0,0,1-.0784.2429,4.54133,4.54133,0,0,1-.23389.4633.057.057,0,0,1-.02221.044,3.22461,3.22461,0,0,1-.4889.6503c-.1221.1322-.2552.2754-.3994.4074-2.119,2.0475-6.5023,3.7548-10.7757,5.6061,0-.011.0111-.0221.0111-.0331a12.48959,12.48959,0,0,1,8.3329-8.3787,25.082,25.082,0,0,1-4.3922-4.6037.03886.03886,0,0,1-.011-.0222c4.1661.193,7.24441,1.5422,8.0308,3.9879l-.0001.022A2.7367,2.7367,0,0,1,246.85849,155.469Z" transform="translate(-13.70269 -30.7267)"/>
      <path class="cls-4" d="M220.67869,160.3192a6.0145,6.0145,0,0,1-5.1344-1.313l-.0109-.011a9.6158,9.6158,0,0,1,.86561-.9141,8.972,8.972,0,0,1,.96479-.8472,34.33631,34.33631,0,0,1,5.62821-3.4709l-.00011.0222h.011C223.57839,156.44,223.654,159.745,220.67869,160.3192Z" transform="translate(-13.70269 -30.7267)"/>
      <path class="cls-4" d="M223.49339,172.6978c-.0449.1656-.0898.3422-.1457.5078.0111.0112.011.0222-.0001.0221q-.1347.5964-.2699,1.2259c-.09.4196-.169.8392-.2371,1.2811-.317,1.9551-.5577,4.1646-.7658,6.5401l-.0111-.0001c-3.032-1.9238-5.8803-5.6042-4.7879-7.9873.8471-1.8535,3.7983-1.8864,6.2066-1.5897Z" transform="translate(-13.70269 -30.7267)"/>
      <path class="cls-4" d="M214.43269,194.9665c-.0115,2.9731-3.5394,3.5343-5.9599,3.569.2465-.8722.4489-1.7777.6294-2.7164.1467-.7731.2712-1.5574.3739-2.3749.0682-.486.1364-.972.1826-1.4803.1029-.8727.1836-1.7566.2534-2.6626C211.97449,190.4367,214.44289,192.325,214.43269,194.9665Z" transform="translate(-13.70269 -30.7267)"/>
      <path class="cls-4" d="M201.62249,220.8018c0,.0111.011.0221-.0001.0332a39.73587,39.73587,0,0,1-13.42679-.4609.04071.04071,0,0,0,.0111-.0331c.8814-2.1187,2.9288-5.6696,7.065-6.361C199.79509,213.2239,201.20129,218.2802,201.62249,220.8018Z" transform="translate(-13.70269 -30.7267)"/>
    </g>
    <path class="cls-5" d="M159.1514,80.7148s11.3819-5.841,10.1893-15.9732c-1.1925-10.1321-13.3834-7.4422-13.3834-7.4422s-3.3005-15.0012-19.3998-8.8339c0,0-.913-11.6365-12.4058-12.5022-11.4929-.8655-15.7677,7.4663-15.7677,7.4663s-8.0566-4.6843-12.8566-2.1026c-4.8001,2.5819-4.2743,8.1951-4.2743,8.1951s-11.0808-1.2746-9.616,9.2692c0,0-9.0749,10.9136,10.056,18.5149C110.824,84.9074,159.1514,80.7148,159.1514,80.7148Z" transform="translate(-13.70269 -30.7267)"/>
    <g>
      <g>
        <path class="cls-2" d="M69.7336,153.2266c-.7426-.0029-29.9917,10.0335-17.5489,57.1151,0,0-17.1263,11.816-12.9391,17.2781,4.1871,5.4622,5.7135-5.1763,13.8862-6.1349s7.214-9.1313,7.214-9.1313,12.1105,4.9977,22.3065-7.0925C92.8484,193.1708,69.7336,153.2266,69.7336,153.2266Z" transform="translate(-13.70269 -30.7267)"/>
        <path class="cls-3" d="M69.7731,153.2049c-.7426-.0029-29.9917,10.0334-17.549,57.1151,0,0-17.1263,11.8159-12.9391,17.2781s5.7135-5.1764,13.8863-6.135c8.1726-.9585,7.214-9.1313,7.214-9.1313s12.1104,4.9978,22.3065-7.0925S69.7731,153.2049,69.7731,153.2049Z" transform="translate(-13.70269 -30.7267)"/>
      </g>
      <path class="cls-4" d="M43.3342,228.1144a3.37506,3.37506,0,0,1-.7867-1.387,4.36579,4.36579,0,0,1-.1804-1.608,3.6504,3.6504,0,0,1,.4968-1.5691,2.75058,2.75058,0,0,1,1.1767-1.1044c-.1697.5249-.3624.9517-.4595,1.4119a7.80292,7.80292,0,0,0-.2182,1.3463C43.2784,226.1172,43.3332,227.0438,43.3342,228.1144Z" transform="translate(-13.70269 -30.7267)"/>
    </g>
    <path class="cls-2" d="M206.47039,145.0112a66.74265,66.74265,0,0,1-8.78,5,57.57214,57.57214,0,0,1-6.76,2.7s.4,2.47.7,6.55c.19,2.45.33,5.5.32,8.95a110.89011,110.89011,0,0,1-.7,12.36,90.03961,90.03961,0,0,1-1.77,10.35,69.59594,69.59594,0,0,1-5.15,14.85,52.552,52.552,0,0,1-5.91,9.5,45.57057,45.57057,0,0,1-19.28,14.39s5.24,7.18-1.58,13.2c-6.83,6.02-4.99,19.25-11.97,16.76-6.97-2.48,4.43-22.46,4.43-22.46a34.76042,34.76042,0,0,1-2.13-4.29c-.89-2.21-1.41-4.5-1.99-5.35,0,0-37.42,6.08-63.58-21.03-9.52-9.87-12.99-23.65-13.55-37.17-1-23.64,6.89-46.54,6.89-46.54s-27.93-7.34-29.48-22.15,22.6-7.36,22.6-7.36,8.57,11.97,17.31,3.27c-.23-.54-.45-1.11-.65-1.72-.09-.27-.17-.55-.26-.84-.15-.53-.29-1.09-.4-1.68a24.51969,24.51969,0,0,1-.41-2.45q-.09-.78-.15-1.56-.06-1.11-.06-2.19a25.50121,25.50121,0,0,1,.17-2.9,17.40585,17.40585,0,0,1,.28-1.92,23.56859,23.56859,0,0,1,.95-3.65c.13-.4.27-.79.42-1.16.16-.4.33-.8.51-1.17a24.74351,24.74351,0,0,1,2.11-3.67,23.90434,23.90434,0,0,1,4.99-5.17,12.85664,12.85664,0,0,1-.78-1.58,14.59645,14.59645,0,0,1-.61-1.95c-1.6-6.88,2.12-14.28,4.35-14.27a3.47465,3.47465,0,0,1,.78.1c2.59.56,5.05,3.7,6.85,7.76a12.33883,12.33883,0,0,0,3.36,4.26c2.1-.36,4.35-.65,6.73-.84,1.76-.14,3.59-.24,5.46-.28.77-.01,1.54-.03,2.31-.03a95.63285,95.63285,0,0,1,10.52.58c.9.09,1.79.2,2.69.33,2.3.32,4.57.75,6.75,1.27,1.58.38,3.12.82,4.59,1.31,2.7-6.28,10.36-9.41,12.19-8.1l.13.09c2.22,1.72,2.55,6,1.63,10.72a14.09984,14.09984,0,0,0,1.26,8.05,75.47788,75.47788,0,0,1,3.26,8.7q.84,2.73,1.44,5.51c.27,1.26.5,2.52.67,3.79a51.34333,51.34333,0,0,1,.57,6.45,50.288,50.288,0,0,1-.48,8.72c-2.83,19.87,30.16-25.69,30.16-25.69s16.99-3.96,25.96,18.11c.49,1.2.95,2.47,1.39,3.82a35.04348,35.04348,0,0,1,1.12,4.52C228.85039,124.2512,218.25039,137.0512,206.47039,145.0112Z" transform="translate(-13.70269 -30.7267)"/>
    <path class="cls-6" d="M151.0741,182.564c-5.9425,7.6253-13.4282,22.7381-5.2469,44.963-1.9021.2911-38.041,5.357-63.5032-21.0351-9.5222-9.8735-12.9946-23.6471-13.5504-37.1664,5.4509-14.8113,18.7855-39.0639,50.1031-34.9088C150.7686,138.6515,152.6159,166.8534,151.0741,182.564Z" transform="translate(-13.70269 -30.7267)"/>
    <path class="cls-4" d="M145.6801,68.563c-.7312-9.8183,10.7957-15.1916,13.1035-13.5441.0397.0271.0837.0597.1224.0914a7.80307,7.80307,0,0,0-2.5332,2.2981,14.66708,14.66708,0,0,0-2.3338,5.6703c-1.0092,4.8069-4.1946,6.0116-6.5471,5.8879A5.05454,5.05454,0,0,1,145.6801,68.563Z" transform="translate(-13.70269 -30.7267)"/>
    <g>
      <path class="cls-4" d="M92.1948,62.9163a.01641.01641,0,0,0,.0053.0095,6.67591,6.67591,0,0,0,.6063,1.9399c.0002.0049.0054.0093.0056.0144a5.80372,5.80372,0,0,0,5.7912,2.8776c3.8613-.987-1.7725-8.1081-2.5611-13.9429a5.88062,5.88062,0,0,1,1.2908-5.0605,4.2803,4.2803,0,0,0-.7861-.0892C94.3181,48.6501,90.6038,56.0452,92.1948,62.9163Z" transform="translate(-13.70269 -30.7267)"/>
      <path class="cls-7" d="M95.58,62.5972a5.99714,5.99714,0,0,0-1.3394,3.9486,5.18158,5.18158,0,0,0,4.3626,1.2119c3.8613-.987-1.7725-8.1081-2.5611-13.9429a9.40371,9.40371,0,0,0-.3079,6.0975s-1.6519-1.4352-2.0883-1.1601c-.4168.274,1.4103,2.2968,1.5134,2.4092-.091-.0591-1.1401-.7466-1.4806-.3049C93.3247,61.3181,95.58,62.5972,95.58,62.5972Z" transform="translate(-13.70269 -30.7267)"/>
    </g>
    <path class="cls-7" d="M147.4919,68.9666c-1.7703-5.6762,3.758-6.9524,3.758-6.9524s-1.224-.5017-.8645-1.2354c.3486-.7011,1.3996.186,1.49.2616-.0184-.0626-.4331-1.3465-.1337-1.7741.307-.4406.984.8458.984.8458a4.9527,4.9527,0,0,1,3.6471-2.7037,14.66708,14.66708,0,0,0-2.3338,5.6703C153.0298,67.8856,149.8444,69.0903,147.4919,68.9666Z" transform="translate(-13.70269 -30.7267)"/>
    <path class="cls-4" d="M94.2428,90.1829c-1.5652,1.5307-3.9275,1.8526-6.0297,2.0029-1.1502.0714-2.3023.1317-3.4384.116a24.50838,24.50838,0,0,1-.4034-2.4507q-.0912-.78045-.1494-1.5665c-.0437-.7316-.0701-1.4605-.0664-2.1775a25.26608,25.26608,0,0,1,.1779-2.9046,2.55178,2.55178,0,0,0,.5154.2952,14.48281,14.48281,0,0,0,4.4512.9965,12.99547,12.99547,0,0,1,4.1184.7844,2.89657,2.89657,0,0,1,1.8796,3.1113A3.52537,3.52537,0,0,1,94.2428,90.1829Z" transform="translate(-13.70269 -30.7267)"/>
    <path class="cls-4" d="M87.3579,81.1337a8.82458,8.82458,0,0,1-2.7512.1471,24.30125,24.30125,0,0,1,.9548-3.655c.1287-.3929.2704-.7765.4183-1.1556.1619-.398.3302-.7916.5112-1.1758l.032.0232c1.3835.7879,3.361.8097,4.2383,2.2033a1.55912,1.55912,0,0,1,.2478,1.1616C90.7051,80.2707,88.7625,80.8185,87.3579,81.1337Z" transform="translate(-13.70269 -30.7267)"/>
    <g>
      <path class="cls-4" d="M126.7629,68.5548s2.1003-1.8853,3.1073-1.3334c1.0071.552-1.1654,2.7679-3.3131,3.0476,0,0-3.1812-2.2287-2.1492-3.6129C125.4397,65.2719,126.7629,68.5548,126.7629,68.5548Z" transform="translate(-13.70269 -30.7267)"/>
      <path class="cls-4" d="M129.5289,85.1801c-.1883-1.3096-.407-2.6129-.6127-3.9188l-.6666-3.9086-.7071-3.9009c-.2431-1.2987-.4656-2.6014-.7252-3.8972l-.1299-.6484-.3219.5706c-.6252,1.1086-1.2056,2.2303-1.7659,3.3667-.5598,1.1354-1.0888,2.2862-1.5709,3.4569-.4835,1.1699-.9323,2.3546-1.3339,3.5547a35.04394,35.04394,0,0,0-.977,3.6643c.3526-1.2132.7415-2.4118,1.1947-3.5873.4541-1.1748.93-2.3402,1.4532-3.4853,1.0547-2.2839,2.1643-4.5518,3.4227-6.7236l-.4519-.0777c.2323,1.301.5016,2.5949.7508,3.8926l.7688,3.8891.8096,3.8815C128.9521,82.5994,129.2251,83.8927,129.5289,85.1801Z" transform="translate(-13.70269 -30.7267)"/>
      <path class="cls-8" d="M130.4068,71.0749a5.45568,5.45568,0,0,1,2.8459,3.2876c.7513,2.2876.5568,4.9647-1.101,6.6446a6.13168,6.13168,0,0,1-3.5838,1.673c-2.4168.3601-4.8337.5193-7.0775-.6488a5.91315,5.91315,0,0,1-2.1802-1.8421,7.06874,7.06874,0,0,1-1.003-4.9754,6.51614,6.51614,0,0,1,2.4539-4.2816,7.04751,7.04751,0,0,1,5.1908-.8348A18.81415,18.81415,0,0,1,130.4068,71.0749Z" transform="translate(-13.70269 -30.7267)"/>
    </g>
    <path class="cls-9" d="M105.099,77.5077a2.661,2.661,0,0,1-.4476,4.5648c-2.6424,1.2967-7.3116.5413-9.3261-1.6456-1.7004-1.8462-.249-4.7502,1.8389-5.0849a10.06607,10.06607,0,0,1,5.2092.6944A9.75968,9.75968,0,0,1,105.099,77.5077Z" transform="translate(-13.70269 -30.7267)"/>
    <path class="cls-9" d="M152.8737,80.6676a3.45226,3.45226,0,0,1,1.3557,5.1872c-1.884,2.4298-6.3872,3.3746-9.0469,1.737-2.2456-1.3826-2.0555-5.1261-.3009-6.2877a8.20985,8.20985,0,0,1,4.9668-1.2172A8.43931,8.43931,0,0,1,152.8737,80.6676Z" transform="translate(-13.70269 -30.7267)"/>
    <g>
      <path class="cls-4" d="M161.2455,86.5408a39.01479,39.01479,0,0,0-4.4987-1.3228,38.49576,38.49576,0,0,0-4.6142-.8362,38.51417,38.51417,0,0,0,4.499,1.3228A38.99505,38.99505,0,0,0,161.2455,86.5408Z" transform="translate(-13.70269 -30.7267)"/>
      <path class="cls-4" d="M161.9633,82.7079a36.7755,36.7755,0,0,0-4.5485-.2144,36.33126,36.33126,0,0,0-4.5446.2854,41.45215,41.45215,0,0,0,9.0931-.071Z" transform="translate(-13.70269 -30.7267)"/>
      <path class="cls-4" d="M160.9321,78.0339a37.17778,37.17778,0,0,0-4.2196,1.7839,36.74255,36.74255,0,0,0-4.0002,2.2331,36.73456,36.73456,0,0,0,4.2197-1.7839A37.14726,37.14726,0,0,0,160.9321,78.0339Z" transform="translate(-13.70269 -30.7267)"/>
    </g>
    <g>
      <path class="cls-4" d="M98.7795,78.7164a39.6465,39.6465,0,0,0-4.7073-.4853,39.19009,39.19009,0,0,0-4.7325.0145,39.189,39.189,0,0,0,4.7074.485A39.72919,39.72919,0,0,0,98.7795,78.7164Z" transform="translate(-13.70269 -30.7267)"/>
      <path class="cls-4" d="M89.7046,74.4042a36.6225,36.6225,0,0,0,4.2842,1.531,36.2329,36.2329,0,0,0,4.4262,1.0516,36.22783,36.22783,0,0,0-4.2842-1.531A36.67055,36.67055,0,0,0,89.7046,74.4042Z" transform="translate(-13.70269 -30.7267)"/>
      <path class="cls-4" d="M92.1841,70.2516a35.85089,35.85089,0,0,0,3.138,3.2276,35.47346,35.47346,0,0,0,3.4763,2.8598,35.49077,35.49077,0,0,0-3.1378-3.2276A35.88034,35.88034,0,0,0,92.1841,70.2516Z" transform="translate(-13.70269 -30.7267)"/>
    </g>
    <g>
      <g>
        <path class="cls-7" d="M105.2606,78.7925a11.15791,11.15791,0,0,0,8.5873-3.1752,5.4242,5.4242,0,0,0,.978-1.5258,9.15078,9.15078,0,0,0-.843-7.8317c-.027-.0547-.0589-.107-.0909-.1596a8.08162,8.08162,0,0,0-6.9174-3.5906c-3.3043.0188-7.3351,1.518-8.5669,4.551a7.70428,7.70428,0,0,0-.408,3.9619l-.0049.0022C98.5073,74.7155,101.2515,78.4476,105.2606,78.7925Z" transform="translate(-13.70269 -30.7267)"/>
        <path class="cls-4" d="M102.4395,77.9284A8.51925,8.51925,0,0,1,100.2019,76.1a10.58857,10.58857,0,0,1-1.5483-2.3767,10.215,10.215,0,0,1-.8443-2.6769l-.02-.1199.1262-.0579.0047-.0022-.106.1782a8.50433,8.50433,0,0,1-.0333-2.7405,5.92051,5.92051,0,0,1,1.0406-2.6132,8.96079,8.96079,0,0,1,4.908-3.1437,12.88086,12.88086,0,0,1,2.9846-.4555,8.92649,8.92649,0,0,1,3.0324.4054,7.91294,7.91294,0,0,1,4.5941,3.6128l-.0138-.025a10.16956,10.16956,0,0,1,1.2849,4.6301,8.58183,8.58183,0,0,1-.258,2.377,5.72643,5.72643,0,0,1-1.0475,2.1782,7.70954,7.70954,0,0,1-1.8461,1.6371,11.16169,11.16169,0,0,1-2.2316,1.1263,11.68386,11.68386,0,0,1-4.9679.7589A6.9152,6.9152,0,0,1,102.4395,77.9284Zm7.7599.0423a8.7967,8.7967,0,0,0,3.8765-2.8457,5.37706,5.37706,0,0,0,.881-2.1127,8.15583,8.15583,0,0,0,.1228-2.2731,9.673,9.673,0,0,0-1.4406-4.3044l-.0139-.0252c-.084-.1515-.2354-.3459-.3522-.5181-.1419-.1673-.2686-.3452-.4254-.5009a6.86261,6.86261,0,0,0-.9873-.8837,8.65869,8.65869,0,0,0-1.1434-.7038,8.56575,8.56575,0,0,0-1.2616-.503,10.21186,10.21186,0,0,0-5.4732.0358,8.65342,8.65342,0,0,0-4.6119,2.7051,5.44586,5.44586,0,0,0-1.0761,2.3446,8.12388,8.12388,0,0,0-.1089,2.6146l.0143.1299-.1205.0485-.0049.002.106-.1775a9.88677,9.88677,0,0,0,.6805,2.6431,9.16791,9.16791,0,0,0,1.4219,2.3957,7.8441,7.8441,0,0,0,2.1729,1.8625,6.89565,6.89565,0,0,0,2.8052.8881A11.153,11.153,0,0,0,110.1994,77.9707Z" transform="translate(-13.70269 -30.7267)"/>
      </g>
      <path class="cls-4" d="M110.0544,75.6851a6.93369,6.93369,0,0,1-6.5403.311,6.01078,6.01078,0,0,1-2.2131-8.7168,6.946,6.946,0,0,1,5.1126-2.6145c5.2826-.1699,8.0277,6.2225,5.0097,9.8714A5.24282,5.24282,0,0,1,110.0544,75.6851Z" transform="translate(-13.70269 -30.7267)"/>
      <path class="cls-10" d="M97.9997,71.0225c7.0306-7.6861,14.9944-5.1224,15.9832-4.7627-.027-.0547-.0589-.107-.0909-.1596a8.08162,8.08162,0,0,0-6.9174-3.5906c-3.3043.0188-7.3351,1.518-8.5669,4.551A7.70428,7.70428,0,0,0,97.9997,71.0225Z" transform="translate(-13.70269 -30.7267)"/>
    </g>
    <g>
      <g>
        <path class="cls-7" d="M139.1699,79.7491a12.5164,12.5164,0,0,0,9.52,1.7307,5.28027,5.28027,0,0,0,1.6372-.801,8.33878,8.33878,0,0,0,2.9329-7.1522c.0006-.0608-.0042-.1224-.0093-.1839a8.881,8.881,0,0,0-4.7485-6.6659c-3.0918-1.6976-7.5646-2.5023-10.1544-.5405a6.97375,6.97375,0,0,0-2.2623,3.1853l-.0056-.0009C134.8052,72.7512,135.593,77.3746,139.1699,79.7491Z" transform="translate(-13.70269 -30.7267)"/>
        <path class="cls-4" d="M136.9481,77.5452a9.01,9.01,0,0,1-1.2194-2.728,10.35233,10.35233,0,0,1-.3157-2.8407,9.44252,9.44252,0,0,1,.4836-2.7332l.0391-.1155.148.0186.0055.0007-.1872.0975a7.66532,7.66532,0,0,1,1.2705-2.3672,5.53623,5.53623,0,0,1,2.2119-1.7012,9.67191,9.67191,0,0,1,6.0723-.15,14.86348,14.86348,0,0,1,3.001,1.1572,10.33245,10.33245,0,0,1,2.6368,1.9201,8.38253,8.38253,0,0,1,2.5703,5.4798l-.0009-.0284a9.36905,9.36905,0,0,1-1.0001,4.6364,7.74564,7.74564,0,0,1-1.3697,1.9041,5.42721,5.42721,0,0,1-2.0117,1.3246,8.02849,8.02849,0,0,1-2.5.4462,12.31527,12.31527,0,0,1-2.6172-.1917,13.47334,13.47334,0,0,1-4.9953-1.9254A7.8779,7.8779,0,0,1,136.9481,77.5452Zm7.22,4.0603a9.35852,9.35852,0,0,0,4.9685-.4298,5.03459,5.03459,0,0,0,1.8252-1.3543,7.34648,7.34648,0,0,0,1.194-1.8852,8.98033,8.98033,0,0,0,.7002-4.4376l-.0008-.0286c-.0067-.1746-.0557-.4191-.0826-.6272-.0531-.2171-.087-.4353-.1589-.6502a7.185,7.185,0,0,0-.5015-1.2697,9.49878,9.49878,0,0,0-.7325-1.1965,9.65414,9.65414,0,0,0-.9384-1.0853,11.83553,11.83553,0,0,0-5.1235-2.8076,9.4163,9.4163,0,0,0-5.5877-.072,5.13767,5.13767,0,0,0-2.1175,1.4517,7.325,7.325,0,0,0-1.3436,2.1855l-.0489.1211-.1383-.0237-.0056-.0009.1868-.0968a9.07293,9.07293,0,0,0-.6203,2.6193,8.87514,8.87514,0,0,0,.189,2.7914,8.23,8.23,0,0,0,1.1427,2.7236,7.838,7.838,0,0,0,2.1955,2.2164A12.84619,12.84619,0,0,0,144.1681,81.6055Z" transform="translate(-13.70269 -30.7267)"/>
      </g>
      <path class="cls-4" d="M145.1184,79.5709a7.98054,7.98054,0,0,1-6.2498-3.1252c-2.1813-3.1021-1.1908-7.3316,2.075-8.6216a7.63407,7.63407,0,0,1,6.0116.4096c5.0093,2.5938,4.5345,9.4983-.0141,11.0618A5.49856,5.49856,0,0,1,145.1184,79.5709Z" transform="translate(-13.70269 -30.7267)"/>
      <path class="cls-10" d="M136.0855,69.3216a16.858,16.858,0,0,1,17.1745,4.205c.0006-.0608-.0042-.1224-.0093-.1839a8.881,8.881,0,0,0-4.7485-6.6659c-3.0918-1.6976-7.5646-2.5023-10.1544-.5405A6.97375,6.97375,0,0,0,136.0855,69.3216Z" transform="translate(-13.70269 -30.7267)"/>
    </g>
    <path class="cls-8" d="M160.1486,106.3166a13.68092,13.68092,0,0,1,.0556,1.5064,4.27211,4.27211,0,0,1-.2411,1.4469.71976.71976,0,0,1-.4262.4527.63037.63037,0,0,1-.5795-.1401,3.25116,3.25116,0,0,1-.8514-1.1299l-.2936-.5815-.0594.6541a11.22768,11.22768,0,0,1-.2709,1.591,4.33482,4.33482,0,0,1-.5991,1.4385,1.28861,1.28861,0,0,1-.524.4544.71089.71089,0,0,1-.6114.0246,1.91184,1.91184,0,0,1-.8203-1.1377l-.1178-.3529-.2844.2358a20.023,20.023,0,0,1-2.5259,1.7586,24.72387,24.72387,0,0,1-2.7612,1.3903,17.55565,17.55565,0,0,1-2.936.9769,16.82875,16.82875,0,0,1-3.0745.4642,14.67354,14.67354,0,0,0,3.1253-.2258,17.50073,17.50073,0,0,0,3.0281-.8597,19.56918,19.56918,0,0,0,2.8471-1.3533,20.41038,20.41038,0,0,0,2.6228-1.7721l-.4019-.117a3.23009,3.23009,0,0,0,.3973.8055,1.72072,1.72072,0,0,0,.7147.6262,1.18508,1.18508,0,0,0,.9868-.0384,1.75136,1.75136,0,0,0,.7047-.6165,4.7528,4.7528,0,0,0,.6473-1.6005,9.255,9.255,0,0,0,.2254-1.6724l-.3531.0725a3.54777,3.54777,0,0,0,1.0114,1.2178.91907.91907,0,0,0,.842.1468.94862.94862,0,0,0,.5566-.6262,4.41893,4.41893,0,0,0,.1496-1.534A10.13455,10.13455,0,0,0,160.1486,106.3166Z" transform="translate(-13.70269 -30.7267)"/>
    <path class="cls-8" d="M102.307,110.0654c-.6642-.429-1.3283-.8569-1.9818-1.2988-.6513-.4441-1.2992-.8972-1.9072-1.383l-.2866-.229.0378.3748a2.47449,2.47449,0,0,1-.1507,1.2838.65412.65412,0,0,1-.3981.3568.21057.21057,0,0,1-.1862.0068.39463.39463,0,0,1-.1339-.1733,3.77489,3.77489,0,0,1-.1903-1.2925,12.10644,12.10644,0,0,1,.062-1.3789l.0636-.6351-.4714.4366a6.98894,6.98894,0,0,1-.9364.7326,1.94306,1.94306,0,0,1-.9881.3807c-.0735-.0067-.0485-.0159-.0471-.0008a.36408.36408,0,0,1,.0066-.1382,2.041,2.041,0,0,1,.1864-.5081,9.033,9.033,0,0,1,.6089-1.0222l.1565-.2314-.2329-.1485a18.20377,18.20377,0,0,1-2.8611-2.2673,10.27531,10.27531,0,0,1-2.1445-2.9042l-.2587-.5614-.1053.604a3.17555,3.17555,0,0,1-.5232,1.409.72556.72556,0,0,1-.1214.1137c-.0314.0274-.0221.0106-.0145.0173.0037-.0039.0018.0037-.015-.0075a.7956.7956,0,0,1-.2237-.2392,6.01629,6.01629,0,0,1-.3908-.6827c-.4743-.9579-.8491-1.972-1.2292-2.98a25.41928,25.41928,0,0,0,1.0144,3.0792,4.91374,4.91374,0,0,0,.3709.7408,1.00657,1.00657,0,0,0,.3211.3472.33041.33041,0,0,0,.1771.0442.3494.3494,0,0,0,.1651-.0672,1.04688,1.04688,0,0,0,.18-.1543,3.46229,3.46229,0,0,0,.6655-1.5594l-.3639.0426a8.765,8.765,0,0,0,.9231,1.6652,14.00107,14.00107,0,0,0,1.2336,1.4335,18.66466,18.66466,0,0,0,2.9212,2.3778l-.0764-.3799a7.26776,7.26776,0,0,0-.6571,1.1015,2.50009,2.50009,0,0,0-.2238.6547.73506.73506,0,0,0,.0532.4673.55656.55656,0,0,0,.4724.2691,2.3467,2.3467,0,0,0,1.293-.477,7.42774,7.42774,0,0,0,.9997-.8042l-.4077-.1985a12.52925,12.52925,0,0,0-.0457,1.4403,3.67859,3.67859,0,0,0,.2755,1.4718.78229.78229,0,0,0,.326.3476.60915.60915,0,0,0,.4979.0031,1.04078,1.04078,0,0,0,.6037-.5741,2.77656,2.77656,0,0,0,.1255-1.4898l-.2487.1458a20.93275,20.93275,0,0,0,2.0038,1.2907C100.9132,109.3175,101.6039,109.7033,102.307,110.0654Z" transform="translate(-13.70269 -30.7267)"/>
    <path class="cls-11" d="M132.9563,68.8157s.4136,10.8215.2914,12.985c1.7048.9177,19.9241,1.8994,19.9241,1.8994l2.4424-13.0884Z" transform="translate(-13.70269 -30.7267)"/>
    <path class="cls-11" d="M95.1546,66.8251s.4138,10.8216.2915,12.9851c1.7049.9178,19.9241,1.8993,19.9241,1.8993l2.4423-13.0883Z" transform="translate(-13.70269 -30.7267)"/>
    <path class="cls-7" d="M96.8896,109.8363s1.9493,14.2283,14.4247,21.3392l12.3416-7.683,15.9006,9.8919s9.7818-12.0833,13.8231-20.5619c0,0-20.2695,9.2749-30.003,8.8555C113.6432,121.2586,96.8896,109.8363,96.8896,109.8363Z" transform="translate(-13.70269 -30.7267)"/>
    <path class="cls-8" d="M149.9801,236.8381a70.35606,70.35606,0,0,1-3.6675-7.3523c-.5481-1.2595-.9986-2.5554-1.4456-3.8548l-.6813-1.9459c-.2025-.6565-.3718-1.3236-.5594-1.9855a49.97215,49.97215,0,0,1-1.7798-16.3782,45.42173,45.42173,0,0,1,1.4344-8.1574,41.4245,41.4245,0,0,1,3.0006-7.709,38.085,38.085,0,0,1,10.3633-12.672,36.64046,36.64046,0,0,0-5.4703,6.0566,42.93564,42.93564,0,0,0-4.2047,6.9587,46.98543,46.98543,0,0,0-2.8106,7.6044,44.80135,44.80135,0,0,0-1.3165,7.9909,51.38114,51.38114,0,0,0,1.5247,16.1132A78.48038,78.48038,0,0,0,149.9801,236.8381Z" transform="translate(-13.70269 -30.7267)"/>
    <path class="cls-5" d="M197.219,79.8415s2.85779.141,3.25749-2.4559c.3629-2.3567-.3573-5.0445-2.89819-5.7608a10.31109,10.31109,0,0,0-2.5938-.2739c-5.3794,0-10.8615-.6238-16.2276-.146-1.3615.1212-3.1681.1769-4.1364,1.2574-1.026,1.1449-.954,3.0277-.7844,4.4504.1979,1.6595,1.0171,3.3924,2.8524,3.6289,0,0-15.4647,34.6296-13.5712,48.9284,1.8936,14.2989,48.53819,6.9353,50.40619.9745C216.26889,121.6844,197.219,79.8415,197.219,79.8415Z" transform="translate(-13.70269 -30.7267)"/>
    <path class="cls-12" d="M209.04469,128.1007c-2.27769,2.841-10.2409,5.5616-19.23109,6.0563-10.6046.5835-22.2922-1.4557-22.7461-3.1682-.8278-3.1531,3.6487-17.5481,3.6487-17.5481.0777-.055.1551-.0989.2437-.1539,7.4893-4.5909,28.47419-3.6587,32.18059-1.7876a2.17085,2.17085,0,0,1,.2866.1779C206.16039,113.6882,209.04469,128.1007,209.04469,128.1007Z" transform="translate(-13.70269 -30.7267)"/>
    <path class="cls-13" d="M203.14049,111.4992c-.9206.8585-4.2222,2.8904-15.04429,3.357-10.4573.4459-15.3705-.8883-17.1363-1.5694C178.4492,108.6959,199.43409,109.6281,203.14049,111.4992Z" transform="translate(-13.70269 -30.7267)"/>
    <path class="cls-5" d="M151.1252,53.6124a12.556,12.556,0,0,0,4.9981-3.7978,4.92165,4.92165,0,0,0,.9874-2.8201,6.93641,6.93641,0,0,0-.7492-2.9219,2.75225,2.75225,0,0,0-1.9983-1.7333,1.277,1.277,0,0,0-1.0698.4241.89489.89489,0,0,0-.139.2165c-.0158.0537-.0395.2016-.0317.1074a1.96421,1.96421,0,0,0,.351.4473,12.66832,12.66832,0,0,0,5.3754,2.8648,4.30347,4.30347,0,0,0,2.8151-.0945,2.99636,2.99636,0,0,0,1.4479-2.2492,10.26658,10.26658,0,0,0,.0053-3.062,6.73807,6.73807,0,0,0-.876-2.8436,1.17252,1.17252,0,0,0-1.0035-.6106,1.29914,1.29914,0,0,0-.9844.7235,2.34262,2.34262,0,0,0,.3647,2.6671,5.59783,5.59783,0,0,0,2.6076,1.5952,16.48928,16.48928,0,0,0,3.1313.6078,13.84916,13.84916,0,0,1-3.2045-.3531,5.95828,5.95828,0,0,1-2.9034-1.5271,2.8963,2.8963,0,0,1-.5528-3.2873,1.95485,1.95485,0,0,1,1.4762-1.1234,1.88981,1.88981,0,0,1,1.6837.8457,6.80178,6.80178,0,0,1,1.118,3.1909,11.10589,11.10589,0,0,1,.0338,3.3366,5.03827,5.03827,0,0,1-.5843,1.6641,3.34945,3.34945,0,0,1-1.3301,1.2791,5.20381,5.20381,0,0,1-3.4728.2132,12.7661,12.7661,0,0,1-3.0908-1.2446,12.33819,12.33819,0,0,1-2.7052-1.9568,2.28041,2.28041,0,0,1-.5686-.8508,1.11915,1.11915,0,0,1,.0718-.674,1.76588,1.76588,0,0,1,.2908-.4563,2.14457,2.14457,0,0,1,1.8035-.7111,2.70152,2.70152,0,0,1,1.6728.8121,4.89336,4.89336,0,0,1,.9578,1.4535,7.59231,7.59231,0,0,1,.6863,3.274,5.42817,5.42817,0,0,1-1.2264,3.0896A12.136,12.136,0,0,1,151.1252,53.6124Z" transform="translate(-13.70269 -30.7267)"/>
    <path class="cls-5" d="M108.0268,43.9092a8.93452,8.93452,0,0,0-1.6569-6.5376,5.3667,5.3667,0,0,0-2.7097-1.7417,4.50976,4.50976,0,0,0-3.1083.428,3.73636,3.73636,0,0,0-1.2222.947.88756.88756,0,0,0-.2001.388c.0016-.06-.122-.0092.0372-.062a2.21244,2.21244,0,0,0,.8053-1.1513,3.41375,3.41375,0,0,0,.1596-1.5516,3.72853,3.72853,0,0,0-1.8571-2.5736,10.95389,10.95389,0,0,0-3.2353-1.3277,9.69755,9.69755,0,0,1,3.4813.9037,4.339,4.339,0,0,1,2.3677,2.8588,3.80888,3.80888,0,0,1-.0826,1.9601,3.00876,3.00876,0,0,1-1.1826,1.7113,1.07346,1.07346,0,0,1-.7794.1256.91463.91463,0,0,1-.643-.6303,1.47136,1.47136,0,0,1,.3497-1.2404,4.64591,4.64591,0,0,1,1.5432-1.2458,5.40745,5.40745,0,0,1,3.7968-.4554,5.82635,5.82635,0,0,1,3.0795,2.1815,7.59584,7.59584,0,0,1,1.3282,3.4326A9.6755,9.6755,0,0,1,108.0268,43.9092Z" transform="translate(-13.70269 -30.7267)"/>
    <path class="cls-7" d="M135.824,61.9954a10.84832,10.84832,0,0,1-1.3557-3.6173,4.88045,4.88045,0,0,1,.0788-1.9693,3.05455,3.05455,0,0,1,1.0832-1.678,3.10464,3.10464,0,0,1,1.87-.7514,5.06342,5.06342,0,0,1,1.982.2872,8.69764,8.69764,0,0,1,3.3236,2.1075A4.086,4.086,0,0,1,143.8896,58.1a1.2198,1.2198,0,0,1,.0005.5945.92075.92075,0,0,1-.3918.5036.67609.67609,0,0,1-.6896.0488.99786.99786,0,0,1-.3925-.474,4.752,4.752,0,0,1-.265-1.9999,9.33265,9.33265,0,0,1,.2838-1.9452,8.4146,8.4146,0,0,1,1.7258-3.4927,4.665,4.665,0,0,1,3.4329-1.6174,4.54076,4.54076,0,0,0-3.2462,1.7756,8.154,8.154,0,0,0-1.5378,3.4214,10.89749,10.89749,0,0,0-.2264,1.8725,4.39577,4.39577,0,0,0,.2447,1.7921.57953.57953,0,0,0,.2006.2628c.0539.0418.1239.0089.2204-.0383a.49282.49282,0,0,0,.1746-.5984,3.69678,3.69678,0,0,0-.9766-1.484,8.23115,8.23115,0,0,0-3.1113-2.0249,3.54638,3.54638,0,0,0-3.4674.3343,3.46237,3.46237,0,0,0-1.1587,3.3174A10.732,10.732,0,0,0,135.824,61.9954Z" transform="translate(-13.70269 -30.7267)"/>
    <path class="cls-12" d="M73.0747,73.4879c-.4957.1631-8.984,18.7783-8.984,18.7783S41.968,94.6559,41.2358,113.3011c-.7322,18.6451,30.4742,28.4742,40.6833,11.2401,9.4549-15.9609-4.1481-27.9315-4.1481-27.9315l3.7084-20.1188s2.9704.0114,3.4751-2.462c.5046-2.4734-11.853-7.472-13.6772-5.1686C69.4531,71.1635,73.0747,73.4879,73.0747,73.4879Z" transform="translate(-13.70269 -30.7267)"/>
    <path class="cls-5" d="M73.6217,123.4898a6.57828,6.57828,0,0,1-1.6558,2.3035c-.2661.2532-10.3857,7.6634-19.2221.5004-8.8362-7.174-8.6649-20.0604-1.0515-25.3251a5.56547,5.56547,0,0,1,2.4689-1.0957c4.4559-.4249,2.7082,11.3503,8.3032,13.5713C67.9821,115.6428,75.3631,119.0313,73.6217,123.4898Z" transform="translate(-13.70269 -30.7267)"/>
    <path class="cls-1" d="M73.6217,123.4898c-2.4593-1.4021-8.4174-1.1709-14.5477-7.8703-6.1854-6.7549-5.5751-13.0966-4.9128-15.7466,4.4559-.4249,2.7082,11.3503,8.3032,13.5713C67.9821,115.6428,75.3631,119.0313,73.6217,123.4898Z" transform="translate(-13.70269 -30.7267)"/>
    <path class="cls-2" d="M200.07619,81.2043s-23.062-1.4475-18.76539,16.0255c0,0-3.1912,10.1707,7.484,8.2723,0,0,5.0614,7.7781,18.67869-2.5947C221.09079,92.5347,200.07619,81.2043,200.07619,81.2043Z" transform="translate(-13.70269 -30.7267)"/>
    <path class="cls-4" d="M188.7948,105.5021a5.645,5.645,0,0,1,.4038-3.2558,7.49634,7.49634,0,0,1,1.9798-2.7114,9.4805,9.4805,0,0,1,2.8832-1.662c.5174-.1879,1.0571-.3059,1.5823-.4425.5438-.0722,1.0826-.1456,1.6229-.1729-.4927.2442-.987.4423-1.4763.6415l-1.4144.688a13.97443,13.97443,0,0,0-2.5425,1.7026A9.09782,9.09782,0,0,0,188.7948,105.5021Z" transform="translate(-13.70269 -30.7267)"/>
    <path class="cls-4" d="M181.1018,96.804a6.58585,6.58585,0,0,1,1.0852-2.4609,8.67963,8.67963,0,0,1,1.8642-1.9804,8.54352,8.54352,0,0,1,2.3826-1.3133,7.48114,7.48114,0,0,1,2.6451-.4728c-.8038.4118-1.5879.7482-2.3202,1.1823a15.838,15.838,0,0,0-2.0935,1.3924,16.1337,16.1337,0,0,0-1.8739,1.6809A22.74146,22.74146,0,0,0,181.1018,96.804Z" transform="translate(-13.70269 -30.7267)"/>
    <path class="cls-2" d="M53.6847,94.7292s1.3869,6.5005,6.3319,5.6724c0,0,8.169,5.2558,13.1358-1.2201,4.9669-6.4757.3627-20.7542-10.9289-21.7863-11.2916-1.0319-17.9889,14.756-16.0449,23.2353A23.54072,23.54072,0,0,1,53.6847,94.7292Z" transform="translate(-13.70269 -30.7267)"/>
    <path class="cls-4" d="M60.0166,100.4016a13.8924,13.8924,0,0,0,1.3575-4.4155,10.705,10.705,0,0,0,.0474-2.2621c-.0399-.77-.2015-1.5292-.3159-2.3527a6.04935,6.04935,0,0,1,1.0851,2.2216,6.55246,6.55246,0,0,1,.1755,2.5137,6.71845,6.71845,0,0,1-.7567,2.4013A5.45193,5.45193,0,0,1,60.0166,100.4016Z" transform="translate(-13.70269 -30.7267)"/>
    <path class="cls-4" d="M67.8146,102.0671a26.95326,26.95326,0,0,0,1.0566-2.5255,25.98485,25.98485,0,0,0,.7797-2.5608c.2093-.8648.4021-1.7376.5328-2.6291.1532-.8907.238-1.7925.3932-2.7261a9.67891,9.67891,0,0,1,.3847,2.7869A11.56021,11.56021,0,0,1,70.62,97.225a11.17761,11.17761,0,0,1-1.042,2.6402A7.38035,7.38035,0,0,1,67.8146,102.0671Z" transform="translate(-13.70269 -30.7267)"/>
    <path class="cls-8" d="M118.4375,152.749a11.48337,11.48337,0,0,0-2.4101-3.6241,2.78664,2.78664,0,0,0-1.796-.833,1.908,1.908,0,0,0-1.5958.8546,3.14079,3.14079,0,0,0-.2852,1.9191,10.83842,10.83842,0,0,0,.4561,2.0717,24.67963,24.67963,0,0,0,1.7158,3.9718l.8528,1.602-1.5491-.958a10.1499,10.1499,0,0,0-3.0092-1.3056,2.4456,2.4456,0,0,0-1.4152.0429.81662.81662,0,0,0-.4016.3099.89124.89124,0,0,0-.0169.5557,8.7386,8.7386,0,0,0,1.5616,2.8582,33.76443,33.76443,0,0,0,2.1882,2.6472l.2246.2426-.2384.2592a5.77185,5.77185,0,0,0-.9331,1.7649c-.242.6664-.4278,1.3588-.6058,2.0557a41.42121,41.42121,0,0,0-.7439,4.2754,30.495,30.495,0,0,1,.3238-4.3584,15.05216,15.05216,0,0,1,.481-2.1559,5.91475,5.91475,0,0,1,1.0133-2.0966l-.0138.5015a27.609,27.609,0,0,1-2.3822-2.6105,9.2891,9.2891,0,0,1-1.8134-3.1858,1.819,1.819,0,0,1,.0754-1.1543,1.71359,1.71359,0,0,1,.8867-.8003,3.37284,3.37284,0,0,1,2.0069-.1226,10.37558,10.37558,0,0,1,3.3496,1.4614l-.6962.6438a21.87782,21.87782,0,0,1-1.7163-4.1882,10.40039,10.40039,0,0,1-.4176-2.266,3.85449,3.85449,0,0,1,.5154-2.3612,2.54044,2.54044,0,0,1,2.2011-1.053,3.11221,3.11221,0,0,1,2.0805,1.1028A10.64385,10.64385,0,0,1,118.4375,152.749Z" transform="translate(-13.70269 -30.7267)"/>
    <path class="cls-8" d="M102.7602,188.6902a7.6387,7.6387,0,0,1,3.0495.1899,9.79758,9.79758,0,0,1,2.8482,1.2035,9.66876,9.66876,0,0,1,2.3389,2.023,8.79855,8.79855,0,0,1,1.5563,2.6266c-.7225-.7246-1.3717-1.4528-2.1146-2.0813a15.96323,15.96323,0,0,0-2.3069-1.7187,16.195,16.195,0,0,0-2.5625-1.3139A21.01322,21.01322,0,0,0,102.7602,188.6902Z" transform="translate(-13.70269 -30.7267)"/>
    <path class="cls-8" d="M104.4729,193.778a7.46946,7.46946,0,0,1,1.3414-2.157,9.45672,9.45672,0,0,1,1.9257-1.6975,7.61927,7.61927,0,0,1,2.3888-1.0147,5.31273,5.31273,0,0,1,2.5621.0507,14.291,14.291,0,0,0-2.3316.6948,13.83465,13.83465,0,0,0-2.0761,1.1082A35.18592,35.18592,0,0,0,104.4729,193.778Z" transform="translate(-13.70269 -30.7267)"/>
    <path class="cls-4" d="M206.47039,145.012a66.69253,66.69253,0,0,1-8.78389,4.9948,7.7899,7.7899,0,0,1-1.8511-4.3397,4.07516,4.07516,0,0,1,.9078-3.2459C199.11769,140.01,204.149,142.2289,206.47039,145.012Z" transform="translate(-13.70269 -30.7267)"/>
    <path class="cls-4" d="M225.88949,107.8073a17.35166,17.35166,0,0,1-6.7096.2282,7.21887,7.21887,0,0,1-2.40689-.6614,2.51014,2.51014,0,0,1-.75771-4.1255,13.56243,13.56243,0,0,1,7.3644-3.7735c.4928,1.1955.9521,2.4683,1.389,3.8184A34.54029,34.54029,0,0,1,225.88949,107.8073Z" transform="translate(-13.70269 -30.7267)"/>
    <path class="cls-8" d="M206.83809,103.2986c1.2602-1.214,2.5453-2.2861,3.7871-3.4156.6323-.5508,1.2282-1.134,1.8424-1.7075L214.28,96.3663a10.36193,10.36193,0,0,1-2.98641,4.2597,15.128,15.128,0,0,1-2.092,1.5605A10.3304,10.3304,0,0,1,206.83809,103.2986Z" transform="translate(-13.70269 -30.7267)"/>
    <path class="cls-4" d="M191.9462,168.2101a17.38527,17.38527,0,0,1-3.6673-.5557c-2.0095-.4941-4.363-.68-6.1158-1.8805-2.37-1.6117-1.4973-4.3494.6851-5.6561.1439-.0879.2879-.1647.443-.2415a13.74,13.74,0,0,1,8.3359-.6198C191.8166,161.7107,191.9595,164.7618,191.9462,168.2101Z" transform="translate(-13.70269 -30.7267)"/>
    <path class="cls-4" d="M191.2464,180.5751a89.53307,89.53307,0,0,1-1.7643,10.3492c-3.424-.5989-13.1963-2.9356-12.8237-7.8304.1281-1.6795,1.8023-3.0325,3.2854-3.5904a11.11067,11.11067,0,0,1,5.3617-.3108A30.50061,30.50061,0,0,1,191.2464,180.5751Z" transform="translate(-13.70269 -30.7267)"/>
    <path class="cls-4" d="M184.3295,205.7699a52.87466,52.87466,0,0,1-5.9056,9.5045c-2.6489-.9387-4.7407-3.0578-6.6335-5.154-1.0455-1.1536-2.1348-2.4398-2.2614-3.9987-.1791-2.2886,1.8954-4.281,4.1517-4.6923a10.32706,10.32706,0,0,1,6.5705,1.4953A27.91889,27.91889,0,0,1,184.3295,205.7699Z" transform="translate(-13.70269 -30.7267)"/>
    <path class="cls-4" d="M146.7973,259.7861a3.41626,3.41626,0,0,1-.6547-1.318,4.765,4.765,0,0,1-.1601-1.4637,4.09627,4.09627,0,0,1,.3726-1.455,2.55549,2.55549,0,0,1,1.0052-1.1123c-.1059.502-.1989.922-.262,1.3503-.0468.4301-.0974.8471-.1182,1.2766C146.9237,257.927,146.9288,258.7941,146.7973,259.7861Z" transform="translate(-13.70269 -30.7267)"/>
    <path class="cls-4" d="M166.5004,88.0912a12.99509,12.99509,0,0,1-1.4-.07,3.609,3.609,0,0,1-3-1.48,2.42417,2.42417,0,0,1,.33-2.56,3.97822,3.97822,0,0,1,2.31-1.34c.11-.02.21-.05.32-.06Q165.9004,85.3112,166.5004,88.0912Z" transform="translate(-13.70269 -30.7267)"/>
    <path class="cls-4" d="M167.7404,98.3312a19.0164,19.0164,0,0,1-3.99.08,5.02073,5.02073,0,0,1-2.4-.75,2.13991,2.13991,0,0,1-.9-2.21,2.92969,2.92969,0,0,1,1.28-1.44,14.38247,14.38247,0,0,1,5.44-2.13A51.34333,51.34333,0,0,1,167.7404,98.3312Z" transform="translate(-13.70269 -30.7267)"/>
    <path class="cls-7" d="M153.3756,83.9709l-20.373-1.9424-.3028-13.4844.2759.0225,22.9356,1.8174Zm-19.8828-2.3975,19.4756,1.8565,2.3491-12.5908-22.105-1.752Z" transform="translate(-13.70269 -30.7267)"/>
    <path class="cls-7" d="M115.5739,81.9797,95.2008,80.0373l-.3027-13.4834.2759.0225,22.9355,1.8173ZM95.691,79.5822l19.4756,1.8565,2.3492-12.5899-22.105-1.7519Z" transform="translate(-13.70269 -30.7267)"/>
    <path class="cls-7" d="M132.7658,68.9777a8.78674,8.78674,0,0,0-6.1158-3.3633c-4.56-.3486-8.6328,3.1592-8.6728,3.1954l-.3291-.377c.1719-.1504,4.2636-3.6816,9.0395-3.3164a9.26272,9.26272,0,0,1,6.459,3.5371Z" transform="translate(-13.70269 -30.7267)"/>
    <path class="cls-5" d="M131.9688,56.5878s-2.4305-4.8611-6.7515-4.231-7.2917,10.4424.7201,11.7927c0,0-1.8904-1.7104-.9902-2.4305.9002-.7202,5.3112,1.5303,6.7516-.5402A5.009,5.009,0,0,0,131.9688,56.5878Z" transform="translate(-13.70269 -30.7267)"/>
    <path class="cls-7" d="M118.4099,57.119a13.16581,13.16581,0,0,0,5.6008-2.7735,3.30182,3.30182,0,0,0,1.1559-2.6912,3.04991,3.04991,0,0,0-2.0842-1.9805,11.89934,11.89934,0,0,0-3.0257-.7127,8.95172,8.95172,0,0,0-3.0657.1031c-.2247.054-.4457.2234-.376.2226-.0045.0296.0694.1144.1558.1685a.508.508,0,0,0,.2712.1432,2.21881,2.21881,0,0,0,1.3823-.1579,4.60143,4.60143,0,0,0,2.1901-1.9834,3.62815,3.62815,0,0,0,.2995-2.8757,3.55969,3.55969,0,0,0-.6983-1.2869,2.39625,2.39625,0,0,0-1.2646-.6592,6.298,6.298,0,0,0-3.017.2921,14.23153,14.23153,0,0,0-2.8492,1.2712,8.63945,8.63945,0,0,0-2.3973,1.9485c-.2954.3829-.533.9395-.0937,1.1749.3938.2791.9885.35,1.1428-.1378a1.80171,1.80171,0,0,0-.2215-1.4289,2.649,2.649,0,0,0-1.1027-1.0489,4.34547,4.34547,0,0,0-3.0748-.179,4.40608,4.40608,0,0,1,3.1293.0694,2.8023,2.8023,0,0,1,1.206,1.0649,1.99951,1.99951,0,0,1,.2931,1.6075.76558.76558,0,0,1-.6985.5404,1.515,1.515,0,0,1-.8272-.2518.76343.76343,0,0,1-.372-.8211,2.06033,2.06033,0,0,1,.3635-.7749,8.9392,8.9392,0,0,1,2.4546-2.0927,13.28012,13.28012,0,0,1,2.9186-1.3544,6.71508,6.71508,0,0,1,3.2379-.3251,2.85721,2.85721,0,0,1,1.5063.779,4.00132,4.00132,0,0,1,.8202,1.4684,4.11616,4.11616,0,0,1-.3175,3.2611,5.082,5.082,0,0,1-2.4469,2.1836,2.65144,2.65144,0,0,1-1.7098.1584.91177.91177,0,0,1-.4176-.227.717.717,0,0,1-.3145-.4412.49158.49158,0,0,1,.0611-.3535.74837.74837,0,0,1,.2093-.2009,1.43193,1.43193,0,0,1,.4244-.1876,9.2815,9.2815,0,0,1,3.2475-.0978,11.37027,11.37027,0,0,1,3.125.7885,5.23287,5.23287,0,0,1,1.4012.8488,2.43574,2.43574,0,0,1,.846,1.4379,3.55357,3.55357,0,0,1-1.2995,2.9145A13.26885,13.26885,0,0,1,118.4099,57.119Z" transform="translate(-13.70269 -30.7267)"/>
    <path class="cls-1" d="M176.6885,80.5416a79.49626,79.49626,0,0,0,16.4674-.4478" transform="translate(-13.70269 -30.7267)"/>
    <path class="cls-13" d="M177.8037,120.0876a.3335.3335,0,1,1-.3335-.3335A.33357.33357,0,0,1,177.8037,120.0876Z" transform="translate(-13.70269 -30.7267)"/>
    <path class="cls-13" d="M181.0176,118.511a.87925.87925,0,1,1-.8792-.8793A.87925.87925,0,0,1,181.0176,118.511Z" transform="translate(-13.70269 -30.7267)"/>
    <circle class="cls-13" cx="183.59661" cy="91.2711" r="0.8793"/>
    <path class="cls-13" d="M180.2293,122.5739a.3335.3335,0,1,1-.3335-.3336A.33348.33348,0,0,1,180.2293,122.5739Z" transform="translate(-13.70269 -30.7267)"/>
    <path class="cls-13" d="M200.60419,124.575a.33355.33355,0,1,1-.3335-.3336A.33348.33348,0,0,1,200.60419,124.575Z" transform="translate(-13.70269 -30.7267)"/>
    <circle class="cls-13" cx="171.59001" cy="89.5429" r="1.0612"/>
    <circle class="cls-13" cx="184.65781" cy="96.7893" r="1.0612"/>
    <path class="cls-7" d="M173.3296,105.458a1.03291,1.03291,0,0,0,.4392,1.0391,1.4548,1.4548,0,0,0,.463.1683,3.61208,3.61208,0,0,0,.8064.0803,1.69772,1.69772,0,0,0,.6275-.107.83144.83144,0,0,0,.4578-.4243,1.45721,1.45721,0,0,0-.8323-1.9044A1.70632,1.70632,0,0,0,173.3296,105.458Z" transform="translate(-13.70269 -30.7267)"/>
    <path class="cls-7" d="M176.5524,73.6257a.65544.65544,0,0,0,.2788.6596.9235.9235,0,0,0,.2939.1069,2.29331,2.29331,0,0,0,.5119.051,1.07659,1.07659,0,0,0,.3983-.068.52746.52746,0,0,0,.2906-.2693.925.925,0,0,0-.5283-1.2089A1.0831,1.0831,0,0,0,176.5524,73.6257Z" transform="translate(-13.70269 -30.7267)"/>
    <path class="cls-7" d="M169.4802,112.2581a7.02082,7.02082,0,0,0-.7714,3.3971,2.60607,2.60607,0,0,0,1.182,2.5294,1.66819,1.66819,0,0,0,1.1529.0282,1.96445,1.96445,0,0,0,1.2882-1.4406c.1278-.6185-.0531-1.2663.0521-1.8889a4.92943,4.92943,0,0,1,.9041-1.7908c.6549-.9991,1.0439-3.0176-.7133-3.1582C171.3621,109.8373,169.9921,111.3255,169.4802,112.2581Z" transform="translate(-13.70269 -30.7267)"/>
    <path class="cls-7" d="M77.018,103.9481a1.048,1.048,0,0,0-.3415.6192.86839.86839,0,0,0,.4182.7122,1.77982,1.77982,0,0,0,1.7034.1624,1.35123,1.35123,0,0,0,.4429-.296,1.08828,1.08828,0,0,0,.2192-1.1331C79.002,102.8747,77.6595,103.2702,77.018,103.9481Z" transform="translate(-13.70269 -30.7267)"/>
    <path class="cls-7" d="M79.0133,109.0801a2.62216,2.62216,0,0,0-.5747,2.0297,35.49856,35.49856,0,0,1-1.6087,10.3568,3.71919,3.71919,0,0,0-.201,2.5386.539.539,0,0,0,.1793.246c.2541.1681.5721-.0853.7639-.3221a17.84173,17.84173,0,0,0,3.7493-13.5898C81.1777,109.3511,80.0431,108.1807,79.0133,109.0801Z" transform="translate(-13.70269 -30.7267)"/>
    <path class="cls-4" d="M74.6949,74.0237a14.46362,14.46362,0,0,0,7.4166,2.416" transform="translate(-13.70269 -30.7267)"/>
  </g>
</svg>
