<svg id="OBJECTS" xmlns="http://www.w3.org/2000/svg" viewBox="0 0 219.86362 225.38873">
  <defs>
    <style>
      .cls-1 {
        fill: #f09c46;
      }

      .cls-2 {
        fill: #edbc89;
      }

      .cls-3, .cls-4, .cls-7, .cls-9 {
        fill: #8b3433;
      }

      .cls-3 {
        opacity: 0.2;
      }

      .cls-5 {
        fill: #dc5656;
      }

      .cls-6 {
        fill: #fff;
      }

      .cls-7 {
        opacity: 0.21;
      }

      .cls-8 {
        fill: #c04a4a;
      }

      .cls-8, .cls-9 {
        opacity: 0.48;
      }

      .cls-10 {
        fill: #8dd5b6;
      }
    </style>
  </defs>
  <g>
    <path class="cls-1" d="M405.11489,133.8531l-5.0925,6.06-10.5668,12.5529h-37.5315s-27.9449-40.345-28.0849-40.345c.6111.0255,17.1489.4711,34.756.9677,20.4973.5473,42.433,1.1457,42.433,1.1457Z" transform="translate(-266.43375 -26.59915)"/>
    <path class="cls-1" d="M359.04089,79.3001s-64.2923,66.6477-56.6792,20.9172a57.63761,57.63761,0,0,1,11.1781-26.4297,53.61986,53.61986,0,0,1,8.2753-8.5044,59.54447,59.54447,0,0,1,10.8468-7.0786,69.87587,69.87587,0,0,1,15.2009-5.6272,54.1671,54.1671,0,0,1,8.0589-1.4131Z" transform="translate(-266.43375 -26.59915)"/>
    <path class="cls-2" d="M405.11489,133.8531l-5.0925,6.06-16.474,10.1468c-.573-.1146-33.5085-15.8503-24.9532-36.9712,20.4973.5473,42.433,1.1457,42.433,1.1457Z" transform="translate(-266.43375 -26.59915)"/>
    <g>
      <path class="cls-1" d="M416.92189,163.6422s6.0398,29.6742-18.3823,44.6427c0,0,4.2017,24.9473-2.8887,25.7351-7.0903.7878-2.626-16.8066-7.6154-23.6343-4.98949-6.8277,3.4138-11.5545,3.4138-11.5545s-14.44329-13.1303-6.3026-26.5231C393.28749,158.9153,416.92189,163.6422,416.92189,163.6422Z" transform="translate(-266.43375 -26.59915)"/>
      <path class="cls-3" d="M416.90039,163.6422s6.0399,29.6742-18.3822,44.6427c0,0,4.2016,24.9473-2.8887,25.7351s-2.6261-16.8066-7.6156-23.6343c-4.9893-6.8277,3.4139-11.5545,3.4139-11.5545s-14.4432-13.1303-6.3025-26.5231C393.26609,158.9153,416.90039,163.6422,416.90039,163.6422Z" transform="translate(-266.43375 -26.59915)"/>
      <path class="cls-4" d="M391.61729,229.4318a23.91419,23.91419,0,0,0,2.2834-1.8236,13.00462,13.00462,0,0,0,.9887-.9995c.331-.3511.6242-.7388,1.0081-1.134a3.91114,3.91114,0,0,1-1.3194,2.8683,4.33356,4.33356,0,0,1-1.3725.8593A3.16327,3.16327,0,0,1,391.61729,229.4318Z" transform="translate(-266.43375 -26.59915)"/>
    </g>
    <g>
      <g>
        <path class="cls-1" d="M378.30309,215.3325a1.30179,1.30179,0,0,1-.0128.2164,1.0978,1.0978,0,0,0-.0127.2037v.0636c0,.0637-.0128.1401-.0128.2037-.0126.2802-.0381.5602-.0636.8403a17.90143,17.90143,0,0,1-.7384,3.8448c-.1273.4329-.28.8657-.4455,1.2731-.1529.382-.31829.7639-.4966,1.1204-.1782.3692-.3564.7129-.5601,1.0566a15.86427,15.86427,0,0,1-1.1332,1.706s.0128.0127,0,.0127c-2.9026,3.7558-7.2185,6.0601-11.67439,7.4351a42.97224,42.97224,0,0,1-7.98241,1.6296c-1.0694.14-2.1007.2163-3.0683.28-6.6838.4201-8.0078,8.4789-9.7648,13.2278-.802,2.1896-1.6932,3.6791-3.2209,3.4245-2.9791-.4965-4.7487-3.4245-4.3668-8.046a18.34772,18.34772,0,0,1,.4074-2.5845c.0509-.2291.1146-.4583.1655-.6874a.04686.04686,0,0,0,.0127-.0382c.1401-.5475.3057-1.0949.49661-1.6678a33.735,33.735,0,0,1,2.40609-5.5252.59005.59005,0,0,1,.0637-.1274,10.83263,10.83263,0,0,1,6.7984-5.1562c7.9952-2.4826,19.3642-.1527,23.2471-7.6386.0764-.1401.1401-.2928.20371-.4329a8.53157,8.53157,0,0,0,.522-1.3622c.05089-.1528.07629-.2929.11449-.4456a7.53093,7.53093,0,0,0,.242-1.566,10.61973,10.61973,0,0,0-.9676-5.0924c-2.5844-6.0218-9.4338-10.5923-10.0194-10.9615l-.0382-.0382,6.9003-7.7151a25.83624,25.83624,0,0,1,8.2243,7.2567,23.69841,23.69841,0,0,1,3.7303,7.3459A24.82572,24.82572,0,0,1,378.30309,215.3325Z" transform="translate(-266.43375 -26.59915)"/>
        <path class="cls-3" d="M378.29029,215.4089c0,.1145-.0127.2291-.0127.3437v.0636c0,.0637-.0128.1401-.0128.2037-.0126.2802-.0381.5602-.0636.8403a17.90143,17.90143,0,0,1-.7384,3.8448c-.1273.4329-.28.8657-.4455,1.2731-.1529.382-.31829.7639-.4966,1.1204-.1782.3692-.3564.7129-.5601,1.0566-2.75,4.8378-7.6515,7.626-12.7693,9.2174h-.0128a43.59571,43.59571,0,0,1-8.0334,1.6551v.0127c-1.0567.1145-2.0879.2037-3.0428.2674-6.65829.42-8.0078,8.4152-9.7519,13.1767-.8149,2.2152-1.7061,3.7302-3.2465,3.4756-3.0046-.4965-4.7742-3.4629-4.3541-8.1352a18.34772,18.34772,0,0,1,.4074-2.5845c.0509-.2291.1146-.4583.1655-.6874a.04686.04686,0,0,0,.0127-.0382c.1401-.5475.3057-1.0949.49661-1.6678a37.67788,37.67788,0,0,1,2.43159-5.5252c.0127-.0128.0127-.0383.0255-.051a10.88137,10.88137,0,0,1,6.8366-5.1689v-.0127c7.9952-2.4443,19.3387-.1401,23.2089-7.6005.0891-.1782.1782-.3438.2546-.522a8.31079,8.31079,0,0,0,.48381-1.3622c.05089-.1528.07629-.2929.11449-.4456a7.53093,7.53093,0,0,0,.242-1.566,10.81162,10.81162,0,0,0-1.01849-5.0924c-2.73721-6.2383-10.01941-10.9106-10.01941-10.9106l.0509-.0509,6.8493-7.6641a25.97033,25.97033,0,0,1,8.2116,7.2185,24.15492,24.15492,0,0,1,3.7175,7.2823A24.96023,24.96023,0,0,1,378.29029,215.4089Z" transform="translate(-266.43375 -26.59915)"/>
      </g>
      <path class="cls-4" d="M342.35039,248.4844c-.8149,2.2152-1.7061,3.7302-3.2465,3.4756-3.0046-.4965-4.7742-3.4629-4.3541-8.1352a18.34772,18.34772,0,0,1,.4074-2.5845c.0509-.2291.1146-.4583.1655-.6874,4.1376.2673,6.111,4.6087,7.0148,7.8934A.0461.0461,0,0,1,342.35039,248.4844Z" transform="translate(-266.43375 -26.59915)"/>
      <path class="cls-4" d="M344.209,232.545c-1.75691,1.2731-4.08661,1.1713-5.94541.7767h-.0255a.59005.59005,0,0,1,.0637-.1274,10.83263,10.83263,0,0,1,6.7984-5.1562c.01281.0128.01281.0383.0255.051v.0127C345.67319,229.6678,345.76229,231.4119,344.209,232.545Z" transform="translate(-266.43375 -26.59915)"/>
      <path class="cls-4" d="M363.17849,233.3725a43.59571,43.59571,0,0,1-8.0334,1.6551.18362.18362,0,0,0,.0255-.0891c.4456-1.6423,1.4513-3.7303,3.692-4.2777,2.1643-.5347,3.5138,1.1076,4.29041,2.6481C363.153,233.3343,363.16579,233.347,363.17849,233.3725Z" transform="translate(-266.43375 -26.59915)"/>
      <path class="cls-4" d="M368.58919,219.9666H368.551a8.53157,8.53157,0,0,0,.522-1.3622c.05089-.1528.07629-.2929.11449-.4456a7.53093,7.53093,0,0,0,.242-1.566,10.81162,10.81162,0,0,0-1.01849-5.0924h.05089c2.0497.2673,5.3725,1.1458,5.9072,3.9976C374.85289,218.1461,371.28819,219.3937,368.58919,219.9666Z" transform="translate(-266.43375 -26.59915)"/>
      <path class="cls-4" d="M377.25919,207.3882a.0473.0473,0,0,1-.0383-.0126c-5.2834-1.1841-4.6341-5.0161-3.7175-7.2823a.097.097,0,0,1,.0255-.051A23.69841,23.69841,0,0,1,377.25919,207.3882Z" transform="translate(-266.43375 -26.59915)"/>
    </g>
    <path class="cls-5" d="M466.75919,138.2835c-.433.8149-5.2327,4.0868-12.9731,8.9628-.08909.0637-.191.1145-.28.1782-.5986.3819-1.2224.7639-1.8716,1.1713-.0891.051-.1781.1146-.2674.1654-3.5265,2.2026-7.5622,4.6851-11.9927,7.3842-.07639.0509-.1528.089-.2292.14-.6365.3819-1.2986.7766-1.9604,1.184-.0765.0382-.1402.0891-.2167.1273-3.7556,2.2789-7.7785,4.6978-11.9927,7.2186-.1019.0637-.1908.1145-.2927.1781-.6238.3693-1.2604.7512-1.90969,1.1332-.08911.0508-.17831.1146-.26721.1654-4.1632,2.47-8.5046,5.0417-12.9477,7.6643a1.76353,1.76353,0,0,1-.2038.1272c-.6619.382-1.3112.7766-1.9861,1.1712-.0636.0383-.1399.0765-.2036.1148-4.2649,2.5206-8.6317,5.0669-13.0494,7.6641-.051.0254-.1019.0636-.1528.0891-.6747.3947-1.375.802-2.0625,1.184a.86834.86834,0,0,1-.13989.0891c-4.85061,2.8391-9.75211,5.6654-14.61541,8.4916-.051.0255-.1018.0637-.1528.0892-.6875.3947-1.3624.7893-2.0497,1.184-.051.0254-.1147.0636-.1656.0891q-7.12305,4.12485-14.0678,8.0843c-.051.0255-.1019.0637-.1528.0891-.6876.3947-1.3622.7766-2.0497,1.1712-.0509.0255-.1019.0637-.1529.0892-4.48129,2.5589-8.8608,5.0543-13.0876,7.4477a1.39634,1.39634,0,0,0-.191.1019c-.67469.3818-1.3622.7639-2.0369,1.133-.0636.0382-.1146.0637-.1782.1019-4.7487,2.6863-9.2937,5.2325-13.5333,7.5877-.07629.0383-.1528.0891-.2291.1274-.6748.3818-1.3496.7383-1.9989,1.1076-.07629.0381-.1527.0891-.229.1273-5.2198,2.8772-9.9558,5.4489-13.9916,7.6132a1.01438,1.01438,0,0,0-.20369.1018c-.713.3693-1.40041.7384-2.06251,1.0949-.0637.0382-.1273.0636-.1909.1018-7.435,3.8958-12.0818,6.0983-12.642,5.8182-3.4883-1.7442-21.8339-34.0686-21.8339-34.0686,7.855-5.5252,171.183-98.3989,171.183-98.3989S468.80869,134.3751,466.75919,138.2835Z" transform="translate(-266.43375 -26.59915)"/>
    <path class="cls-5" d="M400.83429,136.2352a46.70756,46.70756,0,0,0-3.37-4.26c-7.58-8.69-27.24-26.34-51.31-10.51-20.96,13.78-19.31,38.92-17.42,49.82a50.16478,50.16478,0,0,0,1.15,5.27l-39.15,20.13s-.47-.97-1.22-2.74c-.62-1.49-1.44-3.55-2.33-6.08-.27-.78-.56-1.59-.84-2.46v-.01a124.89025,124.89025,0,0,1-3.83-14.65c-.16-.83-.32-1.66-.46-2.52a103.36409,103.36409,0,0,1-1.5301-15.33c-.0299-.85-.0399-1.71-.0299-2.57a80.04133,80.04133,0,0,1,1.73-16.47q.255-1.245.57-2.49a65.72051,65.72051,0,0,1,8.57-19.84c.46-.71.94-1.41,1.44-2.11a67.69933,67.69933,0,0,1,9.92-11.17,85.96337,85.96337,0,0,1,19.31-12.96,92.3818,92.3818,0,0,1,36.56-10.07c35.41-1.9,63.31,19.2,77.54,34.72,5.92,6.45,9.48,11.93,10.23,14.4C449.51429,134.6652,400.83429,136.2352,400.83429,136.2352Z" transform="translate(-266.43375 -26.59915)"/>
    <g>
      <path class="cls-1" d="M407.70589,86.7961s6.1143,4.5438,7.1146,9.143c1.0004,4.5991,2.0772,9.8725,10.4308,11.861,8.3535,1.9883,8.3555-9.6474,3.7668-16.7516C421.41719,79.281,412.45079,84.0718,407.70589,86.7961Z" transform="translate(-266.43375 -26.59915)"/>
      <path class="cls-4" d="M420.07429,105.4797c.5355-1.4968,1.19871-2.8551,1.7624-4.2501a16.93057,16.93057,0,0,0,1.3167-4.3087,4.67129,4.67129,0,0,1,.2419,2.384,8.86931,8.86931,0,0,1-.636,2.3089,11.6618,11.6618,0,0,1-1.1329,2.0792A8.92086,8.92086,0,0,1,420.07429,105.4797Z" transform="translate(-266.43375 -26.59915)"/>
      <path class="cls-4" d="M425.83819,107.6214c.6243-1.3273,1.3472-2.5029,1.98081-3.7223.32119-.6031.63479-1.2099.9-1.8343a13.52609,13.52609,0,0,0,.67259-1.9807,4.30857,4.30857,0,0,1,.07341,2.2097,7.73206,7.73206,0,0,1-.76361,2.0744,9.87736,9.87736,0,0,1-1.2381,1.798A7.48281,7.48281,0,0,1,425.83819,107.6214Z" transform="translate(-266.43375 -26.59915)"/>
    </g>
    <path class="cls-1" d="M421.17749,52.087l.0087-.0061c5.2967-3.9591,4.7586-15.5059,3.2533-17.4012a.60387.60387,0,0,0-.39649-.2634,10.1831,10.1831,0,0,0-7.506,2.1869c-1.82411,1.4466-3.387,3.2933-5.56351,4.2376a20.434,20.434,0,0,1-3.6706,1.2284l.0005.0011c-.3426-.1114-.6833-.2174-1.0188-.3116-.7432-.2073-1.4608-.3756-2.1565-.5001-.8205-.1467-1.7208-.3284-2.6949-.5227-.5629-.112-1.1498-.2356-1.7588-.3529a91.2079,91.2079,0,0,0-9.636-1.4732c-.8517-.081-1.73-.1506-2.624-.1919a58.97336,58.97336,0,0,0-6.7018-.0092c-.8895.0476-1.7988.125-2.7175.2183l.0033-.008a16.87769,16.87769,0,0,1-5.18239-5.1498c-1.75781-3.0367-4.81131-5.7499-8.65831-5.4089-.0774.0038-.15969.0114-.2379.0195-3.6519.4311-3.7564,10.4373-2.3869,14.7758-.1225.0516-.2428.094-.3654.1465a15.31416,15.31416,0,0,0-5.6898,5.3555,18.88672,18.88672,0,0,0-1.6128,3.0683,19.99622,19.99622,0,0,0-.853,2.5379,21.91823,21.91823,0,0,0-.5696,2.9166,29.05373,29.05373,0,0,0-.0385,6.7357c.022.2302.0439.4603.075.6898a25.01029,25.01029,0,0,0,.7001,3.5929,22.06631,22.06631,0,0,0,2.385,5.6652c4.0742,6.8372,11.6494,10.9855,21.1365,13.3111a85.62125,85.62125,0,0,0,12.9428,2.0314c14.4917,1.2409,25.653-.4884,31.4332-8.6649a20.26177,20.26177,0,0,0,2.0863-3.7771q.2196-.52125.4225-1.0823a29.40382,29.40382,0,0,0,1.4829-6.2135l.0267-.1883c.0511-.4041.0974-.8122.13121-1.2058a27.14891,27.14891,0,0,0,.05289-4.2727A22.78394,22.78394,0,0,0,421.17749,52.087Z" transform="translate(-266.43375 -26.59915)"/>
    <path class="cls-4" d="M421.18619,52.081c-4.1596,3.1039-9.0111-.7722-11.2835-4.5673-.2382-.4019-.4494-.8045-.6305-1.1945q-.632-1.37805-1.2739-2.7483a5.67527,5.67527,0,0,0-.6832-1.4912c.27991.2533,5.4343,4.879,9.5813,4.2456,2.9047-.4435,3.7324-5.1101,5.1877-8.4874a6.21859,6.21859,0,0,1,2.3554-3.158C425.945,36.575,426.483,48.1219,421.18619,52.081Z" transform="translate(-266.43375 -26.59915)"/>
    <path class="cls-4" d="M396.75119,55.6074c-2.2721-.2906-2.4849-3.5825-3.4887-8.8001a20.9981,20.9981,0,0,0-3.2278-7.8973,91.61872,91.61872,0,0,1,9.637,1.4724C402.43059,46.5671,398.943,55.8877,396.75119,55.6074Z" transform="translate(-266.43375 -26.59915)"/>
    <path class="cls-4" d="M402.65519,44.9884a20.05986,20.05986,0,0,1-1.2217-4.2539c.9754.1972,1.8762.3758,2.6947.5257.69481.1251,1.4164.2898,2.1594.498C406.67369,44.8639,403.42149,46.8207,402.65519,44.9884Z" transform="translate(-266.43375 -26.59915)"/>
    <path class="cls-4" d="M386.49069,45.4839c-1.5571.0679-2.8246-1.1037-3.7051-3.7068a7.13246,7.13246,0,0,0-2.0708-3.0676,60.37887,60.37887,0,0,1,6.7004.0058C389.29519,42.0709,387.90759,45.4162,386.49069,45.4839Z" transform="translate(-266.43375 -26.59915)"/>
    <path class="cls-4" d="M371.78949,44.3102a18.77693,18.77693,0,0,1-4.4439,1.1839c-2.58359.3397-4.7902-.0376-5.4394-1.3704-1.7368-3.5545-1.9447-15.2767,2.0136-15.7439.0781-.0081.1605-.0157.2379-.0194a8.32065,8.32065,0,0,1,2.2377,1.373,8.63776,8.63776,0,0,1,2.71661,4.427C370.28779,38.5624,369.00959,41.1564,371.78949,44.3102Z" transform="translate(-266.43375 -26.59915)"/>
    <path class="cls-6" d="M416.784,49.3988a4.1255,4.1255,0,0,1-4.20261-2.5432c.0114.1237.1211,1.3556-.8413,1.0199-1.01009-.3511-.7383-1.8739-.7383-1.8739a2.77565,2.77565,0,0,1-1.0991,1.5121c-.2382-.4019-.4494-.8045-.6305-1.1945q-.632-1.37805-1.2739-2.7483a5.67527,5.67527,0,0,0-.6832-1.4912c.27991.2533,5.4343,4.879,9.5813,4.2456,2.9047-.4435,3.7324-5.1101,5.1877-8.4874-.0549,2.2706-1.9166,7.3392-1.9166,7.3392s1.1749-1.1856,1.79051-.7944c.586.3739-1.04611,1.9128-1.19581,2.0567.1193-.0481,1.5571-.5977,1.7146.2237C422.64319,47.5221,420.01069,49.2003,416.784,49.3988Z" transform="translate(-266.43375 -26.59915)"/>
    <path class="cls-6" d="M371.78949,44.3102a18.77693,18.77693,0,0,1-4.4439,1.1839c-1.0378-.2052-1.8824-.612-2.0528-1.3674a1.84365,1.84365,0,0,1,1.4148-2.4951s-.9922-.7382-1.1209-1.325c-.1188-.5585,1.1476.3731,1.2671.4653-.1-.1395-1.0621-1.4669-.7699-1.8053.2388-.2729.64.2358.8127.4797-.2895-.4988-1.284-2.4238.1471-3.5219,0,0-4.0388-5.1351-.6483-6.191a8.63776,8.63776,0,0,1,2.71661,4.427C370.28779,38.5624,369.00959,41.1564,371.78949,44.3102Z" transform="translate(-266.43375 -26.59915)"/>
    <g>
      <g>
        <path class="cls-6" d="M413.47569,81.2286a8.56228,8.56228,0,0,1-7.0331-2.3542,4.79682,4.79682,0,0,1-.8615-1.2785,8.55267,8.55267,0,0,1,.2665-6.8383c.0188-.0486.0416-.0957.06441-.1427a6.33354,6.33354,0,0,1,5.34519-3.441c2.6436-.1384,5.9452.9742,7.0883,3.5495a7.24124,7.24124,0,0,1,.5326,3.4201l.0041.0017C418.66439,77.3731,416.664,80.7416,413.47569,81.2286Z" transform="translate(-266.43375 -26.59915)"/>
        <path class="cls-4" d="M413.47569,81.2286a9.14841,9.14841,0,0,1-5.8651-1.2853,6.4114,6.4114,0,0,1-1.5765-1.33,5.22169,5.22169,0,0,1-.9695-1.8486,8.11536,8.11536,0,0,1-.3454-2.0626,9.48647,9.48647,0,0,1,.7673-4.1171l-.0122.0283a6.50309,6.50309,0,0,1,3.5281-3.4131,6.65683,6.65683,0,0,1,2.4384-.5017,9.65229,9.65229,0,0,1,2.4353.2616,7.20845,7.20845,0,0,1,4.1241,2.5489,5.47835,5.47835,0,0,1,.9663,2.2516,8.06268,8.06268,0,0,1,.10151,2.3963l-.12261-.1914.0038.0015.1361.0564-.01329.1346a9.48065,9.48065,0,0,1-1.68171,4.5026,7.03852,7.03852,0,0,1-1.7016,1.6886A5.22685,5.22685,0,0,1,413.47569,81.2286Zm0,0a5.21042,5.21042,0,0,0,2.1952-.9052,6.37232,6.37232,0,0,0,1.6336-1.7219,8.75454,8.75454,0,0,0,1.3879-4.4691l.12261.1907-.00421-.0014-.128-.0436.0053-.1481a7.6108,7.6108,0,0,0-.2379-2.2489,4.866,4.866,0,0,0-.9847-1.9531,6.82005,6.82005,0,0,0-3.7939-2.0826,7.512,7.512,0,0,0-4.3199.2234,6.17264,6.17264,0,0,0-1.8331,1.1371,5.59015,5.59015,0,0,0-.73559.7971c-.116.1399-.20731.2973-.31121.4465-.0829.1501-.1952.3283-.2509.4524l-.0123.0284a8.82409,8.82409,0,0,0-.9471,3.7668,7.63862,7.63862,0,0,0,.201,1.9563,4.87268,4.87268,0,0,0,.796,1.7857,7.05537,7.05537,0,0,0,3.2272,2.2999A8.26286,8.26286,0,0,0,413.47569,81.2286Z" transform="translate(-266.43375 -26.59915)"/>
      </g>
      <path class="cls-4" d="M409.48,78.7557a5.17492,5.17492,0,0,0,5.24669-.0364,5.26608,5.26608,0,0,0-2.9086-9.701c-4.2335.1-6.09609,5.7779-3.4926,8.8041A4.30869,4.30869,0,0,0,409.48,78.7557Z" transform="translate(-266.43375 -26.59915)"/>
      <path class="cls-7" d="M418.87809,74.1435c-6.0229-6.3428-12.2585-3.7444-13.0305-3.3859.0188-.0486.0416-.0957.06441-.1427a6.33354,6.33354,0,0,1,5.34519-3.441c2.6436-.1384,5.9452.9742,7.0883,3.5495A7.24124,7.24124,0,0,1,418.87809,74.1435Z" transform="translate(-266.43375 -26.59915)"/>
    </g>
    <g>
      <g>
        <path class="cls-6" d="M382.17359,79.2304a9.62845,9.62845,0,0,1-8.2405-1.286,5.3932,5.3932,0,0,1-1.1957-1.2552,9.61583,9.61583,0,0,1-.992-7.631c.01161-.0577.0282-.1142.04461-.1706a7.122,7.122,0,0,1,5.278-4.8211c2.90469-.6512,6.77439-.0392,8.52659,2.6006a8.14331,8.14331,0,0,1,1.2343,3.6916l.0047.0008C387.19989,73.9791,385.61639,78.0901,382.17359,79.2304Z" transform="translate(-266.43375 -26.59915)"/>
        <path class="cls-4" d="M382.17359,79.2304a10.25112,10.25112,0,0,1-6.7405-.3297,7.19548,7.19548,0,0,1-1.99009-1.1818,5.84858,5.84858,0,0,1-1.41151-1.865,9.09956,9.09956,0,0,1-.7614-2.2165,10.62976,10.62976,0,0,1,.0903-4.6891l-.0073.03a7.2772,7.2772,0,0,1,3.2505-4.4083,7.463,7.463,0,0,1,2.59-1.0076,10.81007,10.81007,0,0,1,2.7342-.1695,8.07948,8.07948,0,0,1,5.0268,2.0242,6.12185,6.12185,0,0,1,1.4931,2.2958,9.04337,9.04337,0,0,1,.5706,2.6271l-.1521-.1682.0046.0011.1423.0328.00991.1348a10.61762,10.61762,0,0,1-.999,5.3031,7.87254,7.87254,0,0,1-1.564,2.1936A5.8772,5.8772,0,0,1,382.17359,79.2304Zm0,0a5.862,5.862,0,0,0,2.2645-1.4155,7.20444,7.20444,0,0,0,1.4913-2.2153,9.886,9.886,0,0,0,.7149-5.2209l.1519.1674-.0047-.0008-.1333-.0227-.0188-.1455a8.59271,8.59271,0,0,0-.68039-2.459,5.5128,5.5128,0,0,0-1.46131-1.9982,7.68755,7.68755,0,0,0-4.6232-1.6198,8.47635,8.47635,0,0,0-4.7812,1.0676,6.9695,6.9695,0,0,0-1.8316,1.6219,6.31523,6.31523,0,0,0-.6683,1.0323c-.1029.1786-.1746.372-.262.5586-.064.1851-.1543.4021-.1938.5572l-.0074.03a9.96394,9.96394,0,0,0-.32619,4.3741,8.62316,8.62316,0,0,0,.60119,2.1358,5.498,5.498,0,0,0,1.23,1.8319,7.97653,7.97653,0,0,0,4.0219,1.9338A9.31955,9.31955,0,0,0,382.17359,79.2304Z" transform="translate(-266.43375 -26.59915)"/>
      </g>
      <path class="cls-4" d="M377.27809,77.2411A5.81939,5.81939,0,0,0,383.088,76.213a5.92172,5.92172,0,0,0-5.05091-10.2072c-4.6746.9079-5.6707,7.5532-2.2144,10.418A4.8519,4.8519,0,0,0,377.27809,77.2411Z" transform="translate(-266.43375 -26.59915)"/>
      <path class="cls-7" d="M386.82889,70.3587c-7.8713-5.8982-14.2951-1.8435-15.0835-1.3005.01161-.0577.0282-.1142.04461-.1706a7.122,7.122,0,0,1,5.278-4.8211c2.90469-.6512,6.77439-.0392,8.52659,2.6006A8.14331,8.14331,0,0,1,386.82889,70.3587Z" transform="translate(-266.43375 -26.59915)"/>
    </g>
    <path class="cls-8" d="M408.05459,82.1382a2.20667,2.20667,0,0,0,.2452,3.7937c2.1515,1.1481,6.0364.6533,7.7634-1.1017a2.61626,2.61626,0,0,0-1.3823-4.2634,8.32622,8.32622,0,0,0-4.3304.4293A8.06986,8.06986,0,0,0,408.05459,82.1382Z" transform="translate(-266.43375 -26.59915)"/>
    <path class="cls-8" d="M374.88849,80.1494a2.12811,2.12811,0,0,0-1.0666,3.5098,7.28524,7.28524,0,0,0,7.3946,1.6389,2.52292,2.52292,0,0,0,.1977-4.32,8.05072,8.05072,0,0,0-4.0616-1.0815A7.80229,7.80229,0,0,0,374.88849,80.1494Z" transform="translate(-266.43375 -26.59915)"/>
    <path class="cls-4" d="M425.22639,68.0739a5.51669,5.51669,0,0,1-1.4421-.2659,1.97677,1.97677,0,0,1-1.3766-1.1677,1.608,1.608,0,0,1,.4298-1.4844,4.07693,4.07693,0,0,1,1.3472-.8692q.54825-.249,1.0945-.4849A27.235,27.235,0,0,1,425.22639,68.0739Z" transform="translate(-266.43375 -26.59915)"/>
    <path class="cls-4" d="M425.07029,69.4712a29.393,29.393,0,0,1-1.4874,6.2122,9.338,9.338,0,0,1-1.4107-.6876c-.9093-.5374-1.8327-1.4252-1.6624-2.472.1416-.8603.9695-1.42,1.7526-1.8089A26.83161,26.83161,0,0,1,425.07029,69.4712Z" transform="translate(-266.43375 -26.59915)"/>
    <g>
      <path class="cls-4" d="M412.69359,83.2818a33.51875,33.51875,0,0,1,4.0693,1.221,33.15367,33.15367,0,0,1,3.9068,1.6693,33.10245,33.10245,0,0,1-4.0693-1.221A33.52612,33.52612,0,0,1,412.69359,83.2818Z" transform="translate(-266.43375 -26.59915)"/>
      <path class="cls-4" d="M421.77389,82.8222a31.25757,31.25757,0,0,1-4.0981-.1952,30.89021,30.89021,0,0,1-4.04779-.6694,30.92827,30.92827,0,0,1,4.09809.1951A31.30894,31.30894,0,0,1,421.77389,82.8222Z" transform="translate(-266.43375 -26.59915)"/>
      <path class="cls-4" d="M421.24439,78.4751a31.28758,31.28758,0,0,1-3.7665,1.6269,30.90884,30.90884,0,0,1-3.93,1.1787,30.921,30.921,0,0,1,3.7667-1.6269A31.25271,31.25271,0,0,1,421.24439,78.4751Z" transform="translate(-266.43375 -26.59915)"/>
    </g>
    <g>
      <path class="cls-4" d="M375.342,82.6708a33.5285,33.5285,0,0,1-4.20111.6323,33.10943,33.10943,0,0,1-4.2455.1575,33.12639,33.12639,0,0,1,4.201-.6323A33.49751,33.49751,0,0,1,375.342,82.6708Z" transform="translate(-266.43375 -26.59915)"/>
      <path class="cls-4" d="M366.66959,79.9407a31.26354,31.26354,0,0,1,4.086.3709,30.85537,30.85537,0,0,1,4.0153.8425,30.9319,30.9319,0,0,1-4.08589-.3708A31.29429,31.29429,0,0,1,366.66959,79.9407Z" transform="translate(-266.43375 -26.59915)"/>
      <path class="cls-4" d="M368.27619,75.8669a35.26588,35.26588,0,0,1,6.7426,4.6522,30.93358,30.93358,0,0,1-3.5067-2.1299A31.29632,31.29632,0,0,1,368.27619,75.8669Z" transform="translate(-266.43375 -26.59915)"/>
    </g>
    <path class="cls-4" d="M360.56489,73.9843a3.34847,3.34847,0,0,1-1.4636.3068,12.65721,12.65721,0,0,1-3.5374-.4271,22.06223,22.06223,0,0,1-2.38489-5.6652,12.92815,12.92815,0,0,0,3.98959,1.7703,17.90875,17.90875,0,0,1,2.31.6063,3.189,3.189,0,0,1,1.7826,1.5058,1.35867,1.35867,0,0,1-.6963,1.9031Z" transform="translate(-266.43375 -26.59915)"/>
    <path class="cls-4" d="M362.972,66.2914c-1.83171,1.6802-4.77441.2261-6.66081-.5489-1.3325-.5445-2.6343-1.1639-3.9074-1.8264a29.0533,29.0533,0,0,1,.0386-6.7357c3.5988,1.6542,8.862,4.3323,9.5834,4.7321a3.90342,3.90342,0,0,1,1.5353,1.361A2.50087,2.50087,0,0,1,362.972,66.2914Z" transform="translate(-266.43375 -26.59915)"/>
    <path class="cls-4" d="M361.42439,57.8212a17.43078,17.43078,0,0,1-6.7342-2.53c-.5699-.3205-1.132-.6597-1.6783-1.0273a19.99248,19.99248,0,0,1,.853-2.538,18.88137,18.88137,0,0,1,1.6128-3.0682c.6495.5916,1.31231,1.1778,1.97931,1.759,1.79169,1.5643,3.84389,2.8451,5.57979,4.4544a2.96238,2.96238,0,0,1,.7703.9826C364.44929,57.3687,362.534,57.9461,361.42439,57.8212Z" transform="translate(-266.43375 -26.59915)"/>
    <g>
      <g>
        <path class="cls-4" d="M397.12349,72.4452s-1.2492-2.2721-1.9981-2.076c-.7487.1961-.3821,2.3546,1.7293,3.5481,0,0,3.4261-1.9123,2.3717-2.8364C398.55289,70.4907,397.12349,72.4452,397.12349,72.4452Z" transform="translate(-266.43375 -26.59915)"/>
        <path class="cls-9" d="M392.15819,73.895a5.09252,5.09252,0,0,0-3.2311,2.3154,4.83564,4.83564,0,0,0,.0945,5.6405,6.26633,6.26633,0,0,0,3.2201,1.8841,12.76172,12.76172,0,0,0,6.9367.4569,5.90055,5.90055,0,0,0,2.37661-1.215,5.35929,5.35929,0,0,0,1.696-3.9674,5.14971,5.14971,0,0,0-1.74721-3.8794,7.77841,7.77841,0,0,0-4.8964-1.4171A21.36692,21.36692,0,0,0,392.15819,73.895Z" transform="translate(-266.43375 -26.59915)"/>
      </g>
      <path class="cls-4" d="M393.44579,84.0492l1.68-5.0778c.2693-.8489.5515-1.6924.8044-2.5439.2605-.848.5116-1.7022.6915-2.558l.1752-.8323.2805.7959a26.37235,26.37235,0,0,1,1.2385,5.0352,23.85006,23.85006,0,0,1,.2324,2.5793,17.67894,17.67894,0,0,1-.1228,2.5798,22.7009,22.7009,0,0,0-.1066-2.5659,25.02765,25.02765,0,0,0-.3601-2.5337c-.1674-.8361-.3473-1.6698-.5711-2.4923-.2218-.8208-.465-1.6445-.7553-2.4338l.4555-.0363c-.1901.8891-.4524,1.745-.7242,2.5981-.2833.849-.5669,1.6964-.8883,2.53q-.4743,1.25295-.9705,2.496C394.15719,82.412,393.82039,83.2382,393.44579,84.0492Z" transform="translate(-266.43375 -26.59915)"/>
    </g>
    <path class="cls-1" d="M398.54429,151.8452a5.97419,5.97419,0,0,1-.42,1.91,1.10843,1.10843,0,0,1-.09.19,3.46336,3.46336,0,0,1-.43.62,10.92289,10.92289,0,0,1-1.94,1.67,3.04017,3.04017,0,0,1-.25.18,9.4827,9.4827,0,0,0-1.27,1.19c-.13.14-.26.28-.39.44-.2301.26-.46.54-.7.84-1.37,1.72-2.91,3.98-4.3,6.12a.03674.03674,0,0,0-.01.03v.01c-.02.03-.04.07-.06.1a.90622.90622,0,0,0-.11.16c-.29.47-.56.92-.81,1.37-.2.37-.38.73-.53,1.08a4.42562,4.42562,0,0,0-.2.45,6.21965,6.21965,0,0,0-.3.89c-.02.08-.05.17-.07.26a.18539.18539,0,0,1-.02.07,22.90233,22.90233,0,0,1-.83,2.38c-.22.53-.45,1.09-.67,1.67a.23535.23535,0,0,0-.02.08,19.35835,19.35835,0,0,0-.99,3.31,3.41289,3.41289,0,0,1-.1101.46,6.62855,6.62855,0,0,1-2.1599,3.14,4.6,4.6,0,0,1-2.19,1.24,6.313,6.313,0,0,1-1.5.18,2.26021,2.26021,0,0,1-.26-.01h-.06a4.73257,4.73257,0,0,1-2.51-.84,3.7442,3.7442,0,0,1-.55-.41c-.12-.11-.22-.21-.32-.3-.01,0,0-.01,0-.01a1.73828,1.73828,0,0,1-.13-.15.138.138,0,0,0-.04-.03,1.05,1.05,0,0,1-.09-.11,3.96223,3.96223,0,0,1-.48-.71s-23.03,11.28-37.32,1.35a21.85552,21.85552,0,0,1-6.86-7.98,24.6422,24.6422,0,0,1-1.13-2.43,36.2323,36.2323,0,0,1-1.89-6.06,33.39929,33.39929,0,0,1-.75-7.95,32.4227,32.4227,0,0,1,.88-6.85,39.77183,39.77183,0,0,1,2.98-8.39c4.84-10,12.41-16.15,11.98-16.15.31-.28,4.74-2.99,15.92-2.21a39.0359,39.0359,0,0,1,5.26.27c19.13,3.18,15.41,39.96,15.41,39.96a33.0113,33.0113,0,0,1,2.9-5.93,26.82112,26.82112,0,0,1,6.67-6.68,4.222,4.222,0,0,1,.47-.31c.24-.15.47-.29.71-.43.15-.08.3099-.17.46-.24a3.7293,3.7293,0,0,1,.4-.2,11.78822,11.78822,0,0,1,2.52-.93,8.47727,8.47727,0,0,1,3.72-.02,3.52775,3.52775,0,0,1,1.51.93c.02.02.04.03.06.05a.462.462,0,0,1,.07.07A3.66049,3.66049,0,0,1,398.54429,151.8452Z" transform="translate(-266.43375 -26.59915)"/>
    <path class="cls-1" d="M366.88329,103.6294c-7.56229,2.7372-14.1572-2.4062-20.2808-10.6178a22.405,22.405,0,0,0-1.5023-1.795,31.773,31.773,0,0,0-8.74619-6.5439,38.75194,38.75194,0,0,0-7.12951-2.9282s10.7833-14.3225,24.9403-8.8481C368.33459,78.3581,374.44559,100.8922,366.88329,103.6294Z" transform="translate(-266.43375 -26.59915)"/>
    <path class="cls-4" d="M357.57689,102.7116a12.05009,12.05009,0,0,0,1.332-5.0959,14.95361,14.95361,0,0,0-.1713-2.6178c-.0473-.4427-.1684-.8739-.2363-1.3246-.09329-.444-.2184-.8823-.2908-1.3531a11.41315,11.41315,0,0,1,.7532,1.1881,9.66783,9.66783,0,0,1,.5336,1.3111,8.68737,8.68737,0,0,1,.4104,2.8303,7.83729,7.83729,0,0,1-.6384,2.8022A5.623,5.623,0,0,1,357.57689,102.7116Z" transform="translate(-266.43375 -26.59915)"/>
    <path class="cls-4" d="M365.55289,103.3452c.3876-1.5971.85-3.0877,1.0745-4.6051a10.45056,10.45056,0,0,0,.1497-2.2583,7.24423,7.24423,0,0,0-.5216-2.2607,3.95114,3.95114,0,0,1,1.2927,2.1412,6.4824,6.4824,0,0,1,.0665,2.533,9.028,9.028,0,0,1-.7306,2.3775A7.86284,7.86284,0,0,1,365.55289,103.3452Z" transform="translate(-266.43375 -26.59915)"/>
    <path class="cls-9" d="M365.68719,83.0693c-3.0715-2.5031-6.0041-5.1229-8.9946-7.6724q-2.22255-1.935-4.51059-3.7827a50.16209,50.16209,0,0,0-4.74311-3.4983,24.12515,24.12515,0,0,1,5.2098,2.8729,56.15523,56.15523,0,0,1,4.6949,3.6498A70.48623,70.48623,0,0,1,365.68719,83.0693Z" transform="translate(-266.43375 -26.59915)"/>
    <path class="cls-4" d="M350.76569,85.6148c-1.0186,2.6608-3.3611,4.1631-5.6655,5.6018a31.773,31.773,0,0,0-8.74619-6.5439,14.91948,14.91948,0,0,1,6.95119-3.221c2.1516-.3819,7.193-.7003,7.7277,2.2789A3.5582,3.5582,0,0,1,350.76569,85.6148Z" transform="translate(-266.43375 -26.59915)"/>
    <path class="cls-4" d="M332.42,58.332a19.74119,19.74119,0,0,0-.54751,4.0739,6.45151,6.45151,0,0,0,.713,3.4248,3.24822,3.24822,0,0,0,2.89,1.7059c1.795-.1528,2.8263-2.037,3.5902-3.6538a38.05518,38.05518,0,0,1,6.0091-9.5357c.4073-.4456.8403-.9039,1.273-1.3749L339.836,55.0568a7.75464,7.75464,0,0,0-.80541.3085Z" transform="translate(-266.43375 -26.59915)"/>
    <path class="cls-4" d="M322.14589,73.0873a5.00784,5.00784,0,0,1-3.8066,3.4629,5.15213,5.15213,0,0,1-4.7995-2.7626,53.61986,53.61986,0,0,1,8.2753-8.5044c.1654.8147.3436,1.6296.4964,2.4571A10.85132,10.85132,0,0,1,322.14589,73.0873Z" transform="translate(-266.43375 -26.59915)"/>
    <path class="cls-4" d="M391.61829,152.539s-.0815-2.9377-2.2848-3.2641" transform="translate(-266.43375 -26.59915)"/>
    <path class="cls-4" d="M343.67429,172.1611a8.185,8.185,0,0,1-2.2151,3.8321c-1.5405,1.6678-3.3357,3.1319-5.0416,4.6723a21.81826,21.81826,0,0,1-6.8621-7.9824,23.08513,23.08513,0,0,1,9.0264-4.4941,4.97465,4.97465,0,0,1,3.5393.1019A3.62011,3.62011,0,0,1,343.67429,172.1611Z" transform="translate(-266.43375 -26.59915)"/>
    <path class="cls-4" d="M335.75549,160.9705a6.40192,6.40192,0,0,1-2.3043,1.2348c-2.2533.7894-4.5959,1.3622-6.913,1.9861a32.62905,32.62905,0,0,1-.7511-7.9442,28.68653,28.68653,0,0,1,7.7405.3947c1.2476.2292,2.6863.7384,3.03,1.9605A2.4512,2.4512,0,0,1,335.75549,160.9705Z" transform="translate(-266.43375 -26.59915)"/>
    <path class="cls-4" d="M335.53919,145.3366a2.52755,2.52755,0,0,1-.7766,1.6424,6.63575,6.63575,0,0,1-2.7245,1.5277,20.62912,20.62912,0,0,1-5.3725.8912,39.34151,39.34151,0,0,1,2.979-8.3899,10.462,10.462,0,0,1,4.5323,2.1134A3.04809,3.04809,0,0,1,335.53919,145.3366Z" transform="translate(-266.43375 -26.59915)"/>
    <g>
      <path class="cls-4" d="M312.87769,229.0312a1.01438,1.01438,0,0,0-.20369.1018c-.713.3693-1.40041.7384-2.06251,1.0949-2.0751-3.6538-3.7811-7.1549-4.1249-7.8933a1.26988,1.26988,0,1,1,2.2916-1.0949C309.84769,223.4803,311.33719,226.3449,312.87769,229.0312Z" transform="translate(-266.43375 -26.59915)"/>
      <path class="cls-4" d="M329.32629,220.0557c-.07629.0383-.1528.0891-.2291.1274-.6748.3818-1.3496.7383-1.9989,1.1076-2.0369-3.5775-3.67929-6.9513-4.0229-7.6769a1.26982,1.26982,0,1,1,2.2915-1.0949C326.41089,214.6832,327.83679,217.4458,329.32629,220.0557Z" transform="translate(-266.43375 -26.59915)"/>
      <path class="cls-4" d="M345.26569,211.1312a1.39634,1.39634,0,0,0-.191.1019c-.67469.3818-1.3622.7639-2.0369,1.133-2.1261-3.7047-3.8575-7.2822-4.214-8.0205a1.27264,1.27264,0,1,1,2.2916-1.1077C342.21029,205.504,343.71249,208.4195,345.26569,211.1312Z" transform="translate(-266.43375 -26.59915)"/>
      <path class="cls-4" d="M360.70869,202.334c-.051.0255-.1019.0637-.1528.0891-.6876.3947-1.3622.7766-2.0497,1.1712-2.1898-3.7811-3.9976-7.4858-4.35419-8.2497a1.26991,1.26991,0,0,1,2.29169-1.0949C357.564,196.5667,359.11719,199.5714,360.70869,202.334Z" transform="translate(-266.43375 -26.59915)"/>
      <path class="cls-4" d="M377.14459,192.8874c-.051.0255-.1018.0637-.1528.0892-.6875.3947-1.3624.7893-2.0497,1.184-2.17709-3.7684-3.9849-7.4732-4.3414-8.2243a1.27271,1.27271,0,0,1,2.2917-1.1077C374,187.1458,375.55309,190.1375,377.14459,192.8874Z" transform="translate(-266.43375 -26.59915)"/>
      <path class="cls-4" d="M394.11519,183.0336c-.051.0254-.1019.0636-.1528.0891-.6747.3947-1.375.802-2.0625,1.184-2.2151-3.8194-4.0484-7.5878-4.4177-8.3516a1.27832,1.27832,0,0,1,.5985-1.706,1.26,1.26,0,0,1,1.6932.5983C390.907,177.2026,392.48559,180.2454,394.11519,183.0336Z" transform="translate(-266.43375 -26.59915)"/>
      <path class="cls-4" d="M409.55809,173.9563a1.76353,1.76353,0,0,1-.2038.1272c-.6619.382-1.3112.7766-1.9861,1.1712-2.0877-3.641-3.7938-7.1548-4.1375-7.8805a1.27269,1.27269,0,1,1,2.2917-1.1076C406.579,168.4818,408.04309,171.3082,409.55809,173.9563Z" transform="translate(-266.43375 -26.59915)"/>
      <path class="cls-4" d="M424.97539,164.8153c-.1019.0637-.1908.1145-.2927.1781-.6238.3693-1.2604.7512-1.90969,1.1332-1.85871-3.3483-3.34831-6.3911-3.66651-7.0658a1.26978,1.26978,0,1,1,2.2914-1.0949C422.35279,159.9392,423.62589,162.4218,424.97539,164.8153Z" transform="translate(-266.43375 -26.59915)"/>
      <path class="cls-4" d="M439.37439,156.1454c-.07639.0509-.1528.089-.2292.14-.6365.3819-1.2986.7766-1.9604,1.184-2.0244-3.5775-3.6796-6.964-4.0232-7.6896a1.2756,1.2756,0,0,1,2.3043-1.0949C436.49719,150.8364,437.91039,153.5609,439.37439,156.1454Z" transform="translate(-266.43375 -26.59915)"/>
      <path class="cls-4" d="M453.78609,147.2463c-.08909.0637-.191.1145-.28.1782-.5986.3819-1.2224.7639-1.8716,1.1713-1.8843-3.361-3.3737-6.4292-3.7047-7.1167a1.26987,1.26987,0,0,1,2.2916-1.0949C451.17629,142.3703,452.44929,144.8401,453.78609,147.2463Z" transform="translate(-266.43375 -26.59915)"/>
    </g>
    <path class="cls-10" d="M453.40709,87.976l.9037-6.9014a.72166.72166,0,0,1,.9998-.5696l6.3262,2.7113a.7216.7216,0,0,1,.0776,1.2876l-7.23,4.1901A.72157.72157,0,0,1,453.40709,87.976Z" transform="translate(-266.43375 -26.59915)"/>
    <path class="cls-1" d="M293.859,86.7276a.50746.50746,0,0,1-.14261-.0205.50172.50172,0,0,1-.3506-.3955l-1.5781-9.2451a.4986.4986,0,0,1,.1289-.4258.47892.47892,0,0,1,.417-.1553l9.2226.9785a.50044.50044,0,0,1,.3145.837l-7.6445,8.2666A.5.5,0,0,1,293.859,86.7276Zm-.97461-9.1787,1.2968,7.5938,6.2784-6.7901Z" transform="translate(-266.43375 -26.59915)"/>
    <path class="cls-1" d="M448.023,62.8549a3.09966,3.09966,0,1,1-3.09971-3.0998A3.09958,3.09958,0,0,1,448.023,62.8549Z" transform="translate(-266.43375 -26.59915)"/>
    <path class="cls-1" d="M335.21739,53.7237a4.1533,4.1533,0,1,1,4.1523-4.1533A4.15819,4.15819,0,0,1,335.21739,53.7237Zm0-7.3066a3.1533,3.1533,0,1,0,3.1523,3.1533A3.15751,3.15751,0,0,0,335.21739,46.4171Z" transform="translate(-266.43375 -26.59915)"/>
    <g>
      <path class="cls-10" d="M316.73009,34.6827a.57436.57436,0,0,1-.0704-.0049.49992.49992,0,0,1-.42569-.5644l.997-7.085a.50847.50847,0,0,1,.56449-.4258.5.5,0,0,1,.4258.5645l-.9971,7.0849A.5.5,0,0,1,316.73009,34.6827Z" transform="translate(-266.43375 -26.59915)"/>
      <path class="cls-10" d="M320.79349,31.5089l-.0293-.001-7.1425-.4209a.50015.50015,0,0,1-.4698-.5283.49415.49415,0,0,1,.5284-.4698l7.1425.4209a.5.5,0,0,1-.0293.9991Z" transform="translate(-266.43375 -26.59915)"/>
    </g>
    <g>
      <path class="cls-1" d="M460.78869,112.5118a.57436.57436,0,0,1-.0704-.0049.49993.49993,0,0,1-.4257-.5644l.9961-7.085a.51267.51267,0,0,1,.5644-.4258.5.5,0,0,1,.4258.5645l-.9961,7.0849A.5.5,0,0,1,460.78869,112.5118Z" transform="translate(-266.43375 -26.59915)"/>
      <path class="cls-1" d="M464.85119,109.338l-.0293-.001-7.1416-.4209a.50015.50015,0,0,1-.4698-.5283.48037.48037,0,0,1,.5283-.4698l7.1417.4209a.5.5,0,0,1-.0293.9991Z" transform="translate(-266.43375 -26.59915)"/>
    </g>
    <path class="cls-10" d="M482.55229,152.9112a.49648.49648,0,0,1-.2295-.0557l-6.583-3.4043a.50021.50021,0,0,1-.21479-.6738l3.24409-6.2754a.50047.50047,0,0,1,.67391-.2148l6.58389,3.4043a.50021.50021,0,0,1,.2149.6738l-3.2451,6.2754a.49989.49989,0,0,1-.4444.2705Zm-5.9092-4.1191,5.6944,2.9453,2.7861-5.3867-5.6953-2.9454Z" transform="translate(-266.43375 -26.59915)"/>
    <path class="cls-10" d="M268.11161,72.793h6.3952a.50818.50818,0,0,1,.50818.50818V79.3489a.50818.50818,0,0,1-.50818.50818h-6.39519a.50819.50819,0,0,1-.50819-.50819V73.30115a.50818.50818,0,0,1,.50818-.50818Z" transform="matrix(0.80593, -0.59201, 0.59201, 0.80593, -258.96651, 148.82992)"/>
    <g>
      <path class="cls-1" d="M480.97129,181.6651h-54.8584a.5.5,0,0,1,0-1h54.8584a.5.5,0,0,1,0,1Z" transform="translate(-266.43375 -26.59915)"/>
      <path class="cls-1" d="M426.34529,181.4249a.50015.50015,0,0,1-.2725-.9199l41.2295-26.7393a.50054.50054,0,1,1,.5449.8398l-41.2294,26.7393A.50566.50566,0,0,1,426.34529,181.4249Z" transform="translate(-266.43375 -26.59915)"/>
      <path class="cls-5" d="M442.84719,181.4923c-.0136,0-.0273-.001-.04-.002a.49854.49854,0,0,1-.459-.5371c.4893-6.2061-5.6006-10.7256-5.6621-10.7705a.50046.50046,0,1,1,.58991-.8086c.26949.1973,6.60249,4.9014,6.06829,11.6572A.49988.49988,0,0,1,442.84719,181.4923Z" transform="translate(-266.43375 -26.59915)"/>
    </g>
    <path class="cls-4" d="M294.37429,184.1552c-2.07.98-4.69,2.31-7.19,3.71-.27-.78-.56-1.59-.84-2.46v-.01c3.3-1.8,6.28-3.23,6.95-3.54a1.27048,1.27048,0,1,1,1.08,2.3Z" transform="translate(-266.43375 -26.59915)"/>
    <path class="cls-4" d="M291.05429,167.5652a1.27811,1.27811,0,0,1-1.02,1.5c-2.15.41-4.86,1-7.52,1.68-.16-.83-.32-1.66-.46-2.52,3.61-.9,6.79-1.52,7.51-1.66A1.27471,1.27471,0,0,1,291.05429,167.5652Z" transform="translate(-266.43375 -26.59915)"/>
    <path class="cls-4" d="M290.05429,152.0152a1.275,1.275,0,0,1-1.36,1.18c-2.31-.17-5.27-.29-8.1701-.3-.0299-.85-.0399-1.71-.0299-2.57,4,.03,7.6.27,8.39.34A1.258,1.258,0,0,1,290.05429,152.0152Z" transform="translate(-266.43375 -26.59915)"/>
    <path class="cls-4" d="M290.16429,135.0352a1.28622,1.28622,0,0,1-1.62.8c-1.8-.63-4.03-1.33-6.32-1.98q.255-1.245.57-2.49c3.24.93,5.94,1.83,6.58,2.06A1.27822,1.27822,0,0,1,290.16429,135.0352Z" transform="translate(-266.43375 -26.59915)"/>
    <path class="cls-4" d="M299.11429,115.2552a1.283,1.283,0,0,1-1.79.3c-1.66-1.21-3.78-2.65-5.96-4.03.46-.71.94-1.41,1.44-2.11,2.98,1.91,5.44,3.66,6.01,4.08A1.26664,1.26664,0,0,1,299.11429,115.2552Z" transform="translate(-266.43375 -26.59915)"/>
    <path class="cls-2" d="M397.42809,154.6222a5.04394,5.04394,0,0,1-1.4399,1.5318c-.42.31-.7039.9412-1.2939,1.5312a1.03767,1.03767,0,0,1-.49-.06.07347.07347,0,0,1-.06-.02.82238.82238,0,0,1-.47-.41,1.15938,1.15938,0,0,1-.06-.76,3.20643,3.20643,0,0,1,2.33-2.49,1.958,1.958,0,0,1,.9-.03,1.084,1.084,0,0,1,.55.31.68718.68718,0,0,1,.16.21.69434.69434,0,0,1,.05.13C397.62429,154.6152,397.41809,154.5722,397.42809,154.6222Z" transform="translate(-266.43375 -26.59915)"/>
    <path class="cls-2" d="M388.56629,156.412a.83342.83342,0,0,0,.0459.4188.72144.72144,0,0,0,.6173.391,1.61833,1.61833,0,0,0,.7429-.164,2.526,2.526,0,0,0,.8875-.5901c.5887-.6458.3936-1.7914-.638-1.6997A2.03773,2.03773,0,0,0,388.56629,156.412Z" transform="translate(-266.43375 -26.59915)"/>
    <path class="cls-2" d="M392.86329,159.0032a45.67018,45.67018,0,0,0-4.119,6.032v.01c-.02.03-.04.07-.06.1-.73,1.37-1.4101,2.77-2.02,4.21a.18539.18539,0,0,1-.02.07c-.16.63-.35,1.35-.57,2.13a.17556.17556,0,0,1-.04.05c-.07.07-.15.13-.22.2a1.43092,1.43092,0,0,1-.15.11,1.58138,1.58138,0,0,1-1.04.37,1.41,1.41,0,0,1-.83-.35c-.91-.81-.65-2.55-.42-3.6a15.26909,15.26909,0,0,1,1.47-3.91,11.28185,11.28185,0,0,1,5.99-5.55,3.10781,3.10781,0,0,1,1.78-.17,1.33385,1.33385,0,0,1,.33.13.53594.53594,0,0,1,.11.05C393.15429,158.9452,392.77329,158.9132,392.86329,159.0032Z" transform="translate(-266.43375 -26.59915)"/>
    <path class="cls-3" d="M398.12429,153.7552a1.10843,1.10843,0,0,1-.09.19,4.28067,4.28067,0,0,1-.39.77,5.29806,5.29806,0,0,1-1.42,1.61,12.12434,12.12434,0,0,0-1.5535,1.2688c-.42.41-1.0005.8486-1.4705,1.3786a47.86985,47.86985,0,0,0-4.456,6.0626v.01a.09984.09984,0,0,0-.04.05.07638.07638,0,0,0-.02.05.90622.90622,0,0,0-.11.16c-.3001.47-.57.93-.81,1.37-.2.37-.38.73-.53,1.08a4.42562,4.42562,0,0,0-.2.45,6.21965,6.21965,0,0,0-.3.89c-.02.08-.05.17-.07.26a.18539.18539,0,0,1-.02.07c-.16.63-.35,1.35-.57,2.13a33.74255,33.74255,0,0,1-1.86,5.35,3.87164,3.87164,0,0,1-.1901.42,11.63887,11.63887,0,0,1-1.8499,2.83c-.1.11-.2.21-.31.31-1.8401-1.98-2.47-6.55-1.04-11.16,2.21-7.18,8.39-17.07,12.63-17.59,2.4-.29,3.73.63,4.45,1.7A1.79071,1.79071,0,0,1,398.12429,153.7552Z" transform="translate(-266.43375 -26.59915)"/>
    <path class="cls-9" d="M373.75429,179.2352a3.41576,3.41576,0,0,0,.562.8879l.0012.0012.1704.1748.0014.0309.0008-.0017c.0086-.0095-.02-.0331-.0157-.0244l.0157.007.3211.2915.002.0016a5.34216,5.34216,0,0,0,1.4342.8322,5.73034,5.73034,0,0,0,1.6138.3579l-.0068-.0003.0598-.0008.0093.0005a5.92186,5.92186,0,0,0,2.1233-.2617,5.46184,5.46184,0,0,0,1.8569-1.0379,7.05162,7.05162,0,0,0,2.1295-3.6376l.0069-.0208.8655-3.3492-.01059.0688a1.8773,1.8773,0,0,1,.09029-.3388l.0856-.2675.1713-.535c.1095-.358.2285-.7135.3714-1.0628l.4061-1.0542.20331-.5273.10179-.2637.0509-.1318.02331-.062a.04262.04262,0,0,0-.005.0432l.02149-.1055,1.9999-4.2476-.0357.1426a.4618.4618,0,0,1,.1086-.2647l-.0567.0786a.92051.92051,0,0,1,.0965-.1393l-.0893.2151a.39564.39564,0,0,1,.0988-.2448l-.0531.0717a37.69734,37.69734,0,0,1,2.5468-4.2374,24.884,24.884,0,0,1,1.5732-1.9447c.5684-.6044,1.1819-1.1666,1.7606-1.7288a15.73913,15.73913,0,0,0,3.1047-3.6213,5.63636,5.63636,0,0,0,.747-2.1071,2.06286,2.06286,0,0,0-.8476-1.7667l-.0399-.0352-.06-.0498.0509.0435a5.92959,5.92959,0,0,0-3.7971-.83,9.39359,9.39359,0,0,0-2.0007.3441,10.27736,10.27736,0,0,0-1.8611.7423l-.05.0263-.0059.003c-.3588.178-.7253.4069-1.091.6295l-.0229.014-.0141.0092a18.5841,18.5841,0,0,0-3.3146,2.8309,29.71627,29.71627,0,0,0-2.7627,3.4673,55.154,55.154,0,0,0-4.3645,7.7881l-1.3957,2.9613.45011-3.245a69.789,69.789,0,0,0,.10409-18.4357,48.20351,48.20351,0,0,0-2.0137-8.9878,26.57821,26.57821,0,0,0-4.21139-8.0854,13.79009,13.79009,0,0,0-7.44311-4.9122,19.07458,19.07458,0,0,0-9.0943-.0713,28.22578,28.22578,0,0,0-8.4961,3.5476,43.52732,43.52732,0,0,0-7.3312,5.6852c1.0988-1.0951,2.22671-2.1653,3.4215-3.1611a38.91044,38.91044,0,0,1,3.7693-2.7491,28.597,28.597,0,0,1,8.52491-3.8005,19.56956,19.56956,0,0,1,9.357-.0646,14.4976,14.4976,0,0,1,7.88719,5.0378,26.2111,26.2111,0,0,1,4.4351,8.2952,49.07942,49.07942,0,0,1,2.0971,9.1448,70.52151,70.52151,0,0,1-.0179,18.6977l-.94549-.2836a56.10468,56.10468,0,0,1,4.48259-7.9051,30.64917,30.64917,0,0,1,2.8689-3.5637,19.22675,19.22675,0,0,1,3.5464-2.9846l-.0366.023c.40271-.2445.7988-.4929,1.24871-.7103l-.05551.0291a10.79591,10.79591,0,0,1,2.0911-.8322,10.28493,10.28493,0,0,1,2.1929-.3661,9.592,9.592,0,0,1,2.2317.1272,5.41388,5.41388,0,0,1,2.125.8874l.0512.0438.0597.05-.0395-.035a2.93123,2.93123,0,0,1,1.1665,2.49,6.13984,6.13984,0,0,1-.8787,2.4765,16.44749,16.44749,0,0,1-3.3006,3.7553c-.6021.5677-1.2035,1.1026-1.7633,1.6806-.5157.6098-1.0754,1.1765-1.5363,1.8441a37.04238,37.04238,0,0,0-2.563,4.1271l-.0533.0721a.23482.23482,0,0,0,.0789-.1852l-.0895.2154a.02325.02325,0,0,0,.0168-.0196l-.0569.0791a.18761.18761,0,0,0,.0687-.1652l-.0358.143-2.0399,4.1721.0213-.1051a.70343.70343,0,0,1-.0434.1777l-.0274.0683-.0515.1284-.10319.2569-.20641.5138-.4134,1.028c-.1439.3398-.26919.6889-.3873,1.0415l-.1825.5264-.0913.2633c-.0282.0708-.06909.2213-.0744.1954l-.0108.0692-.9544,3.3504.0068-.0204a7.37289,7.37289,0,0,1-2.3191,3.747,5.70523,5.70523,0,0,1-1.9656,1.0378,6.10262,6.10262,0,0,1-2.2053.2177l.0089.0005-.0598-.0007-.0046-.0001-.0027-.0002a5.74611,5.74611,0,0,1-1.64109-.4172,5.42658,5.42658,0,0,1-1.43041-.8926l.0015.0013-.3185-.3082.01541.0069c-.00031.0094-.03531-.0177-.02381-.0326a.04313.04313,0,0,1,.0089-.0134l.0014.0306-.1693-.1849.0009.0009A3.42793,3.42793,0,0,1,373.75429,179.2352Z" transform="translate(-266.43375 -26.59915)"/>
  </g>
</svg>
