<svg id="OBJECTS" xmlns="http://www.w3.org/2000/svg" viewBox="0 0 204.67779 177.11822">
  <defs>
    <style>
      .cls-1 {
        fill: #8dd5b6;
      }

      .cls-2 {
        fill: #e49046;
      }

      .cls-11, .cls-3, .cls-8, .cls-9 {
        fill: #8b3433;
      }

      .cls-4 {
        fill: #edbc89;
      }

      .cls-5 {
        fill: #ade5dc;
      }

      .cls-6 {
        fill: #dc5656;
      }

      .cls-6, .cls-9 {
        opacity: 0.48;
      }

      .cls-7 {
        fill: #fff;
      }

      .cls-8 {
        opacity: 0.21;
      }

      .cls-10 {
        fill: #af542c;
      }

      .cls-11 {
        opacity: 0.2;
      }
    </style>
  </defs>
  <g>
    <path class="cls-1" d="M213.04079,119.1709a1.02169,1.02169,0,0,1-.9614-1.3629q.16592-.464.3178-.936a1.02049,1.02049,0,0,1,1.9427.6257q-.163.50205-.3378.9948A1.02145,1.02145,0,0,1,213.04079,119.1709Zm1.3449-4.9151a1.02021,1.02021,0,0,1-1.0022-1.2154c.0627-.3223.12051-.647.1754-.9743a1.01981,1.01981,0,1,1,2.0123.3327q-.08505.52095-.18519,1.0321A1.02018,1.02018,0,0,1,214.38569,114.2558Zm.6167-5.058c-.018,0-.0369-.0005-.0548-.0014a1.02059,1.02059,0,0,1-.9654-1.073c.018-.3278.0319-.6585.0399-.9922a1.04651,1.04651,0,0,1,1.047-.9929,1.0209,1.0209,0,0,1,.9933,1.0466q-.015.52755-.0418,1.0471A1.02091,1.02091,0,0,1,215.00239,109.1978Zm-.0558-5.0968a1.01924,1.01924,0,0,1-1.0162-.948c-.0239-.3292-.0508-.6604-.0827-.9937a1.02065,1.02065,0,0,1,2.0324-.1903c.0318.3492.0607.6954.0847,1.0396a1.01974,1.01974,0,0,1-.9445,1.0899C214.99539,104.1,214.97049,104.101,214.94659,104.101ZM214.31,99.0425a1.02093,1.02093,0,0,1-1.00331-.8393q-.088-.48945-.1852-.9844a1.01975,1.01975,0,1,1,2.0004-.3974q.1032.51255.1933,1.0201a1.01954,1.01954,0,0,1-1.00519,1.201Zm-1.12981-4.9713a1.02161,1.02161,0,0,1-.9823-.7477q-.1344-.4842-.278-.9559a1.0202,1.0202,0,0,1,1.9527-.5918c.0996.3297.1983.664.2919,1.0017a1.0227,1.0227,0,0,1-.9843,1.2937Zm-1.6608-4.8154a1.01888,1.01888,0,0,1-.94039-.6262q-.19427-.4617-.39651-.9115a1.02026,1.02026,0,1,1,1.861-.8369q.21227.4737.4164.9594a1.02064,1.02064,0,0,1-.9405,1.4152Zm-2.2873-4.5514a1.01969,1.01969,0,0,1-.8767-.4967c-.16939-.2844-.3437-.5644-.5201-.8398a1.02,1.02,0,1,1,1.7175-1.1009q.2826.4401.554.8937a1.0204,1.0204,0,0,1-.8747,1.5437Zm-2.949-4.1514a1.01832,1.01832,0,0,1-.783-.3652q-.31845-.3795-.6466-.7466a1.02,1.02,0,0,1,1.5224-1.358q.348.3909.6883.794a1.02028,1.02028,0,0,1-.7811,1.6758Zm-3.5845-3.6214a1.0184,1.0184,0,0,1-.6645-.2456q-.375-.32205-.76009-.6296a1.02065,1.02065,0,0,1,1.27519-1.594q.41235.33015.8139.6744a1.02065,1.02065,0,0,1-.6645,1.7948Zm-4.1205-2.9978a1.01816,1.01816,0,0,1-.534-.1514q-.42-.25845-.84889-.5046a1.0202,1.0202,0,0,1,1.01629-1.7693q.4557.26145.9026.5365a1.02013,1.02013,0,0,1-.536,1.8888Zm-4.519-2.3471a1.0113,1.0113,0,0,1-.4055-.0852q-.45435-.19725-.9145-.3836a1.01987,1.01987,0,1,1,.7651-1.8908q.4842.1956.9623.4029a1.02071,1.02071,0,0,1-.4074,1.9567Zm-4.7871-1.7365a1.01771,1.01771,0,0,1-.2908-.0429q-.47685-.1419-.9575-.273a1.02008,1.02008,0,1,1,.536-1.9685q.5052.1374,1.0033.2859a1.02057,1.02057,0,0,1-.291,1.9985Zm-4.9553-1.1945a1.00613,1.00613,0,0,1-.1913-.018q-.4902-.09255-.9843-.1768a1.02,1.02,0,1,1,.3407-2.0114q.51255.0867,1.0242.1838a1.02016,1.02016,0,0,1-.1893,2.0224Z" transform="translate(-21.871 -33.50545)"/>
    <g>
      <g>
        <path class="cls-1" d="M61.1095,167.1087a1.02,1.02,0,0,1-.0378-2.0393q.4947-.01935.9943-.0498a1.02013,1.02013,0,0,1,.1256,2.0364q-.5232.0321-1.0422.0518C61.1365,167.1087,61.1235,167.1087,61.1095,167.1087Zm-4.0756-.0323c-.0199,0-.0389-.0005-.0588-.0015-.3487-.0199-.6964-.0433-1.0411-.0707a1.02068,1.02068,0,0,1-.9365-1.0984,1.03242,1.03242,0,0,1,1.0979-.936q.4962.0396.9953.0678a1.02023,1.02023,0,0,1-.0568,2.0388Zm9.1516-.4443a1.02028,1.02028,0,0,1-.1495-2.0294c.3288-.0488.6576-.1011.9884-.1564a1.01991,1.01991,0,1,1,.3387,2.0115c-.3427.0582-.6855.1125-1.0262.1633A1.05234,1.05234,0,0,1,66.1855,166.6321Zm-14.2136-.1589a1.00687,1.00687,0,0,1-.1883-.0175c-.3447-.0642-.6884-.133-1.0281-.2062a1.02021,1.02021,0,0,1,.4304-1.9945q.48255.10395.9723.1953a1.02008,1.02008,0,0,1-.1863,2.0229Zm-4.9315-1.2827a1.03224,1.03224,0,0,1-.3278-.0543q-.50205-.1704-.9913-.3537a1.02017,1.02017,0,0,1,.7154-1.9108q.46035.17175.9315.3317a1.02065,1.02065,0,0,1-.3278,1.9871ZM42.359,163.177a1.01962,1.01962,0,0,1-.4782-.1195q-.4662-.2481-.9225-.5111a1.01979,1.01979,0,1,1,1.0181-1.7673q.426.24495.8628.4771a1.02025,1.02025,0,0,1-.4802,1.9208Zm-4.266-2.7785a1.01551,1.01551,0,0,1-.6306-.2186c-.2789-.2198-.5509-.4449-.8199-.6746a1.02026,1.02026,0,0,1,1.327-1.5501q.37065.31755.7562.6217a1.0204,1.0204,0,0,1-.6327,1.8216Zm-3.6602-3.5367a1.0155,1.0155,0,0,1-.78-.3622q-.3438-.4056-.6675-.8253a1.02019,1.02019,0,0,1,1.6139-1.2484q.2973.3849.6117.7577a1.01965,1.01965,0,0,1-.7781,1.6782Zm-2.8473-4.2132a1.02022,1.02022,0,0,1-.9026-.5424q-.2496-.4716-.4782-.9535a1.02023,1.02023,0,0,1,1.843-.8757q.21075.44235.4384.8738a1.02,1.02,0,0,1-.4244,1.3792A1.00938,1.00938,0,0,1,31.5855,152.6486Zm-1.8829-4.7292a1.02215,1.02215,0,0,1-.9823-.7472c-.0937-.3393-.1823-.6825-.263-1.0291a1.02,1.02,0,1,1,1.9865-.4643q.112.4782.243.9464a1.022,1.022,0,0,1-.9842,1.2942Zm-.8558-5.0167a1.01923,1.01923,0,0,1-1.0162-.9479q-.03735-.52455-.0538-1.0575a1.01968,1.01968,0,1,1,2.0383-.0658c.011.3293.027.655.0499.9788a1.01983,1.01983,0,0,1-.9445,1.09C28.8956,142.9017,28.8707,142.9027,28.8468,142.9027Zm.1105-5.0918a1.02267,1.02267,0,0,1-1.0151-1.1288q.0552-.52.1295-1.046a1.02012,1.02012,0,1,1,2.0204.2839q-.0687.49305-.1215.9792A1.02024,1.02024,0,0,1,28.9573,137.8109Zm.9385-5.0082a1.02159,1.02159,0,0,1-.9872-1.2803c.0876-.3347.1823-.6719.2809-1.0106a1.02065,1.02065,0,0,1,1.9587.5748q-.14205.47985-.267.9549A1.02036,1.02036,0,0,1,29.8958,132.8027Zm1.5861-4.8443a1.02108,1.02108,0,0,1-.9684-1.3424q.15555-.4671.2929-.9366a1.01991,1.01991,0,1,1,1.9586.5699q-.1464.50655-.3148,1.0102A1.02147,1.02147,0,0,1,31.4819,127.9584Zm1.1566-4.9604a1.04675,1.04675,0,0,1-.1415-.0095,1.02017,1.02017,0,0,1-.8697-1.1511q.06735-.48945.1196-.9799a1.0199,1.0199,0,1,1,2.0284.2153q-.05535.523-.1275,1.0455A1.02056,1.02056,0,0,1,32.6385,122.998Zm.2889-5.0873a1.02081,1.02081,0,0,1-1.0201-.9993q-.0105-.4968-.0339-.9928a1.02032,1.02032,0,1,1,2.0384-.0956c.0159.3487.0289.6974.0358,1.0466a1.0215,1.0215,0,0,1-.9993,1.0411Zm-.4413-5.079a1.02064,1.02064,0,0,1-1.0082-.8708q-.0732-.4938-.1574-.9863a1.02052,1.02052,0,0,1,2.0124-.3407q.0867.51345.1634,1.0282a1.02012,1.02012,0,0,1-1.0102,1.1696Zm-1.0032-4.9992a1.02027,1.02027,0,0,1-.9893-.7751q-.12105-.4857-.2491-.9699a1.0198,1.0198,0,1,1,1.9706-.526q.13455.5022.2591,1.0057a1.02034,1.02034,0,0,1-.9913,1.2653Zm-1.4287-4.9126a.99719.99719,0,0,1-.9384-.644c-.009-.023-.027-.0767-.0339-.1007-.0926-.2814-.1963-.5893-.3018-.897a1.02,1.02,0,1,1,1.9287-.6646c.1096.3168.2152.6337.3198.9499a1.03428,1.03428,0,0,1-.6236,1.2957A1.05386,1.05386,0,0,1,30.0542,102.9199Zm-1.7424-4.7741a1.02176,1.02176,0,0,1-.9485-.644l-.3775-.9434a1.02048,1.02048,0,0,1,1.8929-.7632l.3815.9534a1.02187,1.02187,0,0,1-.9484,1.3972Zm-1.9039-4.7357a1.02163,1.02163,0,0,1-.9484-.644l-.3756-.9589a1.02,1.02,0,0,1,1.9029-.7352l.3696.9409a1.02168,1.02168,0,0,1-.9485,1.3972Zm-1.7524-4.7895a1.02234,1.02234,0,0,1-.9694-.7013c-.1085-.3308-.2122-.6625-.3138-.9953a1.02033,1.02033,0,1,1,1.9527-.5927q.1434.475.2999.9494a1.02163,1.02163,0,0,1-.9694,1.3399Zm-1.2921-4.9299a1.01959,1.01959,0,0,1-1.0012-.8319q-.0972-.5178-.1784-1.0376a1.02011,1.02011,0,0,1,2.0164-.3108q.07485.4872.1664.9718a1.01965,1.01965,0,0,1-1.0032,1.2085Zm-.4723-5.077h-.0079A1.01283,1.01283,0,0,1,21.871,77.602c.005-.3914.0209-.7466.0488-1.0983a1.02027,1.02027,0,1,1,2.0343.1594q-.0357.46335-.0428.937A1.0276,1.0276,0,0,1,22.8911,78.6137Zm24.9563-4.4731a1.01178,1.01178,0,0,1-.4384-.0997,5.476,5.476,0,0,1-1.058-.6659,1.0201,1.0201,0,1,1,1.2733-1.5941,3.46159,3.46159,0,0,0,.6635.4189,1.0202,1.0202,0,0,1-.4404,1.9408Zm3.9462-.0857a1.02025,1.02025,0,0,1-.4553-1.9337,2.53,2.53,0,0,0,.5987-.4085,1.0201,1.0201,0,0,1,1.3868,1.4964,4.57681,4.57681,0,0,1-1.077.7392A1.01474,1.01474,0,0,1,51.7936,74.0549Zm-27.948-.413a1.021,1.021,0,0,1-.9495-1.3937c.1346-.3418.283-.677.4424-1.0062a1.02051,1.02051,0,0,1,1.835.8936q-.2061.4206-.3785.8587A1.0212,1.0212,0,0,1,23.8456,73.6419Zm20.9682-3.4306a1.02144,1.02144,0,0,1-.9694-.7013c-.1126-.3417-.2132-.6985-.2999-1.0675a1.0203,1.0203,0,0,1,1.9866-.4663c.0727.3093.1574.6083.2521.8951a1.02165,1.02165,0,0,1-.9694,1.34Zm54.1765-.2863a1.02192,1.02192,0,0,1-.9275-.5944c-.004-.0099-.1525-.3307-.4355-.8936a1.01985,1.01985,0,1,1,1.8212-.9185c.3099.6141.4692.9609.4692.9609a1.02091,1.02091,0,0,1-.9274,1.4456Zm-45.3776-.2113a1.02048,1.02048,0,0,1-.9963-.804,5.16649,5.16649,0,0,0-.25-.8134,1.02048,1.02048,0,1,1,1.8969-.7532,7.30925,7.30925,0,0,1,.3477,1.1342,1.02031,1.02031,0,0,1-.7811,1.2135A1.04741,1.04741,0,0,1,53.6127,69.7137Zm-27.0354-.3392a1.0202,1.0202,0,0,1-.7372-1.725q.37515-.39375.7821-.7632a1.02022,1.02022,0,0,1,1.3708,1.5114c-.2352.2132-.4603.4338-.6784.6614A1.01571,1.01571,0,0,1,26.5773,69.3745Zm4.0926-3.0047a1.02,1.02,0,0,1-.4771-1.9223q.4692-.24735.9294-.4767a1.02028,1.02028,0,0,1,.9086,1.8271q-.43935.2181-.8856.4538A1.01411,1.01411,0,0,1,30.6699,66.3698Zm20.2171-.8573a1.0176,1.0176,0,0,1-.6496-.2341,9.11015,9.11015,0,0,0-.7352-.5479,1.02,1.02,0,0,1,1.1357-1.6947q.4767.3198.9006.6704a1.0204,1.0204,0,0,1-.6515,1.8063Zm45.6823-.1036a1.02084,1.02084,0,0,1-.8797-.5016q-.24645-.41925-.518-.8648a1.01984,1.01984,0,1,1,1.7414-1.062q.27945.458.5341.8897a1.0204,1.0204,0,0,1-.8778,1.5387Zm-52.3801-.2326-.0439-.001a1.01936,1.01936,0,0,1-.9763-1.0615c.0149-.3537.0398-.7129.0757-1.0755a1.00386,1.00386,0,0,1,1.081-.918,1.058,1.058,0,0,1,.0129-.2163,1.01886,1.01886,0,0,1,1.1736-.8383c.3696.0612.7273.135,1.0739.2192a1.02037,1.02037,0,0,1-.4841,1.9825c-.2661-.0652-.541-.1225-.823-.1718a.98047.98047,0,0,1-.004.143q-.0477.48555-.0677.9599A1.01992,1.01992,0,0,1,44.1892,65.1763Zm-8.8627-.8757a1.02062,1.02062,0,0,1-.3428-1.9816c.3388-.1206.6716-.2326,1.0013-.3368a1.02,1.02,0,0,1,.6157,1.9448q-.45885.14565-.9316.3138A1.02277,1.02277,0,0,1,35.3265,64.3006Zm4.9364-1.2355a1.02,1.02,0,0,1-.1365-2.0308q.5439-.074,1.066-.118a1.02026,1.02026,0,0,1,.1714,2.0333q-.4722.0396-.9624.1062A1.01763,1.01763,0,0,1,40.2629,63.0651ZM93.8187,61.102a1.02,1.02,0,0,1-.8398-.4388q-.2826-.40875-.5799-.8249a1.02036,1.02036,0,0,1,1.6617-1.1846q.30345.4275.5958.8469a1.02072,1.02072,0,0,1-.8378,1.6014Zm-48.735-.9329a1.02082,1.02082,0,0,1-.9723-1.3286q.1584-.50355.3447-1.0096a1.02016,1.02016,0,1,1,1.9149.7043q-.1689.4611-.3148.921A1.02051,1.02051,0,0,1,45.0837,60.1691Zm45.6675-3.1507a1.0171,1.0171,0,0,1-.79-.3736q-.317-.3864-.6426-.7716a1.02,1.02,0,0,1,1.5562-1.319q.33765.3981.6644.7975a1.02017,1.02017,0,0,1-.788,1.6667Zm-43.5693-1.486a1.0194,1.0194,0,0,1-.8717-1.5476q.27345-.45345.5738-.9016a1.02,1.02,0,1,1,1.6936,1.1372q-.27345.40725-.522.8194A1.01766,1.01766,0,0,1,47.1819,55.5324Zm40.1572-2.3118a1.01757,1.01757,0,0,1-.7233-.3008c-.2342-.2352-.4703-.4693-.7114-.7004a1.02023,1.02023,0,0,1,1.4147-1.4704q.3765.36315.7432.7323a1.0198,1.0198,0,0,1-.7232,1.7393Zm-37.0379-1.71a1.01964,1.01964,0,0,1-.7292-1.733q.3675-.37665.7591-.7447a1.02055,1.02055,0,0,1,1.3967,1.4884c-.239.2242-.4723.4518-.6974.682A1.01436,1.01436,0,0,1,50.3012,51.5106ZM83.5393,49.817a1.01218,1.01218,0,0,1-.6296-.2188q-.39-.30615-.7891-.6032A1.02059,1.02059,0,0,1,83.34,47.3581q.42.3132.8309.6372a1.01974,1.01974,0,0,1-.6316,1.8217ZM54.2324,48.2793a1.02027,1.02027,0,0,1-.5628-1.8721q.43935-.28905.8975-.5658a1.02033,1.02033,0,1,1,1.054,1.7474c-.2818.1699-.5588.3442-.8278.522A1.01681,1.01681,0,0,1,54.2324,48.2793Zm25.0788-1.3091a1.022,1.022,0,0,1-.4982-.1301q-.4287-.2406-.8657-.4647a1.02036,1.02036,0,0,1,.9325-1.8152q.4692.2406.9316.4996a1.02057,1.02057,0,0,1-.5002,1.9104ZM58.7345,45.9051a1.02066,1.02066,0,0,1-.3915-1.9631q.48255-.2001.9823-.387a1.02015,1.02015,0,0,1,.7153,1.9108q-.4647.174-.9146.3612A1.0297,1.0297,0,0,1,58.7345,45.9051Zm15.9202-.9863a1.00609,1.00609,0,0,1-.3129-.0498q-.4632-.14865-.9324-.278a1.0199,1.0199,0,1,1,.5379-1.9676q.51405.14055,1.0202.304a1.02023,1.02023,0,0,1-.3128,1.9914ZM63.5863,44.36a1.02032,1.02032,0,0,1-.2152-2.0175q.52605-.11355,1.0471-.2017a1.02007,1.02007,0,1,1,.3407,2.0115c-.3169.0537-.6347.115-.9555.1847A1.03989,1.03989,0,0,1,63.5863,44.36Zm6.0841-.4309c-.0259,0-.0518-.0011-.0777-.003-.3198-.0239-.6436-.0409-.9684-.0494a1.02067,1.02067,0,0,1-.9932-1.0465,1.04124,1.04124,0,0,1,1.0471-.9928q.5379.01425,1.0679.0543a1.02015,1.02015,0,0,1-.0757,2.0374Z" transform="translate(-21.871 -33.50545)"/>
        <path class="cls-2" d="M174.3602,106.3449a41.59678,41.59678,0,0,0-1.9867-7.9889,56.08464,56.08464,0,0,0-4.3199-9.2602,25.6121,25.6121,0,0,0,5.5943-10.9212c.0755-.3279.1528-.6725.2218-1.0178.1456-.7654.268-1.5501.3524-2.3723l.0102-.0996c.0664-.6478.1105-1.323.123-2.0182.007-.1503.0132-.2923.012-.4435.0062-.142.0049-.2932.0029-.4361a37.475,37.475,0,0,0-.2319-3.9594c-.0233-.2626-.056-.5177-.0959-.782-.0842-.5708-.1774-1.1342-.3048-1.6928a1.08682,1.08682,0,0,0-.0254-.162,24.78809,24.78809,0,0,0-.9442-3.3109c-.0982-.2702-.1964-.5405-.3028-.8115a21.98947,21.98947,0,0,0-8.9398-10.3659,1.3925,1.3925,0,0,0,.0909-.1501,17.39847,17.39847,0,0,0,1.996-9.4793,3.146,3.146,0,0,0-.6205-1.6412,1.113,1.113,0,0,0-.4221-.3035c-2.5507-1.0672-5.0975-.0445-6.9717,1.7017-1.2805,1.1945-2.3238,2.7742-3.7262,3.8473-.1081.0727-1.0286.7841-1.7225,1.2499l-.1615.101-.0007.0082c-1.0062-.2542-2.0406-.4777-3.1266-.6898-.3944-.0824-.7978-.1574-1.2188-.2258-.1153-.0202-.2309-.0405-.3546-.0614-3.7113-.6326-7.2082-1.0667-10.4794-1.3267-.7574-.0608-1.5082-.1043-2.234-.1452l-.0083-.0008c-1.7949-.0917-3.5026-.1326-5.1507-.1003-.1752-.0096-.3521-.0025-.5199-.0029-1.32.0239-2.5778.0965-3.7966.1981a.71953.71953,0,0,1,.0052-.1339,13.51519,13.51519,0,0,0-1.9125-6.7165c-1.1009-1.8668-2.4358-3.17-3.3947-3.3104-2.1167-.3094-3.8322,4.063-5.8199,7.3248-1.9577,3.2148-7.1254,9.8261-7.1254,9.8261a15.7981,15.7981,0,0,0-2.6038,3.5427c-.1744.3094-.3247.6296-.4751.95-.0753.16-.1412.3127-.2073.4654-.1111.2655-.213.5236-.3151.7816-.0651.1444-.1136.2905-.1797.4432q-.5568,1.44075-.9711,2.8757c-1.6076.4101-3.2097.8417-4.7981,1.3186q-1.90335.576-3.79,1.2105-4.9962,1.6779-9.8255,3.8066-.4758.213-.9516.4258a41.64349,41.64349,0,0,0-5.4179,2.6212,59.94366,59.94366,0,0,0-10.6936,7.6467,56.23456,56.23456,0,0,0-5.2258,5.301,53.55013,53.55013,0,0,0-11.637,22.6896c-.1001.3505-.1837.7095-.2588,1.0685-.2421,1.0852-.4591,2.2038-.6428,3.3475-.3923,2.446-.6929,4.8669-.8765,7.246-.0501.5008-.0835,1.0017-.1169,1.4943a77.6609,77.6609,0,0,0,.167,12.814,65.67,65.67,0,0,0,1.152,7.4631,55.40516,55.40516,0,0,0,2.7131,8.9406,46.65659,46.65659,0,0,0,3.4643,6.9287,39.345,39.345,0,0,0,26.9721,18.4739c26.7301,5.1675,85.3741-42.4657,85.3741-42.4657a20.05441,20.05441,0,0,0,3.0554-4.0655,27.80454,27.80454,0,0,0,3.2139-8.1809A32.0108,32.0108,0,0,0,174.3602,106.3449Z" transform="translate(-21.871 -33.50545)"/>
        <path class="cls-3" d="M189.5766,173.319c-19.3088,28.6-54.9691,17.6321-54.9691,17.6321l-.8515-3.406c22.1053,3.1889,54.4117-2.7632,55.2632-36.9812.384-15.594-7.2542-25.3775-15.4518-31.3378a26.67392,26.67392,0,0,0,.9848-5.8355C196.0398,126.1963,202.69959,153.8934,189.5766,173.319Z" transform="translate(-21.871 -33.50545)"/>
        <path class="cls-3" d="M137.6718,184.6239l.2788,10.5156,14.4549,8.3952a26.63556,26.63556,0,0,1-18.5375,7.0845c-5.1052-.0935-11.4532-2.3615-17.7112-6.7303l14.0741-8.0245.3166-12.1904Z" transform="translate(-21.871 -33.50545)"/>
        <path class="cls-4" d="M81.2554,120.1237c.6203-.155,23.1403-22.7256,51.9813-17.6086,28.8409,5.117,9.1484,42.6412,9.1484,42.6412L94.627,141.9Z" transform="translate(-21.871 -33.50545)"/>
        <path class="cls-1" d="M175.9464,147.9008a41.63046,41.63046,0,1,1-32.5903-40.6376s0-.0083.0084,0a41.6318,41.6318,0,0,1,32.5568,39.1935C175.938,146.9408,175.9464,147.4166,175.9464,147.9008Z" transform="translate(-21.871 -33.50545)"/>
        <path class="cls-5" d="M175.9464,147.9008a41.422,41.422,0,0,1-8.8822,25.7032,4.87691,4.87691,0,0,1-.6261-.2503c-1.4692-.7013-2.5962-2.0286-4.1239-2.5962-2.3123-.8599-5.2843.0834-7.0956-1.5862-.8432-.7763-1.2106-1.9617-1.9869-2.7965-1.7697-1.9117-4.9086-1.4275-7.2877-.3757-1.0018.4424-2.1622.9601-3.1388.4592-1.3691-.7097-1.152-2.7549-.4842-4.1489a13.35718,13.35718,0,0,1,11.1778-7.4046c1.8783-.0918,3.765.2337,5.6516.2587a8.40474,8.40474,0,0,0,5.3593-1.4442c1.5527-1.2187,2.3124-3.1722,3.5813-4.6831a8.11055,8.11055,0,0,1,7.8303-2.5795C175.938,146.9408,175.9464,147.4166,175.9464,147.9008Z" transform="translate(-21.871 -33.50545)"/>
        <path class="cls-5" d="M128.9392,170.1564c-1.0518,2.9134-4.1489,4.9169-4.5913,7.9889-.217,1.5027.2504,3.0804-.2254,4.5247a4.86483,4.86483,0,0,1-2.7548,2.7714,12.29943,12.29943,0,0,1-3.2473.8265,41.77926,41.77926,0,0,1-14.8844-10.6686,6.45915,6.45915,0,0,1,.768-.6763c2.9719-2.2538,6.8286-2.8717,10.5268-3.3307a13.50089,13.50089,0,0,0,3.8734-.8432,23.04161,23.04161,0,0,0,2.7465-1.6529,15.82588,15.82588,0,0,1,4.5078-1.8783c1.1437-.2755,2.5962-.3004,3.239.6845A2.59648,2.59648,0,0,1,128.9392,170.1564Z" transform="translate(-21.871 -33.50545)"/>
        <path class="cls-5" d="M165.2694,120.0606a10.26388,10.26388,0,0,1-1.9284,5.209,12.60646,12.60646,0,0,1-5.2508,3.6231,23.88665,23.88665,0,0,1-16.9046.8932c-1.9367-.6845-3.7649-1.6612-5.7183-2.2873a17.09533,17.09533,0,0,0-8.8905-.4007c-2.1955.4925-4.2825,1.4108-6.4863,1.8448a6.813,6.813,0,0,1-3.3559-.025,3.34925,3.34925,0,0,1-2.3291-2.2539,4.05347,4.05347,0,0,1,1.3524-3.623c2.6796-2.7382,6.8036-3.3058,10.6018-3.8067,3.7983-.5009,7.9472-1.2856,10.3682-4.2658,1.1436-1.4108,1.7697-3.1888,2.8466-4.6581a9.92206,9.92206,0,0,1,3.7816-3.047s0-.0083.0084,0A41.54489,41.54489,0,0,1,165.2694,120.0606Z" transform="translate(-21.871 -33.50545)"/>
        <path class="cls-3" d="M126.5098,112.1743a.50364.50364,0,0,0-.5008.8693c8.1573,5.7265,34.5382,24.096,35.9051,23.1237.1701-.121,1.1587-.9683.6506-1.4883C158.9773,131.0079,134.9123,116.0733,126.5098,112.1743Z" transform="translate(-21.871 -33.50545)"/>
        <path class="cls-3" d="M115.9081,46.1885a19.83156,19.83156,0,0,1,6.2441-2.1666,25,25,0,0,1,3.454-.385c.0477-4.8151-3.3898-9.7505-5.305-10.0322l-.0053-.0013a8.60879,8.60879,0,0,0-.8809,5.1546,7.83546,7.83546,0,0,1,.0159.836A8.42288,8.42288,0,0,1,115.9081,46.1885Z" transform="translate(-21.871 -33.50545)"/>
        <path class="cls-3" d="M156.7309,47.3902s2.7814,1.2184,5.0423,2.2778c.6947.3215,1.3457.6334,1.8462.8842a17.48321,17.48321,0,0,0,1.9934-9.4768,3.16352,3.16352,0,0,0-.6216-1.6421s-1.062.2724-2.2429,2.4671c-.4297.8012-.8186,1.5715-1.2433,2.272A5.93717,5.93717,0,0,1,156.7309,47.3902Z" transform="translate(-21.871 -33.50545)"/>
        <path class="cls-6" d="M127.0444,85.9547a2.49423,2.49423,0,0,1-.6122,4.2552c-2.5292,1.102-6.8689.1972-8.6622-1.9357a2.95661,2.95661,0,0,1,1.9369-4.6832,9.436,9.436,0,0,1,4.8481.8709A9.14941,9.14941,0,0,1,127.0444,85.9547Z" transform="translate(-21.871 -33.50545)"/>
        <path class="cls-6" d="M156.9279,84.892a2.55328,2.55328,0,0,0-.1975,4.3966c2.3327,1.5919,6.8704,1.511,9.0817-.2912,1.8669-1.5215.8845-4.4774-1.0532-5.0801a9.65674,9.65674,0,0,0-5.042-.0508A9.36639,9.36639,0,0,0,156.9279,84.892Z" transform="translate(-21.871 -33.50545)"/>
        <path class="cls-3" d="M136.81,43.7359c1.9463,2.2426,3.1935,5.4313,4.2022,7.8434.5555,1.3219,1.0422,2.6741,1.481,4.0384a3.48145,3.48145,0,0,0,2.143,2.4045,3.60283,3.60283,0,0,0,3.6487-1.4074,7.05394,7.05394,0,0,0,1.3344-4.7158,14.142,14.142,0,0,0-1.9759-6.7798c-.1149-.0195-.235-.04-.355-.0605Q141.7171,44.11535,136.81,43.7359Z" transform="translate(-21.871 -33.50545)"/>
        <path class="cls-3" d="M169.7354,73.0687a7.296,7.296,0,0,0,4.6242-.4017c.0037-.1464.0073-.2929.0068-.446.0023-.141.006-.2875.0042-.4353a36.65817,36.65817,0,0,0-.2297-3.9579C170.8598,70.0686,166.9595,72.214,169.7354,73.0687Z" transform="translate(-21.871 -33.50545)"/>
        <path class="cls-3" d="M169.7623,77.0731a7.22382,7.22382,0,0,0,3.883,1.1018q.1179-.501.2228-1.0218c.1488-.7604.2701-1.5497.3527-2.3699.0017-.0336.0076-.0606.0093-.0942C171.1598,75.1068,168.1447,75.7914,169.7623,77.0731Z" transform="translate(-21.871 -33.50545)"/>
        <path class="cls-3" d="M171.0233,66.2812a5.73472,5.73472,0,0,0,2.7178-.9308c-.0057-.0521-.0166-.1056-.0278-.1589a25.04462,25.04462,0,0,0-.9432-3.3095C170.7396,64.0501,169.0378,66.2955,171.0233,66.2812Z" transform="translate(-21.871 -33.50545)"/>
        <path class="cls-3" d="M129.4121,43.4815c.5001.6926,1.062,1.4665,1.4622,2.0465,1.2641,1.8388,2.5145,4.3374,3.6235,4.7322,2.3169.8283,3.5743-1.3781,2.3228-3.9506a8.23386,8.23386,0,0,0-2.2493-2.7222l-.0054-.0011C132.7743,43.4899,131.0602,43.456,129.4121,43.4815Z" transform="translate(-21.871 -33.50545)"/>
        <path class="cls-3" d="M148.8626,45.3455c1.0356,1.7437,2.0316,4.5775,3.2361,5.1574,1.8149.8716,3.473-.4205,2.7908-1.5774a12.38838,12.38838,0,0,0-2.1996-2.717Q150.8728,45.73585,148.8626,45.3455Z" transform="translate(-21.871 -33.50545)"/>
        <g>
          <g>
            <path class="cls-7" d="M118.6252,81.309a10.90329,10.90329,0,0,0,9.1262,2.4323,6.11139,6.11139,0,0,0,1.8127-.7541,10.89177,10.89177,0,0,0,4.5144-7.4545c.0142-.0649.023-.1308.0317-.197a8.06592,8.06592,0,0,0-3.2664-7.407c-2.7125-2.002-7.0018-3.1358-10.0236-1.2008a9.22425,9.22425,0,0,0-2.9656,3.261l-.0054-.001C115.816,73.5712,115.5786,78.5547,118.6252,81.309Z" transform="translate(-21.871 -33.50545)"/>
            <path class="cls-3" d="M116.8944,78.82a8.86721,8.86721,0,0,1-.6128-2.9868,11.83265,11.83265,0,0,1,.3148-3.0512,12.01076,12.01076,0,0,1,1.0896-2.8868l.0627-.1172.1399.0264.0054.0011-.2029.0913a10.21316,10.21316,0,0,1,1.7938-2.4471A6.89518,6.89518,0,0,1,122.07,65.772a9.11767,9.11767,0,0,1,6.0949.2144,12.18357,12.18357,0,0,1,2.7394,1.4189,8.43055,8.43055,0,0,1,2.2067,2.2098,8.19941,8.19941,0,0,1,1.3533,6.0018l.0053-.03a11.99329,11.99329,0,0,1-2.0238,4.886,10.272,10.272,0,0,1-1.7885,1.9483,6.59693,6.59693,0,0,1-2.3016,1.2907,8.14268,8.14268,0,0,1-2.5953.3237,11.56353,11.56353,0,0,1-7.1352-2.7266A6.657,6.657,0,0,1,116.8944,78.82Zm6.3121,4.7785a9.08532,9.08532,0,0,0,5.0591-.152,6.25194,6.25194,0,0,0,2.1247-1.3331,9.8045,9.8045,0,0,0,1.6118-1.9392,11.33626,11.33626,0,0,0,1.6854-4.6956l.0054-.0302c.0322-.1871.0375-.4511.0566-.6753-.0046-.2353.0099-.4703-.0145-.7043a7.21725,7.21725,0,0,0-.2193-1.3875,8.76259,8.76259,0,0,0-.4668-1.3233,8.34749,8.34749,0,0,0-.6974-1.2176,9.63318,9.63318,0,0,0-4.4994-3.3141,8.73089,8.73089,0,0,0-5.5696-.4187,6.28749,6.28749,0,0,0-2.4381,1.4219,9.76458,9.76458,0,0,0-1.8261,2.2516l-.0735.1227-.1295-.0312-.0053-.0012.2025-.0908a11.70558,11.70558,0,0,0-1.1992,2.7587,10.37024,10.37024,0,0,0-.429,2.9916,8.21379,8.21379,0,0,0,.5388,2.9776,6.63826,6.63826,0,0,0,1.7021,2.5005A10.58813,10.58813,0,0,0,123.2065,83.5985Z" transform="translate(-21.871 -33.50545)"/>
          </g>
          <path class="cls-3" d="M124.6066,81.4844a6.59083,6.59083,0,0,1-5.5505-3.7199,6.7061,6.7061,0,0,1,9.8974-8.269c4.4291,3.0765,2.4251,10.4174-2.4652,11.8069A5.49533,5.49533,0,0,1,124.6066,81.4844Z" transform="translate(-21.871 -33.50545)"/>
          <path class="cls-8" d="M117.8546,69.9889c10.8511-2.5151,15.655,4.6211,16.2239,5.5438.0142-.0649.023-.1308.0317-.197a8.06592,8.06592,0,0,0-3.2664-7.407c-2.7125-2.002-7.0018-3.1358-10.0236-1.2008A9.22425,9.22425,0,0,0,117.8546,69.9889Z" transform="translate(-21.871 -33.50545)"/>
        </g>
        <g>
          <g>
            <path class="cls-7" d="M153.4927,78.3909c.7523,2.5487,3.4184,4.0365,5.8703,4.4806a5.52653,5.52653,0,0,0,1.0133.0795c4.0574-.061,7.4684-4.7938,6.8352-8.7718a5.37532,5.37532,0,0,0-.3209-1.2028c-1.352-3.41-6.2266-5.6513-9.6684-4.2045a4.91225,4.91225,0,0,0-1.9786,1.8,10.89017,10.89017,0,0,0-.9496,1.6787A9.14374,9.14374,0,0,0,153.4927,78.3909Z" transform="translate(-21.871 -33.50545)"/>
            <path class="cls-3" d="M153.2943,75.6058a11.23617,11.23617,0,0,1,.6609-2.7324,11.95554,11.95554,0,0,1,1.2673-2.5295,4.59078,4.59078,0,0,1,2.1745-1.8826,7.64392,7.64392,0,0,1,5.7105.271,7.83381,7.83381,0,0,1,4.1979,4.0228,5.40776,5.40776,0,0,1,.3736,1.4689c.0202.2495.0513.4985.0601.748l-.0218.7494a8.34583,8.34583,0,0,1-.8155,2.8297,8.45538,8.45538,0,0,1-4.0594,4.0314,6.12162,6.12162,0,0,1-2.8268.5091,6.70884,6.70884,0,0,1-1.3999-.2826,10.0645,10.0645,0,0,1-1.3267-.4934,8.01914,8.01914,0,0,1-2.3346-1.5588,5.45372,5.45372,0,0,1-1.4617-2.3659A7.027,7.027,0,0,1,153.2943,75.6058Zm1.6847,5.1252a7.60671,7.60671,0,0,0,2.3612,1.4642,8.01279,8.01279,0,0,0,1.3279.4135,6.46051,6.46051,0,0,0,1.3627.1892,5.74077,5.74077,0,0,0,2.6108-.6386,7.91318,7.91318,0,0,0,3.5264-3.9465,7.78333,7.78333,0,0,0,.6473-2.5617l.0105-.6543c-.0111-.2173-.0425-.4333-.0613-.6502a4.47722,4.47722,0,0,0-.3311-1.2389,6.18119,6.18119,0,0,0-1.4796-2.1255,8.327,8.327,0,0,0-2.1844-1.5115,7.102,7.102,0,0,0-5.21-.5653,4.20257,4.20257,0,0,0-2.0955,1.6124,10.97845,10.97845,0,0,0-1.3861,2.4043,8.49282,8.49282,0,0,0-.5851,5.4688A5.43477,5.43477,0,0,0,154.979,80.731Z" transform="translate(-21.871 -33.50545)"/>
          </g>
          <path class="cls-3" d="M162.2547,79.9905c-.1835.1017-2.0086,1.6258-5.0685-.0022-3.0599-1.6277-1.8942-5.7489-1.1357-7.024a4.81015,4.81015,0,0,1,6.5286-2.0441C166.0973,72.6479,165.4108,78.2416,162.2547,79.9905Z" transform="translate(-21.871 -33.50545)"/>
          <path class="cls-8" d="M154.294,72.2506c4.8689-1.6791,10.2243.5143,12.9175,1.9286a5.37532,5.37532,0,0,0-.3209-1.2028c-1.352-3.41-6.2266-5.6513-9.6684-4.2045a4.91225,4.91225,0,0,0-1.9786,1.8A10.89017,10.89017,0,0,0,154.294,72.2506Z" transform="translate(-21.871 -33.50545)"/>
        </g>
        <path class="cls-3" d="M104.2437,54.2168c7.7705,6.4091,11.7297,1.0706,8.2703-.6801a23.52171,23.52171,0,0,1-4.94-3.5541c-.2502.2252-.4915.4559-.7193.6928A15.74959,15.74959,0,0,0,104.2437,54.2168Z" transform="translate(-21.871 -33.50545)"/>
        <path class="cls-3" d="M101.3558,62.8432l-.0082.0377c-.0175.1831-.0444.3585-.0658.5351,3.0988,1.9956,7.0617,3.5623,10.5694,2.8265,1.3235-.2776,2.606-1.2495,2.431-2.5509a2.54873,2.54873,0,0,0-.8002-1.4205c-1.2285-1.1968-3.1389-1.7608-4.7934-2.3029a22.63945,22.63945,0,0,1-5.6193-3.1117A33.722,33.722,0,0,0,101.3558,62.8432Z" transform="translate(-21.871 -33.50545)"/>
        <g>
          <path class="cls-3" d="M172.1205,90.3726a40.385,40.385,0,0,0-4.0958-2.1638,39.92962,39.92962,0,0,0-4.2941-1.737,39.90192,39.90192,0,0,0,4.0958,2.1636A40.35641,40.35641,0,0,0,172.1205,90.3726Z" transform="translate(-21.871 -33.50545)"/>
          <path class="cls-3" d="M173.5906,87.3169a37.65619,37.65619,0,0,0-4.3387-1.0889,37.23626,37.23626,0,0,0-4.429-.6272,37.25316,37.25316,0,0,0,4.3386,1.089A37.70682,37.70682,0,0,0,173.5906,87.3169Z" transform="translate(-21.871 -33.50545)"/>
          <path class="cls-3" d="M173.6175,82.5627a37.66131,37.66131,0,0,0-4.3755.93,37.21357,37.21357,0,0,0-4.2538,1.3841,37.181,37.181,0,0,0,4.3755-.9298A37.68483,37.68483,0,0,0,173.6175,82.5627Z" transform="translate(-21.871 -33.50545)"/>
        </g>
        <path class="cls-7" d="M121.1288,42.5074a3.61057,3.61057,0,0,0,1.3985-.0236c.3396-.1807-1.2688-.5711-1.2688-.5711.8812-.1705,1.747-.9725,1.4749-1.0489a4.24554,4.24554,0,0,0-1.3703.4147c1.291-1.2193,1.0653-3.534-.0522-3.6305-.4779-.0419-1.2059.881-1.88,1.946a8.42288,8.42288,0,0,1-3.5228,6.5945,19.83156,19.83156,0,0,1,6.2441-2.1666A2.70127,2.70127,0,0,0,121.1288,42.5074Z" transform="translate(-21.871 -33.50545)"/>
        <path class="cls-7" d="M161.7732,49.668a6.73581,6.73581,0,0,0-.6709-2.4288c.0643.0423.741.5241,1.1295.405.407-.1265-.7293-.8898-.7293-.8898s.9406.2844,1.0787.0144c.1424-.2634-.8473-.4-.8473-.4.7776-.2665,2.4278-1.8605,1.6809-2.5389-.4872-.4404-1.3566-.0127-1.9098.3425a5.93717,5.93717,0,0,1-4.7741,3.2178S159.5123,48.6086,161.7732,49.668Z" transform="translate(-21.871 -33.50545)"/>
        <g>
          <path class="cls-3" d="M144.8327,79.1608s1.5674-1.6823,2.2859-1.3037-1.6402,2.9268-2.4884,3.1212c-.848.1941-2.4758-2.8024-1.9896-3.323C143.1268,77.1348,144.8327,79.1608,144.8327,79.1608Z" transform="translate(-21.871 -33.50545)"/>
          <path class="cls-3" d="M141.3302,90.7237c.3365-.8144.6405-1.6402.9573-2.462l.8912-2.4856c.2971-.829.5666-1.6671.8395-2.5052.2609-.8438.5235-1.6803.7259-2.5583l-.4604-.0031c.3207,1.6696.5997,3.3529.8656,5.0351.1298.8418.2513,1.6854.3463,2.5318.1094.8456.1859,1.6938.239,2.5475.052-.8544.0211-1.7115-.0123-2.5673-.0469-.8551-.1311-1.7071-.2179-2.5586-.1813-1.7033-.448-3.3925-.7597-5.0784l-.2078-1.1241-.2526,1.121c-.1888.8376-.4449,1.6836-.6937,2.5229l-.7583,2.5239-.7654,2.5248C141.8251,89.0342,141.5648,89.8744,141.3302,90.7237Z" transform="translate(-21.871 -33.50545)"/>
          <path class="cls-9" d="M148.2977,81.493a5.55447,5.55447,0,0,1,3.3439,2.7591,5.274,5.274,0,0,1-.5214,6.1305,6.83659,6.83659,0,0,1-3.6436,1.8111c-2.5321.5227-5.0842.8628-7.5817-.0177a6.43316,6.43316,0,0,1-2.4956-1.4984,5.84517,5.84517,0,0,1-1.5512-4.4425,5.61678,5.61678,0,0,1,2.1891-4.0915,8.48217,8.48217,0,0,1,5.4329-1.1787A23.31186,23.31186,0,0,1,148.2977,81.493Z" transform="translate(-21.871 -33.50545)"/>
        </g>
        <g>
          <path class="cls-3" d="M121.3243,86.5178a40.37751,40.37751,0,0,0-4.6274-.2091,39.93216,39.93216,0,0,0-4.6248.2616,39.88637,39.88637,0,0,0,4.6275.2089A40.44743,40.44743,0,0,0,121.3243,86.5178Z" transform="translate(-21.871 -33.50545)"/>
          <path class="cls-3" d="M112.0461,82.7125a37.65858,37.65858,0,0,0,4.2879,1.2742,37.22925,37.22925,0,0,0,4.3982.8168,37.22411,37.22411,0,0,0-4.2881-1.2742A37.69126,37.69126,0,0,0,112.0461,82.7125Z" transform="translate(-21.871 -33.50545)"/>
          <path class="cls-3" d="M114.2365,79.0371a37.67808,37.67808,0,0,0,3.2908,3.0298,37.21337,37.21337,0,0,0,3.5909,2.6675,37.26153,37.26153,0,0,0-3.2907-3.0299A37.64957,37.64957,0,0,0,114.2365,79.0371Z" transform="translate(-21.871 -33.50545)"/>
        </g>
        <path class="cls-10" d="M119.3711,92.4632c-.7415-.2925-1.4766-.5953-2.1863-.9467a11.99674,11.99674,0,0,1-2.0256-1.1866l-.6342-.4846.3483.7364a1.08047,1.08047,0,0,1,.1247.5227c-.0183.0645-.0177.0517-.0496.0681a.42683.42683,0,0,1-.1834.005c-.0794-.0152-.2242-.1845-.3181-.3534a3.933,3.933,0,0,1-.262-.5714,10.0882,10.0882,0,0,1-.3795-1.2483,9.21338,9.21338,0,0,1-.2256-1.2727l-.0789-.8999-.4269.7925a5.10377,5.10377,0,0,1-.6126.9082c-.2309.2683-.527.4897-.7075.4027-.2197-.0664-.4163-.4053-.5285-.739a5.71477,5.71477,0,0,1-.2418-1.0786l-.0224-.1711-.161-.0209a5.29116,5.29116,0,0,1-1.2864-.3654,7.16114,7.16114,0,0,1-1.2073-.6413,7.63916,7.63916,0,0,1-1.0896-.8455,10.9011,10.9011,0,0,1-.9519-1.017,8.12232,8.12232,0,0,0,1.8881,2.0812,7.393,7.393,0,0,0,1.2216.7361,5.596,5.596,0,0,0,1.3757.4667l-.1835-.192a4.95,4.95,0,0,0,.2107,1.1964,2.58947,2.58947,0,0,0,.2583.5854,1.12689,1.12689,0,0,0,.5499.4845.79722.79722,0,0,0,.4179.0381,1.07943,1.07943,0,0,0,.3553-.1419,2.30281,2.30281,0,0,0,.4952-.4304,5.601,5.601,0,0,0,.6956-1.0074l-.5057-.1075a9.04594,9.04594,0,0,0,.2497,1.3644,10.1592,10.1592,0,0,0,.4146,1.3115,4.44188,4.44188,0,0,0,.316.6371,1.15857,1.15857,0,0,0,.623.5583.77911.77911,0,0,0,.2377.0157.70839.70839,0,0,0,.2387-.0534.51623.51623,0,0,0,.3144-.4505,1.43711,1.43711,0,0,0-.2232-.7553l-.2859.2518a11.25016,11.25016,0,0,0,2.1578,1.0952A19.47135,19.47135,0,0,0,119.3711,92.4632Z" transform="translate(-21.871 -33.50545)"/>
        <path class="cls-10" d="M164.8872,92.2162c-.7585.5328-1.5155,1.064-2.2949,1.556-.386.2508-.7781.491-1.177.7123a5.07792,5.07792,0,0,1-1.216.5167l-.1115.0256-.0472.1165a5.95517,5.95517,0,0,1-.5303,1.045c-.1983.3131-.5091.6114-.7039.5627-.0928-.0204-.1266-.0423-.1563-.201a1.69066,1.69066,0,0,1,.04-.5187,5.9679,5.9679,0,0,1,.3727-1.103l.4349-1.0151-.8492.6974a10.37871,10.37871,0,0,1-1.0467.7563,4.7511,4.7511,0,0,1-1.1232.5491.91125.91125,0,0,1-.5155.0368c-.1509-.0503-.2515-.1294-.2481-.2471a1.76205,1.76205,0,0,1,.5574-.9783l.4007-.4199-.5583.0946a20.62078,20.62078,0,0,1-2.1937.2306,11.24348,11.24348,0,0,1-2.2137-.0753,9.41556,9.41556,0,0,0,2.2158.3101,16.563,16.563,0,0,0,2.2473-.091l-.1575-.325a3.49112,3.49112,0,0,0-.4706.5305,1.35423,1.35423,0,0,0-.2825.7343.6603.6603,0,0,0,.1779.4512.89762.89762,0,0,0,.3774.2371,1.36113,1.36113,0,0,0,.7915-.0103,4.67545,4.67545,0,0,0,1.2708-.584,10.9448,10.9448,0,0,0,1.1136-.7889l-.414-.3179a5.81517,5.81517,0,0,0-.4057,1.2234,2.16548,2.16548,0,0,0-.0385.7017c.016.0679.0299.1347.0528.2024a.94025.94025,0,0,0,.1213.2052.67638.67638,0,0,0,.43.227.95243.95243,0,0,0,.7558-.2818,2.6314,2.6314,0,0,0,.424-.5309,5.70034,5.70034,0,0,0,.5398-1.1621l-.1586.1421a5.36058,5.36058,0,0,0,1.2993-.6356c.3968-.2512.7794-.5174,1.154-.7934C163.4894,93.435,164.2087,92.8488,164.8872,92.2162Z" transform="translate(-21.871 -33.50545)"/>
        <g>
          <g>
            <path class="cls-2" d="M117.6529,202.5964c-2.9635,4.5997-8.7403-1.0352-12.4467-3.5562a25.15139,25.15139,0,0,0-3.5061-1.9702h-.0084a39.96942,39.96942,0,0,0-11.9209-3.2806,58.8741,58.8741,0,0,0-12.4133-.2004h-.0083c-.4425.0334-.8849.0667-1.3441.1168-9.7753.9851-18.3487-4.4828-20.0934-12.6887a17.349,17.349,0,0,1,1.8282-11.5369,30.74683,30.74683,0,0,1,5.0672-7.0539l6.8202,3.4143s-8.0891,7.0623-6.0939,15.3266a.35411.35411,0,0,0,.0167.092c.8431,3.3642,3.5562,4.85,7.4463,5.3593,5.71.7596,13.9493-.5927,22.4976-1.2104a22.344,22.344,0,0,1,4.6749.1585,27.32866,27.32866,0,0,1,10.9023,4.1323,26.44226,26.44226,0,0,1,6.2943,5.4929C117.7448,198.0968,118.7214,200.9351,117.6529,202.5964Z" transform="translate(-21.871 -33.50545)"/>
            <path class="cls-11" d="M117.6529,202.5964c-2.9635,4.5997-8.7403-1.0352-12.4467-3.5562a25.15139,25.15139,0,0,0-3.5061-1.9702h-.0084a39.96942,39.96942,0,0,0-11.9209-3.2806,58.8741,58.8741,0,0,0-12.4133-.2004h-.0083c-.4425.0334-.8849.0667-1.3441.1168-9.7753.9851-18.3487-4.4828-20.0934-12.6887a17.349,17.349,0,0,1,1.8282-11.5369,30.74683,30.74683,0,0,1,5.0672-7.0539l6.8202,3.4143s-8.0891,7.0623-6.0939,15.3266a.35411.35411,0,0,0,.0167.092c.8431,3.3642,3.5562,4.85,7.4463,5.3593,5.71.7596,13.9493-.5927,22.4976-1.2104a22.344,22.344,0,0,1,4.6749.1585,27.32866,27.32866,0,0,1,10.9023,4.1323,26.44226,26.44226,0,0,1,6.2943,5.4929C117.7448,198.0968,118.7214,200.9351,117.6529,202.5964Z" transform="translate(-21.871 -33.50545)"/>
          </g>
          <path class="cls-3" d="M117.6529,202.5964c-2.9635,4.5997-8.7403-1.0352-12.4467-3.5562a25.15139,25.15139,0,0,0-3.5061-1.9702c2.4208-.8681,8.1308-2.5961,13.6654-1.8782C117.7448,198.0968,118.7214,200.9351,117.6529,202.5964Z" transform="translate(-21.871 -33.50545)"/>
          <path class="cls-3" d="M109.0712,189.6989a5.48479,5.48479,0,0,1-5.0337,1.0935,8.68735,8.68735,0,0,1-5.8686-5.2258A27.32866,27.32866,0,0,1,109.0712,189.6989Z" transform="translate(-21.871 -33.50545)"/>
          <path class="cls-3" d="M89.7708,193.7894a58.8741,58.8741,0,0,0-12.4133-.2004c1.177-1.8449,2.9135-3.7399,5.1423-3.982C85.5969,189.2815,88.36,192.0363,89.7708,193.7894Z" transform="translate(-21.871 -33.50545)"/>
          <path class="cls-3" d="M70.9964,186.6185c-2.254,1.127-5.5513,2.2622-7.3128.5092-1.5944-1.5944-.985-4.0821-.1502-5.9605a.35411.35411,0,0,0,.0167.092C64.3932,184.6234,67.1063,186.1092,70.9964,186.6185Z" transform="translate(-21.871 -33.50545)"/>
          <path class="cls-3" d="M56.1121,180.8501c-.0669.0584-.1336.1169-.2004.167a17.349,17.349,0,0,1,1.8282-11.5369C59.4345,172.5606,60.4947,177.1019,56.1121,180.8501Z" transform="translate(-21.871 -33.50545)"/>
        </g>
        <g>
          <path class="cls-2" d="M105.9073,126.6471c-.2587,0-.5091-.0168-.7596-.0334-.1085-.0084-.2087-.0167-.3172-.0251-.2421-.0166-.4759-.0501-.7012-.0834-.0251,0-.0501-.0084-.0752-.0084q-.35055-.0501-.6762-.1252c-.0584-.0083-.1085-.0251-.1669-.0334-.2087-.0501-.4091-.1002-.6094-.1586-.2671-.0752-.5259-.167-.7764-.2588-.2171-.0834-.4257-.167-.6344-.2672a.29069.29069,0,0,1-.0751-.0333c-.2004-.0918-.4007-.192-.5927-.3006a10.10765,10.10765,0,0,1-1.2605-.8013c-.1754-.1337-.3507-.2756-.526-.4175-.1837-.1502-.3589-.3005-.5343-.459-.2086-.1838-.4007-.3758-.5927-.5761-.1168-.1168-.2421-.2421-.3589-.3673-.5259-.5593-1.0268-1.1437-1.5193-1.7698q-.23805-.30045-.4758-.601c-.3173-.4007-.6345-.8181-.9601-1.2355-.3172-.4007-.6345-.8181-.9683-1.2271-.2338-.2922-.4759-.5928-.7263-.8933-.4257-.5092-.8682-1.0184-1.344-1.5193q-.32565-.3507-.6762-.7012c-.4675-.4592-.9517-.9099-1.4692-1.3523-.2004-.1754-.4091-.3423-.6262-.5093a20.71735,20.71735,0,0,0-2.4292-1.678c-.0501-.025-.0918-.0583-.1419-.0834-.2087-.1252-.4174-.2505-.6177-.384a13.19322,13.19322,0,0,1-3.3893-3.3141,22.8896,22.8896,0,0,1-3.4978-8.1226c-.2838-1.1603-.4925-2.3123-.6511-3.3976,2.0452-.2003,14.2415-1.3357,16.0446-1.0184,1.7866.3172,10.9025,9.7671,12.5971,11.5368.0501.0584.0918.1085.1419.1586C113.4122,114.8014,115.0066,126.789,105.9073,126.6471Z" transform="translate(-21.871 -33.50545)"/>
          <path class="cls-10" d="M104.1459,104.091l1.236,1.2114c.4077.4043.8387.8098,1.2258,1.2187l.0035.0038.0022.0024a27.72061,27.72061,0,0,1,3.7948,5.6411,20.49947,20.49947,0,0,1,2.0573,6.5223,10.88508,10.88508,0,0,1-.0829,3.4826,6.1696,6.1696,0,0,1-1.5933,3.1876,5.88,5.88,0,0,1-3.2118,1.6057,11.84516,11.84516,0,0,1-3.5148-.0113l.0665.0049-.075-.008-.0646-.0047-.7146-.1294.038.0071-.1668-.0326-.0424-.0081c-.3561-.0886-.7122-.178-1.0649-.3039a10.50584,10.50584,0,0,1-1.0505-.4049l.0542.0219a1.293,1.293,0,0,1-.1865-.0874l.0642.0359a9.50849,9.50849,0,0,1-1.2863-.7293l-.623-.3937-.5959-.4649.0276.0228a24.678,24.678,0,0,1-3.2064-3.3722l-2.8126-3.5608a26.17131,26.17131,0,0,0-6.6036-5.939l.0292.0159-.1414-.084-.0312-.0171a18.88249,18.88249,0,0,1-5.5377-5.0202,19.17943,19.17943,0,0,1-3.1297-6.7637l.0069.0236a17.40875,17.40875,0,0,1-.4962-4.3377,21.28648,21.28648,0,0,1,.4755-4.2934,29.08232,29.08232,0,0,1,2.9999-8.0197,30.87235,30.87235,0,0,0-2.6033,8.0937,23.70519,23.70519,0,0,0-.3163,4.2157,16.98354,16.98354,0,0,0,.5729,4.1307l.007.024a18.6543,18.6543,0,0,0,8.4957,11.1559l-.0309-.017.1421.0828.0296.0162a27.12265,27.12265,0,0,1,6.9045,6.0959c.9772,1.1727,1.8964,2.3887,2.8204,3.5739a24.0136,24.0136,0,0,0,3.0131,3.2362l.0278.0232.5166.4083.5709.3654a8.60545,8.60545,0,0,0,1.1653.6767l.0646.0362a.055.055,0,0,0-.0366-.0208l.0546.022a9.66,9.66,0,0,0,.9389.3695,10.20356,10.20356,0,0,0,.9856.2906l-.0419-.0079.1666.0341.0385.0071.6374.1209-.0643-.0045.075.0087.0669.0049a11.017,11.017,0,0,0,3.2332.0429,5.20678,5.20678,0,0,0,2.7707-1.3291,5.38052,5.38052,0,0,0,1.451-2.7518,10.196,10.196,0,0,0,.1573-3.256,20.57642,20.57642,0,0,0-1.8259-6.3896,27.38129,27.38129,0,0,0-3.512-5.7246l.0055.0059c-.3903-.4429-.7767-.8519-1.1645-1.2826Z" transform="translate(-21.871 -33.50545)"/>
          <path class="cls-3" d="M102.8434,126.0701a15.55942,15.55942,0,0,0,.0085-2.5729,14.04188,14.04188,0,0,0-.4079-2.4539,15.77225,15.77225,0,0,0-.8113-2.3609c-.3212-.7833-.7299-1.5302-1.1073-2.3475a7.67886,7.67886,0,0,1,1.8094,1.9723,8.418,8.418,0,0,1,1.0971,2.4844,8.03412,8.03412,0,0,1,.213,2.7153A5.78341,5.78341,0,0,1,102.8434,126.0701Z" transform="translate(-21.871 -33.50545)"/>
          <path class="cls-3" d="M109.1017,125.4906c-.189-1.7921-.2497-3.5148-.4912-5.2079a17.44756,17.44756,0,0,0-.4837-2.4929,10.33952,10.33952,0,0,0-.9954-2.382,5.01092,5.01092,0,0,1,1.7401,2.1005,8.90786,8.90786,0,0,1,.7494,2.6387,12.06628,12.06628,0,0,1,.0486,2.7084A9.86859,9.86859,0,0,1,109.1017,125.4906Z" transform="translate(-21.871 -33.50545)"/>
        </g>
        <g>
          <path class="cls-2" d="M62.0569,125.083a28.37645,28.37645,0,0,1,14.1608-6.0787c13.1252-1.4799,32.2031,4.4781,38.35,35.9809a26.904,26.904,0,0,1,13.4925-6.0169c7.8401-.9117,7.4755,4.0112,6.1992,5.8346-1.2763,1.8232-12.7631,4.5582-17.3213,11.3043-4.5582,6.7462-9.6635-1.4586-9.6635-1.4586s-12.3984,15.1334-36.1012,4.3759C47.4704,158.2671,62.0569,125.083,62.0569,125.083Z" transform="translate(-21.871 -33.50545)"/>
          <path class="cls-3" d="M130.2084,156.8831c-.7911-.8566-1.4414-1.6593-2.1831-2.3666a10.421,10.421,0,0,0-1.1649-.9807,15.81359,15.81359,0,0,0-1.3892-.8516,3.13175,3.13175,0,0,1,1.7534.1437,4.4037,4.4037,0,0,1,1.5079.9542,5.27976,5.27976,0,0,1,1.0288,1.4227A4.00743,4.00743,0,0,1,130.2084,156.8831Z" transform="translate(-21.871 -33.50545)"/>
        </g>
        <path class="cls-10" d="M114.5677,154.9852a55.35968,55.35968,0,0,0-2.1441-8.0528,54.68688,54.68688,0,0,0-3.2462-7.6399,39.82417,39.82417,0,0,0-10.143-12.8878,32.99456,32.99456,0,0,0-6.9462-4.3701,36.39866,36.39866,0,0,0-7.8466-2.4813,50.75424,50.75424,0,0,0-16.5554-.0604c1.368-.2552,2.7365-.5446,4.1184-.7451l2.0837-.2322a18.95607,18.95607,0,0,1,2.0921-.1672l2.1016-.0597c.7012-.0283,1.4011.0511,2.1026.0717a37.81067,37.81067,0,0,1,4.1948.4204,33.34317,33.34317,0,0,1,8.0916,2.4079,33.79381,33.79381,0,0,1,7.2085,4.4272,39.35826,39.35826,0,0,1,10.1967,13.3274A50.49,50.49,0,0,1,114.5677,154.9852Z" transform="translate(-21.871 -33.50545)"/>
        <path class="cls-2" d="M156.9502,111.4895s-13.3679,10.5388-10.813,17.6559c2.5549,7.117,19.2075,4.9728,24.6822-3.6042S156.9502,111.4895,156.9502,111.4895Z" transform="translate(-21.871 -33.50545)"/>
        <path class="cls-3" d="M152.9808,132.8409a6.98343,6.98343,0,0,0-.0812-1.2542,7.91131,7.91131,0,0,1,.0191-1.2996,7.29128,7.29128,0,0,1,.7229-2.5308,7.41575,7.41575,0,0,1,1.5641-2.1131,7.06556,7.06556,0,0,1,2.1549-1.4253c-.5369.6836-1.0888,1.2888-1.558,1.9519a12.92628,12.92628,0,0,0-1.2464,2.0368,12.27781,12.27781,0,0,0-.858,2.2266c-.105.39-.213.7854-.302,1.1932A3.36332,3.36332,0,0,1,152.9808,132.8409Z" transform="translate(-21.871 -33.50545)"/>
        <path class="cls-3" d="M146.4539,129.5412a6.77505,6.77505,0,0,1,.5168-2.7626,8.44284,8.44284,0,0,1,1.47-2.4413,8.0788,8.0788,0,0,1,2.2014-1.8155,7.32516,7.32516,0,0,1,2.6553-.9192c-.7725.5407-1.5321,1.0037-2.2078,1.5776a13.16664,13.16664,0,0,0-1.8743,1.82A17.36954,17.36954,0,0,0,146.4539,129.5412Z" transform="translate(-21.871 -33.50545)"/>
        <path class="cls-10" d="M156.1009,112.5036a13.22635,13.22635,0,0,0,2.9449-7.5725" transform="translate(-21.871 -33.50545)"/>
        <path class="cls-3" d="M89.2032,101.1191c-.0167,1.4526-1.6279,2.2456-2.8968,2.9552a28.91058,28.91058,0,0,0-4.3993,3.3559c-.0334.0333-.0751.0584-.1085.0918-.0501.0417-.1085.0918-.1586.1335a18.81695,18.81695,0,0,1-4.3076-7.9973q.5385-.18765,1.0769-.3506c1.3608-.4173,2.6713-.7346,3.79-.96,2.2707-.4674,5.017-.5009,6.4446,1.319A2.36854,2.36854,0,0,1,89.2032,101.1191Z" transform="translate(-21.871 -33.50545)"/>
        <path class="cls-3" d="M92.6008,116.9718c-.4257-.5092-.8682-1.0184-1.344-1.5193q-.32565-.36315-.6762-.7012c-.4675-.4592-.9517-.9099-1.4692-1.3523-.2004-.1754-.4091-.3423-.6262-.5093a20.71735,20.71735,0,0,0-2.4292-1.678,15.67988,15.67988,0,0,1,6.4613-1.6612C97.0586,109.776,94.9382,114.6845,92.6008,116.9718Z" transform="translate(-21.871 -33.50545)"/>
        <path class="cls-3" d="M173.9762,117.815a27.80341,27.80341,0,0,1-3.2139,8.1809c-.0417-.0501-.0918-.1002-.1419-.1503a.53677.53677,0,0,0-.0668-.0751c-1.3106-1.3106-3.1305-1.9701-4.6247-3.0804-1.486-1.1018-2.6881-3.0804-1.9201-4.7666a3.76266,3.76266,0,0,1,3.072-1.9117,6.28421,6.28421,0,0,1,.9685-.0584A12.59525,12.59525,0,0,1,173.9762,117.815Z" transform="translate(-21.871 -33.50545)"/>
        <path class="cls-3" d="M174.3602,106.3449a20.1324,20.1324,0,0,0-2.7381.192,6.15336,6.15336,0,0,1-3.2806-.0417,3.324,3.324,0,0,1-1.5862-3.9318,5.76648,5.76648,0,0,1,3.0553-3.3059,12.745,12.745,0,0,1,2.5629-.9015A41.59859,41.59859,0,0,1,174.3602,106.3449Z" transform="translate(-21.871 -33.50545)"/>
        <path class="cls-3" d="M97.3007,61.0492c-.6596,1.4274-2.0369,2.3708-3.1138,3.4977a10.72669,10.72669,0,0,0-2.304,3.7399c-.5677,1.5444-.91,3.3976-2.2039,4.2491a2.8488,2.8488,0,0,1-3.1137-.1587c-1.9034-1.2104-2.8884-3.7398-2.8801-6.3109q4.821-2.1288,9.8255-3.8067C94.7713,61.8339,96.0318,61.4332,97.3007,61.0492Z" transform="translate(-21.871 -33.50545)"/>
        <path class="cls-3" d="M77.3157,69.1132c-.4424,1.1938-1.1853,2.3709-1.6111,3.5813-.6762,1.9283-.5343,4.0404-.96,6.0439-.4174,1.9951-1.7447,4.0904-3.7816,4.2908-1.895.1836-3.598-1.4609-4.1072-3.2974a9.488,9.488,0,0,1-.2337-2.9718A59.94134,59.94134,0,0,1,77.3157,69.1132Z" transform="translate(-21.871 -33.50545)"/>
        <path class="cls-3" d="M61.3546,94.4659c-1.0018,1.2021-2.9636,1.0935-4.2742.2421a6.95006,6.95006,0,0,1-2.3959-2.9135,53.43228,53.43228,0,0,1,6.7118-9.7336c-.0501.5009-.1586.985-.2421,1.4776a14.48379,14.48379,0,0,0,.2254,5.8685C61.8053,91.11,62.4815,93.1135,61.3546,94.4659Z" transform="translate(-21.871 -33.50545)"/>
        <path class="cls-3" d="M54.1754,116.3457a4.36823,4.36823,0,0,1-2.3292.5427,12.922,12.922,0,0,1-3.865-.4759c.1836-2.3791.4842-4.8.8765-7.246.1837-1.1436.4008-2.2622.6429-3.3475.075-.359.1585-.7179.2587-1.0685a24.56459,24.56459,0,0,1,4.174,5.2258,8.02062,8.02062,0,0,1,1.4441,3.2223A3.18953,3.18953,0,0,1,54.1754,116.3457Z" transform="translate(-21.871 -33.50545)"/>
        <path class="cls-3" d="M54.7681,137.5077a7.22472,7.22472,0,0,1-3.9403.7847,15.40349,15.40349,0,0,1-1.6445-.1085,65.73887,65.73887,0,0,1-1.152-7.463,10.624,10.624,0,0,1,7.0039,1.8031,3.48987,3.48987,0,0,1,1.2271,1.536A3.06463,3.06463,0,0,1,54.7681,137.5077Z" transform="translate(-21.871 -33.50545)"/>
        <path class="cls-3" d="M61.6885,148.9944a3.41041,3.41041,0,0,1-1.3607,2.3708,12.86913,12.86913,0,0,1-4.9671,2.688,46.66181,46.66181,0,0,1-3.4644-6.9287,27.48944,27.48944,0,0,1,4.3744-.7764C58.0988,146.1979,61.6801,146.4066,61.6885,148.9944Z" transform="translate(-21.871 -33.50545)"/>
        <path class="cls-3" d="M133.8341,106.0916s2.6133,1.5244,4.791.1089c0,0-.6534-7.5132-2.0689-7.731C135.1406,98.2518,133.8341,106.0916,133.8341,106.0916Z" transform="translate(-21.871 -33.50545)"/>
      </g>
      <g>
        <polygon class="cls-1" points="185.016 88.073 167.126 111.454 198.88 102.833 185.016 88.073"/>
        <polygon class="cls-1" points="180.588 87.01 183.698 90.95 167.126 111.454 180.588 87.01"/>
        <polygon class="cls-5" points="167.126 111.454 171.2 85.416 180.588 87.01 167.126 111.454"/>
        <polygon class="cls-5" points="185.016 88.073 204.678 92.679 167.126 111.454 185.016 88.073"/>
      </g>
    </g>
  </g>
</svg>
