<svg id="OBJECTS" xmlns="http://www.w3.org/2000/svg" viewBox="0 0 187.48768 234.73682">
  <defs>
    <style>
      .cls-1 {
        fill: #e49046;
      }

      .cls-10, .cls-2, .cls-3, .cls-9 {
        fill: #8b3433;
      }

      .cls-2 {
        opacity: 0.2;
      }

      .cls-4, .cls-8 {
        fill: #dc5656;
      }

      .cls-5 {
        fill: #fff;
      }

      .cls-6 {
        fill: #ade5dc;
        opacity: 0.62;
      }

      .cls-7 {
        fill: #8dd5b6;
      }

      .cls-10, .cls-8 {
        opacity: 0.48;
      }

      .cls-9 {
        opacity: 0.21;
      }

      .cls-11 {
        fill: #af542c;
      }
    </style>
  </defs>
  <g>
    <g>
      <g>
        <path class="cls-1" d="M316.14089,372.1093a22.18867,22.18867,0,0,1-8.58589,2.8712c-.17431.0183-.35781.0366-.54131.0458a16.54481,16.54481,0,0,1-2.0181.0276c-.211-.0092-.4219-.0276-.6329-.046-.422-.0366-.844-.0916-1.2475-.165-.211-.0367-.4128-.0735-.6146-.1193-.4495-.1009-.899-.211-1.3301-.3485h-.0092c-6.5679-2.0182-11.1912-8.4209-11.5672-17.3372a29.6718,29.6718,0,0,1,.0367-3.1188c.1468-2.3116.3027-4.5406.4311-6.6688.5779-9.4115.6697-16.9976-2.3483-21.9603a11.80524,11.80524,0,0,0-5.6322-4.8066c-.6697-.2843-1.3117-.578-1.9355-.8807a33.4586,33.4586,0,0,1-6.8798-4.2287c-3.8344-3.1739-4.9626-6.4578-1.8163-8.9162a4.61116,4.61116,0,0,1,2.4217-.8715c.1559-.0183.321-.0274.4862-.0366h.01831a9.15086,9.15086,0,0,1,1.11909.0092c6.8248.4494,18.3737,7.3384,22.263,18.6395a23.02757,23.02757,0,0,1,.8164,2.9079,42.44325,42.44325,0,0,1,.9449,8.4025c.1467,10.7509-3.9353,17.4472-1.5687,25.0424a6.47522,6.47522,0,0,0,3.51331,4.2013,7.68754,7.68754,0,0,0,2.23819.6513,4.126,4.126,0,0,0,.5871.0734c.1926.0184.3853.0275.5871.0458.3394.0092.688.0092,1.0274,0,.1284,0,.2568-.0092.3853-.0183q.20625-.01365.4127-.0275c.2018-.0184.4128-.0459.6237-.0642.2019-.0276.4037-.0551.60551-.0918h.00919a27.93877,27.93877,0,0,0,6.9623-2.1556v.0366Z" transform="translate(-269.62552 -231.75776)"/>
        <path class="cls-2" d="M316.20509,372.1093a22.00593,22.00593,0,0,1-8.65009,2.8712c-.17431.0183-.35781.0366-.54131.0458a16.54481,16.54481,0,0,1-2.0181.0276c-.211-.0092-.4219-.0276-.6329-.046-.422-.0366-.844-.0916-1.2475-.165-.211-.0367-.4128-.0735-.6146-.1193-.4495-.1009-.899-.211-1.3301-.3485h-.0092c-6.54029-2.0732-11.136-8.476-11.4939-17.383a28.8401,28.8401,0,0,1,.0368-3.073c.1467-2.3024.3027-4.5131.4311-6.632.5779-9.4851.66971-17.1079-2.3942-22.0796a11.81113,11.81113,0,0,0-5.5863-4.7241c-.67879-.2935-1.3393-.5962-1.9815-.8989a33.85467,33.85467,0,0,1-6.8889-4.2472c-3.7976-3.1647-4.89839-6.4303-1.7612-8.8795a4.70056,4.70056,0,0,1,2.3483-.8715c.1559-.0183.321-.0274.4862-.0366h.01831a9.15086,9.15086,0,0,1,1.11909.0092c6.8064.3944,18.3828,7.2741,22.30891,18.5753a24.07446,24.07446,0,0,1,.83469,2.9721,42.57821,42.57821,0,0,1,.954,8.4117c.1376,10.7417-3.9353,17.438-1.5686,25.0332a6.49293,6.49293,0,0,0,3.4308,4.1646,7.80224,7.80224,0,0,0,2.2473.688c.1927.0275.3853.055.5871.0734.1926.0184.3853.0275.5871.0458.3394.0092.688.0092,1.0274,0,.1284,0,.2568-.0092.3853-.0183q.20625-.01365.4127-.0275c.2018-.0184.4128-.0459.6237-.0642q.30285-.0276.60551-.0826a27.86356,27.86356,0,0,0,6.97149-2.1282.41123.41123,0,0,1,.0734-.0366Z" transform="translate(-269.62552 -231.75776)"/>
      </g>
      <path class="cls-3" d="M273.28439,315.3373c-.0092.0184-.0092.0275-.0183.0367-3.8344-3.1739-4.9626-6.4578-1.8163-8.9162a4.61116,4.61116,0,0,1,2.4217-.8715c.1559-.0183.321-.0274.4862-.0366h.01831A20.07484,20.07484,0,0,1,273.28439,315.3373Z" transform="translate(-269.62552 -231.75776)"/>
      <path class="cls-3" d="M287.74109,325.2075l-.0275.0825a11.80524,11.80524,0,0,0-5.6322-4.8066c-.6697-.2843-1.3117-.578-1.9355-.8807.0092-.0091.0183-.0091.0274-.0182,1.9173-1.2751,4.504-2.2566,6.5588-.2753A5.22651,5.22651,0,0,1,287.74109,325.2075Z" transform="translate(-269.62552 -231.75776)"/>
      <path class="cls-3" d="M299.59269,335.518a.17785.17785,0,0,1-.0733-.0092A4.00281,4.00281,0,0,1,295.575,332.39c-.93581-3.4307.88049-6.522,2.18309-8.1916a.16549.16549,0,0,1,.04591-.0642,24.07446,24.07446,0,0,1,.83469,2.9721A42.57821,42.57821,0,0,1,299.59269,335.518Z" transform="translate(-269.62552 -231.75776)"/>
      <path class="cls-3" d="M289.66739,356.9921a.31436.31436,0,0,1-.0733.0458,29.6718,29.6718,0,0,1,.0367-3.1188c.1468-2.3116.3027-4.5406.4311-6.6688a.27441.27441,0,0,1,.0734.0368c1.4952.6604,3.4032,1.8987,3.7793,3.9535C294.29989,353.3229,291.74979,355.5519,289.66739,356.9921Z" transform="translate(-269.62552 -231.75776)"/>
      <path class="cls-3" d="M307.931,365.3212v.0092c-.954,1.6695-2.51341,3.55-4.39391,2.7061a3.83979,3.83979,0,0,1-2.07309-3.284.05547.05547,0,0,1-.00911-.0367,7.80224,7.80224,0,0,0,2.2473.688c.1927.0275.3853.055.5871.0734.1926.0184.3853.0275.5871.0458.3394.0092.688.0092,1.0274,0,.1284,0,.2568-.0092.3853-.0183q.20625-.01365.4127-.0275c.2018-.0184.4128-.0459.6237-.0642C307.52739,365.3854,307.72919,365.3579,307.931,365.3212Z" transform="translate(-269.62552 -231.75776)"/>
    </g>
    <path class="cls-4" d="M454.51549,421.5202c-1.8277,1.5907-3.6553,3.1812-5.503,4.7521q-1.304,1.1115-2.6081,2.2229a.0097.0097,0,0,0-.0099.0099c-.1778.1383-.3557.2866-.5236.4446a1.47234,1.47234,0,0,0-.1383.1185.0097.0097,0,0,0-.0099.0099q-1.83765,1.52655-3.6752,3.0726c-5.6512,4.7324-24.8077,18.7613-37.4141,27.3566-.5335.3556-1.0571.7114-1.561,1.0571-5.3448,3.6062-9.2275,6.0168-9.8796,5.9278-11.8061-1.561-46.4934-15.343-57.3906-19.2554-8.4767-3.0429-17.0719-5.9969-25.272-9.761-1.0769-.494-3.5171-1.225-4.1-2.4008-1.87719-3.7442,23.8691-18.4748,23.8691-18.4748l108.2804-17.5757s12.6557-.4744,16.8744,6.7971C459.67269,413.083,454.51549,421.5202,454.51549,421.5202Z" transform="translate(-269.62552 -231.75776)"/>
    <path class="cls-1" d="M451.77889,416.1753a20.87568,20.87568,0,0,1-2.7664,10.097q-1.304,1.1115-2.6081,2.2229c1.3634-1.6499,5.0485-7.6072,4.2877-13.8216-.7212-5.8782-5.1473-10.3932-13.1596-13.3967l.3458-.9188C449.24959,404.6162,451.71949,411.3147,451.77889,416.1753Z" transform="translate(-269.62552 -231.75776)"/>
    <path class="cls-1" d="M404.63339,459.5073c-.5335.3556-1.0571.7114-1.561,1.0571a14.37259,14.37259,0,0,0,1.5808-8.4767c-1.314-9.603-13.0609-15.5109-13.1794-15.5702l.4445-.8892c.5039.247,12.3298,6.2044,13.7129,16.3212A14.737,14.737,0,0,1,404.63339,459.5073Z" transform="translate(-269.62552 -231.75776)"/>
    <path class="cls-5" d="M392.40239,462.7676a15.34021,15.34021,0,0,1-3.9419-.7213c-14.5527-3.9419-60.4039-22.723-73.7117-28.2161-2.3316-.9681-3.6654-1.5214-3.6654-1.5214l-1.4127-16.1729,1.8475-.1581,6.3525-.5533s33.3634,13.8612,55.6321,23.0392c8.51621,3.5073,15.4121,6.3231,18.19821,7.4296C401.77819,449.8846,399.43669,462.3032,392.40239,462.7676Z" transform="translate(-269.62552 -231.75776)"/>
    <path class="cls-6" d="M321.625,424.988l-8.30881-2.3019,4.6039,2.2032-4.4063-1.1066.7015,5.009,6.1056,2.1932-5.908-1.0967.3359,3.942c-2.3316-.9681-3.6654-1.5214-3.6654-1.5214l-1.4127-16.1729,1.8475-.1581,14.0092,6.402-12.31-1.4918Z" transform="translate(-269.62552 -231.75776)"/>
    <path class="cls-6" d="M392.40239,462.7676a15.34021,15.34021,0,0,1-3.9419-.7213l.1383-5.0286-4.3174-1.8871,4.4261.4446-7.301-2.875,7.4097,1.5511-.1087-2.6576-8.4076-3.4282,8.5163,1.9859-15.8173-4.9794-7.301-6.1944,7.8049-.5139c8.51621,3.5073,15.4121,6.3231,18.19821,7.4296C401.77819,449.8846,399.43669,462.3032,392.40239,462.7676Z" transform="translate(-269.62552 -231.75776)"/>
    <path class="cls-7" d="M454.82189,376.2864c.7032-1.6406-76.874-40.5465-76.874-40.5465s-51.951,40.3634-66.9687,53.2437c-1.0154.7654-2.0034,1.5345-2.9445,2.3046-6.2306,5.0981-9.3011,9.4995-9.13569,13.6228a12.77708,12.77708,0,0,0,4.91419,9.9837c5.89181,4.5825,75.9376,32.0609,79.2111,32.0609,3.2731,0,69.9198-49.465,69.9198-49.465l-6.5158-2.6672-21.5851,2.0629C440.559,386.4291,454.51719,376.9975,454.82189,376.2864Z" transform="translate(-269.62552 -231.75776)"/>
    <path class="cls-5" d="M448.62729,380.8855v.0395l-1.5412,16.9238s-.741.5334-2.0747,1.4819c-8.5755,6.1155-41.5043,29.5597-56.4818,39.2714-3.8925,2.5192-6.5699,4.1197-7.301,4.2482-.5928.1086-2.4798-.405-5.2954-1.3535-14.0686-4.7421-51.2653-20.5495-64.40519-26.5958-1.98581-.9188-3.41831-1.6104-4.14941-2.0057a8.40334,8.40334,0,0,1-4.594-6.5403,7.42219,7.42219,0,0,1,3.5665-6.6885,9.57607,9.57607,0,0,1,7.6468-.7805c1.729.5139,4.5348,1.5018,8.0223,2.7961,12.6063,4.6729,34.1834,13.3473,46.5329,18.3562,5.67091,2.3019,9.3955,3.8235,9.3955,3.8235l4.9991-3.1814,46.0488-27.8998,19.1664-11.6086Z" transform="translate(-269.62552 -231.75776)"/>
    <path class="cls-1" d="M453.26879,363.1747a2.38037,2.38037,0,0,0-.3027-.7797c-1.6605-2.9078-9.0263-3.6049-15.3832-2.0731,0,0,4.99011-9.7418-14.9704-18.0617-19.9606-8.3108-3.0914-38.0223-3.0914-38.0223a75.20793,75.20793,0,0,0-6.6076-11.1621c.4228-.5182.7591-.9279.93251-1.1386a29.33154,29.33154,0,0,0,6.36449-13.1398c.0772-.3845.1437-.7771.2103-1.1698.1415-.8729.2416-1.7696.3086-2.7005a.40035.40035,0,0,1,.0061-.1065c.042-.7452.072-1.5082.05151-2.2937-.00231-.1728-.00331-.336-.00561-.5088-.01039-.1619-.01139-.3252-.0125-.4884a38.94758,38.94758,0,0,0-.4483-4.4614c-.0364-.2934-.0918-.5844-.1472-.8756-.1178-.6388-.2532-1.266-.41839-1.8989a1.16652,1.16652,0,0,0-.04131-.1776,28.01141,28.01141,0,0,0-1.2355-3.6811c-.1334-.3006-.2574-.6024-.3991-.8923a24.37388,24.37388,0,0,0-10.8045-11.1618,1.08435,1.08435,0,0,0,.1125-.1774,19.57194,19.57194,0,0,0,1.884-10.8344,3.3959,3.3959,0,0,0-.7924-1.8142,1.17159,1.17159,0,0,0-.5014-.3222c-3.0038-1.0494-5.9054.2721-7.9916,2.3571-1.4361,1.4373-2.5708,3.2888-4.15,4.5806-.1219.1015-1.1412.949-1.9341,1.5279l-.1859.1289c-1.1615-.221-2.3775-.416-3.6383-.5862-.4696-.0666-.9381-.1238-1.42539-.1786-.13611-.012-.27321-.0334-.40931-.0452-4.3269-.4816-8.3972-.7546-12.1851-.8417q-1.329-.02235-2.5977-.0234l-.0095.0012c-2.076-.0017-4.0659.0724-5.9717.2033-.2012.0058-.4011.021-.601.0362-1.3145.0959-2.5672.2226-3.79769.3755a10.5662,10.5662,0,0,0-.08771-1.0944c-.6276-5.0541-4.4082-9.7263-6.4972-9.9091-2.4592-.2232-4.25309,4.8338-6.414,8.6387a75.74649,75.74649,0,0,1-4.96009,7.1128c-1.82721,2.3892-3.41991,4.3457-3.511,4.4627a18.395,18.395,0,0,0-3.28711,5.1847c-.08289.1833-.1482.3547-.2216.5369-.1162.3027-.2228.6043-.3309.8964-.0651.1715-.1208.3417-.1849.5227a38.21264,38.21264,0,0,0-1.7233,6.8646l-.0035.0485c-.0596.3726-.1094.7439-.1488,1.1236-.0858.7796-.13489,1.5449-.164,2.3173a24.1089,24.1089,0,0,0,.9816,7.7493c.0821.2759.1938.5442.2872.8172a22.00227,22.00227,0,0,0-2.9423,3.0082,27.66216,27.66216,0,0,0-1.697,2.2749,38.30707,38.30707,0,0,0-4.449,8.9895c-.1283.3761-.2568.7522-.3761,1.1467a46.32725,46.32725,0,0,0-1.6969,7.4576,59.8171,59.8171,0,0,0-5.403,6.6963,76.14572,76.14572,0,0,0-5.8433,9.6869,67.61825,67.61825,0,0,0-4.724,11.9524A57.46523,57.46523,0,0,0,307.61,340.4714a52.36157,52.36157,0,0,0,.92649,15.0989c.1743.853.3852,1.7061.5962,2.541a.26929.26929,0,0,0,.01831.0824,55.239,55.239,0,0,0,2.862,8.2925c.21089.4862.422.9723.65129,1.4493a53.40183,53.40183,0,0,0,4.86171,8.3659,48.81871,48.81871,0,0,0,5.51309,6.5312c13.0165,12.9706,32.234,17.1445,50.1397,3.871l17.3463-34.6925,19.401,16.5298,1.5136,1.2934s0,4.2747,14.2549,3.3207C439.95869,372.2101,453.975,366.7431,453.26879,363.1747Z" transform="translate(-269.62552 -231.75776)"/>
    <path class="cls-6" d="M448.62729,380.925l-1.5412,16.9238s-.741.5334-2.0747,1.4819l.1778-5.4338-4.49519,2.4007,4.49519-3.1714v-2.7169l-9.3659,5.7302,8.9806-6.1154-15.8074,2.7565,19.1664-11.6086Z" transform="translate(-269.62552 -231.75776)"/>
    <path class="cls-2" d="M425.69459,373.155c-14.2549.954-14.2549-3.3206-14.2549-3.3206l-1.5136-1.2935c1.85291-2.761,6.7697.0551,21.8227-4.2471,14.0073-4.0085,19.3551-2.8253,21.21721-1.8988a2.37751,2.37751,0,0,1,.30269.7797C453.97509,366.7431,439.95859,372.2102,425.69459,373.155Z" transform="translate(-269.62552 -231.75776)"/>
    <path class="cls-5" d="M435.24039,301.4041l-1.6005,3.685-10.6897,24.6695-28.7398,10.4031-31.5653-24.9559c-.3853.1877,1.6993-4.7322,1.6993-4.7322s5.85861-1.5117,21.7351,2.8353a17.89073,17.89073,0,0,0-11.7172-4.9101,30.41851,30.41851,0,0,1,27.979,12.2902s-1.5412-12.0036,17.072-23.2665q1.4079-.84465,2.9639-1.6893l3.033,1.3238,3.774-1.8968Z" transform="translate(-269.62552 -231.75776)"/>
    <path class="cls-3" d="M351.97059,246.2571a23.686,23.686,0,0,1,7.1308-2.8389,29.80619,29.80619,0,0,1,3.9804-.6512c-.1574-5.4444-4.3541-10.8067-6.5831-11.0054l-.0062-.001a9.61691,9.61691,0,0,0-.7918,5.88,8.57423,8.57423,0,0,1,.0554.9438A9.66494,9.66494,0,0,1,351.97059,246.2571Z" transform="translate(-269.62552 -231.75776)"/>
    <path class="cls-3" d="M399.27089,245.0616s3.2732,1.2029,5.9367,2.2588c.8181.3197,1.5855.6315,2.1758.8836a19.545,19.545,0,0,0,1.8882-10.8341,3.47769,3.47769,0,0,0-.792-1.8169s-1.2169.3743-2.4869,2.9285c-.46169.9322-.8779,1.8272-1.3384,2.6451A7.01415,7.01415,0,0,1,399.27089,245.0616Z" transform="translate(-269.62552 -231.75776)"/>
    <path class="cls-8" d="M363.12589,282.2603a2.27038,2.27038,0,0,1-.422,3.9291c-2.3333,1.1381-6.4374.529-8.1962-1.334-1.485-1.5729-.19-4.0824,1.6496-4.3883a8.99149,8.99149,0,0,1,4.5796.5518A8.48122,8.48122,0,0,1,363.12589,282.2603Z" transform="translate(-269.62552 -231.75776)"/>
    <path class="cls-8" d="M403.38389,283.2229a2.262,2.262,0,0,0-.0273,3.9439c2.1938,1.3089,6.3496,1.012,8.3131-.7104a2.6664,2.6664,0,0,0-1.1428-4.4937,9.07423,9.07423,0,0,0-4.6231.2042A8.85363,8.85363,0,0,0,403.38389,283.2229Z" transform="translate(-269.62552 -231.75776)"/>
    <path class="cls-3" d="M376.05349,242.178c2.3516,2.4127,3.9359,5.9382,5.21,8.6008.7014,1.4592,1.3246,2.9567,1.89251,4.4712a3.8919,3.8919,0,0,0,2.58679,2.5831,4.284,4.284,0,0,0,4.1606-1.8185,7.92746,7.92746,0,0,0,1.3361-5.4126,15.52247,15.52247,0,0,0-2.5867-7.5385c-.1336-.0147-.2736-.0303-.4135-.0461Q381.74954,242.2998,376.05349,242.178Z" transform="translate(-269.62552 -231.75776)"/>
    <path class="cls-3" d="M415.45709,273.2669a8.68508,8.68508,0,0,0,5.3342-.7431c-.0022-.1657-.0044-.3315-.012-.5044-.0035-.1596-.0058-.3254-.01429-.4921a40.29371,40.29371,0,0,0-.44081-4.4585C416.62589,269.8062,412.20669,272.4746,415.45709,273.2669Z" transform="translate(-269.62552 -231.75776)"/>
    <path class="cls-3" d="M415.66539,277.7907a8.43193,8.43193,0,0,0,4.54261,1.0022q.11413-.5736.21269-1.1687c.1388-.8686.2442-1.7682.3035-2.7002.0004-.0381.0061-.069.0065-.1071C417.19569,275.481,413.73629,276.4433,415.66539,277.7907Z" transform="translate(-269.62552 -231.75776)"/>
    <path class="cls-3" d="M416.64759,265.5161a6.84593,6.84593,0,0,0,3.1043-1.2219c-.0088-.0585-.0238-.1184-.03889-.178a27.46582,27.46582,0,0,0-1.23811-3.681C416.22069,263.0124,414.35039,265.6563,416.64759,265.5161Z" transform="translate(-269.62552 -231.75776)"/>
    <path class="cls-3" d="M367.48009,242.3534c.6094.7513,1.2938,1.5906,1.7827,2.2211,1.5443,1.9991,3.1018,4.7444,4.4028,5.1213,2.71841.791,4.0759-1.7811,2.5141-4.6099a9.1739,9.1739,0,0,0-2.7238-2.9356l-.0064-.0011C371.37189,242.1526,369.38619,242.2213,367.48009,242.3534Z" transform="translate(-269.62552 -231.75776)"/>
    <path class="cls-3" d="M390.07389,243.2429c1.2758,1.9059,2.5538,5.0461,3.9736,5.6262,2.1389.8715,4.0008-.6924,3.1602-1.9574a13.77566,13.77566,0,0,0-2.6659-2.9326Q392.41794,243.5582,390.07389,243.2429Z" transform="translate(-269.62552 -231.75776)"/>
    <g>
      <g>
        <path class="cls-5" d="M358.09009,280.0986a12.734,12.734,0,0,0,10.6698,2.1779,7.28818,7.28818,0,0,0,2.0647-.9659,12.50729,12.50729,0,0,0,4.89541-8.7062c.01359-.0743.02069-.1495.02809-.2247a8.89479,8.89479,0,0,0-4.10809-8.1663c-3.22761-2.0926-8.24221-3.1057-11.654-.7302a10.75883,10.75883,0,0,0-3.28791,3.8711l-.0064-.001C354.49679,271.5299,354.44219,277.1763,358.09009,280.0986Z" transform="translate(-269.62552 -231.75776)"/>
        <path class="cls-3" d="M355.97539,277.3895a9.743,9.743,0,0,1-.8395-3.3534,13.167,13.167,0,0,1,.237-3.4702,13.61838,13.61838,0,0,1,1.1292-3.3123l.0654-.1324.1573.0206.00621.0006-.223.1128a11.837,11.837,0,0,1,1.95879-2.8709,8.18292,8.18292,0,0,1,2.8727-2.0485,10.74634,10.74634,0,0,1,6.9862-.1976,13.86423,13.86423,0,0,1,3.2445,1.4038,9.53235,9.53235,0,0,1,2.7042,2.3495,9.07574,9.07574,0,0,1,1.8984,6.7956l.0051-.0361a13.54835,13.54835,0,0,1-2.15589,5.6917,11.93944,11.93944,0,0,1-1.99031,2.3014,7.83151,7.83151,0,0,1-2.5946,1.5754,9.74954,9.74954,0,0,1-2.9637.5169,13.09119,13.09119,0,0,1-2.9773-.2495,12.74639,12.74639,0,0,1-5.406-2.3883A7.36671,7.36671,0,0,1,355.97539,277.3895Zm7.5363,5.0117a10.78154,10.78154,0,0,0,5.80731-.4874,7.42742,7.42742,0,0,0,2.39019-1.6192,11.40043,11.40043,0,0,0,1.7855-2.2853,12.78544,12.78544,0,0,0,1.7674-5.4515l.0003-.0025.0049-.0338c.031-.2118.0248-.5161.0362-.7721-.0146-.2684-.0106-.5371-.0494-.8032a7.7683,7.7683,0,0,0-.3249-1.5702,8.69466,8.69466,0,0,0-1.4941-2.8187,11.05806,11.05806,0,0,0-5.4029-3.4267,10.34255,10.34255,0,0,0-6.4111-.0777,7.49233,7.49233,0,0,0-2.7267,1.7516,11.33,11.33,0,0,0-2.0063,2.6487l-.0777.1392-.14539-.0266-.00641-.001.2226-.1119a12.62442,12.62442,0,0,0-1.6284,6.5764,9.02818,9.02818,0,0,0,.7547,3.3456,7.35078,7.35078,0,0,0,2.0826,2.7237A12.17841,12.17841,0,0,0,363.51169,282.4012Z" transform="translate(-269.62552 -231.75776)"/>
      </g>
      <path class="cls-3" d="M365.02069,279.9224a7.50292,7.50292,0,0,1-6.58869-3.8564,7.919,7.919,0,0,1,4.20879-10.5052,8.16646,8.16646,0,0,1,6.8809.5415c5.262,3.1995,3.2671,11.6207-2.3313,13.4969A6.54343,6.54343,0,0,1,365.02069,279.9224Z" transform="translate(-269.62552 -231.75776)"/>
      <path class="cls-9" d="M356.69809,267.3543c12.4474-3.5212,18.3227,4.2428,19.02191,5.2501.01359-.0743.02069-.1495.02809-.2247a8.89479,8.89479,0,0,0-4.10809-8.1663c-3.22761-2.0926-8.24221-3.1057-11.654-.7302A10.75883,10.75883,0,0,0,356.69809,267.3543Z" transform="translate(-269.62552 -231.75776)"/>
    </g>
    <g>
      <g>
        <path class="cls-5" d="M395.53349,275.3604c1.0597,3.0525,4.4552,4.6842,7.5339,5.06a7.05335,7.05335,0,0,0,1.26761.0283c5.05659-.3477,9.085-6.3402,8.10589-11.1414a6.34321,6.34321,0,0,0-.4576-1.443c-1.8481-4.061-8.0339-6.4615-12.2572-4.4679a6.21888,6.21888,0,0,0-2.3816,2.325,13.42547,13.42547,0,0,0-1.104,2.1083A10.96078,10.96078,0,0,0,395.53349,275.3604Z" transform="translate(-269.62552 -231.75776)"/>
        <path class="cls-3" d="M395.15739,271.9384a13.58583,13.58583,0,0,1,.7132-3.393,14.54956,14.54956,0,0,1,1.47641-3.1627,5.74311,5.74311,0,0,1,2.61489-2.3976,9.72732,9.72732,0,0,1,7.0572-.0598,9.51887,9.51887,0,0,1,5.4726,4.6461,6.40941,6.40941,0,0,1,.539,1.7977c.0354.3075.0941.6132.1071.9221.002.309.0113.619.0036.9272a9.97493,9.97493,0,0,1-.9096,3.5212,10.64342,10.64342,0,0,1-4.8652,5.1172,7.88813,7.88813,0,0,1-3.4531.7918,8.33334,8.33334,0,0,1-1.74449-.2444,12.76326,12.76326,0,0,1-1.67141-.5044,9.95455,9.95455,0,0,1-2.9991-1.731,7.40735,7.40735,0,0,1-1.1743-1.2721,6.60012,6.60012,0,0,1-.7907-1.5363A8.34849,8.34849,0,0,1,395.15739,271.9384Zm1.1847,4.9455a7.38891,7.38891,0,0,0,1.185,1.2508,9.44166,9.44166,0,0,0,3.0248,1.6114,10.16868,10.16868,0,0,0,1.667.4048,8.04862,8.04862,0,0,0,1.6922.1305,7.41789,7.41789,0,0,0,3.1848-.9429,9.96876,9.96876,0,0,0,4.20911-4.9979,7.95717,7.95717,0,0,0,.12059-6.2766,7.37005,7.37005,0,0,0-1.9649-2.5024,10.17622,10.17622,0,0,0-2.8038-1.6892,9.05714,9.05714,0,0,0-6.4706-.3411,5.25672,5.25672,0,0,0-2.5325,2.0606,13.33865,13.33865,0,0,0-1.6283,3.0098,10.20075,10.20075,0,0,0-.492,6.7587A6.599,6.599,0,0,0,396.34209,276.8839Z" transform="translate(-269.62552 -231.75776)"/>
      </g>
      <path class="cls-3" d="M406.53639,276.7175c-.2241.136-2.4275,2.115-6.3209.3389-3.8932-1.7757-2.6357-6.8722-1.7506-8.4762.8848-1.6038,3.5742-4.7957,8.044-2.9292C410.97859,267.5179,410.38889,274.3753,406.53639,276.7175Z" transform="translate(-269.62552 -231.75776)"/>
      <path class="cls-9" d="M396.24049,267.8297c5.9919-2.3728,12.7744-.0632,16.2004,1.4776a6.34321,6.34321,0,0,0-.4576-1.443c-1.8481-4.061-8.0339-6.4615-12.2572-4.4679a6.21888,6.21888,0,0,0-2.3816,2.325A13.42547,13.42547,0,0,0,396.24049,267.8297Z" transform="translate(-269.62552 -231.75776)"/>
    </g>
    <path class="cls-3" d="M338.32089,257.1648c9.7283,7.5637,14.3844,1.0269,10.2083-.7763a29.73577,29.73577,0,0,1-6.8405-4.4941A18.20888,18.20888,0,0,0,338.32089,257.1648Z" transform="translate(-269.62552 -231.75776)"/>
    <path class="cls-3" d="M335.86419,265.9883l-.0079.0433c-.0122.208-.0355.4079-.0524.6088,3.6747,2.0614,8.3303,3.584,12.3576,2.5331,1.51951-.3968,2.9607-1.5752,2.7008-3.0347a2.81241,2.81241,0,0,0-.9889-1.5553c-1.4747-1.2758-3.7106-1.7935-5.6493-2.3026a25.95455,25.95455,0,0,1-6.6415-3.165A37.88237,37.88237,0,0,0,335.86419,265.9883Z" transform="translate(-269.62552 -231.75776)"/>
    <path class="cls-3" d="M335.54829,269.469a24.08383,24.08383,0,0,0,.9765,7.7552,12.4213,12.4213,0,0,0,8.1619-.3036,2.89461,2.89461,0,0,0,2.1891-2.5747c-.0431-1.7242-2.2893-2.2563-3.67679-2.4433A21.19694,21.19694,0,0,1,335.54829,269.469Z" transform="translate(-269.62552 -231.75776)"/>
    <path class="cls-5" d="M357.85019,241.7705a4.29029,4.29029,0,0,0,1.6174-.1139c.385-.2255-1.49359-.5663-1.49359-.5663,1.01219-.2475,1.97909-1.2082,1.66059-1.2776a5.07337,5.07337,0,0,0-1.5677.5545c1.4403-1.4587,1.0767-4.0604-.2208-4.0994-.55509-.0177-1.3569,1.071-2.09,2.3166a9.66494,9.66494,0,0,1-3.7855,7.6727,23.686,23.686,0,0,1,7.1308-2.8389A2.999,2.999,0,0,0,357.85019,241.7705Z" transform="translate(-269.62552 -231.75776)"/>
    <path class="cls-5" d="M405.20759,247.3204a7.39113,7.39113,0,0,0-.884-2.7029c.0763.044.8808.546,1.3251.3868.4656-.1681-.8832-.9596-.8832-.9596s1.101.2627,1.249-.0511c.1531-.3068-.9982-.3992-.9982-.3992.8879-.3497,2.72771-2.2543,1.8332-2.9742-.5834-.4672-1.5706.0705-2.1952.5064a7.01415,7.01415,0,0,1-5.3834,3.935S402.54409,246.2645,405.20759,247.3204Z" transform="translate(-269.62552 -231.75776)"/>
    <g>
      <path class="cls-3" d="M386.53769,271.9942s1.8747-1.8796,2.6929-1.4399c.8181.4398-2.0037,3.2868-2.9923,3.4934-.9888.2067-2.766-3.21-2.1846-3.7916S386.53769,271.9942,386.53769,271.9942Z" transform="translate(-269.62552 -231.75776)"/>
      <path class="cls-10" d="M390.46559,274.6875a6.24184,6.24184,0,0,1,3.7725,3.1748c1.11,2.3009,1.0857,5.0742-.82309,6.9295a8.1519,8.1519,0,0,1-4.28291,1.993c-2.95.5518-5.9167.8971-8.7766-.1383a7.31228,7.31228,0,0,1-2.8354-1.7347,6.50865,6.50865,0,0,1,1.04391-9.648,10.11138,10.11138,0,0,1,6.33159-1.2493A27.4162,27.4162,0,0,1,390.46559,274.6875Z" transform="translate(-269.62552 -231.75776)"/>
      <path class="cls-3" d="M382.06919,285.0254c.4185-.914.7996-1.8424,1.196-2.7655l1.1202-2.7962c.3733-.9326.7152-1.8766,1.0614-2.8206.3315-.9515.6668-1.8936.9323-2.8873l-.5322-.0202c.3119,1.8959.5746,3.8064.8226,5.7148.1201.955.23,1.912.31,2.8712.0962.9585.1542,1.9195.1849,2.8857a28.544,28.544,0,0,0,.0775-2.9006c-.0235-.968-.0908-1.9335-.1608-2.8984-.1489-1.9307-.3972-3.8475-.6979-5.7622l-.2004-1.2763-.3317,1.256c-.2499.946-.57609,1.9007-.8949,2.8466l-.9684,2.8457-.976,2.8465C382.70209,283.1195,382.37049,284.0667,382.06919,285.0254Z" transform="translate(-269.62552 -231.75776)"/>
    </g>
    <g>
      <path class="cls-3" d="M417.08379,287.9936a45.86417,45.86417,0,0,0-4.8415-2.1952,45.33,45.33,0,0,0-5.041-1.6881,45.43447,45.43447,0,0,0,4.8416,2.1954A45.91977,45.91977,0,0,0,417.08379,287.9936Z" transform="translate(-269.62552 -231.75776)"/>
      <path class="cls-3" d="M418.84019,283.6865a43.33261,43.33261,0,0,0-5.0751-.9655,42.84821,42.84821,0,0,0-5.1484-.4254,42.8805,42.8805,0,0,0,5.0749.9656A43.353,43.353,0,0,0,418.84019,283.6865Z" transform="translate(-269.62552 -231.75776)"/>
      <path class="cls-3" d="M418.44289,278.3022a43.82528,43.82528,0,0,0-5.0253,1.3179,43.33033,43.33033,0,0,0-4.8595,1.8371,43.33253,43.33253,0,0,0,5.0252-1.3178A43.82527,43.82527,0,0,0,418.44289,278.3022Z" transform="translate(-269.62552 -231.75776)"/>
      <path class="cls-3" d="M357.65439,283.2623a46.87336,46.87336,0,0,0-5.3693.047,46.21929,46.21929,0,0,0-5.3366.5912,46.28618,46.28618,0,0,0,5.3692-.0469A46.849,46.849,0,0,0,357.65439,283.2623Z" transform="translate(-269.62552 -231.75776)"/>
      <path class="cls-3" d="M346.88309,279.5488a43.20216,43.20216,0,0,0,5.0246,1.1781,42.753,42.753,0,0,0,5.1208.6415,42.79233,42.79233,0,0,0-5.0244-1.1781A43.277,43.277,0,0,0,346.88309,279.5488Z" transform="translate(-269.62552 -231.75776)"/>
      <path class="cls-3" d="M349.16419,274.5868a42.182,42.182,0,0,0,3.9474,3.2238,41.64994,41.64994,0,0,0,4.2692,2.7842,41.70506,41.70506,0,0,0-3.9474-3.2241A42.1909,42.1909,0,0,0,349.16419,274.5868Z" transform="translate(-269.62552 -231.75776)"/>
    </g>
    <path class="cls-11" d="M415.222,290.0459c-.57031.7395-1.13971,1.477-1.74221,2.1839-.2957.3573-.601.7054-.9183,1.0381a5.19721,5.19721,0,0,1-1.01349.8646l-.09951.0589-.0101.127a5.79547,5.79547,0,0,1-.1919,1.1484c-.097.356-.3006.7263-.5059.7464-.1007.0104-.13459.0034-.211-.1277a1.56563,1.56563,0,0,1-.1223-.4946,5.72113,5.72113,0,0,1,.0216-1.1556l.1133-1.1105-.6103.9284a10.63521,10.63521,0,0,1-.7778,1.0391,4.94546,4.94546,0,0,1-.9117.8674.99639.99639,0,0,1-.4865.2027.38473.38473,0,0,1-.21-.0321c-.0623-.0194-.0795-.0577-.1101-.1077a1.72264,1.72264,0,0,1,.2374-1.0947l.27081-.5416-.52471.2734a21.37485,21.37485,0,0,1-2.0475.9108,11.789,11.789,0,0,1-2.15979.6322,9.81721,9.81721,0,0,0,2.23649-.4046,17.41771,17.41771,0,0,0,2.1421-.792l-.2539-.2682a3.45305,3.45305,0,0,0-.2933.6508,1.30538,1.30538,0,0,0-.04039.798.663.663,0,0,0,.33159.3668.65531.65531,0,0,0,.2163.0733.64594.64594,0,0,0,.2198.0182,1.45276,1.45276,0,0,0,.7451-.2629,4.82988,4.82988,0,0,0,1.03921-.9442,11.10155,11.10155,0,0,0,.83259-1.0901l-.4969-.1823a5.67242,5.67242,0,0,0-.0159,1.286,2.02869,2.02869,0,0,0,.1866.6818.80668.80668,0,0,0,.3071.3279.67539.67539,0,0,0,.47651.0651.98113.98113,0,0,0,.62689-.497,2.64215,2.64215,0,0,0,.247-.6312,5.599,5.599,0,0,0,.1665-1.2668l-.1092.1856a5.49827,5.49827,0,0,0,1.0557-1.0034c.3058-.3607.594-.7318.8714-1.1094C414.24319,291.6378,414.75919,290.8579,415.222,290.0459Z" transform="translate(-269.62552 -231.75776)"/>
    <path class="cls-11" d="M355.45109,292.7963c-.756-.4408-1.5159-.8707-2.2582-1.3291-.7444-.4526-1.4895-.906-2.1883-1.412l-.425-.3076.1223.5249a3.216,3.216,0,0,1,.0895.7172.72351.72351,0,0,1-.14639.528.25549.25549,0,0,1-.18561.033.38949.38949,0,0,1-.1866-.1291,2.36186,2.36186,0,0,1-.3609-.5919,9.47192,9.47192,0,0,1-.4913-1.4219,9.77908,9.77908,0,0,1-.2893-1.4709l-.0878-.8934-.4247.787a5.51112,5.51112,0,0,1-.6551.9702c-.2451.2855-.5654.5331-.7776.4529-.2464-.0561-.464-.4106-.5912-.7634a5.76205,5.76205,0,0,1-.2728-1.1454l-.02309-.1658-.15251-.0255a12.67155,12.67155,0,0,1-2.71249-.788,10.76874,10.76874,0,0,1-1.29011-.6035,11.34915,11.34915,0,0,1-1.2057-.773,9.73287,9.73287,0,0,0,2.3855,1.6236,12.908,12.908,0,0,0,2.752.9587L345.9,287.38a5.07918,5.07918,0,0,0,.24389,1.27,2.56421,2.56421,0,0,0,.2926.6161,1.14094,1.14094,0,0,0,.608.4832.83332.83332,0,0,0,.4346.0166,1.18535,1.18535,0,0,0,.3641-.1558,2.49892,2.49892,0,0,0,.5193-.4573,5.99542,5.99542,0,0,0,.7383-1.07l-.5123-.1065a9.70792,9.70792,0,0,0,.318,1.5714,8.85021,8.85021,0,0,0,.54351,1.5022,2.80033,2.80033,0,0,0,.47009.7125.83888.83888,0,0,0,.4668.2628.71892.71892,0,0,0,.5494-.1393,1.06957,1.06957,0,0,0,.2922-.9073,3.62823,3.62823,0,0,0-.1456-.8143l-.3027.2171c.7457.4771,1.5114.9043,2.2921,1.3027C353.85789,292.0728,354.64389,292.457,355.45109,292.7963Z" transform="translate(-269.62552 -231.75776)"/>
    <path class="cls-3" d="M442.94209,359.7114s2.1545.663,2.0715,2.0716" transform="translate(-269.62552 -231.75776)"/>
    <path class="cls-3" d="M340.90809,298.3121a3.13435,3.13435,0,0,1-2.5042.9999c-4.2747.0917-8.0173-2.7886-11.026-5.8249l-.0276-.0275c.1193-.3945.24771-.7706.3761-1.1466a38.306,38.306,0,0,1,4.449-8.9896c2.5318,3.981,6.366,7.2926,8.5034,11.5672C341.21079,295.973,341.61449,297.3397,340.90809,298.3121Z" transform="translate(-269.62552 -231.75776)"/>
    <path class="cls-3" d="M335.707,320.8044a4.02248,4.02248,0,0,1-2.20151,1.0457c-4.6416.9908-9.4758-.2751-13.8697-2.0547a41.39775,41.39775,0,0,1-5.2287-2.4951,76.14911,76.14911,0,0,1,5.8433-9.6867c4.4857,2.8895,10.228,4.1278,14.1633,7.8246a6.19062,6.19062,0,0,1,1.752,2.4767A2.94127,2.94127,0,0,1,335.707,320.8044Z" transform="translate(-269.62552 -231.75776)"/>
    <path class="cls-3" d="M327.95569,338.7744a2.694,2.694,0,0,1-.6329,1.642,6.84919,6.84919,0,0,1-4.082,2.3942,15.98278,15.98278,0,0,1-4.81579.0917,48.19255,48.19255,0,0,1-10.815-2.4309,57.46524,57.46524,0,0,1,2.073-11.2186c3.706,1.6328,7.77879,2.4768,11.604,3.8894,2.37569.8714,4.78829,2.0731,6.15509,4.2104A2.87589,2.87589,0,0,1,327.95569,338.7744Z" transform="translate(-269.62552 -231.75776)"/>
    <path class="cls-3" d="M323.41509,360.487a8.57288,8.57288,0,0,1-2.4492,1.8989,50.26547,50.26547,0,0,1-8.95289,4.1003,55.239,55.239,0,0,1-2.862-8.2925.26577.26577,0,0,1-.01831-.0824,89.03231,89.03231,0,0,1,8.9804-2.3392,8.82132,8.82132,0,0,1,3.4216-.2202,2.90029,2.90029,0,0,1,1.8804,4.9351Z" transform="translate(-269.62552 -231.75776)"/>
    <path class="cls-3" d="M328.708,377.3196a8.52226,8.52226,0,0,1-1.97221,2.3941c-1.1834,1.0916-2.4126,2.1373-3.6967,3.1189a48.81242,48.81242,0,0,1-5.51309-6.5312c1.63279-.8531,3.30229-1.6695,4.98089-2.4217a8.95992,8.95992,0,0,1,3.2932-.9632,2.898,2.898,0,0,1,2.90791,4.4031Z" transform="translate(-269.62552 -231.75776)"/>
    <path class="cls-6" d="M401.12579,324.2841s-5.1312-6.7102-11.5783-8.9469c0,0,10.1516,7.2871,8.0259,6.5785-.3946-.1314-11.4468-7.1048-21.8409-3.5524-10.3942,3.5524,23.0251,9.3416,23.0251,9.3416l13.8151,1.579Z" transform="translate(-269.62552 -231.75776)"/>
    <path class="cls-6" d="M315.68729,412.0753l-7.9827-3.2898.1581,3.527,3.66531,2.5885c-1.98581-.9188-3.41831-1.6104-4.14941-2.0057a8.40334,8.40334,0,0,1-4.594-6.5403,7.42219,7.42219,0,0,1,3.5665-6.6885,9.57607,9.57607,0,0,1,7.6468-.7805c1.729.5139,4.5348,1.5018,8.0223,2.7961-5.2757-.988-12.6064-2.3614-12.7546-2.3614,0,.0988,13.2189,6.1947,14.4637,6.7676l-16.1827-6.066.2371,5.2461,2.27231,1.5608-2.19331-.7013-.079,1.4819Z" transform="translate(-269.62552 -231.75776)"/>
    <polygon class="cls-6" points="97.622 196.361 110.825 203.017 124.792 193.524 110.498 200.398 97.622 196.361"/>
    <path class="cls-1" d="M445.79179,428.9103l.0791.0394a1.47234,1.47234,0,0,0-.1383.1185A.89724.89724,0,0,1,445.79179,428.9103Z" transform="translate(-269.62552 -231.75776)"/>
    <path class="cls-6" d="M435.24039,301.4041l-1.6005,3.685a3.84154,3.84154,0,0,1-.5532-.731c-3.2109-5.3845-9.7413-4.1396-9.7413-4.1396-4.0111,2.213-8.9905,7.8147-9.2967,8.1606a57.64511,57.64511,0,0,1,7.6468-9.0893s-1.3041-1.0769-2.2822-1.8673q1.4079-.84465,2.9639-1.6893l3.033,1.3238,3.774-1.8968Z" transform="translate(-269.62552 -231.75776)"/>
    <path class="cls-4" d="M431.45529,354.9281l-25.6295,19.6671s-5.6415.8072-6.1185.8072c-.0092,0-.0366-.0092-.0917-.0183-2.0273-.4312-36.9949-10.1362-37.4719-9.9803-.4862.1651-4.1921-52.2221-4.1921-52.2221l42.1227,11.0076.4311.1101,5.97161-.9632s.02759-.0275.07339-.0642c1.5503-1.4585,27.5989-23.0519,30.5463-25.7304C437.99159,304.3663,431.45529,354.9281,431.45529,354.9281Z" transform="translate(-269.62552 -231.75776)"/>
    <g>
      <path class="cls-1" d="M358.28969,324.0292s-10.416-7.7078-17.3948-3.1247c-6.9787,4.5829-1.8748,19.2695,1.5624,23.0193,3.4373,3.7498,8.2099,9.8594,21.5423,7.4637,13.3325-2.3957,17.9577-9.6452,15.95541-13.8175,0,0,1.87539-5.8535-3.58171-6.2977,0,0-1.6914-4.9461-7.6146-3.6169a48.36768,48.36768,0,0,0-7.1069,1.9671Z" transform="translate(-269.62552 -231.75776)"/>
      <path class="cls-11" d="M358.45569,330.9582a45.047,45.047,0,0,1,4.6185-1.8921,35.4994,35.4994,0,0,1,4.8266-1.34,13.434,13.434,0,0,1,5.0634-.1403,4.609,4.609,0,0,1,2.3547,1.2021,4.233,4.233,0,0,1,1.1175,2.4336l-.3435-.3305a6.07449,6.07449,0,0,1,2.11511.6202,4.25548,4.25548,0,0,1,1.68089,1.4831,4.40817,4.40817,0,0,1,.6882,2.1378,7.94988,7.94988,0,0,1-.0137,1.1037l-.1825,1.0697-.0413-.3132a6.60645,6.60645,0,0,1-1.1092,6.6293,16.86611,16.86611,0,0,1-5.11139,4.3228,32.43291,32.43291,0,0,1-12.51141,4.2085,21.80387,21.80387,0,0,1-12.8557-2.5698,25.71747,25.71747,0,0,1-9.02989-9.4116l1.94679,2.6295c.6553.8675,1.465,1.6074,2.1864,2.4143a8.66119,8.66119,0,0,0,1.2042,1.0872l1.2557,1.0264a10.00083,10.00083,0,0,0,1.3401.9026l1.3721.8528a21.81929,21.81929,0,0,0,12.4882,2.2101,31.52261,31.52261,0,0,0,12.1032-4.1931,16.3986,16.3986,0,0,0,4.8578-4.0369,7.12315,7.12315,0,0,0,1.318-2.7495,4.72754,4.72754,0,0,0-.2269-2.9016l-.0705-.1526.029-.161.1721-.9571a7.20659,7.20659,0,0,0,.0199-.9505,3.55518,3.55518,0,0,0-.536-1.7388,3.64859,3.64859,0,0,0-1.351-1.2293,5.35683,5.35683,0,0,0-1.797-.5844l-.3116-.0407-.0321-.2901a3.51448,3.51448,0,0,0-.8635-2.0454,3.96637,3.96637,0,0,0-2.0016-1.0762,13.15232,13.15232,0,0,0-4.8441.0092,35.15024,35.15024,0,0,0-4.8275,1.1153C361.569,329.7965,359.99719,330.3364,358.45569,330.9582Z" transform="translate(-269.62552 -231.75776)"/>
      <path class="cls-11" d="M361.73149,329.8321a15.28847,15.28847,0,0,1-2.4744-3.2842,15.12319,15.12319,0,0,1-1.6203-3.7794,15.12116,15.12116,0,0,1,2.4745,3.2842A15.29248,15.29248,0,0,1,361.73149,329.8321Z" transform="translate(-269.62552 -231.75776)"/>
      <path class="cls-3" d="M370.43319,333.108c.9986-.3462,1.83681-.6904,2.7493-1.0341.4559-.1551.907-.3358,1.38451-.4698a8.01614,8.01614,0,0,1,1.49649-.3388A6.014,6.014,0,0,1,373.52479,333a5.78789,5.78789,0,0,1-1.5234.3422A3.11089,3.11089,0,0,1,370.43319,333.108Z" transform="translate(-269.62552 -231.75776)"/>
      <path class="cls-3" d="M373.09469,339.5573c.6501-.2375,1.2777-.4354,1.8989-.6295.6166-.2057,1.2328-.3814,1.82041-.6153a15.10329,15.10329,0,0,0,1.72789-.7461,10.50987,10.50987,0,0,0,1.6164-1.0802,3.71613,3.71613,0,0,1-1.1812,1.7167,6.26759,6.26759,0,0,1-1.8214,1.036,7.84982,7.84982,0,0,1-2.01369.4424A6.1743,6.1743,0,0,1,373.09469,339.5573Z" transform="translate(-269.62552 -231.75776)"/>
    </g>
    <g>
      <path class="cls-1" d="M435.42849,320.331a73.07541,73.07541,0,0,1-9.892,9.4264c-4.8878,3.6077-4.7714,13.9653,1.39651,15.3618s11.75409-2.9095,13.84879-10.1248C442.87669,327.779,435.42849,320.331,435.42849,320.331Z" transform="translate(-269.62552 -231.75776)"/>
      <path class="cls-3" d="M423.76119,341.9712a27.04261,27.04261,0,0,0,5.3201-.8476,16.24286,16.24286,0,0,0,2.4962-.8781c.8288-.3368,1.59151-.7987,2.4288-1.2357a7.49685,7.49685,0,0,1-2.06329,1.9146,9.09458,9.09458,0,0,1-2.60091,1.1515,10.43274,10.43274,0,0,1-2.811.3666A8.07285,8.07285,0,0,1,423.76119,341.9712Z" transform="translate(-269.62552 -231.75776)"/>
      <path class="cls-3" d="M422.48079,336.2925c1.5388-.1675,2.992-.2522,4.4208-.4857a18.37,18.37,0,0,0,2.1006-.47,14.48769,14.48769,0,0,0,2.0445-.8538,4.77526,4.77526,0,0,1-1.745,1.5641,7.77,7.77,0,0,1-2.2424.7344,9.42678,9.42678,0,0,1-2.3297.0626A7.23122,7.23122,0,0,1,422.48079,336.2925Z" transform="translate(-269.62552 -231.75776)"/>
    </g>
    <path class="cls-1" d="M386.13119,375.4849c-.3027,5.7699.13381,14.7772-3.5007,17.4839a5.79587,5.79587,0,0,1-3.6533.8555c-1.798-.0734-3.7619-1.6444-3.8353-2.8277-7.2375,2.5317-20.1623,6.1826-32.2157,2.9813-18.924-5.0269-5.46719-23.2812-5.9166-23.3546-.1927-.0368,1.1558-3.0822,2.72441-6.513l-.55041-12.035s26.1799-5.6139,38.857,20.6027c0,0,5.4488-15.3924,11.7231-14.099a2.42836,2.42836,0,0,1,1.9815,1.3301C392.93759,362.8628,386.43389,369.6784,386.13119,375.4849Z" transform="translate(-269.62552 -231.75776)"/>
    <path class="cls-11" d="M334.15469,353.3979a34.605,34.605,0,0,1,12.892-2.4301,35.98244,35.98244,0,0,1,6.5887.5929c.5474.0799,1.0799.2336,1.621.3471a12.21366,12.21366,0,0,1,1.6059.4285l1.5879.5276c.5151.2094,1.0122.4613,1.5194.6905a36.38584,36.38584,0,0,1,10.4701,8.0782,66.72929,66.72929,0,0,1,8.01431,10.5349l-.86661.0756a50.674,50.674,0,0,1,3.2283-6.9492,21.90739,21.90739,0,0,1,4.726-6.1139,5.38224,5.38224,0,0,1,3.79331-1.3869,4.63849,4.63849,0,0,1,1.98989.6744,2.1948,2.1948,0,0,1,.7673.8928,2.27885,2.27885,0,0,1,.1717,1.138,11.35666,11.35666,0,0,1-1.4031,3.6876c-.5835,1.1294-1.1833,2.2363-1.7334,3.3637a27.105,27.105,0,0,0-2.4429,7.0596,35.63189,35.63189,0,0,0-.4024,3.7399l-.278,3.7861a39.2168,39.2168,0,0,1-1.1157,7.5344,6.27752,6.27752,0,0,1-1.9475,3.258,5.134,5.134,0,0,1-3.635.8687,5.06527,5.06527,0,0,0,3.5349-.9917,6.07012,6.07012,0,0,0,1.7809-3.2124,40.014,40.014,0,0,0,.876-7.4906l.20531-3.7908a36.19162,36.19162,0,0,1,.33779-3.8124,27.821,27.821,0,0,1,2.3653-7.2923c.5326-1.1603,1.127-2.2858,1.7018-3.4066a10.87567,10.87567,0,0,0,1.2879-3.3633,1.24247,1.24247,0,0,0-.5636-1.2366,3.83728,3.83728,0,0,0-1.58119-.516,4.50274,4.50274,0,0,0-3.13261,1.2112,21.07745,21.07745,0,0,0-4.45939,5.8721,57.21462,57.21462,0,0,0-3.16931,6.8077l-.3576.9222-.5092-.8465a65.87924,65.87924,0,0,0-7.8253-10.4184,47.27889,47.27889,0,0,0-4.7443-4.4588c-.8184-.7144-1.7292-1.3035-2.5961-1.9531a27.77759,27.77759,0,0,0-2.804-1.6213c-.4869-.231-.9653-.4858-1.46019-.6984l-1.52341-.5378a11.74309,11.74309,0,0,0-1.5601-.4485c-.5292-.1214-1.05049-.2834-1.5869-.3718a38.00762,38.00762,0,0,0-6.4808-.7247A35.58808,35.58808,0,0,0,334.15469,353.3979Z" transform="translate(-269.62552 -231.75776)"/>
    <path class="cls-2" d="M386.13119,375.4849c-.3027,5.7699.3645,14.4878-3.5007,17.4839-8.3842-7.4944.2351-26.5376,4.5373-30.7388a7.327,7.327,0,0,1,4.5774-2.3209C392.93759,362.8628,386.43389,369.6784,386.13119,375.4849Z" transform="translate(-269.62552 -231.75776)"/>
    <path class="cls-11" d="M383.31889,362.5817a2.81533,2.81533,0,0,1,3.23511.4043" transform="translate(-269.62552 -231.75776)"/>
    <path class="cls-3" d="M406.55039,323.272l-.7246,51.3232s-5.6415.8072-6.1185.8072c-.0092,0-.0366-.0092-.0917-.0183l.4587-51.1948.4311.1101,5.97161-.9632S406.50459,323.3087,406.55039,323.272Z" transform="translate(-269.62552 -231.75776)"/>
    <path class="cls-3" d="M400.07469,324.6833a.45389.45389,0,0,1-.1244-.0164l-42.1234-11.0074a.49355.49355,0,1,1,.2489-.9552l41.8706,10.9409c.7728-.6416,3.49261-2.5722,6.4815-.9127l30.3499-25.5693a.49438.49438,0,0,1,.6368.7564l-30.619,25.795a.49778.49778,0,0,1-.5837.0387c-2.9958-1.9085-5.7638.7602-5.79089.7882A.49489.49489,0,0,1,400.07469,324.6833Z" transform="translate(-269.62552 -231.75776)"/>
    <path class="cls-3" d="M400.132,324.6427l6.42229-.8971A4.5452,4.5452,0,0,0,400.132,324.6427Z" transform="translate(-269.62552 -231.75776)"/>
    <rect class="cls-1" x="399.9554" y="330.47771" width="6.45868" height="0.98742" transform="translate(-286.49665 -210.06466) rotate(-3.01889)"/>
    <rect class="cls-1" x="399.59938" y="361.84116" width="6.45873" height="0.98738" transform="matrix(0.9986, -0.05288, 0.05288, 0.9986, -288.22127, -209.95035)"/>
  </g>
</svg>
