<svg id="OBJECTS" xmlns="http://www.w3.org/2000/svg" viewBox="0 0 240.84183 172.25009">
  <defs>
    <style>
      .cls-1 {
        fill: #8dd5b6;
      }

      .cls-2 {
        fill: #e49046;
      }

      .cls-3, .cls-7 {
        fill: #dc5656;
      }

      .cls-11, .cls-4, .cls-5, .cls-8, .cls-9 {
        fill: #8b3433;
      }

      .cls-4 {
        opacity: 0.2;
      }

      .cls-6 {
        fill: #edbc89;
      }

      .cls-7, .cls-9 {
        opacity: 0.48;
      }

      .cls-8 {
        opacity: 0.49;
      }

      .cls-10 {
        fill: #fff;
      }

      .cls-11 {
        opacity: 0.21;
      }
    </style>
  </defs>
  <g>
    <path class="cls-1" d="M463.98559,416.1494c-22.8711-10.5439-97.5469-44.998-98.22659-45.6787l.35349-.3535.2969-.4014c1.4687.9541,64.7422,30.1963,97.9941,45.5254Z" transform="translate(-241.81238 -287.88171)"/>
    <path class="cls-2" d="M411.99639,341.776a39.04471,39.04471,0,0,0-7.6308-9.1891c-.0404-.0323-.084-.0762-.1244-.1085a5.38513,5.38513,0,0,0-.4276-.3848c-.7785-.6979-1.6065-1.3941-2.4875-2.1003-.3155-.2543-.6535-.5208-.9879-.7759-.0957-.0729-.1946-.1573-.29019-.2302q-4.57757-3.49185-8.816-6.1613c-.65861-.4069-1.30251-.8055-1.94321-1.1925l-.0073-.0041c-1.57049-.9357-3.0959-1.7781-4.5909-2.5354-.1557-.087-.3158-.1666-.4757-.2463-8.9463-4.4814-16.5063-5.8324-22.45589-4.21-.27341.0712-.53941.1466-.80211.2334a16.21994,16.21994,0,0,0-4.0517,1.972c-.2943.1957-.5779.4073-.8616.6188-.134.1004-.2647.2124-.4028.3202-.2176.1803-.4393.368-.65679.5483-.12661.1045-.24571.2133-.37231.3178a35.11788,35.11788,0,0,0-4.3804,4.5824l-.0241.0256c-.2103.272-.4165.5365-.6119.8167-.4141.567-.8019,1.1392-1.1599,1.7278a22.99818,22.99818,0,0,0-1.1665,2.123,21.218,21.218,0,0,0-1.5812,4.3645c-.12269.5157-.2262,1.0323-.3149,1.5572a20.36823,20.36823,0,0,0-.2455,2.4383c-9.3082.7628-40.0798,3.6915-51.2302,9.8392a70.83272,70.83272,0,0,0-9.22309,6.0714,57.161,57.161,0,0,0-11.48311,11.874,51.43379,51.43379,0,0,0-4.52,7.684,52.57055,52.57055,0,0,0-3.8481,11.1044c-.3665,1.6003-.6841,3.1884-.965,4.7642a83.035,83.035,0,0,0-1.06279,8.2582,72.01621,72.01621,0,0,0,.29319,15.38,55.40334,55.40334,0,0,0,1.6491,8.0381,42.83452,42.83452,0,0,0,7.8061,15.4778,35.487,35.487,0,0,0,7.4884,6.9387c8.7711,6.0714,20.8285,8.6002,36.1718,6.0958,0,0,3.1518,9.6996,10.1761,8.4903,7.0242-1.2217,15.2701-1.698,22.5387,0,7.2685,1.6859,9.2108-4.1291,7.5128-6.7921-1.698-2.6631-13.8164-7.4153-22.2944-6.6945l.4887-2.5165.3054-1.5515s31.9207-4.2634,33.86311-36.2573c.44109-7.2638,12.90589-13.415,19.57939-19.5774.7634.4076,1.1925.6258,1.1925.6258s6.6169-4.4058,7.8242-4.8415a26.19392,26.19392,0,0,0,10.6993-7.3714c.2251-.2636.4545-.5347.6805-.8173a23.58882,23.58882,0,0,0,1.44111-1.9698.34793.34793,0,0,0,.05309-.0774c.3751-.5499.7332-1.1385,1.0814-1.7618.07051-.1261.1451-.2597.2123-.3974.0705-.1262.141-.2523.20821-.3899a37.89288,37.89288,0,0,0,1.67119-3.6717c.09881-.2466.1903-.4974.2859-.7556.1886-.5469.374-1.1053.53291-1.6689a1.334,1.334,0,0,0,.04909-.1575,25.27183,25.27183,0,0,0,.7164-3.4262q.0654-.4308.10851-.8739A22.30728,22.30728,0,0,0,411.99639,341.776Z" transform="translate(-241.81238 -287.88171)"/>
    <path class="cls-1" d="M462.176,456.4873c-22.87111-10.544-97.54591-44.9981-98.22751-45.6787l.707-.7071-.35349.3536.29679-.4014c1.4668.9521,64.74221,30.1953,97.99521,45.5254Z" transform="translate(-241.81238 -287.88171)"/>
    <path class="cls-3" d="M401.53049,440.5303a.50017.50017,0,0,1-.0938-.9913,5.24448,5.24448,0,0,0,1.6846-.6757.50057.50057,0,0,1,.51371.8593,6.26881,6.26881,0,0,1-2.00881.7989A.534.534,0,0,1,401.53049,440.5303Zm-1.9736-.1026a.49356.49356,0,0,1-.1534-.0244,4.96423,4.96423,0,0,1-1.8808-1.1484.50015.50015,0,1,1,.6875-.7266,3.97083,3.97083,0,0,0,1.5.9238.4999.4999,0,0,1-.1533.9756Zm5.4072-1.8457a.5.5,0,0,1-.3399-.8672,14.48931,14.48931,0,0,0,1.3194-1.4092.50018.50018,0,0,1,.7715.6368,15.69975,15.69975,0,0,1-1.4112,1.5068A.4993.4993,0,0,1,404.96409,438.582Zm-8.3194-.7656a.4996.4996,0,0,1-.4306-.2461c-.1319-.2236-.2588-.459-.3789-.71a6.31612,6.31612,0,0,1-.4541-1.2568.50023.50023,0,0,1,.9707-.2422,5.36189,5.36189,0,0,0,.3828,1.0625c.10941.2266.2226.4385.3408.6387a.5.5,0,0,1-.4307.7539Zm10.8789-2.2949a.495.495,0,0,1-.2802-.086.50066.50066,0,0,1-.1338-.6943c.3486-.5147.6992-1.0752,1.041-1.666a.49964.49964,0,1,1,.8652.5c-.3535.6123-.71679,1.1924-1.0781,1.7265A.49952.49952,0,0,1,407.52359,435.5215Zm-11.8632-1.5225h-.0088a.50038.50038,0,0,1-.4912-.5088,12.26584,12.26584,0,0,1,.2265-2.0713.50012.50012,0,0,1,.9825.1875,11.27161,11.27161,0,0,0-.209,1.9014A.49985.49985,0,0,1,395.66039,433.999Zm13.873-1.9326a.49994.49994,0,0,1-.4473-.7236l.88091-1.793a.49963.49963,0,1,1,.89839.4375l-.8847,1.8027A.50142.50142,0,0,1,409.53339,432.0664Zm-13.1621-1.9932a.49593.49593,0,0,1-.1494-.0224.501.501,0,0,1-.3281-.627c.1923-.6123.4267-1.2598.69821-1.9228a.50016.50016,0,1,1,.92579.3789c-.26079.6367-.4854,1.2568-.669,1.8427A.5008.5008,0,0,1,396.37129,430.0732Zm14.919-1.6113a.48827.48827,0,0,1-.2168-.0498.49919.49919,0,0,1-.2334-.667l.8701-1.8066a.49968.49968,0,0,1,.9004.4336l-.8702,1.8066A.49963.49963,0,0,1,411.29029,428.4619Zm-13.4141-2.0977a.5001.5001,0,0,1-.44919-.7187c.30949-.6358.62789-1.2402.93839-1.7998a.50007.50007,0,1,1,.875.4844c-.3027.5459-.6132,1.1347-.915,1.7529A.49916.49916,0,0,1,397.87619,426.3642Zm15.1533-1.5166a.48858.48858,0,0,1-.2168-.0498.49874.49874,0,0,1-.2334-.667l.8711-1.8056a.5001.5001,0,0,1,.9004.4355l-.8711,1.8037A.49966.49966,0,0,1,413.02949,424.8476Zm-13.2139-1.9863a.50587.50587,0,0,1-.2627-.0742.4998.4998,0,0,1-.1621-.6885c.4834-.7832.8848-1.3769,1.1114-1.7012a.5001.5001,0,0,1,.8203.5723c-.2207.3164-.6104.8926-1.0821,1.6543A.49708.49708,0,0,1,399.81559,422.8613Zm14.959-1.6211a.5.5,0,0,1-.4502-.7178l.878-1.8037a.50007.50007,0,1,1,.8984.4395l-.876,1.7998A.4998.4998,0,0,1,414.77459,421.2402Zm1.7588-3.6015a.50034.50034,0,0,1-.4482-.7207l.8867-1.7979a.50008.50008,0,1,1,.8965.4434l-.8867,1.7959A.499.499,0,0,1,416.53339,417.6387Zm2.2295-3.8721-.8975-.4434.9004-1.79a.50008.50008,0,1,1,.8926.4512Zm1.3584-3.2949a.50027.50027,0,0,1-.44529-.7266q.331-.6519.668-1.3037c-.13091.0049-.26081.0088-.39161.0107a.47868.47868,0,0,1-.5088-.4912.49981.49981,0,0,1,.4912-.5088c.6611-.0117,1.3164-.0537,1.94721-.1259a.50027.50027,0,1,1,.11329.9941q-.24465.0279-.4922.0498c-.0068.0166-.0146.0342-.0224.0508q-.46.8847-.9141,1.7773A.49845.49845,0,0,1,420.12129,410.4717Zm-2.1758-2.0723c-.0127,0-.0244,0-.0361-.001-.6709-.0469-1.3535-.122-2.02639-.2217a.4982.4982,0,0,1-.42091-.5673.50372.50372,0,0,1,.5674-.4209c.64751.0957,1.3037.167,1.9502.2119a.50011.50011,0,0,1-.0342.999Zm5.9649-.4102a.49985.49985,0,0,1-.11039-.9873,16.5837,16.5837,0,0,0,1.86329-.538.50034.50034,0,1,1,.334.9433,17.692,17.692,0,0,1-1.9766.5693A.47779.47779,0,0,1,423.91039,407.9892Zm-9.9209-.1679a.511.511,0,0,1-.10749-.0117c-.66111-.1446-1.32511-.3135-1.97161-.5a.5001.5001,0,0,1,.2773-.961c.585.169,1.2246.334,1.9092.4844a.5.5,0,0,1-.1074.9883Zm7.9726-.9082a.50024.50024,0,0,1-.4424-.7325q.46875-.89355.9385-1.7734a.50023.50023,0,0,1,.88281.4707q-.46877.876-.93651,1.7676A.4992.4992,0,0,1,421.96209,406.9131Zm-11.8174-.2002a.51956.51956,0,0,1-.1699-.0293c-1.1797-.4258-1.874-.7588-1.9033-.7735a.49968.49968,0,0,1,.4336-.9004c.0068.003.6826.3262,1.8096.7325a.50018.50018,0,0,1-.17.9707Zm17.5176-.0703a.49992.49992,0,0,1-.2324-.9424,13.538,13.538,0,0,0,1.6357-1.0166.50008.50008,0,1,1,.586.8105,14.4482,14.4482,0,0,1-1.7569,1.0908A.4957.4957,0,0,1,427.66229,406.6426Zm3.2403-2.3223a.5.5,0,0,1-.3399-.8662,18.63487,18.63487,0,0,0,1.3535-1.4004.5004.5004,0,1,1,.7539.6582,19.49247,19.49247,0,0,1-1.4277,1.4746A.49391.49391,0,0,1,430.90259,404.3203Zm-7.0518-.9424a.49968.49968,0,0,1-.4395-.7392c.3243-.5938.6475-1.1817.9688-1.7588a.50009.50009,0,0,1,.874.4863q-.48045.8628-.9638,1.751A.49937.49937,0,0,1,423.85079,403.3779Zm9.6826-2.0654a.5001.5001,0,0,1-.4062-.791c.3789-.5293.7373-1.0811,1.0644-1.6397a.50031.50031,0,0,1,.8633.5059c-.3438.5849-.7188,1.1621-1.1152,1.7158A.498.498,0,0,1,433.53339,401.3125ZM425.8,399.8779a.5003.5003,0,0,1-.43361-.748q.50985-.8922,1.0098-1.7393a.49992.49992,0,0,1,.8613.5078q-.4965.8409-1.0039,1.7276A.49922.49922,0,0,1,425.8,399.8779Zm9.75879-2.0117a.49987.49987,0,0,1-.4521-.7139c.2851-.6035.5371-1.2099.748-1.8017a.49977.49977,0,1,1,.9414.3359c-.2217.6231-.4863,1.2598-.78509,1.8936A.499.499,0,0,1,435.55879,397.8662Zm-7.71779-1.4375a.493.493,0,0,1-.26171-.0742.49958.49958,0,0,1-.164-.6875q.5463-.8907,1.0742-1.7061a.5.5,0,0,1,.8398.543q-.5214.80565-1.0625,1.6865A.49845.49845,0,0,1,427.841,396.4287Zm9.05079-2.3272a.49167.49167,0,0,1-.1113-.0126.49954.49954,0,0,1-.376-.5987,11.298,11.298,0,0,0,.2774-1.8926.49377.49377,0,0,1,.5253-.4726.49887.49887,0,0,1,.4727.5254,12.18894,12.18894,0,0,1-.3008,2.0625A.50016.50016,0,0,1,436.89179,394.1015Zm-6.8682-1.0351a.5.5,0,0,1-.4101-.7861c.4121-.5918.81251-1.1397,1.1992-1.6387a.50045.50045,0,1,1,.791.6133c-.3769.4853-.7676,1.0195-1.1699,1.5976A.50063.50063,0,0,1,430.02359,393.0664Zm6.9776-2.9268a.50127.50127,0,0,1-.4815-.3632,2.04453,2.04453,0,0,0-.8964-1.2911.5.5,0,1,1,.498-.8672,3.00872,3.00872,0,0,1,1.3613,1.8848.50142.50142,0,0,1-.3447.6182A.51161.51161,0,0,1,437.00119,390.1396Zm-4.499-.2226a.5.5,0,0,1-.3643-.8428,7.97741,7.97741,0,0,1,1.61911-1.3828.50027.50027,0,1,1,.51569.8574,7.10026,7.10026,0,0,0-1.4063,1.2109A.49948.49948,0,0,1,432.50219,389.917Z" transform="translate(-241.81238 -287.88171)"/>
    <path class="cls-3" d="M472.43189,460.1318a4.08537,4.08537,0,0,1-1.0743-.1465.50036.50036,0,1,1,.2657-.9648,3.01284,3.01284,0,0,0,1.6943-.0215.50025.50025,0,0,1,.2852.959A4.10519,4.10519,0,0,1,472.43189,460.1318Zm2.7705-1.1064a.5.5,0,0,1-.3116-.8907,9.13077,9.13077,0,0,0,1.333-1.3437.50032.50032,0,0,1,.7735.6348,10.1,10.1,0,0,1-1.4834,1.4902A.49923.49923,0,0,1,475.20239,459.0254Zm-5.1719-.2481a.49949.49949,0,0,1-.4727-.3369,3.75943,3.75943,0,0,1-.1797-1.2158,7.04949,7.04949,0,0,1,.0782-.999.50034.50034,0,1,1,.9902.1445,5.89986,5.89986,0,0,0-.0684.8545,2.76616,2.76616,0,0,0,.125.8896.50007.50007,0,0,1-.3095.6358A.50738.50738,0,0,1,470.03049,458.7773Zm7.7451-2.7968a.49366.49366,0,0,1-.26659-.0772.49939.49939,0,0,1-.15621-.6894c.3271-.5206.6533-1.0938.9677-1.7042a.49968.49968,0,0,1,.8887.4571c-.32719.6367-.667,1.2353-1.0107,1.7803A.49955.49955,0,0,1,477.77559,455.9805Zm-7.3711-1.1319a.49184.49184,0,0,1-.14449-.0215.49957.49957,0,0,1-.334-.623c.17679-.5869.40039-1.2344.66309-1.9258a.50038.50038,0,1,1,.9355.3555c-.2549.6699-.4707,1.2959-.64159,1.8593A.50048.50048,0,0,1,470.40449,454.8486Zm-13.8047-2.4238a.50022.50022,0,0,1-.4531-.7109l.3906-.9131a.5002.5002,0,0,1,.6572-.2627,1.46783,1.46783,0,0,0,.4268.2685.50128.50128,0,0,1,.0293.7071c-.43359.4707-.6768.7421-.6777.7441l-.003-.002A.41231.41231,0,0,1,456.59979,452.4248Zm23.0117-.0049a.50723.50723,0,0,1-.1943-.0391.50056.50056,0,0,1-.2666-.6552c.1553-.3692.2461-.6104.2656-.6631a.50484.50484,0,0,1,.5625-.3272l-.17969.9844.08989-.4922.4668.1797c-.0235.0625-.1192.3174-.2832.707A.50007.50007,0,0,1,479.61149,452.4199Zm-7.8037-1.3203a.4934.4934,0,0,1-.1953-.04.4993.4993,0,0,1-.2646-.6553c.2568-.6065.5283-1.2227.8076-1.8438a.5.5,0,0,1,.9121.4102c-.2754.6133-.5449,1.2236-.7998,1.8242A.499.499,0,0,1,471.80779,451.0996Zm-13.1562-.8936a.49994.49994,0,0,1-.3633-.8437c.415-.4395.8828-.9287,1.3916-1.4531a.5.5,0,0,1,.7168.6972c-.5049.5205-.9688,1.0059-1.3818,1.4434A.49878.49878,0,0,1,458.65159,450.206Zm-.8584-.5546a.49983.49983,0,0,1-.459-.6993l.8037-1.8437a.49984.49984,0,0,1,.916.4004l-.8017,1.8418A.50028.50028,0,0,1,457.79319,449.6514Zm15.6494-2.2081a.50007.50007,0,0,1-.4541-.7089l.8359-1.8174a.50038.50038,0,1,1,.9102.416l-.8379,1.8193A.49908.49908,0,0,1,473.44259,447.4433Zm-11.9981-.1132a.50005.50005,0,0,1-.35349-.8536c.458-.4589.93659-.9335,1.43069-1.414a.5.5,0,0,1,.69731.7168c-.49031.4765-.96491.9472-1.42091,1.4043A.49878.49878,0,0,1,461.44449,447.3301Zm-19.6093-.5577a.56274.56274,0,0,1-.0801-.0058,6.29849,6.29849,0,0,1-.9277-.2236,6.10459,6.10459,0,0,1-1.1202-.4844.49994.49994,0,1,1,.4942-.8692,5.33555,5.33555,0,0,0,1.7119.5889.50018.50018,0,0,1-.0781.9941Zm1.9892-.0156a.49986.49986,0,0,1-.08-.9931,7.71262,7.71262,0,0,0,1.7939-.5372.5.5,0,0,1,.3965.918,8.65658,8.65658,0,0,1-2.0283.6055A.46417.46417,0,0,1,443.82439,446.7568Zm15.5782-.7871a.5061.5061,0,0,1-.2012-.042.50022.50022,0,0,1-.2569-.6592l.81251-1.8379a.50016.50016,0,1,1,.91409.4063l-.8105,1.834A.50043.50043,0,0,1,459.40259,445.9697Zm-11.92-.7519a.5.5,0,0,1-.2802-.9141,12.5455,12.5455,0,0,0,1.499-1.2012.49956.49956,0,0,1,.68161.7305,13.42251,13.42251,0,0,1-1.62011,1.2988A.50282.50282,0,0,1,447.48259,445.2178Zm-8.8017-.5694a.49927.49927,0,0,1-.4805-.3623,2.67814,2.67814,0,0,1-.1025-.7519,3.88015,3.88015,0,0,1,.3496-1.5284.49994.49994,0,1,1,.9179.3965,2.88887,2.88887,0,0,0-.2675,1.1338,1.68485,1.68485,0,0,0,.0634.4746.49985.49985,0,0,1-.3427.6182A.47779.47779,0,0,1,438.68089,444.6484Zm25.6377-.1152a.5.5,0,0,1-.3428-.8643c.4873-.457.9814-.914,1.4795-1.3662a.50058.50058,0,0,1,.6719.7422c-.49419.4463-.9844.8994-1.4659,1.3525A.49819.49819,0,0,1,464.31859,444.5332Zm10.7842-.7344a.50614.50614,0,0,1-.2012-.042.50013.50013,0,0,1-.2569-.6592c.28031-.6357.5401-1.249.7715-1.8291a.50016.50016,0,0,1,.9297.3692c-.2353.5918-.501,1.2148-.7851,1.8623A.50043.50043,0,0,1,475.10279,443.7988Zm-24.6973-1.2939a.50008.50008,0,0,1-.3887-.8145,14.49494,14.49494,0,0,0,1.1123-1.581.50044.50044,0,1,1,.8555.5195,15.5729,15.5729,0,0,1-1.1904,1.6904A.49874.49874,0,0,1,450.40549,442.5049Zm10.626-.2032a.48909.48909,0,0,1-.2041-.0439.49894.49894,0,0,1-.252-.6602l.8213-1.831a.5.5,0,0,1,.9121.4101l-.8213,1.8291A.499.499,0,0,1,461.03149,442.3017Zm6.2636-.4511a.50005.50005,0,0,1-.3252-.8799c.5205-.4463,1.04111-.8779,1.5557-1.2901a.50026.50026,0,0,1,.625.7813c-.5068.4043-1.01759.8301-1.5303,1.2686A.49547.49547,0,0,1,467.29509,441.8506Zm-27.3154-.8282a.49986.49986,0,0,1-.38569-.8183,13.40451,13.40451,0,0,1,1.45309-1.4854.50022.50022,0,0,1,.6621.75,12.26036,12.26036,0,0,0-1.3438,1.3721A.49923.49923,0,0,1,439.97969,441.0224Zm36.5781-.9541a.49946.49946,0,0,1-.4785-.6455,6.72964,6.72964,0,0,0,.3506-1.8144.50074.50074,0,0,1,.5-.499h.001a.49965.49965,0,0,1,.499.5009,7.54409,7.54409,0,0,1-.3936,2.1036A.50048.50048,0,0,1,476.55779,440.0683Zm-6.1279-.7148a.5.5,0,0,1-.29389-.9043c.59179-.4307,1.16109-.8145,1.69139-1.1416a.50032.50032,0,0,1,.5254.8516c-.50879.3134-1.0577.6836-1.629,1.0986A.49848.49848,0,0,1,470.42989,439.3535Zm-17.9561-.2607a.48468.48468,0,0,1-.1972-.0411.49881.49881,0,0,1-.2617-.6562,12.37562,12.37562,0,0,0,.62111-1.8174.5.5,0,1,1,.96869.2481,13.2577,13.2577,0,0,1-.6719,1.9638A.49916.49916,0,0,1,452.47379,439.0928Zm-27.33-.3653a.4999.4999,0,0,1-.0596-.9961,6.84365,6.84365,0,0,0,1.7715-.5439.50046.50046,0,0,1,.3945.9199,7.84754,7.84754,0,0,1-2.0449.6162A.43791.43791,0,0,1,425.14379,438.7275Zm37.5371-.083a.5.5,0,0,1-.4551-.707l.834-1.8252a.49948.49948,0,0,1,.90821.416l-.832,1.8232A.49977.49977,0,0,1,462.68089,438.6445Zm-19.7276-.2842a.5.5,0,0,1-.2851-.9111,18.72885,18.72885,0,0,1,1.751-1.0781.49988.49988,0,1,1,.4765.8789,17.80857,17.80857,0,0,0-1.6572,1.0215A.50424.50424,0,0,1,442.95329,438.3603Zm-19.40429-.4638a.50078.50078,0,0,1-.47851-.3555,3.5754,3.5754,0,0,1-.1308-1.0234,7.96913,7.96913,0,0,1,.1025-1.1836.5.5,0,0,1,.9883.1523,7.0178,7.0178,0,0,0-.0908,1.0332,2.58471,2.58471,0,0,0,.0879.7324.50034.50034,0,0,1-.47859.6446Zm50.30769-.6055a.5.5,0,0,1-.1983-.959,5.43372,5.43372,0,0,1,2.1172-.5273.5.5,0,0,1,.0049,1,4.54454,4.54454,0,0,0-1.7256.4453A.49114.49114,0,0,1,473.85669,437.291Zm-45.0079-.0332a.49988.49988,0,0,1-.2412-.9375c.541-.2988,1.11041-.6357,1.7012-1.0068a.50018.50018,0,1,1,.5313.8476c-.6084.3809-1.1934.7276-1.75,1.0342A.48844.48844,0,0,1,428.84879,437.2578Zm17.6231-.7891a.50007.50007,0,0,1-.1797-.9668,11.03089,11.03089,0,0,1,2.0137-.5771.50589.50589,0,0,1,.57911.4053.49965.49965,0,0,1-.40531.5791,10.00831,10.00831,0,0,0-1.8281.5263A.50707.50707,0,0,1,446.47189,436.4687Zm3.91011-.7695a.49979.49979,0,0,1-.05761-.9961c.5909-.0703,1.252-.1611,1.9659-.2725a.50013.50013,0,0,1,.1542.9883c-.72749.1133-1.4003.2061-2.0029.2764A.41049.41049,0,0,1,450.382,435.6992Zm3.06449-.4658c-.0127,0-.0254,0-.0381-.001a.50132.50132,0,0,1-.4619-.5361c.0176-.2383.0273-.4756.0273-.7119a8.80279,8.80279,0,0,0-.0761-1.1817.501.501,0,0,1,.4306-.5615.50685.50685,0,0,1,.5616.4307,9.9686,9.9686,0,0,1,.0839,1.3134c0,.0909-.0009.1807-.0039.2715a.49477.49477,0,0,1,.2823-.1582c.6279-.1142,1.2822-.2412,1.9541-.3799a.49968.49968,0,1,1,.2031.9785c-.6797.1407-1.3418.2696-1.9775.3858a.50749.50749,0,0,1-.50489-.2139A.5005.5005,0,0,1,453.44649,435.2334Zm-21.1963-.0908a.5.5,0,0,1-.2803-.9141c.5332-.3613,1.0782-.7441,1.6319-1.1406a.49972.49972,0,0,1,.582.8125c-.5596.4023-1.1123.789-1.6533,1.1562A.50308.50308,0,0,1,432.25019,435.1426Zm32.1035-.1436a.495.495,0,0,1-.209-.0459.50017.50017,0,0,1-.2451-.6631q.41612-.90375.8457-1.8203a.50025.50025,0,0,1,.9063.4238q-.4278.9126-.8438,1.8145A.49908.49908,0,0,1,464.35369,434.999Zm-6.0888-.7197a.50013.50013,0,0,1-.1133-.9873c.6367-.1475,1.2832-.3047,1.9336-.4727a.50027.50027,0,0,1,.25.9688c-.65819.1699-1.3125.3291-1.9571.4785A.5018.5018,0,0,1,458.26489,434.2793Zm-34.2862-.3223a.49935.49935,0,0,1-.4814-.6357c.1719-.6094.3789-1.2588.6142-1.9385a.50036.50036,0,0,1,.9454.3281c-.2295.6602-.4307,1.2901-.5967,1.8819A.5013.5013,0,0,1,423.97869,433.957Zm38.1641-.6758a.49988.49988,0,0,1-.1377-.9804q.95655-.274,1.9043-.5752a.5.5,0,1,1,.3027.9531q-.9594.30465-1.9316.583A.48266.48266,0,0,1,462.14279,433.2812Zm-26.6367-.4775a.5001.5001,0,0,1-.3018-.8994q.7881-.59475,1.5811-1.2168a.50012.50012,0,0,1,.6172.7871c-.5323.418-1.0655.8281-1.5948,1.2285A.50446.50446,0,0,1,435.50609,432.8037Zm30.4502-.7432a3.14792,3.14792,0,0,1-.3584-1.4072l.8613-1.8125a.50011.50011,0,0,1,.9023.4316l-.7119,1.4981q.501-.1905.9873-.3897a.50017.50017,0,1,1,.3789.9258c-.6132.251-1.2451.4922-1.8906.7246A.51117.51117,0,0,1,465.95629,432.0605Zm-13.0391-.7617a.4995.4995,0,0,1-.4687-.3271,8.50113,8.50113,0,0,0-.8467-1.6836.49978.49978,0,0,1,.8379-.545,9.42431,9.42431,0,0,1,.94631,1.8829.49939.49939,0,0,1-.29591.6416A.4888.4888,0,0,1,452.91719,431.2988Zm16.7393-.7656a.4999.4999,0,0,1-.2168-.9502c.6211-.2988,1.205-.6065,1.73531-.916a.50062.50062,0,1,1,.50389.8652c-.5537.3213-1.1611.6416-1.8056.9512A.492.492,0,0,1,469.65649,430.5332Zm-30.9971-.2031a.5.5,0,0,1-.31539-.8877q.77623-.63135,1.53709-1.2735a.50042.50042,0,0,1,.6445.7657c-.5107.4296-1.0293.8584-1.5508,1.2832A.49921.49921,0,0,1,438.65939,430.3301Zm-13.3809-.1631a.5001.5001,0,0,1-.4658-.6817c.23831-.6103.4922-1.2353.7588-1.8691a.49986.49986,0,0,1,.9219.3867c-.2627.626-.5147,1.2432-.749,1.8457A.50044.50044,0,0,1,425.27849,430.167Zm47.8174-1.6709a.50011.50011,0,0,1-.3027-.8985,9.12981,9.12981,0,0,0,1.3935-1.2802.49987.49987,0,1,1,.7559.6543,10.21041,10.21041,0,0,1-1.544,1.4228A.50169.50169,0,0,1,473.09589,428.4961Zm-22.1894-.6416a.50036.50036,0,0,1-.42-.2276c-.3613-.5586-.7177-1.1328-1.0664-1.7148a.50061.50061,0,0,1,.8594-.5137c.3408.5723.6914,1.1367,1.0469,1.6836a.49983.49983,0,0,1-.4199.7725Zm16.872-.1045a.5.5,0,0,1-.4502-.7178q.4395-.90675.8789-1.8047a.50053.50053,0,0,1,.8985.4414q-.4395.89355-.877,1.7989A.49871.49871,0,0,1,467.77849,427.75Zm-26.0517,0a.5.5,0,0,1-.3282-.877q.7662-.66645,1.4932-1.3232a.49991.49991,0,1,1,.6699.7422c-.4882.4404-.9922.8867-1.5068,1.3349A.4959.4959,0,0,1,441.72679,427.75Zm-14.8975-1.2783a.50646.50646,0,0,1-.2012-.042.50087.50087,0,0,1-.2568-.6592q.40575-.91845.8311-1.8359a.50029.50029,0,1,1,.9082.4199c-.2803.6045-.5567,1.2119-.8233,1.8183A.50147.50147,0,0,1,426.82929,426.4717Zm48.9043-.9493a.5.5,0,0,1-.418-.7744c.3438-.5244.6905-1.0888,1.0342-1.6816a.50016.50016,0,1,1,.8653.5019c-.3536.6084-.71,1.1885-1.0635,1.7286A.4988.4988,0,0,1,475.73359,425.5224Zm-31.0332-.4599a.5.5,0,0,1-.3428-.8643c.5049-.4746.98541-.9365,1.4356-1.3818a.49993.49993,0,0,1,.7031.7109c-.456.4512-.9424.919-1.4531,1.3994A.49843.49843,0,0,1,444.70039,425.0625Zm4.1533-.6436a.49831.49831,0,0,1-.4375-.2578c-.331-.5996-.6474-1.1982-.9433-1.7881a.52714.52714,0,0,1-.04689-.1494.49981.49981,0,0,1-.24411-.8281c.5107-.543.95011-1.0391,1.3066-1.4746a.50025.50025,0,1,1,.7734.6347c-.29589.3604-.6455.7608-1.042,1.1924a.50929.50929,0,0,1,.1475.1758c.29.5781.59861,1.1651.9238,1.7529a.5.5,0,0,1-.4375.7422Zm20.6924-.2666a.49994.49994,0,0,1-.4473-.7236q.4542-.90825.9043-1.794a.49968.49968,0,0,1,.8907.4532q-.44835.88185-.9004,1.7881A.50022.50022,0,0,1,469.54609,424.1523ZM428.51,422.831a.49987.49987,0,0,1-.45121-.7158c.294-.6142.5879-1.2187.8789-1.8086a.50008.50008,0,0,1,.8965.4434c-.2891.5859-.5811,1.1865-.8731,1.7969A.49927.49927,0,0,1,428.51,422.831Zm49.23529-.7685a.48673.48673,0,0,1-.2304-.0567.49857.49857,0,0,1-.21289-.6738c.30169-.5801.59469-1.1748.87789-1.7764a.49977.49977,0,0,1,.9043.4258c-.2871.6133-.5879,1.2198-.8955,1.8116A.49892.49892,0,0,1,477.74529,422.0625Zm-30.6797-1.2236a.50147.50147,0,0,1-.458-.2989c-.2959-.6709-.5507-1.3076-.7578-1.8916a.50039.50039,0,0,1,.9434-.334c.1982.5606.4443,1.1739.7304,1.8233a.50048.50048,0,0,1-.2568.6592A.50607.50607,0,0,1,447.06559,420.8389Zm24.3008-.2608a.50021.50021,0,0,1-.4433-.7305q.4731-.9096.9375-1.7783a.50022.50022,0,0,1,.8828.4707q-.4629.8643-.9336,1.7686A.49874.49874,0,0,1,471.36639,420.5781Zm-41.0849-1.3437a.486.486,0,0,1-.2246-.0538.49915.49915,0,0,1-.2217-.6709c.3154-.6269.6211-1.2265.9131-1.79a.50007.50007,0,1,1,.8886.459c-.29.5615-.5957,1.1572-.9091,1.7803A.499.499,0,0,1,430.28149,419.2344Zm19.6972-.1612a.4908.4908,0,0,1-.1982-.041.49961.49961,0,0,1-.2608-.6572,4.01452,4.01452,0,0,0,.3672-1.5694l-.00389-.1474a.49864.49864,0,0,1,.47369-.5244.45962.45962,0,0,1,.5244.4736c.00391.0645.0058.1309.0058.1982a4.99523,4.99523,0,0,1-.4492,1.9659A.50092.50092,0,0,1,449.97869,419.0732Zm29.4629-.6347a.51565.51565,0,0,1-.1924-.0381.50141.50141,0,0,1-.2695-.6543c.2578-.6192.4971-1.2364.7148-1.8428a.50015.50015,0,0,1,.94151.3379c-.22371.6221-.46881,1.2549-.73251,1.8896A.50177.50177,0,0,1,479.44159,418.4385Zm-33.666-1.3799a.4992.4992,0,0,1-.4902-.4072,5.72757,5.72757,0,0,1-.11139-1.0557,2.10679,2.10679,0,0,1,.34769-1.2822.5002.5002,0,0,1,.8008.5996,1.21552,1.21552,0,0,0-.14849.6826,4.75976,4.75976,0,0,0,.09379.8701.49913.49913,0,0,1-.3984.584A.51342.51342,0,0,1,445.77559,417.0586ZM473.26,417.041a.49422.49422,0,0,1-.24221-.0625.50027.50027,0,0,1-.1953-.6797q.50235-.9111.9902-1.7539a.49964.49964,0,0,1,.8652.5c-.3203.5547-.6474,1.1367-.9804,1.7383A.4985.4985,0,0,1,473.26,417.041Zm-51.35651-.7109h-.0049c-.663-.0069-1.34859-.0401-2.0361-.0996a.49966.49966,0,0,1-.4551-.5411.5085.5085,0,0,1,.5411-.455c.663.0566,1.3222.0898,1.9599.0957a.5.5,0,0,1-.0049,1Zm1.9971-.0606a.50015.50015,0,0,1-.0352-.999c.6641-.0479,1.3174-.126,1.9405-.2295a.49992.49992,0,1,1,.164.9863c-.6533.1094-1.33689.1905-2.0322.2412C423.926,416.2695,423.91329,416.2695,423.90059,416.2695Zm-5.9805-.2764a.52714.52714,0,0,1-.07809-.0058c-.71391-.1113-1.38381-.2412-1.99711-.377a.50014.50014,0,0,1,.2168-.9765c.5938.1318,1.2422.2578,1.9346.3652a.5.5,0,0,1-.0762.9941Zm14.2002-.3212a.5.5,0,0,1-.4424-.7334c.2286-.4327.4385-.8282.627-1.1797q-.25933.15525-.5225.2988a.5.5,0,1,1-.48039-.877,15.90046,15.90046,0,0,0,1.63859-1.0332.49953.49953,0,1,1,.584.8106l-.1142.082a.49956.49956,0,0,1,.0947.5987c-.2568.4746-.5762,1.0732-.9424,1.7666A.50039.50039,0,0,1,432.12029,415.6719Zm-4.2812-.0645a.5.5,0,0,1-.1319-.9824,16.8817,16.8817,0,0,0,1.8399-.6172.49994.49994,0,1,1,.373.9277,17.964,17.964,0,0,1-1.9492.6543A.516.516,0,0,1,427.83909,415.6074Zm21.7383-.25a.49878.49878,0,0,1-.3428-.1357,2.56212,2.56212,0,0,0-1.5029-.6543.50039.50039,0,0,1-.4522-.544.51053.51053,0,0,1,.544-.4521,3.53967,3.53967,0,0,1,2.0966.9218.5.5,0,0,1-.3427.8643Zm-35.5635-.2305a.49627.49627,0,0,1-.1397-.0195c-1.205-.3506-1.9189-.6387-1.94819-.6514a.49974.49974,0,1,1,.37689-.9257c.0069.0029.7002.2822,1.8506.6162a.50009.50009,0,0,1-.1396.9804Zm66.7627-.4599a.49967.49967,0,0,1-.4815-.6358,17.94164,17.94164,0,0,0,.4375-1.8974.50014.50014,0,0,1,.98641.166,19.15381,19.15381,0,0,1-.461,2.0029A.50019.50019,0,0,1,480.77659,414.667Zm-5.5078-1.0977a.49962.49962,0,0,1-.42679-.7617c.37789-.6162.74319-1.1885,1.09279-1.709a.49975.49975,0,0,1,.8301.5567c-.3418.5107-.6993,1.0712-1.0694,1.6757A.50109.50109,0,0,1,475.26879,413.5693Zm6.1084-2.8428a.49961.49961,0,0,1-.4991-.4736,2.12755,2.12755,0,0,0-.5117-1.4863.49984.49984,0,1,1,.6719-.7402,3.04412,3.04412,0,0,1,.8379,2.1738.50008.50008,0,0,1-.4727.5254Zm-3.8506-.4765a.5.5,0,0,1-.39159-.8106,8.114,8.114,0,0,1,1.48629-1.5273.49987.49987,0,0,1,.5879.8086,7.355,7.355,0,0,0-1.291,1.3398A.49666.49666,0,0,1,477.52659,410.25Z" transform="translate(-241.81238 -287.88171)"/>
    <path class="cls-3" d="M440.28419,403.674a1.8129,1.8129,0,1,1-1.8129-1.8129A1.8128,1.8128,0,0,1,440.28419,403.674Z" transform="translate(-241.81238 -287.88171)"/>
    <g>
      <path class="cls-2" d="M367.62619,403.5443s7.1725,14.6868,3.0739,31.5938c0,0,22.201,4.2694,21.3471,11.1004-.8539,6.8311-10.2466-4.4402-18.95619-2.9032s-13.14981-2.5616-13.32061-5.4648c0,0-17.24839,4.7817-22.7133-11.9543C331.59219,409.18,367.62619,403.5443,367.62619,403.5443Z" transform="translate(-241.81238 -287.88171)"/>
      <path class="cls-4" d="M367.63149,403.5117s7.1727,14.6868,3.074,31.5937c0,0,22.2011,4.2695,21.3472,11.1005-.8539,6.8311-10.24669-4.4402-18.9563-2.9032s-13.1498-2.5617-13.3206-5.4648c0,0-17.2484,4.7817-22.7132-11.9544C331.59769,409.1474,367.63149,403.5117,367.63149,403.5117Z" transform="translate(-241.81238 -287.88171)"/>
      <path class="cls-5" d="M386.20409,446.8779a4.60265,4.60265,0,0,0,.0572-1.1796c-.0146-.3839-.0096-.7552-.0434-1.1187-.01789-.3647-.0674-.7158-.1177-1.0825-.0683-.3632-.1655-.722-.2898-1.1685a2.02644,2.02644,0,0,1,1.0167.8844,3.11177,3.11177,0,0,1,.3883,1.3031,3.3955,3.3955,0,0,1-.1889,1.319,2.68048,2.68048,0,0,1-.2956.6015C386.59229,446.6034,386.46629,446.848,386.20409,446.8779Z" transform="translate(-241.81238 -287.88171)"/>
    </g>
    <g>
      <g>
        <path class="cls-2" d="M267.59589,361.2341a23.82,23.82,0,0,1-2.5532,7.8917c-.1832.3542-.3909.7085-.6109,1.0627-.1832.2931-.3664.5742-.56179.8674-.19551.2931-.40321.5741-.61081.8551-.0733.1099-.1589.2076-.2321.3175-.1465.1956-.3054.3909-.4642.5743-.26889.3176-.5498.6229-.8308.9406-.171.1832-.342.3665-.513.5375-.2688.2931-.5497.5741-.8429.8674-.9284.9284-1.9058,1.8446-2.8463,2.7852-.1588.1467-.3176.3176-.4765.4764l-.061.0612c-.281.2931-.5742.5863-.8552.8917q-.32985.36645-.6597.7329c-.2077.2444-.4154.501-.6229.7452a9.99317,9.99317,0,0,0-.6353.8307c-.1832.2443-.342.4887-.513.7452a10.56508,10.56508,0,0,0-.7698,1.3437,9.83194,9.83194,0,0,0-.9406,6.6333,2.24248,2.24248,0,0,0,.0733.3055c.7697,3.3106,3.1396,5.6316,5.937,7.3541.72081.4397,1.4782.8429,2.2356,1.2094a15.62321,15.62321,0,0,1,2.3088.9651c0,.0121,1.5881,10.1759,1.7347,11.141a.34287.34287,0,0,1,.0122.0734c-10.7257-1.8814-21.3171-7.9283-22.3921-19.7535a26.38343,26.38343,0,0,1,3.0907-14.5005,13.81922,13.81922,0,0,1,.9407-1.527c.3176-.4643.6596-.9162,1.0139-1.356.2688-.3298.5375-.6353.8185-.9528.26881-.3054.5619-.623.855-.9163.5743-.6107,1.185-1.1971,1.79581-1.7834h.02449c.6719-.6842,1.33151-1.3072,1.9913-1.9668.1587-.1588.3053-.3055.4397-.4643.2809-.2809.5498-.5619.8063-.8552a.73117.73117,0,0,0,.0977-.0977c.3176-.3542.6353-.7206.9284-1.0993.0244-.0245.0366-.049.06111-.0734a14.65819,14.65819,0,0,0,.95279-1.3315,15.342,15.342,0,0,0,.843-1.4416,14.00023,14.00023,0,0,0,.623-1.3804,16.42863,16.42863,0,0,0,.9406-9.8583,24.57778,24.57778,0,0,0-2.602-6.2302c-1.6002-2.9807-3.29839-5.9249-3.4205-9.4309a6.46623,6.46623,0,0,1,1.4903-4.5933.41918.41918,0,0,1,.0734-.0732,2.10785,2.10785,0,0,1,.3298-.3298c2.4432-2.1135,4.6177-1.1484,6.42561,1.0138.01229.0123.01229.0123,0,.0123,2.66309,3.164,4.52,8.8811,5.24069,11.1166a48.573,48.573,0,0,1,1.5515,6.0714v.0122A34.23979,34.23979,0,0,1,267.59589,361.2341Z" transform="translate(-241.81238 -287.88171)"/>
        <path class="cls-4" d="M267.657,361.2708a23.3771,23.3771,0,0,1-2.61431,7.855c-.1832.3542-.3909.7085-.6109,1.0627-.1832.2931-.3664.5742-.56179.8674a8.10182,8.10182,0,0,1-.53751.7818,4.772,4.772,0,0,1-.3054.3908c-.1465.1956-.3054.3909-.4642.5743-.26889.3176-.5498.6229-.8308.9406-.171.1832-.342.3665-.513.5375-.2688.2931-.5497.5741-.8429.8674-.9284.9284-1.9058,1.8446-2.8463,2.7852q-.2382.23835-.4765.4764l-.061.0612c-.281.2931-.5742.5863-.8552.8917q-.32985.36645-.6597.7329c-.2077.2444-.4154.501-.6229.7452-.2199.2688-.4277.5498-.6353.8307-.1832.2443-.342.4887-.513.7452-.281.4398-.5376.8918-.7698,1.3437a10.02749,10.02749,0,0,0-.87949,6.5723,1.73246,1.73246,0,0,0,.07339.2689c.7451,3.3348,3.1394,5.6681,5.9492,7.3784a23.0522,23.0522,0,0,0,2.2233,1.2093,15.08814,15.08814,0,0,1,2.3088.9773l1.7469,11.2145c-.0244,0-.0489-.0123-.0733-.0123-10.70129-1.8934-21.2316-7.9404-22.3065-19.7534a26.35569,26.35569,0,0,1,3.0784-14.4883,16.05764,16.05764,0,0,1,.8796-1.4659c.3176-.4643.6596-.9162,1.0139-1.356.2688-.3298.5375-.6353.8185-.9528.26881-.3054.5619-.623.855-.9163.5743-.6107,1.185-1.1971,1.79581-1.7834h.02449c.6719-.6597,1.3437-1.3072,1.9913-1.9668.1587-.1588.3053-.3055.4397-.4643.2932-.2809.5498-.5619.8063-.8552a.73117.73117,0,0,0,.0977-.0977c.3176-.3542.6353-.7206.9284-1.0993.0244-.0245.0366-.049.06111-.0734a14.65819,14.65819,0,0,0,.95279-1.3315,11.66371,11.66371,0,0,0,.9041-1.5027c.2076-.4152.4152-.8428.5864-1.2826a16.60234,16.60234,0,0,0,.9894-9.9684,24.79776,24.79776,0,0,0-2.6142-6.2179c-1.6003-2.993-3.2984-5.9249-3.4206-9.4431a6.62346,6.62346,0,0,1,1.4293-4.52.41918.41918,0,0,1,.0734-.0732,2.10785,2.10785,0,0,1,.3298-.3298c.0122-.0367.0367-.0489.0611-.0733,2.4432-2.1134,4.6177-1.1483,6.4256.9895,2.6631,3.164,4.52,8.9177,5.2407,11.1655a47.84537,47.84537,0,0,1,1.5515,6.0592A34.332,34.332,0,0,1,267.657,361.2708Z" transform="translate(-241.81238 -287.88171)"/>
      </g>
      <path class="cls-5" d="M260.48609,332.3431a.26465.26465,0,0,1-.06109.0976c.01229.0123.01229.0123,0,.0123-.89171,1.5392-3.59151,1.1483-3.59151,1.1483,3.8481,4.8742.92851,9.6752-1.246,12.1917-.0244.0244-.0367.0489-.0611.0611-1.6002-2.9807-3.29839-5.9249-3.4205-9.4309a6.46623,6.46623,0,0,1,1.4903-4.5933.41918.41918,0,0,1,.0734-.0732,2.10785,2.10785,0,0,1,.3298-.3298c.0122-.0367.0367-.0489.0611-.0733C256.50369,329.2402,258.67819,330.2053,260.48609,332.3431Z" transform="translate(-241.81238 -287.88171)"/>
      <path class="cls-5" d="M267.657,361.2708a.1038.1038,0,0,1-.06111-.0367c-1.637-1.1116-3.1274-2.7364-3.1274-4.9842a10.05859,10.05859,0,0,1,2.7487-6.5967v-.0122a.32873.32873,0,0,0,.0611-.0732A34.332,34.332,0,0,1,267.657,361.2708Z" transform="translate(-241.81238 -287.88171)"/>
      <path class="cls-5" d="M257.51759,368.7836c-1.7958,2.1867-5.1552,2.1256-7.0731,1.8692h-.0122c.6719-.672,1.34371-1.3072,2.0035-1.9668.1587-.1588.3053-.3055.4397-.4643.2932-.2809.5498-.5619.8063-.8552a.73117.73117,0,0,0,.0977-.0977c.3176-.3542.6353-.7206.9284-1.0993.0244-.0245.0366-.049.06111-.0734a17.12486,17.12486,0,0,0,1.79579-2.7731,14.00023,14.00023,0,0,0,.623-1.3804c.0121.0122.0121.0245.0245.0367C258.17719,363.8972,259.14239,366.8046,257.51759,368.7836Z" transform="translate(-241.81238 -287.88171)"/>
      <path class="cls-5" d="M258.07959,397.9801l-.0734.0733c-1.3925,1.3559-4.4344,3.6892-6.9753,1.2338-2.1012-2.0279-.50089-5.9004,1.0383-8.5879a.26521.26521,0,0,1,.0612-.0976C252.87549,393.9365,255.26979,396.2698,258.07959,397.9801Z" transform="translate(-241.81238 -287.88171)"/>
    </g>
    <path class="cls-6" d="M368.794,402.4879c-1.94241,31.9939-33.86311,36.2573-33.86311,36.2573l-.3054,1.5514-.1587-.0122c1.2948-13.1812-2.6143-34.0096-15.9543-40.5696,4.4223-8.1237,15.3801-24.0413,35.75651-29.6973.46419-.1345.91629-.2443,1.356-.342C363.56549,379.7781,369.478,391.2246,368.794,402.4879Z" transform="translate(-241.81238 -287.88171)"/>
    <g>
      <path class="cls-3" d="M410.02329,423.0597c-4.2391,1.9668-15.2335-4.6299-20.53529-4.9963h-.01221a4.99971,4.99971,0,0,0-1.2339.061,6.03564,6.03564,0,0,1-4.4833-1.185.01188.01188,0,0,1-.0122-.0121c-.3665-.2566-.7207-.5376-1.0507-.8185a17.21141,17.21141,0,0,1-1.759-1.7958q-.2748-.32985-.5131-.6231c-.0244-.0366-.0489-.0611-.0732-.0976a9.91619,9.91619,0,0,1-.8063-1.1118.48588.48588,0,0,0-.06109-.0854l.04889-.0611,17.4567-21.1583.0856.0855a.54678.54678,0,0,1,.09781.0977l.30529.3055c.0611.0489.1221.1221.1954.1954.3421.3421.8064.843,1.3316,1.4416.2199.232.4398.4763.6475.7329.171.1955.342.4031.52521.6108.09779.1099.18329.2199.28109.342.2686.3299.5497.672.8183,1.0262,1.72261,2.2477,3.274,4.8132,3.0541,6.5478a1.38938,1.38938,0,0,1-.0733.4032C403.32879,405.9083,414.61639,420.9341,410.02329,423.0597Z" transform="translate(-241.81238 -287.88171)"/>
      <path class="cls-7" d="M410.09649,423.1331c-4.3001,2.0033-15.57549-4.8376-20.77949-5.0087a4.33646,4.33646,0,0,0-1.00171.0733,5.97538,5.97538,0,0,1-4.5567-1.2583.01188.01188,0,0,1-.0122-.0121c-.3665-.2566-.7207-.5376-1.0507-.8185a17.21141,17.21141,0,0,1-1.759-1.7958q-.2748-.32985-.5131-.6231c-.0244-.0366-.0489-.0611-.0732-.0976-.5009-.6597-.794-1.124-.794-1.124l17.5178-21.2071a.54678.54678,0,0,1,.09781.0977l.30529.3055c.0611.0489.1221.1221.1954.1954.3421.3421.8064.843,1.3316,1.4416.2199.232.4398.4763.6475.7329.171.1955.342.4031.52521.6108.09779.1099.18329.2199.28109.342.28091.3299.5497.672.8183,1.0262,1.61261,2.0768,3.07861,4.4222,3.13961,6.1691a2.173,2.173,0,0,1-.08551.8552C403.41439,405.9939,414.702,421.0074,410.09649,423.1331Z" transform="translate(-241.81238 -287.88171)"/>
    </g>
    <path class="cls-8" d="M404.416,402.1824a1.89521,1.89521,0,0,1-.08551.3787c-2.15,8.478-10.3592,13.3889-14.84249,15.5023h-.01221a.85868.85868,0,0,1-.15879.061,4.33646,4.33646,0,0,0-1.00171.0733,5.97538,5.97538,0,0,1-4.5567-1.2583.01188.01188,0,0,1-.0122-.0121c-.3665-.2566-.7207-.5376-1.0507-.8185a17.21141,17.21141,0,0,1-1.759-1.7958q-.2748-.32985-.5131-.6231c-.0244-.0366-.0489-.0611-.0732-.0976a9.91619,9.91619,0,0,1-.8063-1.1118l-.0122-.1465,17.4567-21.1583.0856.0855a.54678.54678,0,0,1,.09781.0977l.30529.3055c.0611.0489.1221.1221.1954.1954.3421.3421.8064.843,1.3316,1.4416.2199.232.4398.4763.6475.7329.171.1955.342.4031.52521.6108.09779.1099.18329.2199.28109.342.28091.3299.5497.672.8183,1.0262C402.889,398.0901,404.355,400.4355,404.416,402.1824Z" transform="translate(-241.81238 -287.88171)"/>
    <path class="cls-2" d="M403.12669,332.0667a45.74052,45.74052,0,0,0,2.7106,6.0195,18.31732,18.31732,0,0,0,1.70571,2.5759c.97479,1.1953,2.02029,1.9567,3.03169,1.7254a5.08949,5.08949,0,0,0,1.419-.6103c.0534-.0285.1106-.0615.1597-.0937a17.80022,17.80022,0,0,0,6.29-7.592,3.22089,3.22089,0,0,0,.2187-1.7742,1.1658,1.1658,0,0,0-.233-.4757c-1.7947-2.1721-4.5742-2.4561-7.086-1.7714-1.7269.4689-3.414,1.3982-5.1876,1.6952-.1343.0195-1.2923.2235-2.1402.3125l-.1984.0172C403.44819,332.1309,403.17179,332.1268,403.12669,332.0667Z" transform="translate(-241.81238 -287.88171)"/>
    <path class="cls-2" d="M360.85409,314.9074c.2425.123,16.2252,8.0598,19.5016,3.8148a9.29365,9.29365,0,0,0,.8318-1.2953c2.32651-4.3151,1.5701-10.3915-.0214-11.5536l-.0043-.0036c-1.7579-1.2797-5.3781,1.8515-8.71679,3.843C369.15609,311.6799,361.10129,314.8061,360.85409,314.9074Z" transform="translate(-241.81238 -287.88171)"/>
    <path class="cls-5" d="M371.24079,315.1265a20.18709,20.18709,0,0,1,6.6525,1.0093,25.40067,25.40067,0,0,1,3.2942,1.2911c2.32651-4.3151,1.5702-10.3916-.0214-11.5536l-.0043-.0036a8.76339,8.76339,0,0,0-3.238,4.2258,8.0097,8.0097,0,0,1-.382.7608A8.57537,8.57537,0,0,1,371.24079,315.1265Z" transform="translate(-241.81238 -287.88171)"/>
    <path class="cls-5" d="M407.44729,335.5683s1.9279,2.4166,3.4622,4.4433c.4733.6189.912,1.2087,1.2439,1.6719a17.80022,17.80022,0,0,0,6.29-7.592,3.22089,3.22089,0,0,0,.2187-1.7742s-1.0858-.2581-3.1907,1.159c-.7669.5181-1.4826,1.0276-2.1972,1.4573A6.04542,6.04542,0,0,1,407.44729,335.5683Z" transform="translate(-241.81238 -287.88171)"/>
    <path class="cls-7" d="M370.24949,351.5961a4.04986,4.04986,0,0,1-3.589,4.7799c-3.2784.1814-6.94449-2.8281-7.22649-6.1603-.23811-2.8134,3.09289-5.3083,5.20179-4.6976a7.861,7.861,0,0,1,4.1934,3.1955A8.34109,8.34109,0,0,1,370.24949,351.5961Z" transform="translate(-241.81238 -287.88171)"/>
    <path class="cls-7" d="M395.06769,363.6554a4.97083,4.97083,0,0,0-3.08069,5.5969,5.65979,5.65979,0,0,0,7.54219,3.6392c2.5215-1.1419,3.6905-5.398,2.5231-7.0338a5.80431,5.80431,0,0,0-4.0465-2.2951A6.76855,6.76855,0,0,0,395.06769,363.6554Z" transform="translate(-241.81238 -287.88171)"/>
    <path class="cls-5" d="M391.23379,322.8292c.69,2.9433.3013,6.4074.06621,9.0588-.12641,1.4543-.32921,2.9032-.581,4.3403a3.5447,3.5447,0,0,0,.79049,3.1825,3.6675,3.6675,0,0,0,3.9543.4624,7.18142,7.18142,0,0,0,3.4385-3.6154,14.39442,14.39442,0,0,0,1.435-7.0451c-.094-.0718-.1925-.1474-.291-.2228Q395.47474,325.49805,391.23379,322.8292Z" transform="translate(-241.81238 -287.88171)"/>
    <path class="cls-5" d="M406.98509,364.8685a7.42881,7.42881,0,0,0,4.3565,1.8311c.0726-.1302.1453-.2604.2175-.3986.0691-.126.1418-.2562.2103-.39a37.33571,37.33571,0,0,0,1.6699-3.6748C409.42079,362.699,404.88989,362.7821,406.98509,364.8685Z" transform="translate(-241.81238 -287.88171)"/>
    <path class="cls-5" d="M405.11049,368.4887a7.35344,7.35344,0,0,0,2.9756,2.8341q.3435-.3954.6853-.8149c.4947-.6144.9781-1.2679,1.44161-1.9676.01739-.0295.03559-.051.05289-.0805C407.30179,367.3801,404.26089,366.567,405.11049,368.4887Z" transform="translate(-241.81238 -287.88171)"/>
    <path class="cls-5" d="M411.36419,359.3646a5.83772,5.83772,0,0,0,2.8897.4503c.0198-.0497.0352-.103.0505-.1562a25.5109,25.5109,0,0,0,.7198-3.4288C412.16679,357.2202,409.56889,358.4359,411.36419,359.3646Z" transform="translate(-241.81238 -287.88171)"/>
    <path class="cls-5" d="M384.68979,319.0918c.1223.8611.2615,1.8246.3469,2.537.2668,2.2561.20831,5.1,1.02,5.9815,1.6947,1.845,3.8737.4534,3.9664-2.4574a8.39151,8.39151,0,0,0-.7355-3.5191l-.0044-.0036Q386.931,320.2259,384.68979,319.0918Z" transform="translate(-241.81238 -287.88171)"/>
    <path class="cls-5" d="M401.32859,329.9948c.106,2.062-.3407,5.0875.4693,6.181,1.2217,1.6459,3.3283,1.2682,3.2624-.0976a12.612,12.612,0,0,0-.6931-3.4908Q402.95449,331.3,401.32859,329.9948Z" transform="translate(-241.81238 -287.88171)"/>
    <path class="cls-9" d="M354.26719,355.1095c-.4273-.6495-.8596-1.2939-1.2678-1.953-.4115-.656-.822-1.3138-1.1758-1.9953l-.1952-.3756-.09539.4228a3.03805,3.03805,0,0,1-.20851.6226c-.0866.19-.2272.3712-.3373.3906a.23476.23476,0,0,1-.1763-.0485.37888.37888,0,0,1-.10789-.1975,2.28923,2.28923,0,0,1-.05561-.6341,8.32468,8.32468,0,0,1,.171-1.3486,9.25945,9.25945,0,0,1,.3503-1.3082l.2491-.6792-.57779.4297a4.8895,4.8895,0,0,1-.90111.5407c-.3078.1362-.6691.2262-.8204.0514a1.1387,1.1387,0,0,1-.1604-.8861,5.5693,5.5693,0,0,1,.2372-1.0313l.0401-.1231-.09739-.0716a11.057,11.057,0,0,1-1.82951-1.715,9.50211,9.50211,0,0,1-.7743-.999,9.89048,9.89048,0,0,1-.6383-1.0983,7.467,7.467,0,0,0,.54011,1.1589,9.67669,9.67669,0,0,0,.70659,1.0731,11.24524,11.24524,0,0,0,1.7979,1.85l-.0573-.1947a4.60727,4.60727,0,0,0-.2949,1.1066,2.42552,2.42552,0,0,0-.011.5975,1.0294,1.0294,0,0,0,.2669.6117.72357.72357,0,0,0,.3234.1887.97837.97837,0,0,0,.3458.0219,2.14489,2.14489,0,0,0,.5872-.1643,5.26511,5.26511,0,0,0,.9983-.5758l-.3286-.2495a8.8112,8.8112,0,0,0-.3554,1.3885,8.70217,8.70217,0,0,0-.15689,1.4191,2.63619,2.63619,0,0,0,.08209.7492.73157.73157,0,0,0,.2475.3885.59636.59636,0,0,0,.4818.1079.944.944,0,0,0,.5697-.6083,3.34883,3.34883,0,0,0,.2011-.7082l-.2907.0471c.39751.6777.8314,1.3246,1.2881,1.9553C353.30089,353.8916,353.76779,354.5131,354.26719,355.1095Z" transform="translate(-241.81238 -287.88171)"/>
    <path class="cls-9" d="M400.04449,377.553c-.7587.3243-1.5172.6452-2.2879.9286-.3832.146-.7698.2816-1.1592.3993a4.5324,4.5324,0,0,1-1.1611.2225l-.0922.0016-.0562.0824a5.30379,5.30379,0,0,1-.6618.8134c-.2338.2348-.5612.4448-.7429.3618-.0875-.0372-.12-.0804-.1135-.228a1.53331,1.53331,0,0,1,.1352-.4518,5.32644,5.32644,0,0,1,.5368-.8936l.5148-.7189-.784.3997a9.304,9.304,0,0,1-1.0579.4599,4.22847,4.22847,0,0,1-1.0885.2639.83192.83192,0,0,1-.4674-.0699c-.1264-.0746-.2061-.173-.1782-.2849a1.58428,1.58428,0,0,1,.68251-.7559l.38279-.2582-.4502-.0228a18.10925,18.10925,0,0,1-1.9534-.2237,9.91141,9.91141,0,0,1-1.9094-.4972,8.46418,8.46418,0,0,0,1.8709.681,14.95778,14.95778,0,0,0,1.97131.342l-.06741-.281a3.0767,3.0767,0,0,0-.5061.3711,1.19017,1.19017,0,0,0-.37849.5752.56681.56681,0,0,0,.067.4118.52556.52556,0,0,0,.12379.1553.53349.53349,0,0,0,.152.1149,1.1949,1.1949,0,0,0,.6785.1379,4.15412,4.15412,0,0,0,1.2099-.2663,9.72342,9.72342,0,0,0,1.1159-.4734l-.26909-.3192a5.17427,5.17427,0,0,0-.58341.9822,1.90222,1.90222,0,0,0-.1652.5949c.0009.0603.0002.1195.0068.181a.83579.83579,0,0,0,.0641.1943.57867.57867,0,0,0,.318.2681.8271.8271,0,0,0,.692-.0989,2.34367,2.34367,0,0,0,.46571-.3769,5.112,5.112,0,0,0,.68919-.9033l-.14819.0839a4.78183,4.78183,0,0,0,1.24669-.301c.3925-.1418.7764-.2993,1.155-.4668C398.59269,378.3394,399.33119,377.9691,400.04449,377.553Z" transform="translate(-241.81238 -287.88171)"/>
    <g>
      <g>
        <path class="cls-10" d="M365.466,343.3292a11.101,11.101,0,0,0,7.06789,6.5191,6.21949,6.21949,0,0,0,1.9907.18,11.0878,11.0878,0,0,0,7.602-4.5745c.0436-.0518.0827-.1071.1221-.1626a8.21184,8.21184,0,0,0,.5699-8.2218c-1.4943-3.0898-4.8208-6.1454-8.46059-5.8351a9.3856,9.3856,0,0,0-4.218,1.5315l-.00431-.0037C366.60449,335.0262,364.02749,339.4029,365.466,343.3292Z" transform="translate(-241.81238 -287.88171)"/>
        <path class="cls-5" d="M365.08869,340.2663a8.99289,8.99289,0,0,1,.86731-2.9795,11.97418,11.97418,0,0,1,1.73449-2.5936,12.19755,12.19755,0,0,1,2.3526-2.0754l.1016-.0686.1014.0817.0043.0034-.2036-.0128a10.37339,10.37339,0,0,1,2.7733-1.3441,6.98538,6.98538,0,0,1,3.1116-.2773,9.26072,9.26072,0,0,1,5.36,3.0801,12.37414,12.37414,0,0,1,1.7867,2.5684,8.56937,8.56937,0,0,1,.9353,3.0211,8.317,8.317,0,0,1-1.6109,6.0164l.0171-.022a12.17376,12.17376,0,0,1-4.12,3.4414,10.42756,10.42756,0,0,1-2.5268.9109,6.69844,6.69844,0,0,1-2.6784.0775,8.27379,8.27379,0,0,1-2.4903-.9319,11.7388,11.7388,0,0,1-5.13839-5.8328A6.77343,6.77343,0,0,1,365.08869,340.2663Zm3.4161,7.3008a9.28562,9.28562,0,0,0,4.6298,2.2737,6.37948,6.37948,0,0,0,2.55341-.1872,9.99942,9.99942,0,0,0,2.38009-.9787,11.57684,11.57684,0,0,0,3.7652-3.4314l.0171-.0222c.1222-.1577.2513-.3918.3765-.5865.1084-.2149.2339-.4208.3237-.6444a7.40419,7.40419,0,0,0,.4655-1.3611,8.88993,8.88993,0,0,0,.20991-1.4219,8.57245,8.57245,0,0,0-.05041-1.4362,9.82768,9.82768,0,0,0-2.4947-5.1447,10.171,10.171,0,0,0-2.1902-1.917,7.54964,7.54964,0,0,0-2.6579-1.1048,6.44141,6.44141,0,0,0-2.8835.1329,9.96463,9.96463,0,0,0-2.7161,1.1725l-.1116.0682-.0921-.0811-.0043-.0037.2032.0131a11.935,11.935,0,0,0-2.3869,1.9253,10.62581,10.62581,0,0,0-1.8013,2.4971,8.39075,8.39075,0,0,0-.9235,2.9401,6.75639,6.75639,0,0,0,.34931,3.0601A10.80246,10.80246,0,0,0,368.50479,347.5671Z" transform="translate(-241.81238 -287.88171)"/>
      </g>
      <path class="cls-5" d="M370.77129,346.3236a6.71,6.71,0,0,1-3.2364-5.9833,6.82729,6.82729,0,0,1,12.8378-2.7557c2.5311,4.8718-2.7556,10.5347-7.82,9.4675A5.59409,5.59409,0,0,1,370.77129,346.3236Z" transform="translate(-241.81238 -287.88171)"/>
      <path class="cls-11" d="M370.14,332.7658c10.96809,2.8799,11.91149,11.5869,11.98659,12.688.0436-.0518.0827-.1071.1221-.1626a8.21184,8.21184,0,0,0,.5699-8.2218c-1.4943-3.0898-4.8208-6.1454-8.46059-5.8351A9.3856,9.3856,0,0,0,370.14,332.7658Z" transform="translate(-241.81238 -287.88171)"/>
    </g>
    <g>
      <g>
        <path class="cls-10" d="M395.96139,357.4809c-.5308,2.6527,1.1655,5.2573,3.16361,6.8202a5.62154,5.62154,0,0,0,.87529.5521c3.684,1.8692,9.0013-.7768,10.3175-4.661a5.47254,5.47254,0,0,0,.28121-1.2357c.39909-3.713-2.92941-8.0439-6.71631-8.3728a5.00361,5.00361,0,0,0-2.6359.6834,11.08143,11.08143,0,0,0-1.6517,1.0621A9.30851,9.30851,0,0,0,395.96139,357.4809Z" transform="translate(-241.81238 -287.88171)"/>
        <path class="cls-5" d="M397.105,354.8786a11.40674,11.40674,0,0,1,1.89409-2.144,12.12242,12.12242,0,0,1,2.3436-1.6691,6.45567,6.45567,0,0,1,1.355-.5517,3.55618,3.55618,0,0,1,1.4866-.1026,6.71889,6.71889,0,0,1,2.7742.9917,8.75123,8.75123,0,0,1,2.2117,1.9619,7.9496,7.9496,0,0,1,1.85881,5.5843,5.45524,5.45524,0,0,1-.35641,1.4889c-.0993.2327-.1888.4703-.2981.698l-.3724.6606a8.46182,8.46182,0,0,1-2.0623,2.1541,8.58051,8.58051,0,0,1-5.5421,1.7158,6.21389,6.21389,0,0,1-2.7813-.8707,6.82292,6.82292,0,0,1-1.1278-.9134,10.08784,10.08784,0,0,1-.963-1.07,8.13843,8.13843,0,0,1-1.3675-2.5078,6.09685,6.09685,0,0,1-.2839-1.4002,5.61406,5.61406,0,0,1,.0872-1.4235A7.15632,7.15632,0,0,1,397.105,354.8786Zm-1.21441,4.0246a6.06177,6.06177,0,0,0,.29841,1.3911,7.76442,7.76442,0,0,0,1.42919,2.4427,8.2588,8.2588,0,0,0,.9981,1.0056,6.58542,6.58542,0,0,0,1.1373.8219,5.86718,5.86718,0,0,0,2.6619.6741,8.08417,8.08417,0,0,0,5.0747-1.874,7.9483,7.9483,0,0,0,1.8121-2.0093l.3226-.5885c.09411-.2024.16911-.4135.2555-.6191a4.60014,4.60014,0,0,0,.293-1.2848,6.33905,6.33905,0,0,0-.329-2.6366,8.50664,8.50664,0,0,0-1.2621-2.4081,7.25905,7.25905,0,0,0-4.4557-2.9786,4.29948,4.29948,0,0,0-2.6625.4695,11.21394,11.21394,0,0,0-2.3867,1.5173,8.674,8.674,0,0,0-3.116,4.6545A5.605,5.605,0,0,0,395.89059,358.9032Z" transform="translate(-241.81238 -287.88171)"/>
      </g>
      <path class="cls-5" d="M403.09639,363.077c-.2135.0046-2.5806.5121-4.5651-2.4055-1.9845-2.9175,1.01971-6.0773,2.3079-6.8664a4.89715,4.89715,0,0,1,6.8509,1.2544C410.04009,358.2844,406.769,362.9982,403.09639,363.077Z" transform="translate(-241.81238 -287.88171)"/>
      <path class="cls-11" d="M399.59509,352.3292c5.1827.7962,8.967,5.3117,10.7227,7.863a5.47254,5.47254,0,0,0,.28121-1.2357c.39909-3.713-2.92941-8.0439-6.71631-8.3728a5.00361,5.00361,0,0,0-2.6359.6834A11.08143,11.08143,0,0,0,399.59509,352.3292Z" transform="translate(-241.81238 -287.88171)"/>
    </g>
    <path class="cls-5" d="M350.23279,323.229l-.0253.0302c-.1024.1568-.2099.302-.3129.4509,1.8453,3.2674,4.6723,6.5579,8.18141,7.5585,1.32389.3776,2.94019.1101,3.39959-1.1449a2.59685,2.59685,0,0,0-.0472-1.6594c-.5392-1.6606-1.9926-3.0747-3.2261-4.3477a23.0436,23.0436,0,0,1-3.5867-5.4682A34.34926,34.34926,0,0,0,350.23279,323.229Z" transform="translate(-241.81238 -287.88171)"/>
    <path class="cls-5" d="M403.65069,375.8433a45.69764,45.69764,0,0,0-2.6831-3.8767,45.22541,45.22541,0,0,0-3.0252-3.616,45.22,45.22,0,0,0,2.683,3.8767A45.762,45.762,0,0,0,403.65069,375.8433Z" transform="translate(-241.81238 -287.88171)"/>
    <path class="cls-5" d="M406.69549,373.38a42.67441,42.67441,0,0,0-3.4077-3.0196,42.17923,42.17923,0,0,0-3.6772-2.6845,42.13341,42.13341,0,0,0,3.4075,3.0195A42.582,42.582,0,0,0,406.69549,373.38Z" transform="translate(-241.81238 -287.88171)"/>
    <path class="cls-5" d="M408.81409,369.0035a42.65053,42.65053,0,0,0-4.38809-1.2136,42.17228,42.17228,0,0,0-4.48311-.7939,42.13465,42.13465,0,0,0,4.3882,1.2134A42.70113,42.70113,0,0,0,408.81409,369.0035Z" transform="translate(-241.81238 -287.88171)"/>
    <path class="cls-10" d="M377.68989,314.286a3.67348,3.67348,0,0,0,1.2708.642c.3917-.0018-.872-1.1161-.872-1.1161.8744.2642,2.035-.0478,1.826-.2458a4.32726,4.32726,0,0,0-1.4313-.2761c1.7413-.4862,2.63561-2.6785,1.6748-3.2954-.4107-.2643-1.50419.2218-2.6164.8617a8.57537,8.57537,0,0,1-6.301,4.2702,20.18709,20.18709,0,0,1,6.6525,1.0093A2.75112,2.75112,0,0,0,377.68989,314.286Z" transform="translate(-241.81238 -287.88171)"/>
    <path class="cls-10" d="M410.90949,340.0116a6.85506,6.85506,0,0,0,.5473-2.5062c.038.0685.419.8235.8256.9004.4265.079-.2351-1.1474-.2351-1.1474s.7125.7023.9649.5245c.2533-.1698-.5735-.7622-.5735-.7622.8268.1287,3.0694-.5247,2.7182-1.4901-.2302-.6278-1.21589-.6547-1.8827-.597a6.04542,6.04542,0,0,1-5.8269.6347S409.37519,337.9849,410.90949,340.0116Z" transform="translate(-241.81238 -287.88171)"/>
    <g>
      <path class="cls-7" d="M391.91249,355.0428a5.65434,5.65434,0,0,1,1.4191,4.1793,5.36919,5.36919,0,0,1-3.733,5.0298,6.95993,6.95993,0,0,1-4.1248-.382c-2.4726-.9026-4.86479-1.9741-6.5563-4.0734a6.55445,6.55445,0,0,1-1.3593-2.6336,5.95043,5.95043,0,0,1,1.0349-4.6774,5.71742,5.71742,0,0,1,4.0857-2.3715,8.63642,8.63642,0,0,1,5.3358,1.8872A23.71934,23.71934,0,0,1,391.91249,355.0428Z" transform="translate(-241.81238 -287.88171)"/>
      <path class="cls-5" d="M390.16029,351.1684s2.2578-.618,2.6774.0944c.4195.7125-2.9871,1.6568-3.8255,1.371-.8383-.2858-.6441-3.752.0556-3.9427C389.76739,348.5006,390.16029,351.1684,390.16029,351.1684Z" transform="translate(-241.81238 -287.88171)"/>
      <path class="cls-5" d="M380.93769,359.3071c.7239-.5296,1.4276-1.0839,2.1391-1.6289l2.0977-1.6809c.7006-.5595,1.37751-1.1469,2.0598-1.7292.6773-.5906,1.3564-1.1706,2.0006-1.8204l-.3557-.2234c-.6051,1.6229-1.2747,3.2263-1.952,4.8226-.34019.7977-.6884,1.5928-1.0618,2.3757q-.54165,1.18365-1.1668,2.3286c.49741-.7147.9272-1.4743,1.3528-2.2349.4147-.7667.7961-1.5501,1.17461-2.3349.38239-.7832.72159-1.5856,1.06489-2.3858.3398-.8023.6712-1.6061.9892-2.4199l.3816-.9772-.7375.7539c-.6127.6264-1.2838,1.2258-1.9485,1.8201l-2.0163,1.7707-2.0186,1.7715Z" transform="translate(-241.81238 -287.88171)"/>
    </g>
    <path class="cls-5" d="M362.56009,347.3576a45.78538,45.78538,0,0,0-4.0809-2.3608A45.1675,45.1675,0,0,0,354.2,343.0176a51.67737,51.67737,0,0,0,8.36009,4.34Z" transform="translate(-241.81238 -287.88171)"/>
    <path class="cls-5" d="M356.24349,339.8945a42.62605,42.62605,0,0,0,3.2749,3.163,42.1475,42.1475,0,0,0,3.5585,2.8399,42.14543,42.14543,0,0,0-3.2747-3.1631A42.67664,42.67664,0,0,0,356.24349,339.8945Z" transform="translate(-241.81238 -287.88171)"/>
    <path class="cls-5" d="M360.685,337.4751a42.68066,42.68066,0,0,0,1.55029,4.2809,42.15691,42.15691,0,0,0,1.9474,4.1154,42.096,42.096,0,0,0-1.5503-4.2808A42.6262,42.6262,0,0,0,360.685,337.4751Z" transform="translate(-241.81238 -287.88171)"/>
    <path class="cls-5" d="M356.90519,316.843c.0865.1067.1803.2175.271.3169a9.87781,9.87781,0,0,0,6.1402,3.6831,1.91927,1.91927,0,0,0,1.0827-.1255,1.55566,1.55566,0,0,0,.6457-1.8006,4.539,4.539,0,0,0-1.08079-1.7429c-.73361-.8479-1.49871-1.6744-2.205-2.5363-.27341.0711-.53941.1465-.80211.2333A16.22162,16.22162,0,0,0,356.90519,316.843Z" transform="translate(-241.81238 -287.88171)"/>
    <path class="cls-5" d="M347.26889,327.9236a21.22631,21.22631,0,0,0-1.5813,4.3645c-.12259.5157-.2261,1.0323-.3148,1.5572a8.716,8.716,0,0,0,3.7363,1.8341,2.15378,2.15378,0,0,0,1.4797-.0692,1.53013,1.53013,0,0,0,.614-.6113,2.84741,2.84741,0,0,0-.27479-2.8893,14.71623,14.71623,0,0,0-2.07771-2.2413A12.77762,12.77762,0,0,1,347.26889,327.9236Z" transform="translate(-241.81238 -287.88171)"/>
    <path class="cls-3" d="M400.65249,393.3033s.22,19.25-24.17,20.75c0,0-6.33-6.54-15.58-16.22-.83-.87-1.69-1.76-2.55-2.68q-5.865-6.135-11.72-12.3-6.42-6.765-12.82-13.56-6.465-6.87-12.89-13.77-5.985-6.45-11.91-12.95-5.01-5.49-9.91-11.07c-2.34-2.67-4.67-5.36-6.87-8.15a10.52731,10.52731,0,0,1-1.62-2.44,3.373,3.373,0,0,1,.13-2.73,34.27074,34.27074,0,0,1,20.82-18.41c.17-.05.35-.1.52-.15a2.98654,2.98654,0,0,1,1.29-.09,2.94124,2.94124,0,0,1,1.7.89c7.02,7.47,43.25,46.06,67.59,72.26q1.515,1.65,2.99,3.23C392.20249,383.0633,397.52249,389.1733,400.65249,393.3033Z" transform="translate(-241.81238 -287.88171)"/>
    <path class="cls-5" d="M385.65209,375.9179c-.6597,3.2616-4.5078,16.1863-24.7498,21.9156-.8306-.8673-1.6858-1.7592-2.5532-2.6753,6.2791-2.0035,21.5492-8.2581,24.3101-22.4777C383.67319,373.7801,384.67479,374.8673,385.65209,375.9179Z" transform="translate(-241.81238 -287.88171)"/>
    <path class="cls-8" d="M313.37249,299.5333c-1.23,12.48-17.76,20.19-22.76,21.38a3.373,3.373,0,0,1,.13-2.73,34.27074,34.27074,0,0,1,20.82-18.41c.17-.05.35-.1.52-.15A2.98654,2.98654,0,0,1,313.37249,299.5333Z" transform="translate(-241.81238 -287.88171)"/>
    <path class="cls-9" d="M289.23059,418.3688a31.011,31.011,0,0,1,3.2743-10.8315,18.32381,18.32381,0,0,1,19.0582-10.2243,20.35351,20.35351,0,0,1,5.6276,1.2945,15.1929,15.1929,0,0,1,2.5967,1.2845l1.2563.7255c.40631.26.7718.5797,1.1595.8672a27.3717,27.3717,0,0,1,7.2199,8.8694,43.92151,43.92151,0,0,1,3.9401,10.7013,54.41345,54.41345,0,0,1,.6393,22.5762,52.98919,52.98919,0,0,0,.375-11.2777,59.75625,59.75625,0,0,0-1.7613-11.1151,46.60311,46.60311,0,0,0-3.99419-10.4526,26.48428,26.48428,0,0,0-7.02711-8.5092c-.3678-.277-.7136-.5873-1.0992-.8379l-1.1918-.6991a14.29876,14.29876,0,0,0-2.462-1.2449,20.83476,20.83476,0,0,0-16.146.5096,19.00755,19.00755,0,0,0-7.7644,7.7682A31.80155,31.80155,0,0,0,289.23059,418.3688Z" transform="translate(-241.81238 -287.88171)"/>
    <path class="cls-5" d="M348.61349,456.1123c-.1187-.1384-.0438-.3377-.0519-.4929l.0399-.4849c.0332-.3165.05351-.6274.071-.9314a8.4416,8.4416,0,0,0-.0829-1.7701,9.22154,9.22154,0,0,0-1.3617-3.3557,4.004,4.004,0,0,1,1.552,1.283,4.42481,4.42481,0,0,1,.79711,1.9182,4.85668,4.85668,0,0,1-.13821,2.0553,5.20227,5.20227,0,0,1-.3686.938A8.15767,8.15767,0,0,0,348.61349,456.1123Z" transform="translate(-241.81238 -287.88171)"/>
    <path class="cls-5" d="M352.92989,448.7934a3.31491,3.31491,0,0,1,1.38611,1.2151,4.71732,4.71732,0,0,1-.00041,5.2871c-.047-.622-.03059-1.1887-.069-1.7465a11.96657,11.96657,0,0,0-.19059-1.6191,9.88441,9.88441,0,0,0-.42841-1.5604A12.99729,12.99729,0,0,0,352.92989,448.7934Z" transform="translate(-241.81238 -287.88171)"/>
    <path class="cls-3" d="M437.22049,297.0186c-1.5759-4.1657-3.7748-10.7624-8.9666-8.7712-4.7521,1.8202-1.8935,6.5356-1.8935,6.5356s-4.6055-1.7469-10.799,2.8708c-6.1936,4.6055-1.8936,19.0693,7.3908,20.6575,9.2841,1.5757,11.935-7.4519,11.935-7.4519s.72081,4.2879,4.7644,2.2966C443.05979,311.4825,438.80859,301.1842,437.22049,297.0186Zm-10.8479,11.4831a3.39,3.39,0,0,1-2.8952-.5864,5.69393,5.69393,0,0,1-1.808-2.4066,4.85307,4.85307,0,0,1-.452-1.9301,2.59152,2.59152,0,0,1,.7085-1.808,3.03878,3.03878,0,0,1,4.3857.4765,8.67161,8.67161,0,0,1,.9283,1.637C428.00959,305.5087,428.63259,307.842,426.37259,308.5017Z" transform="translate(-241.81238 -287.88171)"/>
    <path class="cls-5" d="M332.79309,386.2892a17.36637,17.36637,0,0,1-1.6613,3.0664,15.00115,15.00115,0,0,0-1.5027,3.7015,20.707,20.707,0,0,1-9.4918-4.7277l-.0245-.0245-.1099-.0732.0122-.0122a8.2524,8.2524,0,0,1,1.7103-2.5287,11.61469,11.61469,0,0,1,7.3418-3.5549,3.8815,3.8815,0,0,1,3.2373.855A3.31316,3.31316,0,0,1,332.79309,386.2892Z" transform="translate(-241.81238 -287.88171)"/>
    <path class="cls-5" d="M355.12419,365.6197a2.08457,2.08457,0,0,1-.2444.2198,6.12735,6.12735,0,0,1-.6475.5009c-1.8201,1.2583-3.9212,2.26-5.1551,4.0925a7.70533,7.70533,0,0,1-1.7347,2.321,3.798,3.798,0,0,1-3.4449.0611,4.3381,4.3381,0,0,1-1.6981-1.075c-1.1117-1.2705-.8063-3.2373-.1343-4.7887a12.51141,12.51141,0,0,1,.7207-1.3926,1.20914,1.20914,0,0,1,.0978-.1711,51.82916,51.82916,0,0,1,6.63331-.3177A32.318,32.318,0,0,1,355.12419,365.6197Z" transform="translate(-241.81238 -287.88171)"/>
    <path class="cls-5" d="M302.05749,358.3267a3.61638,3.61638,0,0,1-3.0663,2.7364,7.39145,7.39145,0,0,1-4.25119-.8307,26.39193,26.39193,0,0,1-6.10811-4.2634q-2.0523-1.7958-3.95789-3.7748a70.82245,70.82245,0,0,1,9.22309-6.0714c.8796.9528,1.6736,1.979,2.4677,2.993,1.3315,1.698,2.663,3.3839,3.9825,5.0819C301.30009,355.4071,302.30169,356.8118,302.05749,358.3267Z" transform="translate(-241.81238 -287.88171)"/>
    <path class="cls-5" d="M273.826,374.9894a30.9445,30.9445,0,0,1-5.15511-3.2372,51.43379,51.43379,0,0,1,4.52-7.684,54.90662,54.90662,0,0,1,8.7344,7.6351,4.7326,4.7326,0,0,1,1.4659,2.5532C283.97759,379.5094,275.73179,375.9179,273.826,374.9894Z" transform="translate(-241.81238 -287.88171)"/>
    <path class="cls-5" d="M279.05459,395.5736c-.4642,1.5391-2.4432,1.93-4.0557,1.9178a55.00418,55.00418,0,0,1-12.20389-1.6125,83.06,83.06,0,0,1,1.06269-8.258c2.7121.9284,5.4728,1.7224,8.2459,2.4065,2.3088.5619,4.8132,1.1605,6.2791,3.0174A2.90841,2.90841,0,0,1,279.05459,395.5736Z" transform="translate(-241.81238 -287.88171)"/>
    <path class="cls-5" d="M276.63579,413.1892c.171,1.4659-1.3071,2.5531-2.6386,3.2005a33.34383,33.34383,0,0,1-9.2599,2.9074,55.414,55.414,0,0,1-1.6492-8.0381c3.7626-.6597,7.5007-1.5881,11.0556-.4153C275.292,411.2224,276.50139,411.992,276.63579,413.1892Z" transform="translate(-241.81238 -287.88171)"/>
    <path class="cls-5" d="M283.84329,433.309c.1588,3.1517-1.7469,5.9737-3.8114,8.4047a35.48813,35.48813,0,0,1-7.4885-6.9388,25.86561,25.86561,0,0,1,5.6194-3.8847c1.4048-.7085,3.1884-1.2581,4.4466-.3298A3.53192,3.53192,0,0,1,283.84329,433.309Z" transform="translate(-241.81238 -287.88171)"/>
    <path class="cls-8" d="M349.70209,353.5736c12.0563,12.4709,19.8938,24.4523,17.5055,26.7612s-14.0979-5.9292-26.1542-18.4001c-12.0563-12.471-19.8937-24.4524-17.50539-26.7613C325.93619,332.8646,337.64579,341.1026,349.70209,353.5736Z" transform="translate(-241.81238 -287.88171)"/>
    <g>
      <path class="cls-2" d="M370.70249,379.0733c-1.16,2.87-5.22,5.16-10.48,6.37h-.03a38.33977,38.33977,0,0,1-9.47.94,30.52242,30.52242,0,0,1-5.93,4c-3.88,2.01-9.28,3.82-15.11,2.69-.03,0-.04-.02-.05-.02-.58-.11-1.17-.25-1.76-.42a21.53745,21.53745,0,0,1-7.74-4.3.14385.14385,0,0,0-.02-.03.70061.70061,0,0,1-.1-.08c-.47-.4-.95-.84-1.42-1.31a39.41842,39.41842,0,0,1-6.31-8.27,126.19125,126.19125,0,0,1,15.87-9.24c.19-.08.4-.18.61-.28.4-.18.83-.37,1.3-.55a27.10521,27.10521,0,0,1,3.3-1.1c1.74-.42,3.78-.94,6.04-1.36,1.08-.21,2.21-.4,3.38-.55a38.37351,38.37351,0,0,1,10.28-.03c.6.08,1.21.19,1.82.31a29.46883,29.46883,0,0,1,11.8,5.2,16.93653,16.93653,0,0,1,1.9,1.59C370.95249,374.9433,371.48249,377.1433,370.70249,379.0733Z" transform="translate(-241.81238 -287.88171)"/>
      <path class="cls-9" d="M324.56249,371.4233a27.90143,27.90143,0,0,1,3.5519-2.0912l.0005-.0003.0063-.003a45.59145,45.59145,0,0,1,5.5834-2.2418,46.98389,46.98389,0,0,1,5.8441-1.4849l.0192-.0036.0247-.0002.0098-.0001-.0456.0041c1.2921-.1875,2.5828-.4159,3.8791-.5694q1.9491-.2145,3.9119-.2775c.65321-.0212,1.3084-.0304,1.9608-.0278.6528.0159,1.3093.0729,1.96441.1075l1.96729.1208,1.9574.2788-.0751-.0072.0098-.0001.0318-.0003.0383.0065a26.702,26.702,0,0,1,8.4762,2.897,16.511,16.511,0,0,1,6.5786,6.1417,7.42156,7.42156,0,0,1,.9752,4.5477,6.05755,6.05755,0,0,1-2.4716,3.9722,13.94033,13.94033,0,0,1-4.0841,2.0561,30.51865,30.51865,0,0,1-4.3705,1.0684l-.0425.0075-.0414-.0001-.0298-.0001.0825-.0071a56.42966,56.42966,0,0,1-10.0852.7168l.3466-.148a25.17051,25.17051,0,0,1-4.46949,3.6202,24.809,24.809,0,0,1-5.13121,2.5531,21.10382,21.10382,0,0,1-5.613,1.1785,19.8812,19.8812,0,0,1-5.7067-.4681l.0658.0074a.36521.36521,0,0,1-.1674-.0418l-.0487-.0308c.0065-.0102-.0186.0258.16321.052l-.064-.0076c-.86691-.2582-1.74751-.4706-2.58861-.7988a22.94883,22.94883,0,0,1-2.4683-1.1031,27.84538,27.84538,0,0,1-4.4848-2.9733l-.0497-.0606a.0249.0249,0,0,0,.0136.0157l.046.0332-.109-.0716-.0305-.0195c-.6556-.5804-1.3371-1.1295-1.96469-1.7394-.63371-.6017-1.24551-1.2255-1.839-1.8652a47.88339,47.88339,0,0,1-3.32751-4.0327q1.63845,2.03535,3.46851,3.8979.91454.9288,1.88309,1.7996c.6396.5858,1.3323,1.1104,1.9971,1.6651l-.03019-.0193.11069.0682.037.0228.0092.0106a.48017.48017,0,0,1,.0534.0754l-.0494-.0603a28.1314,28.1314,0,0,0,4.4966,2.7998,22.42129,22.42129,0,0,0,2.4293,1.0333c.8269.3057,1.6875.495,2.532.7315l-.0635-.0075c.1911.0269.1733.0695.1871.0644l-.0258-.016a.25125.25125,0,0,0-.1147-.0289l.0663.0074a19.21586,19.21586,0,0,0,5.5204.3527,20.33679,20.33679,0,0,0,5.388-1.2339,25.72266,25.72266,0,0,0,4.9381-2.5181,24.40682,24.40682,0,0,0,4.2727-3.497l.1431-.1499.2039.0018a55.54768,55.54768,0,0,0,9.8943-.7631l.041-.0071.0419-.0001.0298-.0001-.0835.0073a19.64045,19.64045,0,0,0,8.02111-2.9584,5.07732,5.07732,0,0,0,2.12359-3.3289,6.48753,6.48753,0,0,0-.8469-3.9674,15.63883,15.63883,0,0,0-6.1858-5.8161,27.15612,27.15612,0,0,0-8.1881-2.886l.0696.0062-.0098-.0001-.0322-.0003-.0432-.0069-1.8976-.305-1.9222-.1519c-.6419-.0456-1.28039-.1137-1.926-.1413-.6473-.0142-1.2919-.0168-1.938-.0075q-1.93725.03015-3.8695.2044c-1.2875.1291-2.5621.3317-3.8454.4936l-.0339.0043-.0122-.0001-.0098-.0001.0435-.0038a48.445,48.445,0,0,0-5.8316,1.3065,45.34732,45.34732,0,0,0-5.62049,2.0667l.00649-.003A28.22618,28.22618,0,0,0,324.56249,371.4233Z" transform="translate(-241.81238 -287.88171)"/>
      <path class="cls-5" d="M363.12029,384.5268a14.2505,14.2505,0,0,0-1.6021-4.5374,7.948,7.948,0,0,0-1.4399-1.8324,15.40828,15.40828,0,0,0-1.9174-1.5343,5.50569,5.50569,0,0,1,2.409.9282,6.33273,6.33273,0,0,1,1.01811.8544,7.96387,7.96387,0,0,1,.78979,1.0743,6.907,6.907,0,0,1,.8734,2.4772A6.04655,6.04655,0,0,1,363.12029,384.5268Z" transform="translate(-241.81238 -287.88171)"/>
      <path class="cls-5" d="M369.16469,380.9621a26.94454,26.94454,0,0,0-2.0313-4.4356,10.75918,10.75918,0,0,0-1.4467-1.8463,10.96313,10.96313,0,0,0-1.9464-1.4671,4.881,4.881,0,0,1,2.4411.8637,6.79293,6.79293,0,0,1,1.8022,1.9245,8.71373,8.71373,0,0,1,.9848,2.4059A7.22605,7.22605,0,0,1,369.16469,380.9621Z" transform="translate(-241.81238 -287.88171)"/>
    </g>
    <path class="cls-2" d="M450.74669,363.0103a9.36766,9.36766,0,0,0-4.5933-5.7783c-3.0417-1.7469-6.41339-1.0872-9.1376.9406a14.8109,14.8109,0,0,0-1.1727.9895s2.1378-8.7467,1.8813-11.7152c-.24439-2.9563-4.2756-5.033-6.3525-2.8219-2.0766,2.1989-7.3051,26.3623-5.7903,28.3779,1.5147,2.0157,6.731,3.4084,7.9893-.7452a9.33144,9.33144,0,0,0,10.3837,3.7749,9.12488,9.12488,0,0,0,5.9981-5.7539A12.68508,12.68508,0,0,0,450.74669,363.0103Zm-6.87769,1.9423c-.19541,1.6002-1.24611,4.129-3.32281,3.4082-1.8934-.6719-1.2216-2.9074-.7818-4.3245.3787-1.2094,1.5027-2.4187,2.9074-2.0522C443.84469,362.3017,443.979,363.9752,443.869,364.9526Z" transform="translate(-241.81238 -287.88171)"/>
    <path class="cls-1" d="M472.01089,337.5276a12.84482,12.84482,0,0,1,3.0364-.1294,3.21027,3.21027,0,0,1,3.1466,3.4132,3.50538,3.50538,0,0,1-2.2744,2.8445c-1.2511.4614-2.9351.2584-3.8109,1.4677a3.82381,3.82381,0,0,0-.6758,1.8188,4.59878,4.59878,0,0,0,1.0471,3.7614c1.0992,1.0413,3.0325.2278,3.6288-1.0055.3531-.7306.30631-1.5209.98331-2.0749a3.265,3.265,0,0,1,1.26079-.5937c3.6689-.9521,4.7413,3.698,4.1477,6.4273-.6538,3.0053-3.1819,4.5452-6.0554,5.1137-4.50709.8915-8.9108-.7105-11.1846-4.8073a16.07986,16.07986,0,0,1-1.86949-7.5579,11.63851,11.63851,0,0,1,.23379-2.7956,6.81765,6.81765,0,0,1,4.2775-4.7352c.3568-.1546.7216-.291,1.0913-.4117A19.237,19.237,0,0,1,472.01089,337.5276Z" transform="translate(-241.81238 -287.88171)"/>
    <path class="cls-9" d="M352.37829,408.8977a4.73017,4.73017,0,0,1,1.4369,1.1368,6.44762,6.44762,0,0,1,1.0112,1.5401,4.375,4.375,0,0,1,.1433,3.6327c-.1495-.6101-.265-1.1518-.44269-1.6818a16.04,16.04,0,0,0-.61021-1.5369C353.461,410.9751,352.908,410.0086,352.37829,408.8977Z" transform="translate(-241.81238 -287.88171)"/>
    <path class="cls-9" d="M351.34639,412.7361a12.68518,12.68518,0,0,1,2.6245-1.8761c.4628-.2496.9172-.5034,1.3898-.7296.4712-.2386.9349-.4469,1.4286-.7304a3.24788,3.24788,0,0,1-.9848,1.3723,8.04551,8.04551,0,0,1-4.4581,1.9638Z" transform="translate(-241.81238 -287.88171)"/>
    <path class="cls-5" d="M331.67249,382.8333a13.73574,13.73574,0,0,1-1.28,2.39c-1.03,1.87-1.31,4.04-1.97,6.06a12.87671,12.87671,0,0,1-.52,1.29l-.03.06a21.53745,21.53745,0,0,1-7.74-4.3.14385.14385,0,0,0-.02-.03c-.04-.02-.07-.05-.11-.07-.48-.38-.96-.79-1.45-1.22a.41792.41792,0,0,1,.04-.1,11.918,11.918,0,0,1,2.97-4.4,10.49048,10.49048,0,0,1,8.34-2.53,2.69814,2.69814,0,0,1,1.16.38A2.21309,2.21309,0,0,1,331.67249,382.8333Z" transform="translate(-241.81238 -287.88171)"/>
    <path class="cls-5" d="M353.22249,365.3333a.74174.74174,0,0,1-.16.2,1.87845,1.87845,0,0,1-.24.25c-1.19,1.06-2.79,1.52-4.1,2.43a40.49585,40.49585,0,0,0-3.59,3.47c-1.24,1.12-2.95,1.97-4.54,1.48a3.78571,3.78571,0,0,1-2.46-3.58,5.59883,5.59883,0,0,1,1.26-3.47h.01a1.57181,1.57181,0,0,1,.19-.26h.01c1.04-.19,2.14-.35,3.28-.47a51.5785,51.5785,0,0,1,6.63-.31A29.32415,29.32415,0,0,1,353.22249,365.3333Z" transform="translate(-241.81238 -287.88171)"/>
  </g>
</svg>
