<svg id="OBJECTS" xmlns="http://www.w3.org/2000/svg" viewBox="0 0 223.22529 241.63527">
  <defs>
    <style>
      .cls-1 {
        fill: #b8f0e7;
      }

      .cls-2 {
        fill: #e05656;
      }

      .cls-3 {
        fill: #98e0c1;
      }

      .cls-4 {
        fill: #f09c46;
      }

      .cls-5, .cls-6, .cls-8, .cls-9 {
        fill: #973433;
      }

      .cls-5 {
        opacity: 0.2;
      }

      .cls-7 {
        fill: #fff;
      }

      .cls-8 {
        opacity: 0.21;
      }

      .cls-10, .cls-11, .cls-9 {
        opacity: 0.48;
      }

      .cls-10 {
        fill: #cc4a4a;
      }

      .cls-12 {
        fill: none;
        stroke: #fff;
        stroke-miterlimit: 10;
      }
    </style>
  </defs>
  <g>
    <path class="cls-1" d="M172.766,80.7774q-1.9053-.7866-3.8696-1.4762c-22.2272-7.796-46.7591-4.574-68.6604,2.7008-14.6457,4.8647-28.8505,11.5117-40.9429,21.0999-26.6286,21.1142-37.7,58.2594-22.9083,89.6223,20.7021,43.8944,79.8418,55.5334,123.7737,50.3264a72.52214,72.52214,0,0,0,50.12779-29.6466C241.62169,170.1562,222.26519,101.2149,172.766,80.7774Z" transform="translate(-29.77571 -17.55613)"/>
    <path class="cls-2" d="M185.1082,210.6241c-3.1823-2.1169-6.4406-4.122-9.5786-6.3008a2.768,2.768,0,0,1-1.0246-2.1074c.3814-4.4105,1.0161-8.7998,1.3671-13.212a2.34116,2.34116,0,0,1,1.6166-2.4483c4.3258-1.7247,8.6049-3.5663,12.8998-5.3684.6966-.2922,1.3823-.6091,2.5828-1.1401-2.1007-6.596-4.1781-13.118-6.3082-19.8042-5.5367,1.1377-10.5863,2.0902-15.5886,3.2489-1.7636.4083-2.728.2101-3.8762-1.4201-2.3463-3.3316-5.156-6.3339-7.6796-9.5459a2.50839,2.50839,0,0,1-.3395-2.0697c1.6728-4.4186,3.3408-8.848,5.278-13.1538.9296-2.0662.4519-3.1715-1.4008-4.1173a12.86389,12.86389,0,0,1-1.9332-1.4876q-4.7958-2.53695-9.5915-5.0746a6.49357,6.49357,0,0,1-1.1988-.2405c-3.8974-1.564-3.1482-1.5363-5.3341,1.7227-2.6627,3.9707-5.2587,7.9863-7.5374,11.4551-5.9579-.5165-11.526-.9992-17.2769-1.4978-2.2108-5.2658-4.5209-10.769-6.8459-16.3074a66.37085,66.37085,0,0,0-19.7411,6.2839c1.1296,5.4441,2.2179,10.7545,3.3448,16.0571a1.83658,1.83658,0,0,1-.7816,2.2335c-3.6377,2.7594-7.2108,5.6161-10.6495,8.6176a2.162,2.162,0,0,1-2.707.4304c-4.4339-1.8298-8.9106-3.5563-13.3522-5.3678a1.861,1.861,0,0,0-2.6236.6702,59.181,59.181,0,0,0-8.0853,15.9318c-.3972,1.1208.1442,1.6014.9921,2.1446,3.9241,2.5131,7.7867,5.1212,11.7274,7.6067a2.33246,2.33246,0,0,1,1.2687,2.7992c-.7465,5.0533-1.1992,10.1496-1.8089,15.6386-4.7868,2.0095-10.2184,4.2896-15.648,6.5693a61.86566,61.86566,0,0,0,6.1491,20.0269c5.9342-1.2613,11.7074-2.4882,16.936-3.5995,3.2908,3.7427,6.2599,7.3006,9.4476,10.6505a2.96868,2.96868,0,0,1,.7341,3.8045c-1.8346,4.2051-3.5063,8.4825-5.1996,12.7481-.3348.8428-.9982,1.8261.3188,2.5101q8.0361,4.1736,16.07,8.3515c1.139.5915,1.8528.2047,2.5321-.8691,2.5287-3.9943,5.2333-7.8796,7.6935-11.9148.9491-1.5565,1.9807-1.6231,3.5913-1.4174a108.78334,108.78334,0,0,0,11.9878,1.0026c1.7251.0273,2.3601.4725,2.9526,2.0027,1.9038,4.9159,4.0008,9.7571,5.9809,14.5253,4.2747-.0301,15.8947-3.7566,20.0738-6.393-1.1343-5.2384-2.2267-10.5481-3.4664-15.823-.3101-1.3195.0784-1.8903,1.084-2.6922,3.2448-2.5885,6.3065-5.4053,9.5256-8.0276a2.739,2.739,0,0,1,2.2686-.4503c3.9589,1.5191,7.8654,3.1766,11.7696,4.8335,2.1828.9262,3.0603,1.3082,3.892.7431l9.0048-17.0195C188.6324,212.9819,187.6825,212.3367,185.1082,210.6241Zm-50.8153-14.6546a12.05458,12.05458,0,0,1-16.2927,5.0178H118a12.05474,12.05474,0,0,1-5.0176-16.2927h0a12.05458,12.05458,0,0,1,16.2927-5.0178h0a12.135,12.135,0,0,1,5.0179,16.2927Z" transform="translate(-29.77571 -17.55613)"/>
    <path class="cls-3" d="M249.67169,208.8753c-1.3475-.8963-2.7271-1.7453-4.0558-2.6678a1.17228,1.17228,0,0,1-.4338-.8924c.1615-1.8674.4302-3.7259.5788-5.5941a.99124.99124,0,0,1,.6845-1.0366c1.83161-.7303,3.6435-1.5101,5.462-2.2731.2949-.1238.5853-.2579,1.09361-.4828-.88951-2.7928-1.76911-5.5543-2.671-8.3854-2.34431.4817-4.48241.8851-6.60051,1.3756a1.29971,1.29971,0,0,1-1.6412-.6013c-.9934-1.4106-2.1831-2.6818-3.2517-4.0418a1.06238,1.06238,0,0,1-.1437-.8764c.7083-1.8709,1.4145-3.7464,2.2348-5.5695a1.12868,1.12868,0,0,0-.5932-1.7433,5.44907,5.44907,0,0,1-.81849-.6299q-2.03056-1.0743-4.06121-2.1487a2.75336,2.75336,0,0,1-.5076-.1018c-1.65019-.6622-1.333-.6505-2.2585.7294-1.1275,1.6813-2.2266,3.3815-3.1915,4.8503l-7.3153-.6342c-.9361-2.2296-1.9142-4.5598-2.8987-6.9048a28.09952,28.09952,0,0,0-8.3587,2.6607c.4783,2.3051.9391,4.5536,1.4163,6.7988a.77774.77774,0,0,1-.331.9457c-1.5402,1.1684-3.0532,2.3779-4.5092,3.6489a.91558.91558,0,0,1-1.1462.1822c-1.8773-.7748-3.7728-1.5058-5.6535-2.2728a.78782.78782,0,0,0-1.1108.2837,25.057,25.057,0,0,0-3.42349,6.7458c-.1682.4746.0611.6781.4201.9081,1.66149,1.0641,3.297,2.1684,4.96549,3.2208a.98743.98743,0,0,1,.5372,1.1852c-.3161,2.1397-.5077,4.2975-.7659,6.6217-2.0268.8508-4.32659,1.8162-6.62559,2.7815a26.19431,26.19431,0,0,0,2.6036,8.4797c2.51269-.5341,4.95709-1.0535,7.171-1.5241,1.3934,1.5847,2.6506,3.0912,4.0003,4.5096a1.257,1.257,0,0,1,.3108,1.6109c-.7768,1.7805-1.48459,3.5917-2.20159,5.3978-.14171.3568-.42261.7732.135,1.0628q3.40258,1.76715,6.80429,3.5362c.4823.2504.7845.0866,1.0721-.368,1.0707-1.6913,2.2159-3.3364,3.25761-5.045.40189-.659.83869-.6872,1.52059-.6001a46.05011,46.05011,0,0,0,5.0758.4245,1.10482,1.10482,0,0,1,1.2502.848c.8061,2.0814,1.694,4.1313,2.53241,6.1502a25.11581,25.11581,0,0,0,8.49959-2.7069c-.4803-2.218-.9428-4.4662-1.4677-6.6997a.953.953,0,0,1,.4589-1.1399c1.3739-1.096,2.6703-2.2887,4.0333-3.399a1.15983,1.15983,0,0,1,.9606-.1907c1.67631.6432,3.33031,1.345,4.9834,2.0466.9243.3921,1.2958.5539,1.648.3146l3.8127-7.2063C251.16379,209.8737,250.76169,209.6005,249.67169,208.8753Zm-14.3651-2.4215a13.19424,13.19424,0,0,1-17.8331,5.4921h-.0001a13.1945,13.1945,0,0,1-5.4921-17.8331h0a13.19441,13.19441,0,0,1,17.8332-5.4921h0a13.19449,13.19449,0,0,1,5.4923,17.8331Z" transform="translate(-29.77571 -17.55613)"/>
    <g>
      <g>
        <path class="cls-4" d="M169.9145,166.817a74.82336,74.82336,0,0,1,5.6904,12.4147c3.2328,8.551,8.5999,14.2318,13.5672,15.2483s3.5423-3.022,1.0259-15.5783c-2.5163-12.5564-3.4052-36.3641-4.1417-35.8131-.7364.5511-5.01-.7216-6.4776.2274-1.4676.9491-7.2279,16.9985-7.2279,16.9985Z" transform="translate(-29.77571 -17.55613)"/>
        <path class="cls-5" d="M169.9145,166.817a74.82336,74.82336,0,0,1,5.6904,12.4147c3.2328,8.551,8.5999,14.2318,13.5672,15.2483s3.5423-3.022,1.0259-15.5783c-2.5163-12.5564-3.4052-36.3641-4.1417-35.8131-.7364.5511-5.01-.7216-6.4776.2274-1.4676.9491-7.2279,16.9985-7.2279,16.9985Z" transform="translate(-29.77571 -17.55613)"/>
        <g>
          <g>
            <path class="cls-4" d="M81.8376,72.1567c-2.8719,10.5729-7.7064,4.8345-7.7064,4.8345-6.3481-3.8077-11.5463-7.1288-14.7123-11.835a23.82549,23.82549,0,0,1-2.9361-5.947c-1.4546-4.4121-1.4172-8.5675-2.0589-12.8458a25.69433,25.69433,0,0,0-2.7542-8.7119,66.425,66.425,0,0,0-6.3588-9.0541c-2.5724-3.2622-4.8827-6.1181-5.364-7.8455-.4974-1.7862-.0481-3.535,2.9093-3.1392a10.84058,10.84058,0,0,1,2.4013.6096h.0053c4.7543,1.813,8.5461,6.9364,11.2575,13.2844a57.065,57.065,0,0,1,2.198,6.1448c.5134,1.7274.9198,3.5244,1.2675,5.3106,1.0321,5.3693,1.4974,10.7013,2.4975,14.2042a15.558,15.558,0,0,0,3.7328,6.3427,27.29971,27.29971,0,0,0,6.9096,5.1554A41.38645,41.38645,0,0,0,81.8376,72.1567Z" transform="translate(-29.77571 -17.55613)"/>
            <path class="cls-5" d="M81.8376,72.1567c-2.8719,10.5729-7.7064,4.8345-7.7064,4.8345-6.3481-3.8077-11.5463-7.1288-14.7123-11.835a23.82549,23.82549,0,0,1-2.9361-5.947c-1.4546-4.4121-1.4172-8.5675-2.0589-12.8458a25.69433,25.69433,0,0,0-2.7542-8.7119,66.425,66.425,0,0,0-6.3588-9.0541c-2.5724-3.2622-4.8827-6.1181-5.364-7.8455-.4974-1.7862-.0481-3.535,2.9093-3.1392a10.84058,10.84058,0,0,1,2.4013.6096h.0053c4.7543,1.813,8.5461,6.9364,11.2575,13.2844a57.065,57.065,0,0,1,2.198,6.1448c.5134,1.7274.9198,3.5244,1.2675,5.3106,1.0321,5.3693,1.4974,10.7013,2.4975,14.2042a15.558,15.558,0,0,0,3.7328,6.3427,27.29971,27.29971,0,0,0,6.9096,5.1554A41.38645,41.38645,0,0,0,81.8376,72.1567Z" transform="translate(-29.77571 -17.55613)"/>
          </g>
          <path class="cls-6" d="M45.3109,28.5974c-2.5724-3.2622-4.8827-6.1181-5.364-7.8455-.4974-1.7862-.0481-3.535,2.9093-3.1392a10.84058,10.84058,0,0,1,2.4013.6096h.0053a14.56519,14.56519,0,0,1,2.0376,4.2517A5.62069,5.62069,0,0,1,45.3109,28.5974Z" transform="translate(-29.77571 -17.55613)"/>
          <path class="cls-6" d="M59.9858,42.9621a7.52011,7.52011,0,0,1-3.5244-4.4923,9.59389,9.59389,0,0,1,.0589-6.9631,57.065,57.065,0,0,1,2.198,6.1448C59.2317,39.3789,59.6381,41.1759,59.9858,42.9621Z" transform="translate(-29.77571 -17.55613)"/>
          <path class="cls-6" d="M56.4828,59.2092c-1.4546-4.4121-1.4172-8.5675-2.0589-12.8458A10.36863,10.36863,0,0,1,56.4828,59.2092Z" transform="translate(-29.77571 -17.55613)"/>
          <path class="cls-6" d="M73.1257,68.6644c-1.4814,1.2033-3.289,2.1606-4.5939,1.2194-1.8022-1.2996-2.2247-4.503-2.3157-6.3748A27.29971,27.29971,0,0,0,73.1257,68.6644Z" transform="translate(-29.77571 -17.55613)"/>
        </g>
        <path class="cls-4" d="M185.1141,146.5661c-1.5227,18.3882-17.097,22.2261-17.097,22.2261s1.1041,11.6207-4.1853,11.6207c-5.1558,0-8.8157-7.5245-8.8157-7.5245a23.6382,23.6382,0,0,1-7.8628-1.7543,23.10162,23.10162,0,0,1-7.7827-5.0845l-.0712-.0713a15.12119,15.12119,0,0,1-3.0988-5.0311,35.29284,35.29284,0,0,1-1.9325-7.2841,61.27313,61.27313,0,0,1-.7746-10.3918c-19.8397-1.2288-28.6998-14.0694-28.6998-14.0694a53.68063,53.68063,0,0,1-9.065-.4986c4.6926,4.8797,10.9438,20.2582,7.2573,20.5787-3.6955.3206-5.5387-5.8504-7.8897-9.7596-2.3418-3.9091-13.7398-8.3258-15.5832-13.2234-1.8432-4.9065,6.1978-9.1452,6.1978-9.1452a36.18644,36.18644,0,0,1-8.4595-11.8521,39.17428,39.17428,0,0,1-2.3509-6.8032,34.95432,34.95432,0,0,1-.9261-5.5832,24.51366,24.51366,0,0,1-.0801-2.805,28.85141,28.85141,0,0,1,1.0152-6.8923,33.97745,33.97745,0,0,1,9.519-15.7346c.5522-.5164,1.122-.9973,1.7009-1.4693a31.99576,31.99576,0,0,1,10.0178-5.414,41.06462,41.06462,0,0,1,10.6322-1.9502A62.28236,62.28236,0,0,1,124.099,60.324q.5076.1203,1.0152.2405c2.52.6144,5.1557,1.3713,7.8539,2.2885,2.4488.8281,4.9421,1.7898,7.4533,2.9118a75.95665,75.95665,0,0,1,7.4799,3.8112,70.67527,70.67527,0,0,1,8.5486,5.8148c.2315.1692.4629.3562.6945.5432a63.63277,63.63277,0,0,1,7.3197,7.008c.5163.5699,1.015,1.1576,1.5048,1.7542a60.73355,60.73355,0,0,1,5.1292,7.1772,65.87584,65.87584,0,0,1,3.3036,6.1442,70.48518,70.48518,0,0,1,4.9332,14.5504C179.8336,114.7585,186.4765,130.1369,185.1141,146.5661Z" transform="translate(-29.77571 -17.55613)"/>
        <g>
          <path class="cls-4" d="M192.9213,119.0776l.0087-.0059c5.21669-3.8992,4.6867-15.2718,3.2042-17.1383a.59451.59451,0,0,0-.3906-.2595,10.0291,10.0291,0,0,0-7.3927,2.1538c-1.7966,1.4248-3.3359,3.2436-5.4794,4.1735a20.11941,20.11941,0,0,1-3.6153,1.21l.0006.0011c-.3376-.1097-.673-.2142-1.0036-.307-.7319-.2041-1.4386-.3698-2.1239-.4925-.808-.1446-1.6948-.3234-2.6541-.5148-.5545-.1102-1.1324-.232-1.7322-.3475a89.83251,89.83251,0,0,0-9.4906-1.4511c-.8389-.0796-1.7038-.1482-2.5844-.1889a58.09634,58.09634,0,0,0-6.6005-.0092c-.8762.047-1.7717.1232-2.6766.2151l.0033-.0078a16.62216,16.62216,0,0,1-5.1041-5.0721c-1.7313-2.9908-4.7387-5.6631-8.5275-5.3272-.0763.0037-.1574.0111-.2344.0191-3.5968.4247-3.6996,10.2798-2.3508,14.5528-.1207.0507-.2391.0925-.3599.1443a15.08356,15.08356,0,0,0-5.604,5.2746,18.60464,18.60464,0,0,0-1.5883,3.022,19.65251,19.65251,0,0,0-.8401,2.4997,21.555,21.555,0,0,0-.561,2.8724,28.61361,28.61361,0,0,0-.0381,6.634c.0218.2267.0433.4535.0739.6794a24.64166,24.64166,0,0,0,.6896,3.5386,21.72739,21.72739,0,0,0,2.349,5.5797c4.0127,6.734,11.4735,10.8197,20.8174,13.1101a84.30259,84.30259,0,0,0,12.7472,2.0007c14.273,1.2223,25.2658-.481,30.9587-8.534a19.95371,19.95371,0,0,0,2.0548-3.7201q.2163-.5133.4161-1.0659a28.95728,28.95728,0,0,0,1.4606-6.1197l.0262-.1855c.0503-.398.0959-.7999.1293-1.1875a26.73712,26.73712,0,0,0,.052-4.2083A22.44,22.44,0,0,0,192.9213,119.0776Z" transform="translate(-29.77571 -17.55613)"/>
          <path class="cls-6" d="M192.93,119.0718c-4.0969,3.057-8.8752-.7605-11.1131-4.4983a13.272,13.272,0,0,1-.621-1.1765q-.6225-1.3572-1.2549-2.7068a5.5781,5.5781,0,0,0-.6728-1.4686c.2757.2494,5.3523,4.8052,9.4367,4.1815,2.8609-.437,3.6761-5.033,5.1094-8.3594a6.1251,6.1251,0,0,1,2.3199-3.1103C197.6168,103.7999,198.14679,115.1725,192.93,119.0718Z" transform="translate(-29.77571 -17.55613)"/>
          <path class="cls-6" d="M168.8638,122.545c-2.2378-.2863-2.4474-3.5284-3.4358-8.6673a20.68363,20.68363,0,0,0-3.1793-7.778,90.23507,90.23507,0,0,1,9.4916,1.4501C174.4576,113.6412,171.0225,122.8211,168.8638,122.545Z" transform="translate(-29.77571 -17.55613)"/>
          <path class="cls-6" d="M174.6787,112.0863a19.76922,19.76922,0,0,1-1.2033-4.1897c.9606.1943,1.8479.3701,2.654.5178.6844.1233,1.395.2855,2.1269.4905C178.6366,111.9638,175.4334,113.8909,174.6787,112.0863Z" transform="translate(-29.77571 -17.55613)"/>
          <path class="cls-6" d="M158.7583,112.5744c-1.5336.0669-2.7819-1.0872-3.6492-3.6509a7.02348,7.02348,0,0,0-2.0396-3.0212,59.43716,59.43716,0,0,1,6.5994.0056C161.5205,109.2128,160.1538,112.5076,158.7583,112.5744Z" transform="translate(-29.77571 -17.55613)"/>
          <path class="cls-6" d="M144.279,111.4183a18.49165,18.49165,0,0,1-4.3767,1.166c-2.5446.3346-4.7179-.037-5.3572-1.3496-1.7106-3.5009-1.9154-15.046,1.9831-15.5062.0769-.0081.1581-.0155.2344-.0191a8.20043,8.20043,0,0,1,2.2039,1.3522,8.508,8.508,0,0,1,2.6755,4.3601C142.8,105.7573,141.5412,108.3121,144.279,111.4183Z" transform="translate(-29.77571 -17.55613)"/>
          <path class="cls-7" d="M188.5942,116.4302a4.06318,4.06318,0,0,1-4.1391-2.5049c.0112.1219.1191,1.3353-.8286,1.0045-.9949-.3458-.7272-1.8456-.7272-1.8456a2.73343,2.73343,0,0,1-1.0824,1.4893,13.272,13.272,0,0,1-.621-1.1765q-.6225-1.3572-1.2549-2.7068a5.5781,5.5781,0,0,0-.6728-1.4686c.2757.2494,5.3523,4.8052,9.4367,4.1815,2.8609-.437,3.6761-5.033,5.1094-8.3594-.0541,2.2364-1.8877,7.2283-1.8877,7.2283s1.1572-1.1675,1.7635-.7823c.5772.3682-1.0304,1.884-1.1778,2.0257.1176-.0474,1.5336-.5888,1.6887.2204C194.3649,114.5818,191.7721,116.2346,188.5942,116.4302Z" transform="translate(-29.77571 -17.55613)"/>
          <path class="cls-7" d="M144.279,111.4183a18.49165,18.49165,0,0,1-4.3767,1.166c-1.0222-.202-1.8539-.6027-2.0218-1.3467a1.81582,1.81582,0,0,1,1.3935-2.4574s-.9774-.727-1.1041-1.305c-.117-.5501,1.1303.3674,1.248.4583-.0984-.1375-1.046-1.4448-.7582-1.7781.2351-.2687.6303.2322.8003.4725-.2851-.4914-1.2645-2.3871.1449-3.4688,0,0-3.9778-5.0574-.6384-6.0975a8.508,8.508,0,0,1,2.6755,4.3601C142.8,105.7573,141.5412,108.3121,144.279,111.4183Z" transform="translate(-29.77571 -17.55613)"/>
          <g>
            <g>
              <path class="cls-7" d="M185.7063,148.0264a8.433,8.433,0,0,1-6.9268-2.3188,4.72122,4.72122,0,0,1-.8486-1.2592,8.42291,8.42291,0,0,1,.2625-6.7349c.0185-.0479.041-.0943.0634-.1407a6.23835,6.23835,0,0,1,5.2646-3.389c2.6036-.1363,5.8553.9595,6.9812,3.4959a7.13212,7.13212,0,0,1,.5245,3.3685l.0041.0016C190.8166,144.229,188.8465,147.5467,185.7063,148.0264Z" transform="translate(-29.77571 -17.55613)"/>
              <path class="cls-6" d="M185.7063,148.0264a9.01024,9.01024,0,0,1-5.7765-1.2661,6.3099,6.3099,0,0,1-1.5527-1.3098,5.14232,5.14232,0,0,1-.9549-1.8207,7.99781,7.99781,0,0,1-.3402-2.0315,9.34521,9.34521,0,0,1,.7557-4.0548l-.012.0279a6.40417,6.40417,0,0,1,3.4749-3.3616,6.55481,6.55481,0,0,1,2.4016-.4942,9.506,9.506,0,0,1,2.3985.2576,7.09941,7.09941,0,0,1,4.0618,2.5105,5.39531,5.39531,0,0,1,.9518,2.2175,7.94717,7.94717,0,0,1,.0999,2.3602l-.1209-.1886.004.0016.1339.0555-.013.1325a9.33945,9.33945,0,0,1-1.6564,4.4348,6.93758,6.93758,0,0,1-1.6758,1.663A5.15033,5.15033,0,0,1,185.7063,148.0264Zm0,0a5.13276,5.13276,0,0,0,2.162-.8915,6.284,6.284,0,0,0,1.6091-1.696,8.62275,8.62275,0,0,0,1.3668-4.4017l.1207.1879-.004-.0014-.1261-.0431.0052-.1458a7.497,7.497,0,0,0-.2342-2.2149,4.79411,4.79411,0,0,0-.9699-1.9235,6.71575,6.71575,0,0,0-3.7366-2.0512,7.39873,7.39873,0,0,0-4.2548.22,6.08453,6.08453,0,0,0-1.8054,1.1199,5.5045,5.5045,0,0,0-.7243.7851c-.1144.1378-.2042.2928-.3067.4397-.0816.1479-.1922.3234-.247.4456l-.0121.028a8.69007,8.69007,0,0,0-.9329,3.7099,7.53266,7.53266,0,0,0,.198,1.9266,4.79707,4.79707,0,0,0,.784,1.7588,6.949,6.949,0,0,0,3.1786,2.2653A8.13727,8.13727,0,0,0,185.7063,148.0264Z" transform="translate(-29.77571 -17.55613)"/>
            </g>
            <path class="cls-6" d="M181.7709,145.5907a5.09689,5.09689,0,0,0,5.1676-.0358,5.18661,5.18661,0,0,0-2.8648-9.5545c-4.1695.0985-6.004,5.6906-3.4398,8.6711A4.2469,4.2469,0,0,0,181.7709,145.5907Z" transform="translate(-29.77571 -17.55613)"/>
            <path class="cls-8" d="M191.0271,141.0482c-5.9319-6.2471-12.0733-3.6879-12.8337-3.3347.0185-.0479.041-.0943.0634-.1407a6.23835,6.23835,0,0,1,5.2646-3.389c2.6036-.1363,5.8553.9595,6.9812,3.4959A7.13212,7.13212,0,0,1,191.0271,141.0482Z" transform="translate(-29.77571 -17.55613)"/>
          </g>
          <g>
            <g>
              <path class="cls-7" d="M154.8768,147.2931a9.48305,9.48305,0,0,1-8.1159-1.2664,5.31311,5.31311,0,0,1-1.1779-1.2363,9.47187,9.47187,0,0,1-.9769-7.516c.0115-.0567.0277-.1123.0438-.1678a7.0152,7.0152,0,0,1,5.1985-4.7484c2.8608-.6413,6.672-.0386,8.3978,2.5614a8.01926,8.01926,0,0,1,1.2156,3.6357l.0047.0009C159.8272,142.1212,158.2676,146.1701,154.8768,147.2931Z" transform="translate(-29.77571 -17.55613)"/>
              <path class="cls-6" d="M154.8768,147.2931a10.09253,10.09253,0,0,1-6.6386-.3248,7.08376,7.08376,0,0,1-1.9601-1.1638,5.76361,5.76361,0,0,1-1.3902-1.8368,8.95875,8.95875,0,0,1-.7499-2.1831,10.468,10.468,0,0,1,.0889-4.6182l-.0071.0294a7.16644,7.16644,0,0,1,3.2014-4.3417,7.35045,7.35045,0,0,1,2.5508-.9923,10.64714,10.64714,0,0,1,2.693-.167,7.95789,7.95789,0,0,1,4.951,1.9937,6.03093,6.03093,0,0,1,1.4705,2.2611,8.90152,8.90152,0,0,1,.5619,2.5874l-.1499-.1656.0046.0011.1402.0322.0097.1328a10.45742,10.45742,0,0,1-.9838,5.2231,7.758,7.758,0,0,1-1.5404,2.1605A5.78875,5.78875,0,0,1,154.8768,147.2931Zm0,0a5.77214,5.77214,0,0,0,2.2304-1.394,7.09758,7.09758,0,0,0,1.4688-2.1819,9.73756,9.73756,0,0,0,.7041-5.1421l.1496.1649-.0047-.0008-.1313-.0224-.0186-.1433a8.45883,8.45883,0,0,0-.67-2.4219,5.43227,5.43227,0,0,0-1.4393-1.968,7.57065,7.57065,0,0,0-4.5534-1.5953,8.34742,8.34742,0,0,0-4.7089,1.0516,6.86123,6.86123,0,0,0-1.804,1.5972,6.22577,6.22577,0,0,0-.6582,1.0168c-.1013.1759-.172.3664-.258.5501-.0631.1823-.152.3961-.1909.5489l-.0073.0296a9.815,9.815,0,0,0-.3213,4.308,8.48843,8.48843,0,0,0,.5922,2.1035,5.41666,5.41666,0,0,0,1.2113,1.8043,7.85719,7.85719,0,0,0,3.9613,1.9045A9.17717,9.17717,0,0,0,154.8768,147.2931Z" transform="translate(-29.77571 -17.55613)"/>
            </g>
            <path class="cls-6" d="M150.0553,145.3339a5.73168,5.73168,0,0,0,5.7222-1.0126,5.83228,5.83228,0,0,0-4.9748-10.053c-4.6039.8941-5.5849,7.4391-2.181,10.2606A4.77433,4.77433,0,0,0,150.0553,145.3339Z" transform="translate(-29.77571 -17.55613)"/>
            <path class="cls-8" d="M159.4618,138.5553c-7.7525-5.809-14.0792-1.8155-14.8557-1.2809.0115-.0567.0277-.1123.0438-.1678a7.0152,7.0152,0,0,1,5.1985-4.7484c2.8608-.6413,6.672-.0386,8.3978,2.5614A8.01926,8.01926,0,0,1,159.4618,138.5553Z" transform="translate(-29.77571 -17.55613)"/>
          </g>
          <g>
            <path class="cls-6" d="M169.848,143.9446s-1.2303-2.2378-1.9679-2.0446c-.7375.1931-.3764,2.319,1.7032,3.4945,0,0,3.3743-1.8834,2.3358-2.7935C171.2558,142.0197,169.848,143.9446,169.848,143.9446Z" transform="translate(-29.77571 -17.55613)"/>
            <path class="cls-9" d="M164.9576,145.3726a5.01572,5.01572,0,0,0-3.1823,2.2804,4.76256,4.76256,0,0,0,.0931,5.5553,6.1719,6.1719,0,0,0,3.1716,1.8556,12.56765,12.56765,0,0,0,6.8319.45,5.80974,5.80974,0,0,0,2.3407-1.1967,5.27758,5.27758,0,0,0,1.6703-3.9074,5.07236,5.07236,0,0,0-1.7207-3.8208,7.66222,7.66222,0,0,0-4.8225-1.3958A21.04078,21.04078,0,0,0,164.9576,145.3726Z" transform="translate(-29.77571 -17.55613)"/>
          </g>
          <path class="cls-10" d="M179.9967,148.6752a2.17321,2.17321,0,0,0,.2414,3.7363c2.119,1.1308,5.9453.6436,7.6462-1.085a2.57676,2.57676,0,0,0-1.3615-4.199,8.20133,8.20133,0,0,0-4.2649.4228A7.94311,7.94311,0,0,0,179.9967,148.6752Z" transform="translate(-29.77571 -17.55613)"/>
          <path class="cls-10" d="M146.4669,147.8278a2.096,2.096,0,0,0-1.0505,3.4568,7.175,7.175,0,0,0,7.2829,1.6142,2.48482,2.48482,0,0,0,.1947-4.2548,7.927,7.927,0,0,0-4.0002-1.0651A7.68154,7.68154,0,0,0,146.4669,147.8278Z" transform="translate(-29.77571 -17.55613)"/>
          <path class="cls-6" d="M196.9091,134.8233a5.44437,5.44437,0,0,1-1.4203-.2619,1.94682,1.94682,0,0,1-1.3558-1.1501,1.58377,1.58377,0,0,1,.4233-1.4621,4.01427,4.01427,0,0,1,1.3269-.8559q.53985-.2454,1.0778-.4777A26.80013,26.80013,0,0,1,196.9091,134.8233Z" transform="translate(-29.77571 -17.55613)"/>
          <path class="cls-6" d="M196.7553,136.1994a28.94382,28.94382,0,0,1-1.4648,6.1184,9.20255,9.20255,0,0,1-1.3894-.6771c-.8956-.5293-1.805-1.4038-1.6375-2.4347.1397-.8473.9549-1.3986,1.7263-1.7816A26.47666,26.47666,0,0,1,196.7553,136.1994Z" transform="translate(-29.77571 -17.55613)"/>
          <g>
            <path class="cls-6" d="M184.5656,149.8016a33.00091,33.00091,0,0,1,4.0078,1.2025,32.62222,32.62222,0,0,1,3.8478,1.6441,32.62916,32.62916,0,0,1-4.0078-1.2025A33.01846,33.01846,0,0,1,184.5656,149.8016Z" transform="translate(-29.77571 -17.55613)"/>
            <path class="cls-6" d="M193.5088,149.3489a30.81878,30.81878,0,0,1-4.0362-.1922,30.43991,30.43991,0,0,1-3.9868-.6593,30.43947,30.43947,0,0,1,4.0363.1921A30.80286,30.80286,0,0,1,193.5088,149.3489Z" transform="translate(-29.77571 -17.55613)"/>
            <path class="cls-6" d="M192.9872,145.0674a30.79742,30.79742,0,0,1-3.7096,1.6023,30.43556,30.43556,0,0,1-3.8706,1.1609,30.45157,30.45157,0,0,1,3.7097-1.6023A30.78082,30.78082,0,0,1,192.9872,145.0674Z" transform="translate(-29.77571 -17.55613)"/>
          </g>
          <g>
            <path class="cls-6" d="M149.1364,150.6816a33.02752,33.02752,0,0,1-4.1378.6228,32.63779,32.63779,0,0,1-4.1814.1552,32.6204,32.6204,0,0,1,4.1377-.6229A33.00852,33.00852,0,0,1,149.1364,150.6816Z" transform="translate(-29.77571 -17.55613)"/>
            <path class="cls-6" d="M140.5949,147.9927a30.77469,30.77469,0,0,1,4.0243.3653,30.41086,30.41086,0,0,1,3.9548.8298,30.44687,30.44687,0,0,1-4.0244-.3653A30.77571,30.77571,0,0,1,140.5949,147.9927Z" transform="translate(-29.77571 -17.55613)"/>
            <path class="cls-6" d="M142.1773,143.9804a30.78219,30.78219,0,0,1,3.4538,2.0976,30.42894,30.42894,0,0,1,3.187,2.4844,30.45351,30.45351,0,0,1-3.4538-2.0978A30.78959,30.78959,0,0,1,142.1773,143.9804Z" transform="translate(-29.77571 -17.55613)"/>
          </g>
          <path class="cls-6" d="M133.2239,140.6444a3.29692,3.29692,0,0,1-1.4413.3022,12.46418,12.46418,0,0,1-3.4841-.4207,21.73089,21.73089,0,0,1-2.349-5.5797,12.72709,12.72709,0,0,0,3.9294,1.7435,17.65808,17.65808,0,0,1,2.2751.5973,3.14013,3.14013,0,0,1,1.7558,1.4831,1.33835,1.33835,0,0,1-.6859,1.8743Z" transform="translate(-29.77571 -17.55613)"/>
          <path class="cls-6" d="M135.5948,133.0677c-1.8041,1.6549-4.7024.2227-6.5603-.5406-1.3124-.5363-2.5945-1.1463-3.8485-1.7988a28.60886,28.60886,0,0,1,.0381-6.6341c3.5445,1.6293,8.7282,4.2669,9.4387,4.6607a3.84585,3.84585,0,0,1,1.5122,1.3404A2.46331,2.46331,0,0,1,135.5948,133.0677Z" transform="translate(-29.77571 -17.55613)"/>
          <path class="cls-6" d="M134.0704,124.7255a17.17224,17.17224,0,0,1-6.6324-2.4919c-.5613-.3157-1.1149-.6498-1.6529-1.0118a19.65251,19.65251,0,0,1,.8401-2.4997,18.59929,18.59929,0,0,1,1.5883-3.0219c.6398.5827,1.2926,1.16,1.9495,1.7324,1.7647,1.5407,3.7859,2.8021,5.4956,4.3872a2.9196,2.9196,0,0,1,.7586.9677C137.0498,124.2797,135.1633,124.8484,134.0704,124.7255Z" transform="translate(-29.77571 -17.55613)"/>
          <path class="cls-6" d="M166.2257,155.3733l1.6547-5.0011c.2653-.8359.5432-1.6668.7923-2.5054.2567-.8351.5039-1.6764.6811-2.5193l.1725-.8198.2762.7839a25.97257,25.97257,0,0,1,1.2199,4.959,23.54244,23.54244,0,0,1,.229,2.5405,17.42689,17.42689,0,0,1-.121,2.5409,22.414,22.414,0,0,0-.105-2.5272,24.61215,24.61215,0,0,0-.3548-2.4954c-.1649-.8236-.3419-1.6446-.5625-2.4547-.2184-.8085-.4578-1.6197-.7438-2.3971l.4486-.0358c-.1871.8757-.4455,1.7187-.7132,2.559-.279.836-.5583,1.6707-.8749,2.4917q-.4671,1.2342-.9559,2.4584C166.9264,153.7609,166.5947,154.5746,166.2257,155.3733Z" transform="translate(-29.77571 -17.55613)"/>
        </g>
        <g class="cls-11">
          <path class="cls-6" d="M111.1362,91.2064a9.71977,9.71977,0,0,1,1.7642-.4759,3.67867,3.67867,0,0,1,1.8517.0897,1.15319,1.15319,0,0,1,.7223.6937.62657.62657,0,0,1-.1515.548,1.58764,1.58764,0,0,1-.3885.3235,6.38365,6.38365,0,0,1-1.7592.6598l-.0831-.422a10.11746,10.11746,0,0,1,1.5211-.2364,3.13735,3.13735,0,0,1,1.6438.2025.73267.73267,0,0,1,.2529,1.0733,2.1809,2.1809,0,0,1-.6514.6002,6.22245,6.22245,0,0,1-.6964.3877l-.3562.1629-.1807.0759-.0916.0366-.0467.0181-.024.0091-.013.0048-.0256.0084a.39259.39259,0,0,1-.2607-.0176l.305-.6791a6.33737,6.33737,0,0,1,2.5377,2.2047,14.259,14.259,0,0,1,1.5231,2.9054,29.58944,29.58944,0,0,1,1.6452,6.2526,23.50938,23.50938,0,0,1-1.2679,12.7781,19.05165,19.05165,0,0,1-3.3709,5.553,15.90068,15.90068,0,0,1-5.2289,3.8335,21.71371,21.71371,0,0,1-12.6368,1.1048,23.01012,23.01012,0,0,0,12.3634-1.6843,16.73067,16.73067,0,0,0,8.0206-9.1423,23.90946,23.90946,0,0,0,1.1854-12.3004,28.705,28.705,0,0,0-1.5273-6.0728,13.41712,13.41712,0,0,0-1.3994-2.7454,5.59881,5.59881,0,0,0-2.1458-2.0062l.305-.6793a.36123.36123,0,0,0-.2495-.0212c-.0368.0114-.0075.0023-.0145.0045l.0092-.0029.0204-.0066.0417-.0139.0846-.0292.1696-.0617.3351-.1339a5.55471,5.55471,0,0,0,.6342-.3131,1.63821,1.63821,0,0,0,.4765-.3796c.0689-.1253.073-.107-.0354-.213a2.782,2.782,0,0,0-1.3039-.186,13.64845,13.64845,0,0,0-1.4642.1307l-.083-.422a6.048,6.048,0,0,0,1.6728-.5242c.2444-.1314.4749-.3293.4313-.5263a.926.926,0,0,0-.5371-.5363,3.63212,3.63212,0,0,0-1.7429-.1759A9.65021,9.65021,0,0,0,111.1362,91.2064Z" transform="translate(-29.77571 -17.55613)"/>
        </g>
        <path class="cls-6" d="M152.0875,158.1036a16.33067,16.33067,0,0,1,6.1314-1.1533,10.94556,10.94556,0,0,1,3.136.5106,11.26271,11.26271,0,0,1,1.4952.5935,10.45036,10.45036,0,0,1,1.3625.8691,7.21208,7.21208,0,0,1,2.1539,2.4253,14.40868,14.40868,0,0,1,1.2517,2.9492,24.55727,24.55727,0,0,1,1.0069,6.2483,21.95986,21.95986,0,0,1-.6859,6.3049,7.69191,7.69191,0,0,1-1.439,2.9488,2.86189,2.86189,0,0,1-1.5195.9488,3.83516,3.83516,0,0,1-.8588.0557,5.1359,5.1359,0,0,1-.8172-.0499,8.4868,8.4868,0,0,1-5.4501-3.1669,22.2474,22.2474,0,0,1-3.1793-5.3776,24.55694,24.55694,0,0,0,3.5432,5.0491,7.88354,7.88354,0,0,0,5.1588,2.7296,4.45179,4.45179,0,0,0,.7349.0122,3.13064,3.13064,0,0,0,.6871-.0703,2.06283,2.06283,0,0,0,1.0488-.6984,6.87932,6.87932,0,0,0,1.214-2.624,21.17276,21.17276,0,0,0,.5646-6.0314,23.62065,23.62065,0,0,0-.8784-6.0172,9.60352,9.60352,0,0,0-3.0079-5.0334,9.70357,9.70357,0,0,0-1.2195-.8571,10.56136,10.56136,0,0,0-4.3269-1.2322A17.3927,17.3927,0,0,0,152.0875,158.1036Z" transform="translate(-29.77571 -17.55613)"/>
        <path class="cls-6" d="M98.824,146.438c.4708-.9126.9307-1.6641,1.2963-2.4666a10.50368,10.50368,0,0,0,.4989-1.218c.1611-.4232.249-.8647.4143-1.3673a2.78946,2.78946,0,0,1,.3553,1.4965,3.7529,3.7529,0,0,1-.3639,1.5137,4.32389,4.32389,0,0,1-.8992,1.2473A3.21162,3.21162,0,0,1,98.824,146.438Z" transform="translate(-29.77571 -17.55613)"/>
        <path class="cls-6" d="M162.4866,179.9471c.1986-.6797.3555-1.3229.4874-1.9675a16.71529,16.71529,0,0,0,.2819-1.9253,18.36389,18.36389,0,0,0,.0834-1.9475c.0077-.6617-.0454-1.3245-.0344-2.0407a6.42461,6.42461,0,0,1,.946,4.0823,6.70517,6.70517,0,0,1-.5372,2.0701A4.66123,4.66123,0,0,1,162.4866,179.9471Z" transform="translate(-29.77571 -17.55613)"/>
        <path class="cls-6" d="M174.4003,98.0141c-1.0696-.0428-2.1499-.1979-3.2195-.3262a56.325,56.325,0,0,0-16.6589.5401c-3.5297.6471-7.1128,1.6365-10.6478,1.0375a2.7517,2.7517,0,0,1-2.2676-1.3851,2.04388,2.04388,0,0,1,.6364-2.1178,5.60068,5.60068,0,0,1,2.0537-1.0749,56.08644,56.08644,0,0,1,18.4665-3.0805,63.87919,63.87919,0,0,1,8.3322.2621A64.97226,64.97226,0,0,1,174.4003,98.0141Z" transform="translate(-29.77571 -17.55613)"/>
        <path class="cls-6" d="M164.4638,82.9435c-.3851.0161-.7648.0375-1.1445.0695-3.781.3316-7.2251,1.8237-10.7441,2.9575-2.6847.861-7.0058,2.3531-9.3001.0214a2.05528,2.05528,0,0,1-.3369-2.4013c1.2835-3.1499,4.8078-5.1447,8.284-6.5245a46.098,46.098,0,0,1,5.2303-1.6793c.23.1765.4599.3637.6899.5509A63.41018,63.41018,0,0,1,164.4638,82.9435Z" transform="translate(-29.77571 -17.55613)"/>
        <path class="cls-6" d="M147.9011,69.5736a27.19407,27.19407,0,0,1-3.6847,1.9948,32.84546,32.84546,0,0,0-5.5085,3.4976,13.81677,13.81677,0,0,1-2.7916,1.9092,2.71342,2.71342,0,0,1-2.4173.0695,2.3076,2.3076,0,0,1-.968-2.2568,5.58816,5.58816,0,0,1,1.0054-2.3638,23.47468,23.47468,0,0,1,6.8829-6.6636A78.30719,78.30719,0,0,1,147.9011,69.5736Z" transform="translate(-29.77571 -17.55613)"/>
        <path class="cls-6" d="M132.9695,62.8512a28.33849,28.33849,0,0,0-3.781,3.5136c-2.0643,2.2943-3.904,5.0378-6.7758,6.1662a3.00909,3.00909,0,0,1-2.7703-.0535c-.9519-.6631-1.0589-2.0215-.8877-3.166.524-3.5296,2.7114-6.4871,5.3426-8.9846.3369.0802.6791.1605,1.0161.2407C127.6323,61.1826,130.2688,61.9367,132.9695,62.8512Z" transform="translate(-29.77571 -17.55613)"/>
        <path class="cls-6" d="M84.7897,100.3031q-2.17395,1.476-4.3586,2.9574c-1.0376.6952-2.0964,1.3958-3.1821,2.0375a39.16,39.16,0,0,1-2.3477-6.7972c2.5242-.9733,5.1447-1.7702,7.6101-2.4494a5.991,5.991,0,0,1,2.428-.3102,2.17019,2.17019,0,0,1,1.8343,1.4279C87.1214,98.4473,85.886,99.5543,84.7897,100.3031Z" transform="translate(-29.77571 -17.55613)"/>
        <path class="cls-6" d="M87.6187,85.3983a2.46777,2.46777,0,0,1-1.3102,1.5134,20.62265,20.62265,0,0,1-6.9203,2.166q-2.7516.5133-5.4977,1.0321a28.844,28.844,0,0,1,1.0214-6.8935,51.223,51.223,0,0,1,9.5408-.1498,5.17853,5.17853,0,0,1,2.1499.5027A1.86737,1.86737,0,0,1,87.6187,85.3983Z" transform="translate(-29.77571 -17.55613)"/>
        <path class="cls-6" d="M94.5818,76.9912a3.44347,3.44347,0,0,1-3.2248.6846c-3.0644-.599-5.5619-2.7275-8.3375-4.1608a14.80277,14.80277,0,0,0-2.9093-1.123,33.249,33.249,0,0,1,4.3158-4.9041c.5562-.5188,1.1231-1.0054,1.706-1.4707a22.64574,22.64574,0,0,1,3.7222,1.9948c2.2461,1.4653,4.4335,3.3585,5.1608,5.9362A3.23628,3.23628,0,0,1,94.5818,76.9912Z" transform="translate(-29.77571 -17.55613)"/>
        <path class="cls-6" d="M108.401,67.0868a4.22541,4.22541,0,0,1-3.4334,2.6526,4.94118,4.94118,0,0,1-3.9361-2.0483,32.90007,32.90007,0,0,1-2.4013-3.9254,17.17216,17.17216,0,0,0-2.4868-3.166,40.92456,40.92456,0,0,1,10.6371-1.952,11.46666,11.46666,0,0,1,1.8077,3.9468A7.24077,7.24077,0,0,1,108.401,67.0868Z" transform="translate(-29.77571 -17.55613)"/>
      </g>
      <path class="cls-6" d="M187.711,192.6373a9.799,9.799,0,0,0,1.005-3.2499,16.33551,16.33551,0,0,0,.1224-1.6822c.0163-.577-.0031-1.1618.0412-1.7967a4.87448,4.87448,0,0,1,.7351,1.7167,5.6032,5.6032,0,0,1,.0919,1.8951,4.909,4.909,0,0,1-.6291,1.8131A3.181,3.181,0,0,1,187.711,192.6373Z" transform="translate(-29.77571 -17.55613)"/>
    </g>
    <path class="cls-6" d="M153.5469,164.3755c-1.0331,1.9679-3.4195,3.455-4.9243,5.0668-.4898.5342-.9707,1.1131-1.4693,1.6918a23.10162,23.10162,0,0,1-7.7827-5.0845,10.95823,10.95823,0,0,1,1.683-1.6563,15.495,15.495,0,0,1,10.0178-3.4105,3.12948,3.12948,0,0,1,2.3686.8103A2.35818,2.35818,0,0,1,153.5469,164.3755Z" transform="translate(-29.77571 -17.55613)"/>
    <path class="cls-6" d="M140.4925,157.8305a16.3435,16.3435,0,0,1-4.2919,3.1167,35.29284,35.29284,0,0,1-1.9325-7.2841,10.94639,10.94639,0,0,1,4.2654-.3295c1.229.1514,2.6269.6946,2.9208,1.8968A3.02651,3.02651,0,0,1,140.4925,157.8305Z" transform="translate(-29.77571 -17.55613)"/>
    <path class="cls-7" d="M59.9288,145.3467c-.4989-.1179-1.0021-.2181-1.4983-.3458a.37094.37094,0,0,1-.2271-.2173c-.1577-.5724-.2825-1.154-.444-1.7252a.314.314,0,0,1,.0892-.3833c.4635-.4185.9158-.8496,1.3719-1.2765.074-.0692.1455-.141.2717-.2638-.5717-.7315-1.137-1.4549-1.7166-2.1964-.6432.4012-1.2338.7564-1.8089,1.1353a.41171.41171,0,0,1-.5537.0021c-.4503-.3096-.9436-.5562-1.4107-.8425a.33611.33611,0,0,1-.1392-.2444c.0043-.6337.0076-1.2685.0505-1.9003.0206-.3031-.091-.4199-.3681-.4524a1.73567,1.73567,0,0,1-.3125-.097q-.72135-.09555-1.4427-.191a.8787.8787,0,0,1-.162.0256c-.5631-.015-.4675-.0464-.5905.4653-.1498.6235-.289,1.2495-.4139,1.792-.7733.2128-1.496.4116-2.2425.617-.5235-.5591-1.0706-1.1435-1.6212-1.7316a8.90175,8.90175,0,0,0-2.1896,1.7106c.3958.6319.7803,1.249,1.1692,1.8633a.24646.24646,0,0,1,.0058.3174c-.3288.5166-.645,1.0424-.9375,1.5802a.29007.29007,0,0,1-.3204.1803c-.6429-.0234-1.2863-.0319-1.9294-.0526a.24951.24951,0,0,0-.2986.2066,7.93581,7.93581,0,0,0-.2741,2.3805c.0023.1594.0928.1946.2247.2234.6107.1331,1.218.281,1.8294.4099a.3129.3129,0,0,1,.2901.2929c.1417.6703.3223,1.3323.5016,2.051-.5083.4758-1.0851,1.0158-1.6617,1.5556a8.29665,8.29665,0,0,0,1.707,2.2319c.6875-.4353,1.3563-.8587,1.962-1.2422.5883.3173,1.1276.6263,1.6846.8989a.39828.39828,0,0,1,.2697.4443c-.0347.6143-.0455,1.2302-.0596,1.8455-.0028.1216-.0404.2762.1571.3008q1.20525.1503,2.4103.3012c.1708.0212.2425-.0607.2779-.2274.1318-.6202.2908-1.2349.4121-1.857.0468-.24.1734-.2965.3855-.3457a14.569,14.569,0,0,0,1.5543-.4328.34994.34994,0,0,1,.4647.1142c.4686.5295.958,1.0406,1.4293,1.5479a7.9551,7.9551,0,0,0,2.2264-1.7398c-.3868-.6059-.7717-1.2227-1.1736-1.8283a.3019.3019,0,0,1,.0109-.3891c.2873-.4768.5411-.9737.8236-1.4536a.368.368,0,0,1,.2643-.1624c.5687.0065,1.1373.0328,1.7055.0592.3177.0147.4458.0219.5241-.088l.339-2.5601C60.4819,145.4789,60.3324,145.4421,59.9288,145.3467Zm-4.5331.8624a4.17951,4.17951,0,0,1-4.6919,3.5947h-.0001a4.17949,4.17949,0,0,1-3.5946-4.6919h0a4.17943,4.17943,0,0,1,4.6919-3.5947h0a4.17951,4.17951,0,0,1,3.5947,4.6919Z" transform="translate(-29.77571 -17.55613)"/>
    <path class="cls-12" d="M68.608,119.6784c-.4793.1817-.9524.3803-1.435.5525a.37236.37236,0,0,1-.3091-.0508c-.4487-.3792-.8753-.7842-1.3266-1.1602a.30628.30628,0,0,1-.1389-.3624c.152-.5997.2878-1.2034.429-1.8057.023-.0977.0424-.1961.0789-.3666-.8806-.2784-1.7514-.5537-2.6441-.8358-.3107.6856-.6034,1.3044-.8699,1.9339a.41513.41513,0,0,1-.4581.3102c-.5456-.0017-1.0918.0719-1.6383.0985a.3335.3335,0,0,1-.2513-.1219c-.3483-.5194-.6982-1.0392-1.0136-1.5785a.35658.35658,0,0,0-.5567-.1641,1.74649,1.74649,0,0,1-.313.0949q-.65145.324-1.303.6479a.88338.88338,0,0,1-.1201.1111c-.4754.3014-.4137.2226-.2314.7086.2221.5921.4543,1.1804.6521,1.6926-.5234.6044-1.0124,1.1692-1.5176,1.7526-.7448-.1646-1.5233-.3366-2.3067-.5097a8.79842,8.79842,0,0,0-.8662,2.6153c.6794.2952,1.3411.5845,2.0049.869a.24108.24108,0,0,1,.1811.2557c.0142.6046.044,1.2098.1,1.8115a.28835.28835,0,0,1-.1656.3256c-.5463.339-1.0847.6906-1.6297,1.0318a.24743.24743,0,0,0-.133.335,7.72869,7.72869,0,0,0,1.0949,2.0948c.0905.1289.1851.1072.3106.0571.5805-.2315,1.1664-.4491,1.7452-.6846a.31312.31312,0,0,1,.4033.0774c.4899.4679,1.0075.9074,1.5554,1.3939-.1573.6714-.3359,1.4333-.5143,2.1949a8.28077,8.28077,0,0,0,2.6557.8701c.3285-.7381.6482-1.4562.9376-2.1065.6643-.0689,1.2833-.1171,1.8968-.205a.3955.3955,0,0,1,.4705.2122c.3125.5206.6456,1.0291.9757,1.539.0652.1008.1199.2478.2974.1579q1.0833-.54885,2.1667-1.097c.1536-.0778.1676-.1846.1043-.3403-.2352-.5794-.4447-1.1695-.6897-1.7447-.0945-.2218-.0208-.3384.1278-.4968a14.63511,14.63511,0,0,0,1.049-1.2189.35349.35349,0,0,1,.4489-.1656c.6828.1709,1.3727.3152,2.0455.4666a7.86314,7.86314,0,0,0,.8805-2.6597c-.6575-.2788-1.3194-.5676-1.9891-.8379-.1675-.0676-.199-.1533-.2072-.3235-.0264-.549-.092-1.0959-.1241-1.6448a.36475.36475,0,0,1,.1291-.2797c.4753-.3115.9616-.6067,1.4476-.9017.2717-.165.382-.2306.3859-.3638l-1.1409-2.2776C69.1403,119.4782,68.9958,119.5314,68.608,119.6784Zm-4.5053,3.8373a2.78314,2.78314,0,0,1-1.2754,3.7323v.0001a2.80342,2.80342,0,0,1-3.7604-1.2285h0a2.78333,2.78333,0,0,1,1.2755-3.7324h0a2.80336,2.80336,0,0,1,3.7604,1.2285Z" transform="translate(-29.77571 -17.55613)"/>
  </g>
</svg>
