<svg id="OBJECTS" xmlns="http://www.w3.org/2000/svg" viewBox="0 0 213.47931 188.6902">
  <defs>
    <style>
      .cls-1 {
        fill: #b8f0e7;
      }

      .cls-17, .cls-2 {
        fill: #f09c46;
      }

      .cls-13, .cls-3, .cls-4, .cls-8, .cls-9 {
        fill: #973433;
      }

      .cls-3 {
        opacity: 0.2;
      }

      .cls-5 {
        fill: #f8c794;
      }

      .cls-6 {
        fill: #cc4a4a;
      }

      .cls-14, .cls-6, .cls-8 {
        opacity: 0.48;
      }

      .cls-15, .cls-7 {
        fill: #fff;
      }

      .cls-9 {
        opacity: 0.21;
      }

      .cls-10 {
        fill: #e05656;
      }

      .cls-11 {
        fill: #98e0c1;
      }

      .cls-12, .cls-16 {
        fill: none;
        stroke-miterlimit: 10;
      }

      .cls-12 {
        stroke: #98e0c1;
      }

      .cls-13 {
        opacity: 0.23;
      }

      .cls-15 {
        opacity: 0.39;
      }

      .cls-16 {
        stroke: #973433;
      }

      .cls-17 {
        font-size: 13.26373px;
        font-family: Baloo;
      }
    </style>
  </defs>
  <g>
    <path class="cls-1" d="M405.01,71.2877C387.48919,61.5874,366.54149,58.506,346.60379,60.56c-16.13779,1.6624-32.5036,7.2716-44.30579,18.7823-26.07111,25.427-28.19361,70.1919-1.88621,95.929,16.5354,16.1769,38.9023,25.6736,61.6859,28.5888,21.8444,2.795,48.9768,1.3517,65.9786-14.9826,12.3989-11.912,16.4963-30.0895,17.2549-47.2666,1.007-22.8018-9.2858-45.1218-26.1507-60.2676A76.90127,76.90127,0,0,0,405.01,71.2877Z" transform="translate(-259.52069 -43.7777)"/>
    <g>
      <g>
        <path class="cls-2" d="M449.791,172.1287a23.16838,23.16838,0,0,0-2.23391.8602c-2.4877,1.1448-4.0967,3.0074-6.0088,9.5174-.724,2.4505-1.4356,5.229-2.4134,7.9828a30.75744,30.75744,0,0,1-3.3415,6.9184v.0062c-2.8777,4.2575-7.265,7.4939-14.5919,7.8219h-.0062a15.1988,15.1988,0,0,1-8.0446-1.7884c-8.76869-4.734-11.5102-17.1227-11.5102-17.1227l4.1586-6.6524.3712-.7488s2.5372,20.2169,15.0683,20.2293c.3342,0,.6807-.0124,1.0335-.0433a8.51311,8.51311,0,0,0,4.8515-2.0236c2.9765-2.5062,4.8392-6.9865,6.4171-11.7762,1.1759-3.5643,2.203-7.302,3.42831-10.5261v-.0062a19.14454,19.14454,0,0,1,3.85529-6.776,6.394,6.394,0,0,1,3.1374-1.807c4.9382-1.1139,7.3639.1176,8.09431,1.8317C452.82939,169.8267,451.77739,171.448,449.791,172.1287Z" transform="translate(-259.52069 -43.7777)"/>
        <path class="cls-3" d="M449.791,172.1287a23.16838,23.16838,0,0,0-2.23391.8602c-2.4877,1.1448-4.0967,3.0074-6.0088,9.5174-.724,2.4505-1.4356,5.229-2.4134,7.9828a30.75744,30.75744,0,0,1-3.3415,6.9184v.0062c-2.8777,4.2575-7.265,7.4939-14.5919,7.8219h-.0062a15.1988,15.1988,0,0,1-8.0446-1.7884c-8.76869-4.734-11.5102-17.1227-11.5102-17.1227l4.1586-6.6524.3712-.7488s2.5372,20.2169,15.0683,20.2293c.3342,0,.6807-.0124,1.0335-.0433a8.51311,8.51311,0,0,0,4.8515-2.0236c2.9765-2.5062,4.8392-6.9865,6.4171-11.7762,1.1759-3.5643,2.203-7.302,3.42831-10.5261v-.0062a19.14454,19.14454,0,0,1,3.85529-6.776,6.394,6.394,0,0,1,3.1374-1.807c4.9382-1.1139,7.3639.1176,8.09431,1.8317C452.82939,169.8267,451.77739,171.448,449.791,172.1287Z" transform="translate(-259.52069 -43.7777)"/>
      </g>
      <path class="cls-4" d="M449.791,172.1287a23.16838,23.16838,0,0,0-2.23391.8602c.0741-1.6585,1.8565-3.4222,1.8565-3.4222a12.14941,12.14941,0,0,1-8.5893-1.5655,6.394,6.394,0,0,1,3.1374-1.807c4.9382-1.1139,7.3639.1176,8.09431,1.8317C452.82939,169.8267,451.77739,171.448,449.791,172.1287Z" transform="translate(-259.52069 -43.7777)"/>
      <path class="cls-4" d="M438.46659,181.5657a6.25317,6.25317,0,0,1-4.9259,3.7438c1.1759-3.5643,2.203-7.302,3.42831-10.5261C438.04569,176.3181,439.40719,178.9543,438.46659,181.5657Z" transform="translate(-259.52069 -43.7777)"/>
      <path class="cls-4" d="M439.13489,190.4891a30.75744,30.75744,0,0,1-3.3415,6.9184c-.6375-1.677-1.1325-3.7191-.551-5.2105C435.91079,190.4767,437.71769,190.3159,439.13489,190.4891Z" transform="translate(-259.52069 -43.7777)"/>
      <path class="cls-4" d="M424.73489,202.0239c-1.7945.1238-2.8775-1.4047-3.4963-2.8713.3342,0,.6807-.0124,1.0335-.0433a8.51311,8.51311,0,0,0,4.8515-2.0236C427.27209,198.7813,427.19779,201.8568,424.73489,202.0239Z" transform="translate(-259.52069 -43.7777)"/>
      <path class="cls-4" d="M421.20149,205.2356h-.0062a15.1988,15.1988,0,0,1-8.0446-1.7884C417.18529,201.0462,419.86489,203.3915,421.20149,205.2356Z" transform="translate(-259.52069 -43.7777)"/>
    </g>
    <path class="cls-2" d="M440.96659,149.1457a5.02176,5.02176,0,0,0-1.6461-3.0632c-.427-2.3701-3.6694-2.5496-5.5013-2.0174a35.50607,35.50607,0,0,0-5.2908.7674c-5.4395,1.2129-14.14639,5.6622-14.14639,5.6622a29.79171,29.79171,0,0,0-3.53341-9.9135,24.75662,24.75662,0,0,0-3.5954-4.7649,17.90711,17.90711,0,0,0-4.2574-3.35l-.0331-.0959a24.7335,24.7335,0,0,0,6.1559-7.8218,26.43694,26.43694,0,0,0,2.459-7.9851c.1202-.8086.2071-1.6238.2673-2.459q.0399-.6015.06011-1.2028v-.0468a40.72816,40.72816,0,0,0-.481-7.5039c-.03351-.1939-.06031-.3809-.09371-.5748-.0534-.3273-.1135-.6615-.1736-.9956-.0403-.2004-.0803-.4009-.1271-.6014a19.04154,19.04154,0,0,0-2.4194-5.9888l.0071.0017c-.1469-.2806-5.0716-9.268-6.555-13.5648-1.5102-4.3566-2.4056-9.9629-4.9782-10.1433h-.0066c-2.3322-.1604-7.6578,4.7777-8.8406,10.4708l-.0011.0063c-1.2325-.3649-2.5049-.7106-3.8344-1.0286-.20039-.0468-.4075-.1003-.6148-.1403-1.9377-.4544-3.9692-.8554-6.1074-1.2028h-.0067c-.8753-.1404-1.7706-.2739-2.6794-.401q-5.88375-.8118-12.7026-1.136c-.1471-.0066-.2942-.0133-.4344-.0199-.5079-.0201-1.00909-.0402-1.4968-.0469-1.3365-.0333-2.6194-.0266-3.8624.0067l-.16689-.1669c-.70171-.7284-1.59711-1.7976-1.704-1.9177-1.38321-1.6239-2.20511-3.7555-3.41451-5.4996-1.75749-2.539-4.4972-4.4035-7.7848-3.8021a1.38255,1.38255,0,0,0-.5745.2539,3.82223,3.82223,0,0,0-1.156,1.7775,21.11407,21.11407,0,0,0-.087,11.6937c.0201.0668.0469.1403.0735.2071a26.39436,26.39436,0,0,0-13.2105,9.9297c-.2003.2872-.3874.5813-.5746.8752A30.23825,30.23825,0,0,0,325.933,97.005c-.02661.0602-.05341.1202-.07341.1804-.2874.6348-.5479,1.2763-.78859,1.9244-.11351.3007-.22041.5947-.32061.8955a44.22955,44.22955,0,0,0-1.2897,4.6105c-.0402.1738-.0735.3476-.1069.5147-.0402.1804-.0735.3541-.1069.5278-.1604.8219-.2806,1.6305-.3676,2.4189-.0066.0402-.0066.0735-.01329.1137-.11361.9889-.17371,1.9512-.19381,2.8866q-.01005.6414,0,1.2629a30.9719,30.9719,0,0,0,4.08281,14.861c.05889.1015.11429.1927.17079.2869-5.3997,7.8148-8.07279,18.4713-8.07279,18.4713v16.6849l3.38959,6.2951c.1105,4.0493.2608,8.1141.523,12.1682.3218,4.9815.7921,9.9506,1.5409,14.8702.4457,2.9703.9964,5.9221,1.6709,8.843.3342,1.4666.7055,2.9332,1.1077,4.3812.5383,1.9369,1.1324,3.8614,1.8008,5.7674q1.0767,3.08175,2.4008,6.0893.08235.18225.1642.3647l.0023.0084s-3.8864,2.3569-3.8864,4.8891c0,1.2538,15.6708,6.6443,24.4461,1.003a33.34722,33.34722,0,0,0,1.891-6.1848h.0008l.0028-.0162a46.64346,46.64346,0,0,0,1.0222-10.6647,54.50058,54.50058,0,0,0,12.2735.7797l1.4277,10.754v.5013s-3.4202,2.9502-3.6881,5.3321c-.268,2.3818,17.9196,8.7683,37.7261-.3812l.00511.0008.00979-.0243a17.35571,17.35571,0,0,0,1.2663-4.3395l.00491-.0175c.41459-1.4975.89729-3.3478,1.41079-5.5074.5756-2.3764,1.1945-5.1364,1.7947-8.2057q.3525-1.77285.6993-3.6881c.4146-2.2959.8107-4.7278,1.1819-7.2774.2599-1.8316.5074-3.7252.7364-5.6683.2907-2.5186.5506-5.13.75491-7.8096.099-1.2562.17939-2.5248.25369-3.8057.0557-1.0025.1052-2.0112.1424-3.026a25.98286,25.98286,0,0,0,8.4221-1.3491,27.77159,27.77159,0,0,0,8.9976-5.13,35.4008,35.4008,0,0,0,4.8083-4.932C438.875,159.5605,441.36259,151.3672,440.96659,149.1457Z" transform="translate(-259.52069 -43.7777)"/>
    <path class="cls-5" d="M325.98239,165.4597s6.9738-19.8295,31.8888-16.3479c21.3656,2.9855,30.9597,48.941,11.1419,60.7752-12.5702,7.5064-33.2082-2.8559-39.2329-14.4935C321.55539,179.5057,325.98239,165.4597,325.98239,165.4597Z" transform="translate(-259.52069 -43.7777)"/>
    <path class="cls-4" d="M399.02189,89.4609a23.94512,23.94512,0,0,0-6.809-4.1628,30.16519,30.16519,0,0,0-3.97589-1.3432c1.18269-5.6931,6.50829-10.6314,8.84039-10.4709h.00661a10.39339,10.39339,0,0,1-.28731,6.3079,9.47591,9.47591,0,0,0-.2338.9822A10.17128,10.17128,0,0,0,399.02189,89.4609Z" transform="translate(-259.52069 -43.7777)"/>
    <path class="cls-4" d="M350.55,80.3732s-3.59511.7217-6.53521,1.3899c-.9021.2005-1.7506.4009-2.4055.568a21.11216,21.11216,0,0,1,.0869-11.6937,3.82147,3.82147,0,0,1,1.156-1.7775s1.1827.5948,2.0113,3.4882c.3006,1.0557.5613,2.0647.882,3.0002A7.16952,7.16952,0,0,0,350.55,80.3732Z" transform="translate(-259.52069 -43.7777)"/>
    <path class="cls-6" d="M379.02389,114.6851a2.9756,2.9756,0,0,0-1.2685,4.9697c2.2841,2.3699,7.4809,3.3544,10.43161,1.8227,2.49129-1.2932,2.07169-4.8989.004-6.0464a11.25478,11.25478,0,0,0-5.74151-1.2543A10.90872,10.90872,0,0,0,379.02389,114.6851Z" transform="translate(-259.52069 -43.7777)"/>
    <path class="cls-6" d="M343.638,108.6594a2.887,2.887,0,0,1-.84111,4.9048c-2.961,1.1965-7.9547.0138-9.9634-2.5103-1.6958-2.1308.1019-5.1597,2.3876-5.3586a10.91962,10.91962,0,0,1,5.58291,1.1591A10.5799,10.5799,0,0,1,343.638,108.6594Z" transform="translate(-259.52069 -43.7777)"/>
    <path class="cls-4" d="M374.99309,81.1885c-2.8733,2.145-5.1653,5.5861-6.97609,8.1722-.99571,1.4166-1.91781,2.8867-2.78651,4.3834a4.2049,4.2049,0,0,1-3.1473,2.2854,4.35051,4.35051,0,0,1-3.9424-2.5994,8.51923,8.51923,0,0,1-.3609-5.9071,17.07475,17.07475,0,0,1,4.0762-7.4905c.1402.0067.2873.0133.4343.02Q369.10609,80.3732,374.99309,81.1885Z" transform="translate(-259.52069 -43.7777)"/>
    <path class="cls-7" d="M356.71979,156.7678a.03477.03477,0,0,0,0,.0695A.03477.03477,0,0,0,356.71979,156.7678Z" transform="translate(-259.52069 -43.7777)"/>
    <path class="cls-4" d="M328.59919,107.3222a8.80988,8.80988,0,0,1-5.3523-1.6639c.0334-.1737.0668-.3474.1069-.5279.0334-.167.0668-.3408.1068-.5146a44.27946,44.27946,0,0,1,1.2898-4.6105C328.04469,103.4933,332.094,107.0281,328.59919,107.3222Z" transform="translate(-259.52069 -43.7777)"/>
    <path class="cls-4" d="M327.53679,112.0397a8.72174,8.72174,0,0,1-4.8645.3007q-.0102-.6213,0-1.2629c.02-.9354.0801-1.8977.1936-2.8866.0068-.0401.0068-.0735.0135-.1137C326.39409,109.3603,329.77529,110.9438,327.53679,112.0397Z" transform="translate(-259.52069 -43.7777)"/>
    <path class="cls-4" d="M328.82649,98.9829a6.92273,6.92273,0,0,1-2.9669-1.7975c.02-.0602.0467-.1202.0735-.1804a30.23832,30.23832,0,0,1,1.9646-3.6619C329.73519,96.4236,331.16509,99.5108,328.82649,98.9829Z" transform="translate(-259.52069 -43.7777)"/>
    <path class="cls-4" d="M383.78659,82.7922c-.7683.6883-1.6303,1.4567-2.2518,2.038-1.9645,1.8443-4.08279,4.4704-5.4926,4.6508-2.9468.3809-3.8623-2.5459-1.724-5.2589a9.9456,9.9456,0,0,1,3.3544-2.6327h.0066C379.81749,81.9368,381.84889,82.3378,383.78659,82.7922Z" transform="translate(-259.52069 -43.7777)"/>
    <path class="cls-4" d="M360.35919,79.9857c-1.6705,1.7907-3.5749,4.878-5.14519,5.2522-2.36551.5612-3.98921-1.39-2.88661-2.5794a14.96141,14.96141,0,0,1,3.2942-2.6394Q357.88689,79.929,360.35919,79.9857Z" transform="translate(-259.52069 -43.7777)"/>
    <path class="cls-8" d="M383.90289,138.713c.8837-.2632,1.76811-.5181,2.6418-.8048.87431-.2812,1.7492-.565,2.5906-.9133l.464-.192-.2362.4567a3.6042,3.6042,0,0,0-.286.7243.823.823,0,0,0,.00791.6121.279.279,0,0,0,.197.0905.4497.4497,0,0,0,.24879-.0968,2.72539,2.72539,0,0,0,.5345-.5332,9.86692,9.86692,0,0,0,.8745-1.3548,10.98031,10.98031,0,0,0,.6808-1.4547l.2925-.8069.1963.8312a5.79713,5.79713,0,0,0,.4053,1.1788c.1752.3586.4347.7161.70531.6731.29429-.0196.602-.3465.82219-.6818a6.60819,6.60819,0,0,0,.572-1.1173l.0576-.1424.1431.0094a13.11121,13.11121,0,0,0,2.9702-.1599,11.316,11.316,0,0,0,1.4655-.3157,11.77729,11.77729,0,0,0,1.4178-.5095,8.86626,8.86626,0,0,1-1.3752.6395,11.48,11.48,0,0,1-1.4605.4346,13.34461,13.34461,0,0,1-3.0444.3065l.2006-.133a5.45929,5.45929,0,0,1-.5772,1.2296,2.87186,2.87186,0,0,1-.4461.5508,1.22252,1.22252,0,0,1-.7093.3516.85876.85876,0,0,1-.4378-.0756,1.15918,1.15918,0,0,1-.3304-.2442,2.53429,2.53429,0,0,1-.4076-.5975,6.25057,6.25057,0,0,1-.4666-1.2847l.4887.0242a10.434,10.434,0,0,1-.7375,1.5318,10.32213,10.32213,0,0,1-.941,1.4079,3.12645,3.12645,0,0,1-.6465.6174.8659.8659,0,0,1-.5212.1636.70727.70727,0,0,1-.5197-.2698,1.11935,1.11935,0,0,1-.0529-.9871,3.96135,3.96135,0,0,1,.35821-.7963l.22779.2646c-.878.3117-1.7659.5675-2.66179.7914C385.70979,138.3454,384.81139,138.553,383.90289,138.713Z" transform="translate(-259.52069 -43.7777)"/>
    <path class="cls-8" d="M325.313,123.4757c.458.9072.91869,1.8111,1.42049,2.6893.2454.4416.5024.8758.7761,1.2956a5.57952,5.57952,0,0,0,.9181,1.1302l.0856.0745-.0125.1223a6.52847,6.52847,0,0,0-.0209,1.2916c.0342.4066.1763.8642.4134.9301.1121.0342.1769.0191.2876-.1251a1.87971,1.87971,0,0,0,.2308-.5331,6.545,6.545,0,0,0,.2026-1.2679l.08471-1.0857.42209.9982a11.47843,11.47843,0,0,0,.6327,1.2722,5.20875,5.20875,0,0,0,.8168,1.1119,1.02326,1.02326,0,0,0,.4961.3047c.1782.03.3314.0003.3937-.1272a1.95136,1.95136,0,0,0-.044-1.2538l-.1561-.5467.4425.3354a22.33264,22.33264,0,0,0,2.0186,1.3378,12.201,12.201,0,0,0,2.1942,1.0452,10.42475,10.42475,0,0,1-2.30359-.8413,18.39075,18.39075,0,0,1-2.12931-1.2406l.2862-.2114a3.80026,3.80026,0,0,1,.183.7509,1.467,1.467,0,0,1-.0994.8424.699.699,0,0,1-.3897.3353.9593.9593,0,0,1-.4742.0356,1.4674,1.4674,0,0,1-.7489-.4079,5.12171,5.12171,0,0,1-.9293-1.2101,11.96141,11.96141,0,0,1-.67639-1.3311l.50669-.0874a6.37816,6.37816,0,0,1-.2289,1.3882,2.34888,2.34888,0,0,1-.31579.6919c-.04891.0561-.09521.1125-.15021.1651a1.01048,1.01048,0,0,1-.2144.1324.71226.71226,0,0,1-.5123.0005,1.01757,1.01757,0,0,1-.5739-.6419,2.87812,2.87812,0,0,1-.1401-.7243,6.28026,6.28026,0,0,1,.0665-1.398l.0731.1966a5.88248,5.88248,0,0,1-.9363-1.2723c-.2578-.4448-.4947-.8977-.7189-1.3557C326.058,125.368,325.65549,124.4334,325.313,123.4757Z" transform="translate(-259.52069 -43.7777)"/>
    <g>
      <g>
        <path class="cls-7" d="M388.94629,111.6105a13.16705,13.16705,0,0,1-11.393.5211,7.37749,7.37749,0,0,1-1.9444-1.3565,13.15077,13.15077,0,0,1-3.40789-9.9563c0-.0802.00669-.1603.01329-.2406a9.73993,9.73993,0,0,1,5.7599-7.8982c3.7153-1.6638,9.0677-1.8978,12.13481,1.1627a11.137,11.137,0,0,1,2.65949,4.6107h.0067C394.25189,103.2044,393.24959,109.1448,388.94629,111.6105Z" transform="translate(-259.52069 -43.7777)"/>
        <path class="cls-4" d="M388.94629,111.6105a13.92475,13.92475,0,0,1-9.1176,1.3713,9.81147,9.81147,0,0,1-2.9718-1.0553,7.944,7.944,0,0,1-2.3721-2.1152,12.36867,12.36867,0,0,1-1.5983-2.756,14.44159,14.44159,0,0,1-1.1124-6.2694l-.0012.0329a9.86607,9.86607,0,0,1,3.1312-6.691,10.16247,10.16247,0,0,1,3.1556-2.0281,14.67045,14.67045,0,0,1,3.5827-.9673,10.98423,10.98423,0,0,1,7.217,1.2963,8.28975,8.28975,0,0,1,2.6127,2.6274,12.30793,12.30793,0,0,1,1.4911,3.3374l-.1947-.1438.0066.0001.1544.0035.04.1397a14.47633,14.47633,0,0,1,.5509,3.6801,14.19207,14.19207,0,0,1-.4059,3.6785,10.666,10.666,0,0,1-1.4873,3.3667A8.03467,8.03467,0,0,1,388.94629,111.6105Zm0,0a8.01925,8.01925,0,0,0,2.6533-2.511,9.95379,9.95379,0,0,0,1.40641-3.374,12.60391,12.60391,0,0,0,.27139-3.642,14.15265,14.15265,0,0,0-.6966-3.5697l.1943.1431-.0066.0002-.14549.0032-.04931-.1472a11.81912,11.81912,0,0,0-1.5702-3.1378,7.63889,7.63889,0,0,0-2.5162-2.3222,8.95322,8.95322,0,0,0-3.256-1.0265,12.06025,12.06025,0,0,0-3.4516.068,11.657,11.657,0,0,0-6.1923,2.7652,10.151,10.151,0,0,0-1.1422,1.2652,10.54686,10.54686,0,0,0-.895,1.4509,8.77086,8.77086,0,0,0-.6168,1.5908c-.0891.2716-.1323.5543-.1981.8323-.035.2723-.0965.5832-.1062.8198l-.0013.0331a13.73159,13.73159,0,0,0,.7979,5.9894,11.87176,11.87176,0,0,0,1.4132,2.7055,7.56877,7.56877,0,0,0,2.1748,2.1193,11.01185,11.01185,0,0,0,5.9386,1.471A12.81513,12.81513,0,0,0,388.94629,111.6105Z" transform="translate(-259.52069 -43.7777)"/>
      </g>
      <path class="cls-4" d="M381.84429,110.2779a7.95816,7.95816,0,0,0,7.5058-2.9601,8.09783,8.09783,0,0,0-9.549-12.3027c-6.01709,2.4897-5.5418,11.6664-.13,14.564A6.63154,6.63154,0,0,0,381.84429,110.2779Z" transform="translate(-259.52069 -43.7777)"/>
      <path class="cls-9" d="M392.76849,98.4534c-12.1548-5.76-19.6588,1.4233-20.56749,2.3654,0-.0802.00669-.1603.01329-.2406a9.73993,9.73993,0,0,1,5.7599-7.8982c3.7153-1.6638,9.0677-1.8978,12.13481,1.1627A11.137,11.137,0,0,1,392.76849,98.4534Z" transform="translate(-259.52069 -43.7777)"/>
    </g>
    <g>
      <g>
        <path class="cls-7" d="M349.50179,102.1953c-1.5434,2.8132-5.0716,3.8823-8.0786,3.7754a6.66314,6.66314,0,0,1-1.2161-.1669c-4.77109-1.1161-7.5775-7.5776-5.8067-12.1081a6.48726,6.48726,0,0,1,.6882-1.3365c2.4725-3.6751,8.80041-5.0649,12.4889-2.4723a5.93532,5.93532,0,0,1,1.8709,2.6328,13.14316,13.14316,0,0,1,.6883,2.2251A11.03948,11.03948,0,0,1,349.50179,102.1953Z" transform="translate(-259.52069 -43.7777)"/>
        <path class="cls-4" d="M349.50179,102.1953a6.65767,6.65767,0,0,1-1.0077,1.3588,7.22434,7.22434,0,0,1-1.3267,1.0542,9.65767,9.65767,0,0,1-3.1558,1.2324,11.99168,11.99168,0,0,1-1.6911.2358,8.089,8.089,0,0,1-1.721-.0318,7.37085,7.37085,0,0,1-3.1894-1.3331,10.17772,10.17772,0,0,1-3.7208-5.7889,10.04172,10.04172,0,0,1-.2274-3.5299l.1664-.8839c.0745-.2901.1748-.574.2624-.8611a6.46594,6.46594,0,0,1,.8132-1.6236,9.42879,9.42879,0,0,1,5.9508-3.6497,10.376,10.376,0,0,1,3.50531-.0923A7.96975,7.96975,0,0,1,347.43549,89.5a4.22032,4.22032,0,0,1,1.2711,1.2282,7.63972,7.63972,0,0,1,.8085,1.5353,14.37485,14.37485,0,0,1,.8532,3.3044,13.53025,13.53025,0,0,1,.0823,3.3922A8.48674,8.48674,0,0,1,349.50179,102.1953Zm0,0a10.288,10.288,0,0,0,.72521-6.6041,13.30659,13.30659,0,0,0-1.00781-3.1992,5.10166,5.10166,0,0,0-2.0586-2.459,8.609,8.609,0,0,0-6.3184-.6981,10.08946,10.08946,0,0,0-2.9843,1.2222,7.51921,7.51921,0,0,0-2.3116,2.142,5.46135,5.46135,0,0,0-.7149,1.3899c-.0785.2527-.1717.5017-.2409.7572l-.15649.7804a9.43,9.43,0,0,0,.111,3.2073,9.5878,9.5878,0,0,0,3.17569,5.5757,6.95841,6.95841,0,0,0,2.9307,1.4204,7.81813,7.81813,0,0,0,1.6598.1223,9.78973,9.78973,0,0,0,1.6739-.151,9.21153,9.21153,0,0,0,3.1622-1.1259,7.19018,7.19018,0,0,0,1.333-1.035A6.64438,6.64438,0,0,0,349.50179,102.1953Z" transform="translate(-259.52069 -43.7777)"/>
      </g>
      <path class="cls-4" d="M338.75289,101.8275c.1903.1673,1.9514,2.435,5.9804,1.3018,4.0288-1.133,3.7142-6.2949,3.1475-7.9946-.5665-1.6998-2.5809-5.225-7.1765-4.0918C336.109,92.176,335.47939,98.952,338.75289,101.8275Z" transform="translate(-259.52069 -43.7777)"/>
      <path class="cls-9" d="M350.13669,94.7448c-5.3124-3.2342-12.1948-2.0247-15.7363-1.0491a6.48726,6.48726,0,0,1,.6882-1.3365c2.4725-3.6751,8.80041-5.0649,12.4889-2.4723a5.93532,5.93532,0,0,1,1.8709,2.6328A13.14316,13.14316,0,0,1,350.13669,94.7448Z" transform="translate(-259.52069 -43.7777)"/>
    </g>
    <path class="cls-4" d="M377.73189,232.4679a3.37993,3.37993,0,0,1-.5438-1.6666,2.8873,2.8873,0,0,1,.509-1.7469,3.8493,3.8493,0,0,1,1.3562-1.1765,5.11766,5.11766,0,0,1,1.6536-.5509c-.4991.295-.9878.5766-1.4336.9013a4.74574,4.74574,0,0,0-1.1391,1.1257,3.05329,3.05329,0,0,0-.53419,1.4582A6.00265,6.00265,0,0,0,377.73189,232.4679Z" transform="translate(-259.52069 -43.7777)"/>
    <path class="cls-4" d="M369.53069,231.1429a4.43615,4.43615,0,0,1-.3201-1.4503,4.93262,4.93262,0,0,1,.1265-1.502,3.74834,3.74834,0,0,1,.6726-1.3763,2.662,2.662,0,0,1,1.2456-.8407,4.97131,4.97131,0,0,0-.907,1.0784,5.37543,5.37543,0,0,0-.4977,1.2688,9.09935,9.09935,0,0,0-.228,1.3778C369.57909,230.1697,369.55119,230.6479,369.53069,231.1429Z" transform="translate(-259.52069 -43.7777)"/>
    <path class="cls-8" d="M378.94589,215.0588a1.7361,1.7361,0,0,0,.4427.8731,1.09519,1.09519,0,0,0,.8599.3035,1.1177,1.1177,0,0,0,.79351-.373,1.60054,1.60054,0,0,0,.34379-.8251l.0483-.396.281.3006a3.79885,3.79885,0,0,0,1.623,1.1316.728.728,0,0,0,.7298-.1424.99854.99854,0,0,0,.0537-.7969l-.103-.364.3783.0295a38.38,38.38,0,0,0,4.9674.0904,15.86861,15.86861,0,0,0,2.4654-.2714,7.45234,7.45234,0,0,0,2.3527-.7756,6.5977,6.5977,0,0,1-2.2911,1.0439,16.199,16.199,0,0,1-2.4942.4364,24.081,24.081,0,0,1-2.5252.1133c-.8433-.0078-1.6811-.034-2.52689-.1189l.275-.3344a1.97847,1.97847,0,0,1,.06959.6179,1.127,1.127,0,0,1-.2224.6458.93837.93837,0,0,1-.6184.3334,1.49431,1.49431,0,0,1-.6313-.0443,2.86253,2.86253,0,0,1-1.0127-.5606,5.40211,5.40211,0,0,1-.779-.7999l.3293-.0955a1.92321,1.92321,0,0,1-.4872.9916,1.32078,1.32078,0,0,1-1.018.3942,1.27545,1.27545,0,0,1-.9541-.4493A1.65459,1.65459,0,0,1,378.94589,215.0588Z" transform="translate(-259.52069 -43.7777)"/>
    <path class="cls-4" d="M411.02959,103.1792c-11.433,6.3348-15.0013-1.3029-10.3639-2.5058a31.72188,31.72188,0,0,0,7.8849-3.5882A19.05357,19.05357,0,0,1,411.02959,103.1792Z" transform="translate(-259.52069 -43.7777)"/>
    <path class="cls-4" d="M411.905,112.8549v.0469c-.02671.2204-.04011.4342-.06021.648-4.1695,1.557-9.2479,2.3855-13.1971.6148-1.49-.6682-2.7531-2.1449-2.2118-3.6349a3.08027,3.08027,0,0,1,1.3097-1.4702c1.75741-1.0958,4.1563-1.2696,6.2478-1.4834a27.338,27.338,0,0,0,7.4305-2.2251A40.7276,40.7276,0,0,1,411.905,112.8549Z" transform="translate(-259.52069 -43.7777)"/>
    <path class="cls-4" d="M411.57759,116.5635a26.43842,26.43842,0,0,1-2.459,7.9852,12.65342,12.65342,0,0,1-8.346-1.6707,3.00232,3.00232,0,0,1-1.7708-3.067c.3676-1.8042,2.7798-1.9912,4.2431-1.9579A22.09525,22.09525,0,0,0,411.57759,116.5635Z" transform="translate(-259.52069 -43.7777)"/>
    <path class="cls-4" d="M337.94619,229.2224a2.29773,2.29773,0,0,1-.0808-1.0427,2.73463,2.73463,0,0,1,.3464-1.0122,2.23968,2.23968,0,0,1,.7568-.7771,1.91579,1.91579,0,0,1,1.0109-.2998,6.47962,6.47962,0,0,0-.7562.6258,3.40456,3.40456,0,0,0-.5561.7219A8.18266,8.18266,0,0,0,337.94619,229.2224Z" transform="translate(-259.52069 -43.7777)"/>
    <path class="cls-4" d="M331.337,228.3745a2.36424,2.36424,0,0,1-.08191-.955,2.8691,2.8691,0,0,1,.2533-.9385,2.30184,2.30184,0,0,1,.6138-.7866,1.52149,1.52149,0,0,1,.9244-.3253,4.1293,4.1293,0,0,0-.6345.6205,4.44664,4.44664,0,0,0-.4252.7188c-.12789.2517-.2228.5249-.3296.8009C331.55649,227.7883,331.45579,228.0732,331.337,228.3745Z" transform="translate(-259.52069 -43.7777)"/>
    <path class="cls-8" d="M339.34729,214.529a10.088,10.088,0,0,0,.3413,1.1173,2.72942,2.72942,0,0,0,.5602.9522.589.589,0,0,0,.8346-.0791,2.50077,2.50077,0,0,0,.5764-.8889l.2203-.523.2077.5321a9.6829,9.6829,0,0,0,.5497,1.1676,4.37324,4.37324,0,0,0,.7236,1.0101,1.19712,1.19712,0,0,0,.4426.2707.76615.76615,0,0,0,.4886-.0334,1.664,1.664,0,0,0,.7419-.8202l.3592-.751.1117.8135a4.11478,4.11478,0,0,0,1.197,2.2605,4.83507,4.83507,0,0,0,1.0934.7635,5.368,5.368,0,0,0,.6231.2726l.65641.2063c-.22631-.035-.45941-.0537-.68591-.1045a5.53713,5.53713,0,0,1-.6702-.1998,4.054,4.054,0,0,1-1.2306-.6956,4.24483,4.24483,0,0,1-.9435-1.0807,3.92507,3.92507,0,0,1-.5265-1.365l.4709.0623a2.05067,2.05067,0,0,1-.9931,1.1149,1.29394,1.29394,0,0,1-.8132.0698,1.59131,1.59131,0,0,1-.6843-.4048,4.83937,4.83937,0,0,1-.8083-1.1489,9.98011,9.98011,0,0,1-.5339-1.2562l.4279.0091a2.67872,2.67872,0,0,1-.7619,1.0131,1.17361,1.17361,0,0,1-.6318.2551.87249.87249,0,0,1-.3611-.0553.85727.85727,0,0,1-.2849-.207,2.56545,2.56545,0,0,1-.5128-1.1102A6.57486,6.57486,0,0,1,339.34729,214.529Z" transform="translate(-259.52069 -43.7777)"/>
    <path class="cls-8" d="M334.80359,222.5667a14.42408,14.42408,0,0,1,6.9857.8122,10.31838,10.31838,0,0,1,2.1016,1.0818c-.7511-.2431-1.4825-.4924-2.23089-.6888-.74581-.1999-1.49331-.3868-2.25161-.5278-.7553-.155-1.51739-.2785-2.2839-.3906C336.35679,222.75,335.58639,222.6464,334.80359,222.5667Z" transform="translate(-259.52069 -43.7777)"/>
    <path class="cls-8" d="M368.63089,222.4934a22.68045,22.68045,0,0,1,3.6674-.2897,27.4907,27.4907,0,0,1,3.6813.2247,22.58416,22.58416,0,0,1,3.611.7792,15.815,15.815,0,0,1,3.3727,1.4807c-.5861-.1908-1.1375-.4463-1.7302-.5961-.5732-.1999-1.1638-.3428-1.7504-.4913-1.183-.2615-2.3695-.4988-3.57269-.6473-1.20081-.1609-2.40971-.2621-3.62261-.3443q-.9102-.0603-1.8239-.079C369.85349,222.4976,369.24419,222.5016,368.63089,222.4934Z" transform="translate(-259.52069 -43.7777)"/>
    <g>
      <path class="cls-4" d="M325.21049,110.9987a54.26822,54.26822,0,0,1,5.5344-.802,53.674,53.674,0,0,1,5.5844-.2944,53.618,53.618,0,0,1-5.5344.8022A54.26142,54.26142,0,0,1,325.21049,110.9987Z" transform="translate(-259.52069 -43.7777)"/>
      <path class="cls-4" d="M324.88989,106.3646a50.56806,50.56806,0,0,1,5.3752.5196,49.9753,49.9753,0,0,1,5.3021,1.0246,50.0672,50.0672,0,0,1-5.3751-.5196A50.62444,50.62444,0,0,1,324.88989,106.3646Z" transform="translate(-259.52069 -43.7777)"/>
      <path class="cls-4" d="M326.97869,100.9888a50.59194,50.59194,0,0,1,4.5992,2.8303,50.00661,50.00661,0,0,1,4.3113,3.2517,50.02092,50.02092,0,0,1-4.599-2.8304A50.61253,50.61253,0,0,1,326.97869,100.9888Z" transform="translate(-259.52069 -43.7777)"/>
    </g>
    <path class="cls-7" d="M393.80979,83.7743a4.35927,4.35927,0,0,1-1.64379-.3875c-.35411-.3007,1.64379-.3474,1.64379-.3474-.9956-.4277-1.81079-1.597-1.47-1.6171.3475-.0267,1.5101.842,1.5101.842-1.2095-1.7708-.3474-4.4436.9957-4.2699.5747.0735,1.1962,1.3498,1.7173,2.7797a10.17128,10.17128,0,0,0,2.459,8.6868,23.94512,23.94512,0,0,0-6.809-4.1628A3.26232,3.26232,0,0,1,393.80979,83.7743Z" transform="translate(-259.52069 -43.7777)"/>
    <path class="cls-7" d="M344.01479,81.7631a8.13421,8.13421,0,0,1,1.4167-2.6929c-.0869.0334-1.009.4278-1.4368.1872-.4476-.254,1.08931-.8621,1.08931-.8621s-1.18281.0936-1.27631-.2606c-.1002-.3474,1.1025-.2539,1.1025-.2539-.8486-.5144-2.3855-2.8198-1.3297-3.4279.6883-.3942,1.6037.334,2.165.8954A7.16952,7.16952,0,0,0,350.55,80.3732S346.95489,81.0949,344.01479,81.7631Z" transform="translate(-259.52069 -43.7777)"/>
    <g>
      <path class="cls-4" d="M360.595,101.3728s-1.57771-2.2848-2.50241-1.9584c-.9248.3264,1.4465,3.7843,2.4258,4.165.9791.3808,3.4492-2.9139,2.9597-3.6212C362.98849,99.2511,360.595,101.3728,360.595,101.3728Z" transform="translate(-259.52069 -43.7777)"/>
      <path class="cls-4" d="M362.75269,115.8015c-.25269-1.0332-.4682-2.0736-.6979-3.1117l-.621-3.1272c-.2087-1.0427-.3747-2.0927-.5494-3.1422-.1639-1.0533-.33739-2.0981-.426-3.1799l.4934.0689c-.68979,1.9351-1.3061,3.9017-1.9102,5.8678-.3002.984-.5912,1.9714-.8501,2.967-.2744.9921-.5118,1.9933-.7186,3.0048.0942-1.0288.284-2.0464.4784-3.0616.2089-1.0126.4608-2.0149.7164-3.0161.2509-1.003.5555-1.9903.8549-2.9788.3041-.9877.617-1.9703.9497-2.9517l.3998-1.1785.0937,1.2476c.0779,1.0361.2294,2.0926.3791,3.1396l.4783,3.1466.4797,3.1492Z" transform="translate(-259.52069 -43.7777)"/>
      <path class="cls-8" d="M356.04639,103.5517a6.7077,6.7077,0,0,0-4.4789,2.7103c-1.5741,2.2334-2.069,5.1506-.4517,7.4157a8.2543,8.2543,0,0,0,4.0358,2.8026c2.9336,1.0683,5.923,1.922,9.0613,1.3079a7.76844,7.76844,0,0,0,3.2444-1.3527,7.05747,7.05747,0,0,0,2.6318-5.036,6.78155,6.78155,0,0,0-1.8979-5.2718,10.24342,10.24342,0,0,0-6.2843-2.3607A28.14594,28.14594,0,0,0,356.04639,103.5517Z" transform="translate(-259.52069 -43.7777)"/>
    </g>
    <g>
      <path class="cls-4" d="M385.81629,118.2873a54.27961,54.27961,0,0,1,5.5068.9725,53.62774,53.62774,0,0,1,5.3954,1.4706,53.65349,53.65349,0,0,1-5.5069-.9726A54.226,54.226,0,0,1,385.81629,118.2873Z" transform="translate(-259.52069 -43.7777)"/>
      <path class="cls-4" d="M397.60139,116.1698a50.6003,50.6003,0,0,1-5.3873.3709,50.00861,50.00861,0,0,1-5.3985-.1393,50.006,50.006,0,0,1,5.3875-.3708A50.5758,50.5758,0,0,1,397.60139,116.1698Z" transform="translate(-259.52069 -43.7777)"/>
      <path class="cls-4" d="M396.18329,110.5795a50.582,50.582,0,0,1-4.6757,2.7021,49.98855,49.98855,0,0,1-4.90959,2.2488,50.01078,50.01078,0,0,1,4.67549-2.7021A50.65164,50.65164,0,0,1,396.18329,110.5795Z" transform="translate(-259.52069 -43.7777)"/>
    </g>
    <path class="cls-8" d="M344.21109,164.1718a19.079,19.079,0,0,0-2.4485-1.2357,7.71553,7.71553,0,0,0-1.2923-.4063,2.02532,2.02532,0,0,0-1.2532.0458c-.168.0899-.314.2384-.3087.388a.77664.77664,0,0,0,.23861.4917,4.82734,4.82734,0,0,0,1.03389.8145,20.05442,20.05442,0,0,0,2.4169,1.2302l.6507.2846-.6931.1551c-.6303.141-1.2631.3005-1.882.4832-.3095.0914-.6158.1908-.9129.3024a2.60916,2.60916,0,0,0-.7626.3947c-.0184.0155-.0163.0248-.01289.0126a.1262.1262,0,0,0-.00391-.0764c-.0194-.0317-.0032-.0003.0513.0159a1.58131,1.58131,0,0,0,.4064.0681,7.08117,7.08117,0,0,0,.9428-.019c.6383-.0422,1.2857-.1238,1.9199-.2255l.8416-.135-.6269.5728c-.5098.4658-1.011.9538-1.488,1.4557a11.854,11.854,0,0,0-1.3085,1.5836,2.78694,2.78694,0,0,0-.2291.4242.46289.46289,0,0,0-.0487.3175c.06411.1457.3904.1716.6979.0629a6.754,6.754,0,0,0,1.7766-.9739l.61161-.4361-.36041.6538a7.784,7.784,0,0,0-.6021,1.4487,9.08625,9.08625,0,0,0-.3352,1.5484,7.30025,7.30025,0,0,0-.039,1.5895,8.20593,8.20593,0,0,0,.2806,1.5759,7.32567,7.32567,0,0,1-.3923-1.5639,7.458,7.458,0,0,1-.0519-1.6212,8.33255,8.33255,0,0,1,.8457-3.1452l.2511.2176a7.071,7.071,0,0,1-1.8599,1.0987,1.68914,1.68914,0,0,1-.5891.1026.7391.7391,0,0,1-.6271-.3445.83421.83421,0,0,1,.0204-.6975,3.2063,3.2063,0,0,1,.2624-.503,12.27286,12.27286,0,0,1,1.3443-1.6691c.4823-.519.9799-1.0149,1.4989-1.5002l.2145.4377c-.655.1127-1.3051.2028-1.9707.2542a7.55849,7.55849,0,0,1-1.0165.0079,2.024,2.024,0,0,1-.5546-.107.5784.5784,0,0,1-.32709-.2754.40366.40366,0,0,1-.01491-.3124.52209.52209,0,0,1,.1214-.1891,1.66221,1.66221,0,0,1,.4862-.3178c.1582-.0744.316-.1373.4741-.1959.3161-.1147.63321-.2133.9513-.3035.6371-.1799,1.2745-.333,1.9216-.47l-.0426.4396a16.00025,16.00025,0,0,1-2.4539-1.3206,5.1597,5.1597,0,0,1-1.0869-.9242,1.08565,1.08565,0,0,1-.2964-.739.813.813,0,0,1,.502-.6409,2.22587,2.22587,0,0,1,1.446-.0189,7.92885,7.92885,0,0,1,1.305.4919A16.02749,16.02749,0,0,1,344.21109,164.1718Z" transform="translate(-259.52069 -43.7777)"/>
    <path class="cls-4" d="M379.87739,88.7182a2.67116,2.67116,0,0,0-.6415,1.6258.70123.70123,0,0,0,.0903.3469c.1855.295.6132.2788.958.2273a13.05342,13.05342,0,0,0,4.5009-1.2386,1.54541,1.54541,0,0,0,.8842-1.0024,1.39919,1.39919,0,0,0-.0599-.5721,3.72185,3.72185,0,0,0-1.163-1.8284,1.0954,1.0954,0,0,0-.361-.2247C382.39539,85.5029,380.70209,87.5917,379.87739,88.7182Z" transform="translate(-259.52069 -43.7777)"/>
    <path class="cls-4" d="M349.76,89.4206a3.2382,3.2382,0,0,0,1.70749.7635,1.04076,1.04076,0,0,0,.4086-.0346.77219.77219,0,0,0,.4428-.8037,8.86354,8.86354,0,0,0-.519-4.0682,1.45791,1.45791,0,0,0-.9575-.8953,2.06556,2.06556,0,0,0-.6566-.0205,5.1009,5.1009,0,0,0-2.2876.7791,1.135,1.135,0,0,0-.3235.2853C346.62649,86.8252,348.65079,88.5612,349.76,89.4206Z" transform="translate(-259.52069 -43.7777)"/>
    <rect class="cls-10" x="162.7521" y="58.8605" width="10.5805" height="33.8285"/>
    <rect class="cls-11" x="181.1288" y="45.8655" width="10.58051" height="46.8235"/>
    <rect class="cls-1" x="199.50549" y="75.1529" width="10.5804" height="17.5361"/>
    <line class="cls-12" x1="156.1538" y1="97.3724" x2="213.47931" y2="97.3724"/>
    <g>
      <path class="cls-11" d="M338.04279,141.1531a39.23806,39.23806,0,1,1-5.7056-20.4025A39.25554,39.25554,0,0,1,338.04279,141.1531Z" transform="translate(-259.52069 -43.7777)"/>
      <path class="cls-13" d="M338.04279,141.1531a39.23806,39.23806,0,1,1-5.7056-20.4025A39.25554,39.25554,0,0,1,338.04279,141.1531Z" transform="translate(-259.52069 -43.7777)"/>
      <path class="cls-11" d="M340.73369,141.1559a39.25653,39.25653,0,1,1-6.139-21.0883c.1504.2211.2919.4511.4334.6811a39.76779,39.76779,0,0,1,1.90191,3.5295A39.05975,39.05975,0,0,1,340.73369,141.1559Z" transform="translate(-259.52069 -43.7777)"/>
      <path class="cls-10" d="M335.02609,120.7506l-33.5524,20.4025V101.889A39.2351,39.2351,0,0,1,335.02609,120.7506Z" transform="translate(-259.52069 -43.7777)"/>
    </g>
    <g class="cls-14">
      <path class="cls-4" d="M411.18279,178.2365a16.04785,16.04785,0,0,1-4.654.3232,16.44963,16.44963,0,0,1-2.3463-.311,13.59652,13.59652,0,0,1-2.2683-.7467,11.6825,11.6825,0,0,1-3.9126-2.7552,10.6581,10.6581,0,0,1-2.4267-4.153l.772.0872a8.01,8.01,0,0,1-1.1527,1.5201,1.967,1.967,0,0,1-.4319.3285,1.01486,1.01486,0,0,1-.32129.1135.63515.63515,0,0,1-.42481-.1007.74388.74388,0,0,1-.2774-.6466,2.80826,2.80826,0,0,1,.0588-.5042,9.82889,9.82889,0,0,1,.629-1.74q.3684-.8343.8153-1.6257a21.354,21.354,0,0,0-.9237,3.4533,2.27673,2.27673,0,0,0-.01319.3954.32724.32724,0,0,0,.03579.157,1.30392,1.30392,0,0,0,.3633-.3054,7.37272,7.37272,0,0,0,.9057-1.4418l.4368-.8672.3353.9544a9.30736,9.30736,0,0,0,.9815,1.9549,11.06126,11.06126,0,0,0,1.359,1.7477,12.195,12.195,0,0,0,3.5763,2.5845,14.87313,14.87313,0,0,0,4.2974,1.2925A24.74312,24.74312,0,0,0,411.18279,178.2365Z" transform="translate(-259.52069 -43.7777)"/>
    </g>
    <g class="cls-14">
      <path class="cls-4" d="M395.24809,168.0197a4.25922,4.25922,0,0,1-1.3489,1.503,1.654,1.654,0,0,1-.5469.2497.92206.92206,0,0,1-.8686-.2161.82738.82738,0,0,1-.2053-.5077,1.10831,1.10831,0,0,1,.02-.3602,3.26957,3.26957,0,0,1,.1479-.5522,7.54779,7.54779,0,0,1,1.00771-1.7279,7.36594,7.36594,0,0,1,1.37339-1.4146,14.31116,14.31116,0,0,1-.7031,1.8142c-.2505.5793-.5382,1.1418-.7441,1.6839a2.4289,2.4289,0,0,0-.1208.3674c-.058.1209.0349.1808-.0836.0549-.0601-.0412-.0705,0,.0217-.0018a1.58672,1.58672,0,0,0,.3497-.0827C394.08059,168.631,394.64579,168.3027,395.24809,168.0197Z" transform="translate(-259.52069 -43.7777)"/>
    </g>
    <g>
      <circle class="cls-15" cx="381.88939" cy="102.37127" r="13.72289" transform="translate(-269.80206 108.80791) rotate(-22.30277)"/>
      <ellipse class="cls-15" cx="82.85267" cy="53.94428" rx="12.32847" ry="13.72283"/>
      <ellipse class="cls-16" cx="82.8778" cy="53.86153" rx="12.3033" ry="13.72288"/>
      <path class="cls-16" d="M354.70179,98.1124s7.5713-2.8392,13.2497,1.8929" transform="translate(-259.52069 -43.7777)"/>
      <circle class="cls-16" cx="381.67434" cy="102.37127" r="13.72285" transform="translate(-270.96265 18.40951) rotate(-9.17781)"/>
    </g>
    <path class="cls-4" d="M429.58469,150.0486c.81-1.0401,1.6564-1.9148,2.40231-2.8625a10.227,10.227,0,0,0,1.83429-3.1209,3.39653,3.39653,0,0,1-.0805,1.9936,5.77337,5.77337,0,0,1-.9741,1.7525,7.31044,7.31044,0,0,1-1.4345,1.349A5.7313,5.7313,0,0,1,429.58469,150.0486Z" transform="translate(-259.52069 -43.7777)"/>
    <path class="cls-4" d="M433.82129,153.4127c1.0024-1.2596,2.0762-2.3528,3.0521-3.5198a18.76989,18.76989,0,0,0,1.3914-1.7778,8.37213,8.37213,0,0,0,1.0571-2.0296,4.10007,4.10007,0,0,1-.3727,2.4045,8.14793,8.14793,0,0,1-1.3153,2.0513,11.456,11.456,0,0,1-1.7485,1.649A8.9791,8.9791,0,0,1,433.82129,153.4127Z" transform="translate(-259.52069 -43.7777)"/>
    <g class="cls-14">
      <path class="cls-4" d="M414.38479,150.4927a20.6713,20.6713,0,0,0-4.6611,3.3054,17.04194,17.04194,0,0,0-1.8901,2.096c-.5988.7426-1.0933,1.5603-1.662,2.3866a8.70416,8.70416,0,0,1,1.0102-2.8155,9.8098,9.8098,0,0,1,1.8539-2.3921,10.01539,10.01539,0,0,1,2.4776-1.7359A7.70358,7.70358,0,0,1,414.38479,150.4927Z" transform="translate(-259.52069 -43.7777)"/>
    </g>
    <g>
      <polygon class="cls-10" points="100.659 102.305 99.737 103.604 99.167 104.415 98.604 105.207 98.512 105.337 96.544 105.182 94.817 105.04 92.837 104.885 92.695 104.601 92.49 104.186 92.206 103.623 91.544 102.293 91.265 101.729 90.597 100.393 90.603 100.387 91.061 99.607 93.648 95.269 99.799 95.776 99.96 97.002 100.04 97.62 100.238 99.099 100.319 99.724 100.51 101.197 100.597 101.816 100.659 102.305"/>
      <polygon class="cls-10" points="104.093 143.803 102.701 145.27 101.853 146.161 100.127 147.98 99.279 148.871 99.038 149.125 98.19 150.016 95.541 152.801 94.068 151.223 93.598 150.715 93.462 150.573 92.992 150.065 92.032 149.038 91.556 148.531 90.405 147.293 89.928 146.786 88.709 145.474 88.239 144.973 86.556 143.166 86.475 143.079 86.568 142.522 87.02 139.725 87.125 139.05 87.497 136.767 87.602 136.092 87.973 133.815 88.078 133.147 88.45 130.863 88.561 130.183 88.926 127.912 89.037 127.231 89.402 124.954 89.514 124.279 89.817 122.417 89.922 121.742 90.182 120.127 90.294 119.452 90.554 117.831 90.665 117.163 90.925 115.541 91.036 114.867 91.296 113.252 91.407 112.571 91.667 110.968 91.773 110.288 92.032 108.679 92.144 107.998 92.404 106.395 92.515 105.715 92.695 104.601 92.775 104.106 92.794 103.982 93.214 103.976 98.419 103.908 98.431 103.988 98.518 104.601 98.604 105.207 98.728 106.074 98.815 106.692 99.025 108.171 99.112 108.784 99.322 110.257 99.409 110.876 99.619 112.355 99.706 112.973 99.916 114.452 100.009 115.065 100.213 116.544 100.306 117.163 100.516 118.642 100.603 119.261 100.844 120.962 100.931 121.581 101.228 123.667 101.315 124.285 101.612 126.365 101.698 126.983 101.996 129.069 102.088 129.688 102.379 131.767 102.472 132.386 102.769 134.471 102.856 135.09 103.221 137.646 103.307 138.265 103.617 140.468 103.71 141.086 103.932 142.689 104.025 143.308 104.093 143.803"/>
      <polygon class="cls-4" points="100.04 97.62 90.603 100.387 91.061 99.607 99.96 97.002 100.04 97.62"/>
      <polygon class="cls-4" points="100.319 99.724 91.544 102.293 91.265 101.729 100.238 99.099 100.319 99.724"/>
      <polygon class="cls-4" points="100.597 101.816 93.214 103.976 92.775 104.106 92.49 104.186 92.206 103.623 100.51 101.197 100.597 101.816"/>
      <polygon class="cls-4" points="99.737 103.604 99.167 104.415 98.518 104.601 96.544 105.182 92.404 106.395 92.515 105.715 94.817 105.04 98.431 103.988 99.737 103.604"/>
      <polygon class="cls-4" points="98.815 106.692 92.032 108.679 92.144 107.998 98.728 106.074 98.815 106.692"/>
      <polygon class="cls-4" points="99.112 108.784 91.667 110.968 91.773 110.288 99.025 108.171 99.112 108.784"/>
      <polygon class="cls-4" points="99.409 110.876 91.296 113.252 91.407 112.571 99.322 110.257 99.409 110.876"/>
      <polygon class="cls-4" points="99.706 112.973 90.925 115.541 91.036 114.867 99.619 112.355 99.706 112.973"/>
      <polygon class="cls-4" points="100.009 115.065 90.554 117.831 90.665 117.163 99.916 114.452 100.009 115.065"/>
      <polygon class="cls-4" points="100.306 117.163 90.182 120.127 90.294 119.452 100.213 116.544 100.306 117.163"/>
      <polygon class="cls-4" points="100.603 119.261 89.817 122.417 89.922 121.742 100.516 118.642 100.603 119.261"/>
      <polygon class="cls-4" points="100.931 121.581 89.402 124.954 89.514 124.279 100.844 120.962 100.931 121.581"/>
      <polygon class="cls-4" points="101.315 124.285 88.926 127.912 89.037 127.231 101.228 123.667 101.315 124.285"/>
      <polygon class="cls-4" points="101.698 126.983 88.45 130.863 88.561 130.183 101.612 126.365 101.698 126.983"/>
      <polygon class="cls-4" points="102.088 129.688 87.973 133.815 88.078 133.147 101.996 129.069 102.088 129.688"/>
      <polygon class="cls-4" points="102.472 132.386 87.497 136.767 87.602 136.092 102.379 131.767 102.472 132.386"/>
      <polygon class="cls-4" points="102.856 135.09 87.02 139.725 87.125 139.05 102.769 134.471 102.856 135.09"/>
      <polygon class="cls-4" points="103.307 138.265 86.556 143.166 86.475 143.079 86.568 142.522 103.221 137.646 103.307 138.265"/>
      <polygon class="cls-4" points="103.71 141.086 88.709 145.474 88.239 144.973 103.617 140.468 103.71 141.086"/>
      <polygon class="cls-4" points="104.025 143.308 90.405 147.293 89.928 146.786 103.932 142.689 104.025 143.308"/>
      <polygon class="cls-4" points="102.701 145.27 101.853 146.161 92.032 149.038 91.556 148.531 102.701 145.27"/>
      <polygon class="cls-4" points="99.038 149.125 98.19 150.016 94.068 151.223 93.598 150.715 99.038 149.125"/>
    </g>
    <path class="cls-7" d="M339.89259,132.97s10.8898,3.5368,15.1712,4.2814l-5.1944,7.5823S342.31249,135.2038,339.89259,132.97Z" transform="translate(-259.52069 -43.7777)"/>
    <path class="cls-7" d="M355.06379,137.2514l5.1135,8.8341s13.8739-5.4479,20.7615-7.9321C380.93879,138.1534,363.63269,138.6645,355.06379,137.2514Z" transform="translate(-259.52069 -43.7777)"/>
    <path class="cls-4" d="M410.533,184.9074c-.20431,2.6795-.46411,5.2909-.75491,7.8095a28.87919,28.87919,0,0,1-8.9358,1.3799c-2.0606.0248-7.5496.4579-8.0632-2.4072-.26609-1.479,1.2438-2.6547,2.6486-3.2117,2.5804-1.021,5.40231-1.2562,8.1374-1.7451A43.71578,43.71578,0,0,0,410.533,184.9074Z" transform="translate(-259.52069 -43.7777)"/>
    <path class="cls-4" d="M409.04169,198.3852c-.3713,2.5496-.7673,4.9816-1.182,7.2774a13.28029,13.28029,0,0,1-2.4505-.5074,6.63655,6.63655,0,0,1-1.1757-.4642,3.67217,3.67217,0,0,1-.7611-.5012,2.778,2.778,0,0,1-.69939-.9097,2.10583,2.10583,0,0,1-.21661-.9901c.0557-1.2129,1.2192-2.073,2.3515-2.531C406.28789,199.1959,407.69879,198.8803,409.04169,198.3852Z" transform="translate(-259.52069 -43.7777)"/>
    <path class="cls-4" d="M407.16039,209.3507c-.6002,3.0694-1.219,5.8294-1.7945,8.2056-.2228.031-.4457.0495-.6683.0619a11.16419,11.16419,0,0,1-3.8367-.4023c-1.4852-.4393-3.05089-1.5284-3.0447-3.0817a3.11847,3.11847,0,0,1,1.8256-2.5495,12.44364,12.44364,0,0,1,3.156-.8849c.7549-.1609,1.5098-.3528,2.2525-.5879A18.2408,18.2408,0,0,0,407.16039,209.3507Z" transform="translate(-259.52069 -43.7777)"/>
    <path class="cls-4" d="M410.84859,140.5812c-.1547.0866-.3032.1671-.4579.2475q-1.64295.8727-3.323,1.6894c-1.10769.5322-2.5186,1.0211-3.484.2537a2.19617,2.19617,0,0,1-.656-2.1782,4.89647,4.89647,0,0,1,1.1635-2.0607,12.83344,12.83344,0,0,1,3.162-2.7166A24.76517,24.76517,0,0,1,410.84859,140.5812Z" transform="translate(-259.52069 -43.7777)"/>
    <path class="cls-4" d="M433.15709,166.6645a35.40579,35.40579,0,0,1-4.8082,4.932,9.46175,9.46175,0,0,1-.9964-.6065,17.38109,17.38109,0,0,1-4.0594-4.3131,3.96269,3.96269,0,0,1-1.0335-2.9889,2.72762,2.72762,0,0,1,3.057-1.7823,7.05658,7.05658,0,0,1,3.3912,1.7885A26.40055,26.40055,0,0,0,433.15709,166.6645Z" transform="translate(-259.52069 -43.7777)"/>
    <path class="cls-4" d="M419.35119,176.7265c-2.9311,1.1256-8.4283,1.4728-8.4283,1.5347a21.12233,21.12233,0,0,1-3.2612.099,2.9112,2.9112,0,0,1-.1362-.5198,8.60636,8.60636,0,0,1,.0062-2.4567,11.09422,11.09422,0,0,1,1.875-5.6374,3.19282,3.19282,0,0,1,1.6462-1.2006,1.65607,1.65607,0,0,1,.5259-.0495,2.77059,2.77059,0,0,1,1.2005.4394c1.8689,1.151,2.9395,3.2117,4.1462,5.0495a11.66047,11.66047,0,0,0,2.0853,2.4877A3.4774,3.4774,0,0,0,419.35119,176.7265Z" transform="translate(-259.52069 -43.7777)"/>
    <path class="cls-4" d="M334.75229,213.3174c-.2661,1.0829-1.5842,1.4666-2.692,1.5718a22.67794,22.67794,0,0,1-3.1745.0804c-.6683-1.906-1.2624-3.8305-1.8007-5.7674a25.43878,25.43878,0,0,0,4.3502,1.3429,6.96727,6.96727,0,0,1,2.3021.7364A2.00354,2.00354,0,0,1,334.75229,213.3174Z" transform="translate(-259.52069 -43.7777)"/>
    <path class="cls-4" d="M331.14439,201.7764a3.18587,3.18587,0,0,1-1.813,2.5124,6.3831,6.3831,0,0,1-3.1561.5446c-.0679,0-.1299-.0062-.1979-.0124-.6745-2.9209-1.2253-5.8726-1.6709-8.843a11.40256,11.40256,0,0,1,5.0311,2.5867A4.14994,4.14994,0,0,1,331.14439,201.7764Z" transform="translate(-259.52069 -43.7777)"/>
    <g>
      <g>
        <path class="cls-2" d="M302.04359,89.0343a8.68342,8.68342,0,0,0,.2842,2.152l.5189.1985a8.4894,8.4894,0,0,1-.3519-2.1791Zm-.0044-.0948a.68386.68386,0,0,0,.0044.0948,8.68342,8.68342,0,0,0,.2842,2.152,5.33458,5.33458,0,0,0,.1534.5414,8.99987,8.99987,0,0,0,2.6303,3.9837,9.09094,9.09094,0,0,0,2.8469,1.6965h.0045a9.01159,9.01159,0,0,0,7.0923-16.5397,8.89208,8.89208,0,0,0-4.0019-.9429.43943.43943,0,0,0-.0767.0045,8.79852,8.79852,0,0,0-2.5265.3835c-.2255.0676-.4512.1443-.6677.2301a8.82461,8.82461,0,0,0-2.3009,1.3219c-.1399.1038-.2708.2166-.40149.3338a8.92668,8.92668,0,0,0-1.44841,1.6332c-.08559.1264-.1713.2527-.248.3835a8.56913,8.56913,0,0,0-.8708,1.8498q-.0744.20985-.1353.4331a8.63584,8.63584,0,0,0-.3294,2.0619C302.04359,88.6869,302.03919,88.8132,302.03919,88.9395Zm.4556.2662c-.0045-.0902-.0045-.1759-.0045-.2662,0-.0721,0-.1444.0045-.212a8.21874,8.21874,0,0,1,.3068-2.0663c.036-.1444.0812-.2933.1308-.4331a8.484,8.484,0,0,1,.8798-1.8498c.0812-.1308.1669-.2617.2571-.3835a8.435,8.435,0,0,1,1.4889-1.6152c.1354-.1128.2752-.221.4151-.3293a8.45483,8.45483,0,0,1,2.4588-1.2588,6.88478,6.88478,0,0,1,.7398-.203,8.35023,8.35023,0,0,1,1.8814-.2121,8.48819,8.48819,0,0,1,3.7898.8889,8.358,8.358,0,0,1,1.8678,1.2541,8.55771,8.55771,0,0,1-5.6576,14.9832,8.2341,8.2341,0,0,1-1.4618-.1263,8.11522,8.11522,0,0,1-1.5429-.4196h-.0045a8.60151,8.60151,0,0,1-5.0124-5.0214c-.06769-.1805-.1309-.3655-.185-.5505A8.4894,8.4894,0,0,1,302.49479,89.2057Zm-.4512-.1714a8.68342,8.68342,0,0,0,.2842,2.152l.5189.1985a8.4894,8.4894,0,0,1-.3519-2.1791Z" transform="translate(-259.52069 -43.7777)"/>
        <path class="cls-2" d="M300.08559,88.3756a6.36393,6.36393,0,0,0,.3969,2.1114c.0633.1895.14.3744.2211.564a11.8136,11.8136,0,0,0,5.9915,6.014l.1354.0451a3.45043,3.45043,0,0,0,1.1279.2978h.0045a.49216.49216,0,0,0,.0812.0045c.0812,0,.1714-.0045.2797-.0091.1804-.0045.4196-.0135.776-.0135.1624,0,.3293-.0045.4917-.0135a8.11522,8.11522,0,0,1-1.5429-.4196h-.0045a2.9482,2.9482,0,0,1-1.0692-.2706l-.1354-.0497a7.121,7.121,0,0,1-1.728-.925,12.52857,12.52857,0,0,1-3.7943-4.4258c-.0946-.1941-.185-.388-.2616-.5821a6.21059,6.21059,0,0,1-.5189-2.2377v-.0902c0-.1308.0045-.2616.0091-.388a8.30483,8.30483,0,0,1,.3474-2.0528c.0405-.1444.0902-.2888.13981-.4286a8.50489,8.50489,0,0,1,.91589-1.8363c.0856-.1308.176-.2572.2662-.3789a8.34707,8.34707,0,0,1,1.54291-1.5972c.13539-.1127.27979-.221.42409-.3203a8.421,8.421,0,0,1,2.5582-1.2226,6.69521,6.69521,0,0,1,.7895-.1851,8.20024,8.20024,0,0,1,1.57-.1488,14.37263,14.37263,0,0,1,1.8768.1128,9.62592,9.62592,0,0,1,3.8168,1.3039.438.438,0,0,1,.0497.0316,8.358,8.358,0,0,1,1.8678,1.2541,5.03713,5.03713,0,0,0-1.6557-1.6512.14.14,0,0,0-.0316-.0226,10.88076,10.88076,0,0,0-5.9238-1.4798,9.03036,9.03036,0,0,0-2.3325.3069q-.35865.09465-.7038.2165a9.07468,9.07468,0,0,0-2.3821,1.2903c-.14.1038-.2753.2166-.4061.3339a8.6288,8.6288,0,0,0-1.4979,1.6151c-.0902.1218-.176.2527-.2571.379a9.04476,9.04476,0,0,0-.9114,1.8363c-.0497.1398-.0948.2842-.13989.4286a8.77183,8.77183,0,0,0-.36531,2.0483c-.0091.1579-.0181.3158-.0136.4736A.4927.4927,0,0,0,300.08559,88.3756Z" transform="translate(-259.52069 -43.7777)"/>
        <path class="cls-2" d="M306.06349,79.8892l.6768.2617,1.0421.3925.6497.2481a6.88478,6.88478,0,0,1,.7398-.203l-.7218-.2752-.9203-.3475-.7625-.2931Q306.40864,79.76735,306.06349,79.8892Z" transform="translate(-259.52069 -43.7777)"/>
        <path class="cls-2" d="M303.27529,81.5134l.48271.1804,1.322.5053.47819.1805c.1354-.1128.2752-.221.4151-.3293l-.4918-.185-1.2994-.4918-.5007-.194C303.54139,81.2833,303.40609,81.3961,303.27529,81.5134Z" transform="translate(-259.52069 -43.7777)"/>
        <path class="cls-2" d="M301.52029,83.5075l.4286.1624,1.4347.5459.4286.1625c.0812-.1308.1669-.2617.2571-.3835l-.4377-.1625-1.4165-.5413-.4377-.1625C301.68719,83.2503,301.60139,83.3812,301.52029,83.5075Z" transform="translate(-259.52069 -43.7777)"/>
        <path class="cls-2" d="M300.469,85.7724l.42419.1624,1.4843.5639.4241.1625c.036-.1444.0812-.2933.1308-.4331l-.4196-.1625-1.47979-.5594-.42411-.1624C300.55919,85.4836,300.51409,85.628,300.469,85.7724Z" transform="translate(-259.52069 -43.7777)"/>
        <path class="cls-2" d="M300.09009,88.2943l.4466.1715,1.5069.5685.4512.1714c-.0045-.0902-.0045-.1759-.0045-.2662,0-.0721,0-.1444.0045-.212l-.4467-.1669-1.5023-.573-.4421-.1669C300.09459,87.9786,300.08559,88.1365,300.09009,88.2943Z" transform="translate(-259.52069 -43.7777)"/>
        <path class="cls-2" d="M300.48249,90.487c.0633.1895.14.3744.2211.564l.6136.2346,1.164.4421.5505.2076c-.06769-.1805-.1309-.3655-.185-.5505l-.5189-.1985-1.2722-.4828Z" transform="translate(-259.52069 -43.7777)"/>
      </g>
      <text class="cls-17" transform="translate(48.09747 49.1808)">$</text>
    </g>
    <path class="cls-11" d="M377.51869,69.4351c-.424-.2821-.8581-.5492-1.2762-.8395a.36932.36932,0,0,1-.13649-.2808c.05089-.5876.13539-1.1724.18219-1.7603a.312.312,0,0,1,.2154-.3262c.5763-.2298,1.14641-.4751,1.7186-.7152.09281-.0389.1842-.0812.3442-.1519-.2799-.8788-.5567-1.7478-.8405-2.6386-.7377.1516-1.4105.2785-2.07689.4329a.40908.40908,0,0,1-.51651-.1892c-.3126-.4439-.6869-.8439-1.0231-1.2719a.33383.33383,0,0,1-.0453-.2757c.22291-.5887.4451-1.1788.7032-1.7525a.35514.35514,0,0,0-.1866-.5486,1.712,1.712,0,0,1-.2576-.1982q-.63885-.338-1.2779-.6761a.86393.86393,0,0,1-.1597-.032c-.5192-.2084-.4194-.2047-.7107.2295-.3547.529-.7006,1.064-1.0042,1.5262-.7938-.0688-1.53559-.1331-2.3018-.1996-.2946-.7015-.6024-1.4348-.9121-2.1727a8.84283,8.84283,0,0,0-2.6302.8373c.15051.7253.29551,1.4328.4456,2.1393a.24478.24478,0,0,1-.10409.2976c-.48471.3676-.96071.7482-1.41891,1.1481a.288.288,0,0,1-.3606.0574c-.5908-.2438-1.1872-.4738-1.779-.7152a.24791.24791,0,0,0-.34949.0893,7.88344,7.88344,0,0,0-1.07731,2.1226c-.0529.1494.01931.2134.1322.2858.5228.3348,1.0375.6823,1.5625,1.0134a.31079.31079,0,0,1,.169.373c-.09939.6733-.1597,1.3522-.241,2.0836-.6377.2677-1.36139.5715-2.0848.8752a8.24063,8.24063,0,0,0,.8193,2.6682c.7906-.168,1.5598-.3315,2.2564-.4795.4384.4986.834.9727,1.25871,1.419a.39544.39544,0,0,1,.09779.5069c-.2444.5602-.4671,1.1301-.6927,1.6984-.0446.1123-.133.2433.0425.3345q1.07055.556,2.141,1.1127c.1518.0788.2468.0272.33741-.1158.33689-.5322.69719-1.0499,1.025-1.5875.12639-.2074.26389-.2162.47849-.1888a14.50345,14.50345,0,0,0,1.5971.1335.34768.34768,0,0,1,.39341.2669c.25369.6549.53309,1.2999.79689,1.9352a7.90452,7.90452,0,0,0,2.6745-.8517c-.1512-.698-.2967-1.4054-.4619-2.1082a.3.3,0,0,1,.1444-.3587c.4324-.3448.8403-.7201,1.2692-1.0695a.36473.36473,0,0,1,.3022-.06c.5275.2024,1.048.4232,1.5681.644.2908.1234.4078.1743.51861.099l1.19969-2.2676C377.98829,69.7492,377.86169,69.6632,377.51869,69.4351Zm-4.5201-.762a4.15175,4.15175,0,0,1-5.6114,1.7282h0a4.1518,4.1518,0,0,1-1.72819-5.6114h0a4.1518,4.1518,0,0,1,5.61139-1.7282h0a4.15188,4.15188,0,0,1,1.7283,5.6114Z" transform="translate(-259.52069 -43.7777)"/>
    <path class="cls-12" d="M396.52969,51.1058c-.5092.0038-1.0184.0253-1.5274.0191a.36976.36976,0,0,1-.27029-.154c-.28711-.5081-.54461-1.0326-.83511-1.5387a.30431.30431,0,0,1-.0043-.3855c.3488-.5061.6836-1.0215,1.0232-1.5338.0551-.0831.1071-.168.2-.3142-.7241-.5634-1.4401-1.1204-2.1742-1.6915-.5262.5314-1.0124,1.0067-1.4781,1.501a.41248.41248,0,0,1-.5338.1307c-.5076-.19-1.04169-.31-1.56-.4739a.33166.33166,0,0,1-.1919-.2003c-.1451-.6041-.2915-1.209-.3991-1.8203-.0515-.2933-.18669-.3785-.4618-.3451a1.73714,1.73714,0,0,1-.3244-.0197q-.71865.07695-1.4373.1536a.87569.87569,0,0,1-.1503.062c-.54689.1166-.4621.0645-.4602.5801.0024.6282.0156,1.2564.023,1.8017-.6962.3823-1.3468.7396-2.01869,1.1085-.637-.4104-1.30261-.8395-1.97261-1.2712a8.743,8.743,0,0,0-1.7099,2.1369c.531.5095,1.0474,1.0074,1.56751,1.5017a.23945.23945,0,0,1,.08039.3007c-.1956.5681-.3768,1.142-.5323,1.7218a.28661.28661,0,0,1-.2667.2461c-.6259.1271-1.2489.2687-1.8743.3984-.1554.0322-.23109.0889-.2395.266a7.67187,7.67187,0,0,0,.2965,2.3293c.0398.1513.1354.1637.2695.1605.6207-.0153,1.2416-.0157,1.8621-.0351a.31109.31109,0,0,1,.3489.2113c.2947.605.625,1.1931.96741,1.8354-.37841.5711-.80771,1.219-1.23691,1.8668a8.22306,8.22306,0,0,0,2.1732,1.7274c.5609-.574,1.1065-1.1325,1.60071-1.6383.64249.1653,1.23569.334,1.83749.4641a.39291.39291,0,0,1,.365.3601c.1113.5927.246,1.1814.3774,1.7703.0259.1164.02611.2723.2225.2498q1.1985-.1371,2.3969-.2737c.1699-.0194.2198-.114.2146-.2809-.01889-.6209-.0104-1.2429-.04-1.8632-.0114-.2393.0975-.3225.2906-.4186a14.53044,14.53044,0,0,0,1.398-.7732.35118.35118,0,0,1,.4753.0007c.577.395,1.1697.7677,1.7441,1.141a7.81186,7.81186,0,0,0,1.7385-2.1734c-.5161-.4867-1.0329-.9843-1.56339-1.4672a.29326.29326,0,0,1-.08131-.3729c.165-.5205.2927-1.0525.45231-1.5749a.36237.36237,0,0,1,.21679-.2159c.5503-.1261,1.10521-.2331,1.6598-.3401.31-.0599.43541-.0829.485-.2056l-.2762-2.5154C397.09469,51.1031,396.94169,51.1028,396.52969,51.1058Zm-5.5213,2.0186a2.765,2.765,0,0,1-2.4768,3.0361h0a2.78479,2.78479,0,0,1-3.0784-2.4427h0a2.76481,2.76481,0,0,1,2.47681-3.036h0a2.78469,2.78469,0,0,1,3.07839,2.4426Z" transform="translate(-259.52069 -43.7777)"/>
  </g>
</svg>
