<svg id="OBJECTS" xmlns="http://www.w3.org/2000/svg" viewBox="0 0 204.74276 198.46384">
  <defs>
    <style>
      .cls-1 {
        fill: none;
        stroke: #98e0c1;
        stroke-miterlimit: 10;
      }

      .cls-2 {
        fill: #98e0c1;
      }

      .cls-3 {
        fill: #b8f0e7;
      }

      .cls-4 {
        fill: #f09c46;
      }

      .cls-10, .cls-11, .cls-5, .cls-6 {
        fill: #973433;
      }

      .cls-5 {
        opacity: 0.2;
      }

      .cls-7 {
        fill: #f8c794;
      }

      .cls-8 {
        fill: #cc4a4a;
      }

      .cls-11, .cls-12, .cls-8 {
        opacity: 0.48;
      }

      .cls-9 {
        fill: #fff;
      }

      .cls-10 {
        opacity: 0.21;
      }

      .cls-13 {
        fill: #e05656;
      }
    </style>
  </defs>
  <g>
    <path class="cls-1" d="M35.0951,118.1364c1.1795-.5852,2.3391-1.2114,3.5291-1.7729a.95689.95689,0,0,1,.803.0522c1.2422.8564,2.4342,1.7845,3.6822,2.6324a.787.787,0,0,1,.4463.8913c-.2381,1.5712-.4334,3.1482-.6431,4.7233-.034.2556-.0589.5119-.1096.9568,2.3209.4904,4.6158.9752,6.9686,1.4722.622-1.8306,1.2144-3.4859,1.7377-5.1619a1.06613,1.06613,0,0,1,1.0932-.9078c1.3947-.1328,2.7726-.4581,4.1626-.6635a.85616.85616,0,0,1,.6728.2486c1.0209,1.2399,2.046,2.4806,2.9877,3.7801a.9157.9157,0,0,0,1.464.2795,4.522,4.522,0,0,1,.7764-.3213q1.58385-.99165,3.1678-1.9833a2.23748,2.23748,0,0,1,.2789-.3144c1.1396-.8897,1.0015-.6726.4135-1.8693-.7166-1.4576-1.4579-2.9029-2.0919-4.1624,1.1858-1.6764,2.2941-3.243,3.4385-4.8611,1.9454.2335,3.9783.4776,6.0243.7234a22.60316,22.60316,0,0,0,1.5571-6.9027c-1.8108-.5836-3.5747-1.1569-5.3431-1.7175a.61891.61891,0,0,1-.5272-.6079c-.1882-1.542-.4164-3.0814-.7109-4.6053a.74089.74089,0,0,1,.3416-.8737c1.3111-1.0039,2.5993-2.0378,3.9065-3.047a.6356.6356,0,0,0,.2557-.8896,19.83781,19.83781,0,0,0-3.3249-5.0794c-.2636-.3068-.5002-.2275-.8082-.0679-1.4256.7375-2.8688,1.441-4.2891,2.1884a.80418.80418,0,0,1-1.0501-.0965c-1.3698-1.0732-2.8032-2.0662-4.3259-3.1723.2335-1.7558.4984-3.7477.7632-5.7393a21.25865,21.25865,0,0,0-7.0069-1.5568c-.6542,1.9691-1.2908,3.8847-1.8674,5.6197-1.6806.343-3.2505.6218-4.7968,1.0007a1.01548,1.01548,0,0,1-1.2558-.4245c-.9296-1.252-1.9088-2.4681-2.8807-3.6885-.1919-.2412-.3688-.6034-.8-.3289q-2.63085,1.675-5.2626,3.3484c-.3727.2375-.3818.5138-.1808.896.7465,1.422,1.4304,2.8776,2.2011,4.2863.2973.5434.1383.8598-.2019,1.302a37.54035,37.54035,0,0,0-2.3749,3.3792.90834.90834,0,0,1-1.106.5361c-1.7881-.2653-3.5878-.4609-5.3455-.6789a20.1953,20.1953,0,0,0-1.5823,7.0196c1.7504.5475,3.5149,1.1194,5.2946,1.6419.4452.1308.5472.3421.6107.7749.2057,1.3968.5105,2.778.7307,4.173a.93785.93785,0,0,1-.2597.7475c-1.1367.9154-2.3054,1.7923-3.4736,2.6684-.6531.4901-.9186.6853-.895,1.0269l3.4884,5.5348C33.7848,118.7819,34.1408,118.6094,35.0951,118.1364ZM45.6469,107.196a7.14853,7.14853,0,0,1,2.3224-9.8605h0a7.2,7.2,0,0,1,9.9204,2.1952h0a7.14875,7.14875,0,0,1-2.3226,9.8607h0a7.2,7.2,0,0,1-9.9204-2.1953Z" transform="translate(-27.37866 -35.76809)"/>
    <path class="cls-2" d="M76.0117,82.2804c.5258.0709,1.0541.1232,1.5781.2045a.38411.38411,0,0,1,.2558.2007c.2203.5736.4077,1.1599.6319,1.7318a.325.325,0,0,1-.053.4037c-.4351.478-.8573.9678-1.2838,1.4535-.0691.0788-.1355.1599-.253.2991.6628.6956,1.3182,1.3833,1.9901,2.0884.6218-.4783,1.1942-.904,1.748-1.3524a.42616.42616,0,0,1,.57-.0582c.4951.2732,1.0281.4772,1.5382.7248a.34835.34835,0,0,1,.168.2376c.0597.6531.1206,1.3072.1403,1.9622.0095.3142.1363.4231.425.4286a1.78658,1.78658,0,0,1,.3316.0683l1.5052.0507a.899.899,0,0,1,.1642-.0429c.5813-.0415.4862.0006.561-.5389.0911-.6572.1711-1.3161.2448-1.8874.7749-.2974,1.4991-.5753,2.247-.8624.5958.5228,1.2183,1.0693,1.8449,1.6192a9.20886,9.20886,0,0,0,2.0817-1.9833c-.4716-.6107-.9299-1.2073-1.3926-1.8006a.25492.25492,0,0,1-.0381-.3262c.2862-.5653.5587-1.1389.8055-1.7222a.3.3,0,0,1,.3116-.2182c.6645-.0409,1.328-.0974,1.9924-.1412.165-.0108.2516-.0589.2867-.2429a8.21531,8.21531,0,0,0,.0412-2.4793c-.0184-.164-.1152-.1911-.2541-.2073-.6423-.0753-1.2828-.1662-1.9254-.237a.32375.32375,0,0,1-.3284-.2722c-.2138-.676-.4668-1.3395-.7241-2.0615.4752-.5415,1.0146-1.156,1.5537-1.7703a8.58512,8.58512,0,0,0-1.9838-2.1257c-.664.5179-1.3098,1.0216-1.8948,1.4779-.638-.2672-1.2247-.5309-1.8259-.7553a.41182.41182,0,0,1-.3227-.4302c-.0265-.6361-.0777-1.2715-.1255-1.9066-.0094-.1256.0137-.2886-.1922-.2939q-1.25655-.03285-2.5128-.0661c-.178-.0047-.2436.087-.2632.2622-.0728.6521-.1744,1.3012-.2363,1.9542-.0239.2519-.1486.3229-.3621.395a15.09166,15.09166,0,0,0-1.5569.6031.36227.36227,0,0,1-.4901-.0706c-.5362-.4979-1.0919-.9747-1.6287-1.4494a8.234,8.234,0,0,0-2.1167,2.0171c.4597.5848.9186,1.181,1.3937,1.764a.31243.31243,0,0,1,.0283.4018c-.2478.5201-.4587,1.0576-.7012,1.5804a.38.38,0,0,1-.2557.194c-.5863.0509-1.1745.0813-1.7623.1117-.3287.017-.4615.0226-.5309.1436l-.09,2.6709C75.4287,82.2002,75.5864,82.223,76.0117,82.2804Zm4.5811-1.347a4.325,4.325,0,0,1,4.4682-4.1769h0a4.32485,4.32485,0,0,1,4.1768,4.468h0a4.32489,4.32489,0,0,1-4.4681,4.1769h0a4.325,4.325,0,0,1-4.1769-4.468Z" transform="translate(-27.37866 -35.76809)"/>
    <path class="cls-3" d="M153.0496,57.9353c15.1052-5.7977,35.2908-7.2007,49.70909,1.1506,17.2979,10.0192,22.1735,30.1529,24.219,48.558,4.47931,40.3053-1.0726,91.6089-39.61229,114.184-16.8549,9.8729-39.4744,12.5802-58.7037,12.3953-26.3077-.253-66.9139-5.9475-77.9626-34.0931l-.2163-.5639c-5.9365-15.9949,1.8327-33.9422,11.7244-46.5657a72.82978,72.82978,0,0,1,13.0327-12.9782c1.7631-1.347,3.5607-2.6489,5.3765-3.9239,8.3999-5.898,17.0637-11.5196,24.5161-18.6314C122.1386,101.238,117.2168,71.6887,153.0496,57.9353Z" transform="translate(-27.37866 -35.76809)"/>
    <g>
      <g>
        <path class="cls-4" d="M103.8769,156.1898c-1.8502.8285-3.4721,3.515-4.7349,5.0461a53.0062,53.0062,0,0,0-4.3609,5.9671,24.28074,24.28074,0,0,0-3.8731,13.8107c.3273,7.2478,3.5019,14.8346,9.0088,19.6683a7.28481,7.28481,0,0,0,.615.5051s-6.256,6.6913-8.1465,14.2191,1.7615,9.519,2.9189,8.9915c2.8728-1.3093,5.3687-18.6104,11.6759-20.7014,6.3071-2.091,2.9925-4.6002,2.9925-4.6002s14.2028,1.8818,21.305-12.9646-14.0299-35.9238-14.0299-35.9238Z" transform="translate(-27.37866 -35.76809)"/>
        <path class="cls-5" d="M103.8769,156.1898c-1.8502.8285-3.4721,3.515-4.7349,5.0461a53.0062,53.0062,0,0,0-4.3609,5.9671,24.28074,24.28074,0,0,0-3.8731,13.8107c.3273,7.2478,3.5019,14.8346,9.0088,19.6683a7.28481,7.28481,0,0,0,.615.5051s-6.256,6.6913-8.1465,14.2191,1.7615,9.519,2.9189,8.9915c2.8728-1.3093,5.3687-18.6104,11.6759-20.7014,6.3071-2.091,2.9925-4.6002,2.9925-4.6002s14.2028,1.8818,21.305-12.9646-14.0299-35.9238-14.0299-35.9238Z" transform="translate(-27.37866 -35.76809)"/>
      </g>
      <path class="cls-6" d="M95.8766,223.9279a4.58376,4.58376,0,0,1-.8313-1.405,6.32046,6.32046,0,0,1-.3996-1.5741,5.29924,5.29924,0,0,1,.0644-1.6492,3.01747,3.01747,0,0,1,.7383-1.4889,20.94114,20.94114,0,0,0,.1901,3.0239A25.126,25.126,0,0,1,95.8766,223.9279Z" transform="translate(-27.37866 -35.76809)"/>
    </g>
    <path class="cls-4" d="M198.49049,139.0315c-.0268-.354-.059-.7133-.0911-1.0672-.1288-1.4585-.2788-2.9224-.4666-4.3864-.118-.9867-.25209-1.9787-.40219-2.9654q-.29745-2.0268-.6703-4.0485c-.1126-.6059-.2251-1.2119-.3485-1.8179-.3272-1.6408-.6863-3.271-1.0885-4.8904-.1985-.8044-.4022-1.6034-.6167-2.4023-.2306-.8634-.4773-1.7214-.7294-2.5686-.6487-2.1717-1.362-4.3113-2.1501-6.3919-.0645-.1769-.1288-.3485-.1985-.5201-.8366-2.2093-1.7642-4.3489-2.7669-6.4081-.0913-.1876-.1825-.3699-.2735-.5576a64.841,64.841,0,0,0-3.1852-5.7002c-.2092-.3378-.4237-.6703-.6436-1.0028a51.10674,51.10674,0,0,0-3.7751-5.0781q-.909-1.0857-1.8821-2.0913a38.15674,38.15674,0,0,0-3.9629-3.6249,34.18579,34.18579,0,0,0-4.3952-2.9712,19.425,19.425,0,0,0,3.9018-8.6825,20.36746,20.36746,0,0,0,.0114-6.607c-.099-.6402-.2252-1.278-.3771-1.9253q-.11175-.465-.2393-.9259l-.0111-.0354a32.037,32.037,0,0,0-2.1573-5.5857c-.0722-.1395-.1373-.2755-.2092-.4152-.1196-.2363-.2457-.4765-.3719-.7165-.0786-.1431-.1574-.2862-.2414-.4279a15.37414,15.37414,0,0,0-3.3025-4.0036l.0061-.0004a108.11856,108.11856,0,0,1-8.315-8.828c-2.2083-2.9683-4.2363-7.0218-6.2769-6.5845l-.0052.0015c-1.849.3988-4.8106,5.3339-4.3756,9.917l.0006.005c-1.0438-.0017-2.1142.0199-3.2223.0754-.1667.0092-.3403.0148-.5106.0308-1.6128.0877-3.2855.2369-5.0284.4505l-.0053.0016c-.713.0888-1.4403.1873-2.1761.2937q-4.7619.69735-10.134,1.9734c-.1158.0277-.2315.0554-.3421.0817-.3992.0981-.793.1947-1.1733.2984-1.0458.2731-2.0404.5645-2.9977.8672l-.1693-.0894c-.718-.396-1.6675-1.0073-1.7792-1.0747-1.4601-.9232-2.6051-2.3569-3.9587-3.4102-1.9684-1.5341-4.539-2.3371-6.9489-1.147a1.095,1.095,0,0,0-.3858.3209,2.94,2.94,0,0,0-.4753,1.6065,16.52367,16.52367,0,0,0,2.7124,8.891c.0315.0462.0697.096.1062.1407a20.59407,20.59407,0,0,0-7.8977,10.4818c-.0874.2628-.1628.5275-.2383.7923a23.255,23.255,0,0,0-.655,3.2166c-.0063.0516-.0129.1033-.0141.1533-.0723.5457-.1221,1.0906-.1548,1.636-.0167.2535-.0298.5005-.0362.751a34.11056,34.11056,0,0,0,.0945,3.7857c.0103.1407.0257.28.0393.4143.0117.1458.0271.2851.0425.4243.0708.6593.1697,1.2996.2897,1.9172.0044.0319.0123.0572.0166.0891.1468.7756.329,1.5192.5358,2.2333q.14475.489.3002.9582a24.80434,24.80434,0,0,0,6.7032,10.3633c.3764.3436,1.4782,1.3997,2.6336,2.5129-3.0544,4.3867-7.7439,13.3092-8.6895,27.6656-.22,3.3515-.6758,7.0086-1.1584,10.8373-2.6275,20.8756-6.0433,46.7972,23.4709,56.2294,0,0,.3701.488,1.0725,1.287a44.02871,44.02871,0,0,0,13.406,10.344s-11.7489,7.2177-12.4085,13.7329c-.6649,6.5206,4.2791,3.7858,5.7644,2.1235,1.4854-1.657,7.0623-11.8991,13.1217-13.5292,6.0595-1.6301,2.7885-7.9148,2.7885-7.9148a53.77349,53.77349,0,0,0,13.6523-.0697,50.879,50.879,0,0,0,5.357-.9759c.7133-.1716,1.4372-.3647,2.1611-.5738q1.7454-.50685,3.5017-1.1851a37.39148,37.39148,0,0,0,5.3837-2.5792c.3431-.1985.6864-.4022,1.0241-.6167a33.18586,33.18586,0,0,0,5.341-4.1451c.2842-.2735.563-.5524.8418-.8365a32.34566,32.34566,0,0,0,3.2605-3.9199,23.37871,23.37871,0,0,0,2.0697-3.6249,41.40422,41.40422,0,0,0,2.5204-7.2607c.5041-1.9572.9277-4.0539,1.2708-6.2632v-.0107c.3539-2.279.622-4.6813.80439-7.1748q.12077-1.665.1823-3.3836A116.9098,116.9098,0,0,0,198.49049,139.0315Z" transform="translate(-27.37866 -35.76809)"/>
    <g>
      <g>
        <path class="cls-4" d="M231.12039,91.4729a12.52423,12.52423,0,0,1-6.0702,4.4829c-.6114.2305-1.2173.4665-1.8233.7078a30.79235,30.79235,0,0,0-9.0194,5.0299c-3.6089,3.1423-6.1078,7.7861-6.2042,15.5347a45.2784,45.2784,0,0,0,.4665,6.3543c.311,2.4131.7185,4.9119,1.0296,7.4108,1.48,11.7435.91161,23.4227-21.42249,25.3853,0,0-3.5285-7.1373,1.8392-8.1936a25.9523,25.9523,0,0,0,6.6546-1.4962,12.16974,12.16974,0,0,0,6.40809-4.8421,3.89437,3.89437,0,0,0,.252-.5202c2.1235-5.0406-2.18779-17.6635-2.5954-27.9753a25.7828,25.7828,0,0,1,.504-6.8209,20.54813,20.54813,0,0,1,1.81261-4.7939A34.97582,34.97582,0,0,1,215.81089,88.663a24.154,24.154,0,0,1,10.3438-3.6679C231.98369,84.6413,233.32429,88.1321,231.12039,91.4729Z" transform="translate(-27.37866 -35.76809)"/>
        <path class="cls-5" d="M231.12039,91.4729a12.52423,12.52423,0,0,1-6.0702,4.4829c-.6114.2305-1.2173.4665-1.8233.7078a30.79235,30.79235,0,0,0-9.0194,5.0299c-3.6089,3.1423-6.1078,7.7861-6.2042,15.5347a45.2784,45.2784,0,0,0,.4665,6.3543c.311,2.4131.7185,4.9119,1.0296,7.4108,1.48,11.7435.91161,23.4227-21.42249,25.3853,0,0-3.5285-7.1373,1.8392-8.1936a25.9523,25.9523,0,0,0,6.6546-1.4962,12.16974,12.16974,0,0,0,6.40809-4.8421,3.89437,3.89437,0,0,0,.252-.5202c2.1235-5.0406-2.18779-17.6635-2.5954-27.9753a25.7828,25.7828,0,0,1,.504-6.8209,20.54813,20.54813,0,0,1,1.81261-4.7939A34.97582,34.97582,0,0,1,215.81089,88.663a24.154,24.154,0,0,1,10.3438-3.6679C231.98369,84.6413,233.32429,88.1321,231.12039,91.4729Z" transform="translate(-27.37866 -35.76809)"/>
      </g>
      <path class="cls-6" d="M231.12039,91.4729a5.16262,5.16262,0,0,1-2.885-1.5122c-6.2578,1.7267-10.30639.1072-12.4245-1.2977a24.154,24.154,0,0,1,10.3438-3.6679C231.98369,84.6413,233.32429,88.1321,231.12039,91.4729Z" transform="translate(-27.37866 -35.76809)"/>
      <path class="cls-6" d="M223.22689,96.6636a30.79235,30.79235,0,0,0-9.0194,5.0299,5.34927,5.34927,0,0,1,1.4961-5.7377C217.86449,94.0093,221.15709,95.4142,223.22689,96.6636Z" transform="translate(-27.37866 -35.76809)"/>
      <path class="cls-6" d="M205.62779,108.3053c-.4505,2.7133-2.9761,4.2469-4.9924,5.0459a25.7828,25.7828,0,0,1,.504-6.8209,20.54813,20.54813,0,0,1,1.81261-4.7939A6.952,6.952,0,0,1,205.62779,108.3053Z" transform="translate(-27.37866 -35.76809)"/>
      <path class="cls-6" d="M209.49939,130.9933c-1.8339-.488-3.9038-1.5229-3.7751-3.7a4.42727,4.42727,0,0,1,2.7455-3.7108C208.78079,125.9956,209.18829,128.4944,209.49939,130.9933Z" transform="translate(-27.37866 -35.76809)"/>
      <path class="cls-6" d="M203.30589,148.185c-2.9708,2.0859-5.58219-.1878-6.73519-1.4962a12.16974,12.16974,0,0,0,6.40809-4.8421,3.89437,3.89437,0,0,0,.252-.5202C204.51769,143.2677,205.90129,146.3617,203.30589,148.185Z" transform="translate(-27.37866 -35.76809)"/>
    </g>
    <path class="cls-7" d="M125.2316,150.2139l17.244-.0985s-13.1914.8097-18.2642,12.5425c-4.3167,9.9793,0,21.9373,4.5634,28.1952l-.0269.0268c-.7024-.799-1.0725-1.287-1.0725-1.287-29.5142-9.4323-26.0984-35.3539-23.4709-56.2294,5.5876-15.5133,14.9449-24.3826,26.5168-23.7874,13.3576.6864,17.7601,11.3896,18.9129,15.2237-1.4853,2.4184-5.1156,8.0274-7.5447,9.4056C142.0895,134.2054,123.5883,134.0008,125.2316,150.2139Z" transform="translate(-27.37866 -35.76809)"/>
    <path class="cls-6" d="M158.5645,47.4894a20.01916,20.01916,0,0,0-6.277-1.6385,25.182,25.182,0,0,0-3.4066-.1317c-.4351-4.5831,2.5266-9.5182,4.3756-9.917l.0052-.0015a8.12967,8.12967,0,0,1,1.2765,4.8498,7.2747,7.2747,0,0,0,.0518.7974A8.16911,8.16911,0,0,0,158.5645,47.4894Z" transform="translate(-27.37866 -35.76809)"/>
    <path class="cls-6" d="M118.7643,51.4132s-2.6202,1.35-4.7444,2.5131c-.6529.3533-1.2641.6948-1.733.9677a16.521,16.521,0,0,1-2.7123-8.891,2.94032,2.94032,0,0,1,.4751-1.6065s1.0598.1872,2.3911,2.1974c.4844.7338.9266,1.4412,1.3981,2.0793A5.92841,5.92841,0,0,0,118.7643,51.4132Z" transform="translate(-27.37866 -35.76809)"/>
    <path class="cls-8" d="M152.9573,78.8509a1.91911,1.91911,0,0,0,.7632,3.2518c2.0757.7115,5.4548-.2268,6.7361-1.9727,1.0818-1.474-.2658-3.4441-1.8408-3.5091a7.59953,7.59953,0,0,0-3.7839.9399A7.16639,7.16639,0,0,0,152.9573,78.8509Z" transform="translate(-27.37866 -35.76809)"/>
    <path class="cls-8" d="M119.2891,83.8513a1.91205,1.91205,0,0,1,.4337,3.3054,6.93386,6.93386,0,0,1-7.0471.27,2.25382,2.25382,0,0,1,.4906-3.8884,7.66966,7.66966,0,0,1,3.8991-.3102A7.48369,7.48369,0,0,1,119.2891,83.8513Z" transform="translate(-27.37866 -35.76809)"/>
    <path class="cls-6" d="M137.9388,46.5763c-1.7212,2.2686-2.6829,5.3909-3.4743,7.757-.4364,1.2969-.8031,2.618-1.1218,3.9475a3.28923,3.28923,0,0,1-1.9007,2.4362,3.62118,3.62118,0,0,1-3.6794-1.0921,6.7013,6.7013,0,0,1-1.6844-4.4009,13.11946,13.11946,0,0,1,1.3845-6.5927c.1106-.0263.2264-.054.3421-.0817Q133.1736,47.2716,137.9388,46.5763Z" transform="translate(-27.37866 -35.76809)"/>
    <path class="cls-6" d="M108.1251,76.7578a7.34043,7.34043,0,0,1-4.5518-.0678c-.0154-.1392-.0307-.2785-.0424-.4243-.0137-.1343-.0291-.2736-.0393-.4143a34.08621,34.08621,0,0,1-.0946-3.7857C106.7843,73.9766,110.769,75.7546,108.1251,76.7578Z" transform="translate(-27.37866 -35.76809)"/>
    <path class="cls-6" d="M108.4215,80.574a7.12606,7.12606,0,0,1-3.7059,1.3138q-.15555-.469-.3003-.9582c-.2068-.7141-.3888-1.4576-.5357-2.2332-.0043-.0319-.0122-.0573-.0166-.0891C106.8973,78.7962,109.8993,79.243,108.4215,80.574Z" transform="translate(-27.37866 -35.76809)"/>
    <path class="cls-6" d="M106.3192,70.3803a5.78611,5.78611,0,0,1-2.7312-.7016c.0012-.05.0077-.1017.0142-.1533a23.22564,23.22564,0,0,1,.655-3.2166C106.4165,68.2359,108.2607,70.2588,106.3192,70.3803Z" transform="translate(-27.37866 -35.76809)"/>
    <path class="cls-6" d="M145.1486,45.8304c-.4331.6937-.9197,1.469-1.2641,2.0488-1.0871,1.8376-2.1077,4.3026-3.1597,4.7542-2.1977.9467-3.6044-1.0694-2.5889-3.6049a7.7522,7.7522,0,0,1,1.979-2.746l.0052-.0016C141.8631,46.0673,143.5358,45.9182,145.1486,45.8304Z" transform="translate(-27.37866 -35.76809)"/>
    <path class="cls-6" d="M126.2894,48.9298c-.8716,1.7315-1.6165,4.4988-2.747,5.1331-1.7034.9538-3.4281-.1641-2.8547-1.3126a11.64533,11.64533,0,0,1,1.9306-2.7376Q124.356,49.43865,126.2894,48.9298Z" transform="translate(-27.37866 -35.76809)"/>
    <g>
      <g>
        <path class="cls-9" d="M156.9562,76.5131a10.76323,10.76323,0,0,1-8.723,2.9382,6.16222,6.16222,0,0,1-1.8325-.5951,10.57259,10.57259,0,0,1-5.0132-6.793c-.019-.0609-.0328-.1231-.0468-.1855a7.51837,7.51837,0,0,1,2.5952-7.2778c2.4895-2.0915,6.5902-3.4635,9.6994-1.8262a9.09221,9.09221,0,0,1,3.1611,2.9045l.0053-.0015C159.0778,68.9515,159.7117,73.682,156.9562,76.5131Z" transform="translate(-27.37866 -35.76809)"/>
        <path class="cls-6" d="M156.9562,76.5131a10.77126,10.77126,0,0,1-4.2859,2.5664,11.06455,11.06455,0,0,1-2.4713.5194,8.236,8.236,0,0,1-2.5398-.1249,6.62,6.62,0,0,1-2.3404-1.0512,10.08635,10.08635,0,0,1-1.9092-1.7231,11.45206,11.45206,0,0,1-2.4012-4.5496l.0081.0296a7.671,7.671,0,0,1,.8846-5.8979,8.05673,8.05673,0,0,1,2.0235-2.2523,11.72122,11.72122,0,0,1,2.5752-1.5155,9.084,9.084,0,0,1,5.8807-.5619,6.919,6.919,0,0,1,2.623,1.4191,10.01118,10.01118,0,0,1,1.9421,2.204l-.1988-.0713.0052-.0012.1298-.0336.0686.1042a11.51245,11.51245,0,0,1,1.2921,2.6608,11.1242,11.1242,0,0,1,.5603,2.8861,8.23861,8.23861,0,0,1-.3549,2.9003A6.22539,6.22539,0,0,1,156.9562,76.5131Zm0,0a6.21252,6.21252,0,0,0,1.4632-2.5014,7.63233,7.63233,0,0,0,.2846-2.885,10.67118,10.67118,0,0,0-2.0509-5.3467l.1983.0707-.0051.0016-.1193.0373-.0796-.1086a9.57942,9.57942,0,0,0-1.9588-2.0128,6.33261,6.33261,0,0,0-2.4695-1.1853,8.74351,8.74351,0,0,0-5.3697.733,9.34577,9.34577,0,0,0-4.175,3.437,7.34987,7.34987,0,0,0-.9597,2.52,6.57507,6.57507,0,0,0-.109,1.351c-.0048.2271.0266.4522.0422.6788.0363.2135.0628.4694.1108.6438l.0076.028.0005.0019a10.807,10.807,0,0,0,2.0504,4.3887,9.63172,9.63172,0,0,0,1.7358,1.7309,6.279,6.279,0,0,0,2.1735,1.1094,9.11414,9.11414,0,0,0,4.9218-.1961A10.29282,10.29282,0,0,0,156.9562,76.5131Z" transform="translate(-27.37866 -35.76809)"/>
      </g>
      <path class="cls-6" d="M151.1245,77.0872a6.34192,6.34192,0,0,0,5.1249-3.9209,6.69362,6.69362,0,0,0-4.6246-8.3735,6.9022,6.9022,0,0,0-5.7152,1.171c-4.0806,3.2318-1.5301,10.0877,3.3612,11.0783A5.53443,5.53443,0,0,0,151.1245,77.0872Z" transform="translate(-27.37866 -35.76809)"/>
      <path class="cls-10" d="M156.7964,65.6782c-10.8076-1.6572-14.9271,5.4674-15.4089,6.385-.019-.0609-.0328-.1231-.0468-.1855a7.51837,7.51837,0,0,1,2.5952-7.2778c2.4895-2.0915,6.5902-3.4635,9.6994-1.8262A9.09221,9.09221,0,0,1,156.7964,65.6782Z" transform="translate(-27.37866 -35.76809)"/>
    </g>
    <g>
      <g>
        <path class="cls-9" d="M125.1194,76.7545c-.5299,2.4788-3.0155,4.0773-5.3759,4.6674a5.53053,5.53053,0,0,1-.9841.1447c-3.9701.2182-7.6854-4.0576-7.3873-7.89a4.978,4.978,0,0,1,.2167-1.1675c1.0462-3.3401,5.6297-5.8068,9.1102-4.6631a4.87872,4.87872,0,0,1,2.0788,1.5798,10.54165,10.54165,0,0,1,1.0633,1.5345A8.59889,8.59889,0,0,1,125.1194,76.7545Z" transform="translate(-27.37866 -35.76809)"/>
        <path class="cls-6" d="M125.1194,76.7546a5.177,5.177,0,0,1-.467,1.2723,5.808,5.808,0,0,1-.7913,1.1039,7.80946,7.80946,0,0,1-2.1674,1.6375,10.00671,10.00671,0,0,1-1.2524.5542,6.52965,6.52965,0,0,1-1.3344.3588,6.18951,6.18951,0,0,1-2.7649-.2824,8.34965,8.34965,0,0,1-4.282-3.5135,7.825,7.825,0,0,1-1.0485-2.6533c-.0358-.2391-.0584-.4814-.0868-.7221-.0198-.2416-.0036-.4855-.0057-.7283a5.02448,5.02448,0,0,1,.2458-1.4515,7.46648,7.46648,0,0,1,3.8111-4.1459,7.6306,7.6306,0,0,1,5.4998-.6357,4.50614,4.50614,0,0,1,2.2674,1.6138,11.41325,11.41325,0,0,1,1.4551,2.3193,10.65633,10.65633,0,0,1,.8832,2.5726A6.54993,6.54993,0,0,1,125.1194,76.7546Zm0,0a8.00136,8.00136,0,0,0-1.0364-5.214,10.4643,10.4643,0,0,0-1.5585-2.1857,4.12388,4.12388,0,0,0-2.1707-1.3593,7.10541,7.10541,0,0,0-5.0043.8909,7.98708,7.98708,0,0,0-2.0194,1.5861,5.78218,5.78218,0,0,0-1.2878,2.138,6.24249,6.24249,0,0,0,.7006,4.8746,7.819,7.819,0,0,0,3.7599,3.4839,5.81968,5.81968,0,0,0,2.5705.4263,6.32516,6.32516,0,0,0,1.3047-.2653,7.97616,7.97616,0,0,0,1.2586-.4763,7.40578,7.40578,0,0,0,2.199-1.5468,5.79654,5.79654,0,0,0,.8016-1.0883A5.17476,5.17476,0,0,0,125.1194,76.7546Z" transform="translate(-27.37866 -35.76809)"/>
      </g>
      <path class="cls-6" d="M116.685,78.8746c.1875.0843,2.0942,1.4118,4.9534-.3471,2.8592-1.7588,1.3877-5.6048.5436-6.7679a4.81751,4.81751,0,0,0-6.5454-1.5027C112.3375,72.1422,113.4595,77.4237,116.685,78.8746Z" transform="translate(-27.37866 -35.76809)"/>
      <path class="cls-10" d="M123.8411,70.9603c-4.894-1.268-9.9509,1.1857-12.469,2.7163a4.978,4.978,0,0,1,.2167-1.1675c1.0462-3.3401,5.6297-5.8068,9.1102-4.6631a4.87872,4.87872,0,0,1,2.0788,1.5798A10.54165,10.54165,0,0,1,123.8411,70.9603Z" transform="translate(-27.37866 -35.76809)"/>
    </g>
    <path class="cls-6" d="M171.15,55.2172c-7.3723,7.3576-11.9587,2.3596-8.6436.412a25.13886,25.13886,0,0,0,5.2698-4.4822A15.39093,15.39093,0,0,1,171.15,55.2172Z" transform="translate(-27.37866 -35.76809)"/>
    <path class="cls-6" d="M174.1298,62.3625l.0111.0354c.0318.1733.0722.3385.1073.5053-2.8676,2.1118-6.6142,3.8738-10.1018,3.4118-1.3159-.1744-2.6476-1.0128-2.5816-2.2642a2.37857,2.37857,0,0,1,.6676-1.4076c1.1041-1.2236,2.9257-1.8909,4.4989-2.5198a21.93729,21.93729,0,0,0,5.2412-3.3465A32.033,32.033,0,0,1,174.1298,62.3625Z" transform="translate(-27.37866 -35.76809)"/>
    <path class="cls-6" d="M174.7572,65.2492a20.35848,20.35848,0,0,1-.0114,6.6069,10.49922,10.49922,0,0,1-6.8778.5953,2.44649,2.44649,0,0,1-2.1043-1.9317c-.1435-1.4508,1.6852-2.1311,2.8296-2.4323A17.91748,17.91748,0,0,0,174.7572,65.2492Z" transform="translate(-27.37866 -35.76809)"/>
    <path class="cls-9" d="M153.1653,44.3385a3.62667,3.62667,0,0,1-1.3684.0729c-.3465-.1491,1.1938-.6305,1.1938-.6305-.8748-.1023-1.7859-.8075-1.526-.8987a4.288,4.288,0,0,1,1.3728.3017c-1.3601-1.0735-1.3261-3.2937-.2418-3.4616.4637-.0726,1.2497.7571,1.9943,1.7256a8.16911,8.16911,0,0,0,3.9745,6.0415,20.01916,20.01916,0,0,0-6.277-1.6385A2.53469,2.53469,0,0,1,153.1653,44.3385Z" transform="translate(-27.37866 -35.76809)"/>
    <path class="cls-9" d="M114.0199,53.9263a6.24861,6.24861,0,0,1,.4599-2.3593c-.0594.0448-.6819.5497-1.0711.4626-.4081-.0927.6409-.897.6409-.897s-.8962.3349-1.053.0871c-.1604-.2413.7957-.4387.7957-.4387-.7812-.2008-2.5228-1.6069-1.8474-2.3039.4407-.4527,1.3247-.1044,1.894.1961a5.92841,5.92841,0,0,0,4.9254,2.74S116.1441,52.7632,114.0199,53.9263Z" transform="translate(-27.37866 -35.76809)"/>
    <g>
      <path class="cls-6" d="M132.2501,72.6781s-1.7682-1.3813-2.4087-.9272c-.6405.454,2.023,2.5482,2.8738,2.6185.8509.0705,1.9858-2.9806,1.4375-3.4079C133.6045,70.5342,132.2501,72.6781,132.2501,72.6781Z" transform="translate(-27.37866 -35.76809)"/>
      <path class="cls-11" d="M129.236,75.3465a5.27521,5.27521,0,0,0-2.8337,3.0558,4.98107,4.98107,0,0,0,1.4121,5.7269,6.89042,6.89042,0,0,0,3.8001,1.2255c2.532.1558,5.0564.1363,7.3474-1.0301a6.17959,6.17959,0,0,0,2.1977-1.7503,5.5016,5.5016,0,0,0-1.8805-7.9842,8.54621,8.54621,0,0,0-5.4411-.3883A23.16278,23.16278,0,0,0,129.236,75.3465Z" transform="translate(-27.37866 -35.76809)"/>
      <path class="cls-6" d="M137.3556,83.1433c-.4462-.7231-.8626-1.4622-1.2912-2.1951l-1.2309-2.2288c-.4102-.7433-.7954-1.4996-1.1841-2.2553-.3771-.7637-.7565-1.519-1.0827-2.3249l.4443-.0723c-.0642,1.6227-.0856,3.2526-.0948,4.8792-.0013.8136.0062,1.6277.039,2.4407.0192.814.0707,1.6261.1455,2.4398a24.09068,24.09068,0,0,1-.367-2.425c-.0812-.8144-.1254-1.6312-.1671-2.448-.0762-1.6349-.0676-3.2686-.0148-4.9059l.0352-1.0915.4091,1.019c.3081.7675.6811,1.5343,1.0471,2.2946l1.1087,2.2861,1.1151,2.2859C136.6263,81.6106,137.003,82.3705,137.3556,83.1433Z" transform="translate(-27.37866 -35.76809)"/>
    </g>
    <g>
      <path class="cls-6" d="M108.2945,89.28a38.78657,38.78657,0,0,1,3.8324-2.3457,38.35228,38.35228,0,0,1,4.0525-1.941,38.35994,38.35994,0,0,1-3.8324,2.3458A38.80579,38.80579,0,0,1,108.2945,89.28Z" transform="translate(-27.37866 -35.76809)"/>
      <path class="cls-6" d="M106.3726,85.8501a36.63371,36.63371,0,0,1,4.1564-1.3385,36.22755,36.22755,0,0,1,4.2742-.893,36.21732,36.21732,0,0,1-4.1563,1.3385A36.65417,36.65417,0,0,1,106.3726,85.8501Z" transform="translate(-27.37866 -35.76809)"/>
      <path class="cls-6" d="M106.145,81.2925a37.03141,37.03141,0,0,1,4.3526.5819,36.64263,36.64263,0,0,1,4.2675,1.0349,36.63594,36.63594,0,0,1-4.3524-.582A37.07,37.07,0,0,1,106.145,81.2925Z" transform="translate(-27.37866 -35.76809)"/>
      <path class="cls-6" d="M157.6512,79.1215a39.601,39.601,0,0,1,4.5086-.5198,39.10177,39.10177,0,0,1,4.538-.0599,39.1016,39.1016,0,0,1-4.5086.5198A39.57446,39.57446,0,0,1,157.6512,79.1215Z" transform="translate(-27.37866 -35.76809)"/>
      <path class="cls-6" d="M166.2994,74.8848a36.54607,36.54607,0,0,1-4.092,1.5114,36.12315,36.12315,0,0,1-4.2285,1.0715,36.15409,36.15409,0,0,1,4.0918-1.5114A36.5392,36.5392,0,0,1,166.2994,74.8848Z" transform="translate(-27.37866 -35.76809)"/>
      <path class="cls-6" d="M163.8691,70.9602a35.65636,35.65636,0,0,1-2.9752,3.1153,35.21683,35.21683,0,0,1-3.2911,2.78,35.25687,35.25687,0,0,1,2.9753-3.1154A35.65788,35.65788,0,0,1,163.8691,70.9602Z" transform="translate(-27.37866 -35.76809)"/>
    </g>
    <path class="cls-11" d="M110.0698,90.8076c.5555.5608,1.11,1.1202,1.6889,1.6504.2853.2688.5776.5291.8784.7751a4.39071,4.39071,0,0,0,.9403.6196l.0895.0391.0217.1054a4.899,4.899,0,0,0,.2806.9433c.1184.2886.3278.578.5021.5734.0855-.0017.1132-.0111.1636-.129a1.31931,1.31931,0,0,0,.0511-.4276,4.83887,4.83887,0,0,0-.1384-.967l-.2107-.9199.6085.7153a9.01317,9.01317,0,0,0,.7606.7905,4.17828,4.17828,0,0,0,.8552.6326.83989.83989,0,0,0,.4292.1193.32361.32361,0,0,0,.1728-.0487c.0502-.0228.0607-.0567.0811-.1019a1.45655,1.45655,0,0,0-.3131-.8934l-.2837-.4261.4686.1747a18.09525,18.09525,0,0,0,1.8124.5507,9.94872,9.94872,0,0,0,1.8775.3053,8.29043,8.29043,0,0,1-1.9181-.1064,14.71749,14.71749,0,0,1-1.8793-.4412l.185-.2514a2.91288,2.91288,0,0,1,.3138.5153,1.1029,1.1029,0,0,1,.117.6651.61044.61044,0,0,1-.4137.4264.54294.54294,0,0,1-.1825.038,1.22748,1.22748,0,0,1-.6523-.1428,4.08448,4.08448,0,0,1-.9701-.6838,9.38742,9.38742,0,0,1-.8119-.8276l.3978-.2047a4.79512,4.79512,0,0,1,.1473,1.077,1.71351,1.71351,0,0,1-.0855.5913.68094.68094,0,0,1-.2235.3071.57015.57015,0,0,1-.3928.1042.82943.82943,0,0,1-.5776-.3515,2.23173,2.23173,0,0,1-.273-.5038,4.73013,4.73013,0,0,1-.2717-1.0453l.1111.1445a4.6509,4.6509,0,0,1-.9901-.7319c-.2942-.2707-.5745-.5518-.8465-.8398C111.0567,92.0409,110.5427,91.4405,110.0698,90.8076Z" transform="translate(-27.37866 -35.76809)"/>
    <path class="cls-11" d="M160.4924,86.8892c.5882-.4485,1.1808-.8883,1.7557-1.3501.5773-.4572,1.155-.9151,1.6885-1.4123l.3244-.3024-.0479.4532a2.72483,2.72483,0,0,0-.0004.6109c.0199.1933.0951.3881.1778.4275a.21627.21627,0,0,0,.1592.0085.32988.32988,0,0,0,.143-.1279,1.99312,1.99312,0,0,0,.2411-.534,8.00155,8.00155,0,0,0,.264-1.2439,8.2649,8.2649,0,0,0,.0895-1.2638l-.0194-.7586.4382.6159a4.65462,4.65462,0,0,0,.6505.7456c.2353.214.5298.3884.6995.2988.2008-.0727.3463-.3927.4164-.7018a4.86968,4.86968,0,0,0,.1094-.9893l.0022-.1414.1253-.0373a10.70558,10.70558,0,0,0,2.1931-.9434,9.15329,9.15329,0,0,0,1.0193-.6406,9.59093,9.59093,0,0,0,.9308-.7741,8.22471,8.22471,0,0,1-1.8319,1.6105,10.90645,10.90645,0,0,1-2.2085,1.0907l.1275-.1787a4.2899,4.2899,0,0,1-.0723,1.0907,2.173,2.173,0,0,1-.1813.5473.96556.96556,0,0,1-.4596.4686.70577.70577,0,0,1-.3629.0592,1.00665,1.00665,0,0,1-.3216-.0928,2.11878,2.11878,0,0,1-.4833-.3295,5.07,5.07,0,0,1-.7307-.8207l.4187-.1427a8.20585,8.20585,0,0,1-.1031,1.3512,7.48174,7.48174,0,0,1-.2994,1.3168,2.36722,2.36722,0,0,1-.3201.6465.70952.70952,0,0,1-.3642.2691.607.607,0,0,1-.4753-.0597.904.904,0,0,1-.3397-.7306,3.06241,3.06241,0,0,1,.0374-.6981l.2765.1506c-.5758.4778-1.1736.9159-1.787,1.3314C161.7534,86.1163,161.1341,86.5205,160.4924,86.8892Z" transform="translate(-27.37866 -35.76809)"/>
    <g class="cls-12">
      <path class="cls-6" d="M152.9664,147.8418c1.7148-1.2071,3.3839-2.4727,4.9629-3.8389a36.10981,36.10981,0,0,0,4.4165-4.3839l.6376-.7744.0031,1.0278a5.65285,5.65285,0,0,0,.2725,1.8923c.0983.278.2599.4723.3678.4817.0373.0123-.0029-.0097-.0544.0036-.0319-.0033-.0655.0253-.062.0179a.5974.5974,0,0,0,.0556-.0747,2.23917,2.23917,0,0,0,.1764-.385,12.30863,12.30863,0,0,0,.46-1.9393c.1139-.6689.2062-1.3527.2777-2.0247l.2518-2.3665.6745,2.295a11.329,11.329,0,0,0,.7935,2.024c.3015.6153.8376,1.2311,1.0878,1.0969.1052-.0053.2197-.1467.2846-.4658a3.85178,3.85178,0,0,0,.0319-1.0064,11.75085,11.75085,0,0,0-.3989-2.1438l-.0685-.2487.1741-.1973a31.66062,31.66062,0,0,0,4.2-6.3528,44.79779,44.79779,0,0,0,2.9527-7.0987,56.06655,56.06655,0,0,0,2.5038-15.2184,52.50429,52.50429,0,0,1-.3478,7.764,46.65661,46.65661,0,0,1-1.5459,7.6402,45.18238,45.18238,0,0,1-2.8096,7.2958,32.35864,32.35864,0,0,1-4.289,6.598l.1055-.4457a12.61273,12.61273,0,0,1,.4696,2.3284,4.74562,4.74562,0,0,1-.0282,1.267,1.94954,1.94954,0,0,1-.2631.7081,1.22327,1.22327,0,0,1-.746.5345,1.34314,1.34314,0,0,1-.8797-.0889,1.922,1.922,0,0,1-.6019-.4546,4.79318,4.79318,0,0,1-.702-1.0613,12.23666,12.23666,0,0,1-.8358-2.2299l.9262-.0715c-.0864.7031-.1906,1.3904-.3201,2.0842a13.04167,13.04167,0,0,1-.5353,2.0872,3.01912,3.01912,0,0,1-.2693.5503,1.11657,1.11657,0,0,1-.288.3094.739.739,0,0,1-.295.1252.74868.74868,0,0,1-.3104-.0245,1.486,1.486,0,0,1-.9337-1.0298,6.34555,6.34555,0,0,1-.2081-2.211l.6405.2534a34.22315,34.22315,0,0,1-4.6841,4.2675A49.44912,49.44912,0,0,1,152.9664,147.8418Z" transform="translate(-27.37866 -35.76809)"/>
    </g>
    <path class="cls-6" d="M136.7134,148.4549a5.70183,5.70183,0,0,1,.2324-2.3814,6.58051,6.58051,0,0,1,1.1241-2.1687,5.337,5.337,0,0,1,1.9296-1.5387,4.73311,4.73311,0,0,1,2.362-.4648,12.79976,12.79976,0,0,0-1.9659,1.1372,7.50991,7.50991,0,0,0-1.5448,1.49A15.62052,15.62052,0,0,0,136.7134,148.4549Z" transform="translate(-27.37866 -35.76809)"/>
    <path class="cls-6" d="M128.4436,149.1797a7.243,7.243,0,0,1,.1506-2.5573,8.75294,8.75294,0,0,1,.9382-2.4234,6.82458,6.82458,0,0,1,1.7625-1.96,4.87594,4.87594,0,0,1,2.4228-.9125,9.21,9.21,0,0,0-3.3248,3.3809A27.32476,27.32476,0,0,0,128.4436,149.1797Z" transform="translate(-27.37866 -35.76809)"/>
    <g class="cls-12">
      <path class="cls-6" d="M152.9664,150.5055c-5.8892-.4549-11.9396-.1206-17.4509,1.9195a19.74226,19.74226,0,0,0-7.2876,4.6571,16.64707,16.64707,0,0,0-4.1344,7.5017,33.03454,33.03454,0,0,0,.4303,17.3101,26.84727,26.84727,0,0,0,9.8309,14.2499,23.27513,23.27513,0,0,1-6.5582-6.0134,28.00714,28.00714,0,0,1-4.0897-7.9807,32.05165,32.05165,0,0,1-.5104-17.8049,17.54406,17.54406,0,0,1,4.4193-7.8602,19.95787,19.95787,0,0,1,7.6735-4.6786,31.91639,31.91639,0,0,1,8.7823-1.673A46.17124,46.17124,0,0,1,152.9664,150.5055Z" transform="translate(-27.37866 -35.76809)"/>
    </g>
    <g class="cls-12">
      <path class="cls-6" d="M130.0748,115.9624a11.37528,11.37528,0,0,0-1.1842-.5776,2.78068,2.78068,0,0,0-.5986-.1735c-.1922-.0323-.3773-.0033-.4057.0519-.0911.0109.1224.4555.3868.7398a8.069,8.069,0,0,0,.8903.8739l1.6279,1.4156-2.0745-.6988a4.57338,4.57338,0,0,0-1.172-.2538.90156.90156,0,0,0-.379.0412c-.0162.0063.0156-.0043.0122-.0215.0264-.0447.0011-.0723.0202-.0386a2.78792,2.78792,0,0,0,.7976.6745,10.20521,10.20521,0,0,0,1.1101.6093l.5837.2758-.4234.4889a8.04087,8.04087,0,0,0-.9348,1.3645,11.81629,11.81629,0,0,0-.7291,1.554,15.10509,15.10509,0,0,0-.5313,1.6603c-.1584.5671-.2423,1.1503-.3528,1.7414a10.20519,10.20519,0,0,1-.0433-1.8034,9.748,9.748,0,0,1,.2719-1.8055,10.36956,10.36956,0,0,1,.6162-1.7389,7.62786,7.62786,0,0,1,.9912-1.6214l.1604.7646a11.11551,11.11551,0,0,1-1.2463-.6499,4.59518,4.59518,0,0,1-.5981-.4263,2.02059,2.02059,0,0,1-.5614-.6757.95169.95169,0,0,1-.0527-.6856.942.942,0,0,1,.4404-.5112,1.58212,1.58212,0,0,1,.9262-.1357,5.409,5.409,0,0,1,1.4127.3964l-.4466.7168a7.35211,7.35211,0,0,1-.8993-1.0751,2.78457,2.78457,0,0,1-.3486-.6641,1.27458,1.27458,0,0,1-.0687-.4512.66779.66779,0,0,1,.2692-.4928.91321.91321,0,0,1,.8643-.0446,3.147,3.147,0,0,1,.6253.3261A6.09365,6.09365,0,0,1,130.0748,115.9624Z" transform="translate(-27.37866 -35.76809)"/>
    </g>
    <g class="cls-12">
      <path class="cls-6" d="M155.5003,149.7144a14.212,14.212,0,0,1,4.1847.7098,22.58039,22.58039,0,0,1,3.9338,1.6366,21.208,21.208,0,0,1,3.551,2.3565,17.86693,17.86693,0,0,1,2.9636,3.037c-1.1501-.828-2.2572-1.6622-3.4248-2.4075a41.11835,41.11835,0,0,0-3.559-2.1036c-1.2112-.6549-2.4594-1.2416-3.7301-1.7884A34.86524,34.86524,0,0,0,155.5003,149.7144Z" transform="translate(-27.37866 -35.76809)"/>
    </g>
    <path class="cls-6" d="M184.8594,94.3042a27.90317,27.90317,0,0,1-10.8212,3.271,5.30367,5.30367,0,0,1-3.3354-.5738c-2.3326-1.5336-.4664-4.2094,1.1369-5.3998a29.61169,29.61169,0,0,1,3.8072-2.1182,22.40669,22.40669,0,0,0,3.5553-2.3487q.9732,1.00545,1.8821,2.0913A51.09652,51.09652,0,0,1,184.8594,94.3042Z" transform="translate(-27.37866 -35.76809)"/>
    <path class="cls-6" d="M191.7286,107.9728a15.21521,15.21521,0,0,1-4.8583-.1073,4.06614,4.06614,0,0,1-1.6784-.6863,1.89371,1.89371,0,0,1-.799-1.5712,2.29709,2.29709,0,0,1,.606-1.2977,10.73686,10.73686,0,0,1,3.9628-2.7455C189.9644,103.6239,190.8921,105.7636,191.7286,107.9728Z" transform="translate(-27.37866 -35.76809)"/>
    <path class="cls-6" d="M196.5119,124.7462a20.11442,20.11442,0,0,1-10.1081-.3003,4.923,4.923,0,0,1-1.9948-.992,1.95826,1.95826,0,0,1-.5899-2.0377,2.76506,2.76506,0,0,1,1.716-1.3513c3.0029-1.1744,6.2257-1.5927,9.2715-2.6115.2145.799.4182,1.5979.6167,2.4023C195.8254,121.4752,196.1847,123.1053,196.5119,124.7462Z" transform="translate(-27.37866 -35.76809)"/>
    <path class="cls-6" d="M198.39929,137.9643a10.75036,10.75036,0,0,1-5.38909-1.4156,3.06458,3.06458,0,0,1-1.1369-1.0832,1.71852,1.71852,0,0,1-.2359-1.0939c.2359-1.6195,3.0726-2.8635,5.8932-3.759.1502.9866.2842,1.9787.40219,2.9653C198.12049,135.0419,198.27059,136.5058,198.39929,137.9643Z" transform="translate(-27.37866 -35.76809)"/>
    <path class="cls-6" d="M188.6828,184.5577c-.2789.2842-.5577.563-.8419.8365a33.18957,33.18957,0,0,1-5.3409,4.1451c-.3378.2145-.6811.4182-1.0242.6167a13.57583,13.57583,0,0,1-2.5846-8.0972,3.72634,3.72634,0,0,1,.4933-1.7802,1.94419,1.94419,0,0,1,.992-.8419C182.4624,178.6752,185.9694,181.7693,188.6828,184.5577Z" transform="translate(-27.37866 -35.76809)"/>
    <path class="cls-6" d="M172.5904,193.9203c-.7239.2091-1.4478.4022-2.1611.5738a50.88661,50.88661,0,0,1-5.3569.9759,12.56852,12.56852,0,0,1-1.4263-4.9763c-.1234-2.5953,2.665-2.37,4.3113-1.4156a12.49827,12.49827,0,0,1,3.4694,3.5284A14.97341,14.97341,0,0,0,172.5904,193.9203Z" transform="translate(-27.37866 -35.76809)"/>
    <path class="cls-6" d="M196.5333,169.7523a41.40591,41.40591,0,0,1-2.5204,7.2606c-5.3247-1.5659-10.2795-4.6921-13.2128-9.3734-.9491-1.5175-1.6247-3.6142-.4718-4.987,1.0349-1.2333,3.0029-1.1207,4.4775-.4718,2.0859.9169,3.7,2.6167,5.4857,4.0324a23.79984,23.79984,0,0,0,5.802,3.3783C196.2384,169.6504,196.3884,169.704,196.5333,169.7523Z" transform="translate(-27.37866 -35.76809)"/>
    <path class="cls-6" d="M198.79089,152.9199q-.0645,1.72125-.1825,3.3837c-.1822,2.4934-.4503,4.8957-.80429,7.1747v.0107a28.02809,28.02809,0,0,1-8.2847-5.0674c-2.4882-2.1288-3.5928-5.9414.3592-7.2928,2.8044-.9544,5.5554.4559,8.09719,1.5123A6.612,6.612,0,0,0,198.79089,152.9199Z" transform="translate(-27.37866 -35.76809)"/>
    <polygon class="cls-6" points="106.68 64.141 108.873 66.778 112.132 66.514 114.605 62.09 109.335 59.18 105.465 62.09 107.206 63.962 106.68 64.141"/>
    <path class="cls-9" d="M136.7134,94.9478l-1.7802,6.1573-12.276-6.1573S131.3287,95.3742,136.7134,94.9478Z" transform="translate(-27.37866 -35.76809)"/>
    <path class="cls-9" d="M136.7134,94.9478l4.0619,6.1573s11.5461-4.7935,16.8759-11.8251C157.6512,89.28,146.6199,93.8896,136.7134,94.9478Z" transform="translate(-27.37866 -35.76809)"/>
    <path class="cls-13" d="M139.511,102.282s1.2643,9.901,5.3628,29.1234l-2.7852,2.7981a16.61283,16.61283,0,0,0-8.3709,1.7248s2.5509-25.2778,2.5335-33.3827Z" transform="translate(-27.37866 -35.76809)"/>
    <g class="cls-12">
      <path class="cls-6" d="M125.2316,146.3282a11.76534,11.76534,0,0,1,1.817-5.3733,14.358,14.358,0,0,1,4.0247-4.1199l1.2497-.7442c.4192-.2439.8766-.4075,1.3141-.6149a18.42851,18.42851,0,0,1,2.7354-.9488c.9316-.2438,1.8857-.3822,2.829-.5741l2.8669-.2351-.2984.1185a46.6203,46.6203,0,0,0,5.5773-6.0259,36.901,36.901,0,0,0,2.3082-3.4163,27.09715,27.09715,0,0,0,1.8217-3.7197,24.00254,24.00254,0,0,1-3.5744,7.5371,35.77723,35.77723,0,0,1-2.5598,3.3303,34.602,34.602,0,0,1-2.9358,3.0284l-.113.1017-.1857.017-2.7725.2539c-.905.1816-1.8271.3018-2.7204.5275a19.11349,19.11349,0,0,0-5.0862,2.0778,13.74267,13.74267,0,0,0-4.0372,3.7041A12.80894,12.80894,0,0,0,125.2316,146.3282Z" transform="translate(-27.37866 -35.76809)"/>
    </g>
    <g>
      <path class="cls-6" d="M166.3601,149.3526a1.03586,1.03586,0,0,1-.9645,1.1193l-40.2927,3.1211a1.04085,1.04085,0,0,1-1.1192-.9645l-.0729-.8463-.0819-1.0283a1.04722,1.04722,0,0,1,.8918-1.1101c.0272,0,.0454-.0091.0727-.0091l38.6821-3.0484a2.55922,2.55922,0,0,1,.264-.0091,2.64666,2.64666,0,0,1,2.4841,1.8745,3.11713,3.11713,0,0,1,.1092.5824Z" transform="translate(-27.37866 -35.76809)"/>
      <path class="cls-13" d="M166.2236,148.4517l-42.3128,3.3305h-.0273l-.1546-2.0565.9918-.0819,39.0188-3.0666A2.64666,2.64666,0,0,1,166.2236,148.4517Z" transform="translate(-27.37866 -35.76809)"/>
      <path class="cls-6" d="M128.4436,153.2917l-13.8478-34.875a8.028,8.028,0,0,0-8.0914-5.0406l-55.3556,4.3583a4.4246,4.4246,0,0,0-3.7918,5.9749l12.9338,34.23Z" transform="translate(-27.37866 -35.76809)"/>
      <path class="cls-13" d="M126.346,153.4829l-13.9557-34.928a8.02814,8.02814,0,0,0-8.0915-5.0406l-55.3556,4.3583a4.42462,4.42462,0,0,0-3.7917,5.9749l12.9338,34.23Z" transform="translate(-27.37866 -35.76809)"/>
    </g>
    <g>
      <path class="cls-9" d="M81.6642,129.5568a6.92276,6.92276,0,1,0,7.8621,5.8404A6.92277,6.92277,0,0,0,81.6642,129.5568Zm-1.878,8.2614a1.53485,1.53485,0,1,1,1.295-1.7419A1.533,1.533,0,0,1,79.7862,137.8182Z" transform="translate(-27.37866 -35.76809)"/>
      <polygon class="cls-9" points="61.382 99.741 65.602 94.08 66.892 102.846 61.382 99.741"/>
    </g>
  </g>
</svg>
