<svg id="OBJECTS" xmlns="http://www.w3.org/2000/svg" viewBox="0 0 221.31017 194.40248">
  <defs>
    <style>
      .cls-1 {
        fill: #b8f0e7;
      }

      .cls-2 {
        fill: #f8c794;
      }

      .cls-16, .cls-3, .cls-4 {
        fill: none;
      }

      .cls-3, .cls-4 {
        stroke: #973433;
        stroke-linecap: round;
        stroke-linejoin: round;
      }

      .cls-4 {
        stroke-dasharray: 4.96167 4.96167;
      }

      .cls-5, .cls-8 {
        fill: #98e0c1;
      }

      .cls-5 {
        opacity: 0.64;
      }

      .cls-6 {
        fill: #e05656;
      }

      .cls-7 {
        fill: #f09c46;
      }

      .cls-10, .cls-13, .cls-15, .cls-9 {
        fill: #973433;
      }

      .cls-9 {
        opacity: 0.2;
      }

      .cls-11, .cls-12, .cls-13 {
        opacity: 0.48;
      }

      .cls-12 {
        fill: #cc4a4a;
      }

      .cls-14 {
        fill: #fff;
      }

      .cls-15 {
        opacity: 0.21;
      }

      .cls-16 {
        stroke: #fff;
        stroke-miterlimit: 10;
      }
    </style>
  </defs>
  <g>
    <path class="cls-1" d="M359.27209,297.8971c-14.71809-2.5253-29.6563-2.3811-43.33209,1.6891a64.82678,64.82678,0,0,0-7.614,2.7857c-20.10011,8.8428-31.93661,28.8837-32.069,50.6243-.09611,15.7694,6.45969,31.0699,16.56079,43.0057,11.0491,13.0561,28.0308,19.3509,44.0506,23.8337,30.2549,8.4662,68.301,2.1161,92.1217-19.2975,12.1598-10.9311,18.4958-29.7935,13.3354-45.5857-5.2652-16.1128-17.86449-29.079-32.1269-37.7328A149.19329,149.19329,0,0,0,359.27209,297.8971Z" transform="translate(-253.68983 -275.4045)"/>
    <g>
      <g>
        <polygon class="cls-2" points="99.43 6.499 103.511 97.043 208.987 99.633 217.673 2.551 99.43 6.499"/>
        <path class="cls-3" d="M377.88939,291.3942a4.06565,4.06565,0,1,1-4.0656-4.0656A4.06562,4.06562,0,0,1,377.88939,291.3942Z" transform="translate(-253.68983 -275.4045)"/>
        <path class="cls-3" d="M428.03409,359.8391a4.0656,4.0656,0,1,1-4.0656-4.0656A4.06565,4.06565,0,0,1,428.03409,359.8391Z" transform="translate(-253.68983 -275.4045)"/>
        <circle class="cls-3" cx="190.14776" cy="46.1054" r="4.0656"/>
        <line class="cls-3" x1="165.68846" y1="27.2166" x2="172.37706" y2="32.885"/>
        <line class="cls-3" x1="166.21306" y1="31.9043" x2="171.72136" y2="26.5305"/>
        <line class="cls-3" x1="146.16486" y1="72.0716" x2="152.85346" y2="77.74"/>
        <line class="cls-3" x1="146.68946" y1="76.7592" x2="152.19766" y2="71.3855"/>
        <polygon class="cls-3" points="150.606 58.006 151.655 63.168 160.18 63.168 160.18 56.957 150.606 58.006"/>
        <polygon class="cls-3" points="187.262 18.757 188.836 25.078 196.836 25.078 196.836 17.782 187.262 18.757"/>
        <line class="cls-3" x1="160.18017" y1="63.1681" x2="167.91796" y2="80.369"/>
        <line class="cls-3" x1="160.18017" y1="60.0626" x2="170.27866" y2="34.3948"/>
        <line class="cls-3" x1="192.04946" y1="24.6526" x2="190.14776" y2="42.0398"/>
        <g>
          <path class="cls-3" d="M375.57059,293.393a21.85716,21.85716,0,0,1,2.4907.1615" transform="translate(-253.68983 -275.4045)"/>
          <path class="cls-4" d="M382.93419,294.4567c9.18,2.3503,24.1999,9.8845,28.58881,34.0195" transform="translate(-253.68983 -275.4045)"/>
          <path class="cls-3" d="M411.92359,330.9301q.1764,1.214.3176,2.4807" transform="translate(-253.68983 -275.4045)"/>
        </g>
        <polyline class="cls-3" points="163.209 78.163 168.127 80.815 168.193 74.665"/>
        <line class="cls-3" x1="187.47476" y1="48.5838" x2="160.18017" y2="60.8072"/>
        <polyline class="cls-3" points="163.978 56.945 160.108 60.419 164.731 62.912"/>
      </g>
      <polygon class="cls-5" points="210.543 0 221.31 10.169 218.267 13.359 206.947 2.599 210.543 0"/>
    </g>
    <path class="cls-6" d="M401.16639,383.5783l16.1612-.5024s2.0043,14.1183-2.836,18.3114h-16.6892S402.38629,392.0167,401.16639,383.5783Z" transform="translate(-253.68983 -275.4045)"/>
    <path class="cls-7" d="M426.53959,378.9508s-1.494,8.9641.83,14.9402h14.0252s-1.8311-9.2961-.624-14.9402Z" transform="translate(-253.68983 -275.4045)"/>
    <path class="cls-8" d="M420.53,400.7997h13.87959s3.5697,9.4915-1.9878,16.1526L420.53,416.7791S422.74509,408.0643,420.53,400.7997Z" transform="translate(-253.68983 -275.4045)"/>
    <g>
      <g>
        <g>
          <g>
            <g>
              <path class="cls-7" d="M347.58869,446.9071c.0066,4.6746-8.18869,5.5417-13.072,5.9851-.9454.0847-1.7734.1564-2.3862.2347-7.9671,1.0301-16.8796,3.0642-24.0838,6.6566-1.2323.6128-2.5166,1.2518-3.8336,1.8907a111.394,111.394,0,0,1-12.9938,5.5092c-10.2229,3.4619-21.0326,4.4529-29.5539-3.0513a23.34349,23.34349,0,0,1-6.5523-9.9882,25.84734,25.84734,0,0,1-.54109-15.1387,22.89212,22.89212,0,0,1,1.57119-4.127c3.7423-7.5042,11.33781-12.3484,18.5356-16.1037,0,0,7.7845,6.2263,7.7845,6.2328-.2608-.2151-3.0056,1.5257-3.2664,1.6756a44.4553,44.4553,0,0,0-7.0934,4.9289c-4.5834,3.9379-8.5082,9.7013-7.8172,16.0124a11.49665,11.49665,0,0,0,4.6551,8.2344,15.07264,15.07264,0,0,0,11.0183,2.4906c.2608-.0392.5216-.0783.7824-.1239,7.1847-1.2714,13.5806-5.8612,19.8982-9.1211,2.1515-1.1084,4.3486-2.1384,6.5849-3.0708a87.06654,87.06654,0,0,1,13.6131-4.479q.6651-.16635,1.3301-.313a60.37057,60.37057,0,0,1,7.5628-1.2452,29.961,29.961,0,0,1,11.4812.9584C343.97679,441.8021,347.58219,443.582,347.58869,446.9071Z" transform="translate(-253.68983 -275.4045)"/>
              <path class="cls-9" d="M347.58869,446.9071c.0066,4.6746-8.18869,5.5417-13.072,5.9851-.9454.0847-1.7734.1564-2.3862.2347-7.9671,1.0301-16.8796,3.0642-24.0838,6.6566-1.2323.6128-2.5166,1.2518-3.8336,1.8907a111.394,111.394,0,0,1-12.9938,5.5092c-10.2229,3.4619-21.0326,4.4529-29.5539-3.0513a23.34349,23.34349,0,0,1-6.5523-9.9882,25.84734,25.84734,0,0,1-.54109-15.1387,22.89212,22.89212,0,0,1,1.57119-4.127c3.7423-7.5042,11.33781-12.3484,18.5356-16.1037,0,0,7.7845,6.2263,7.7845,6.2328-.2608-.2151-3.0056,1.5257-3.2664,1.6756a44.4553,44.4553,0,0,0-7.0934,4.9289c-4.5834,3.9379-8.5082,9.7013-7.8172,16.0124a11.49665,11.49665,0,0,0,4.6551,8.2344,15.07264,15.07264,0,0,0,11.0183,2.4906c.2608-.0392.5216-.0783.7824-.1239,7.1847-1.2714,13.5806-5.8612,19.8982-9.1211,2.1515-1.1084,4.3486-2.1384,6.5849-3.0708a87.06654,87.06654,0,0,1,13.6131-4.479q.6651-.16635,1.3301-.313a60.37057,60.37057,0,0,1,7.5628-1.2452,29.961,29.961,0,0,1,11.4812.9584C343.97679,441.8021,347.58219,443.582,347.58869,446.9071Z" transform="translate(-253.68983 -275.4045)"/>
            </g>
            <path class="cls-10" d="M347.58869,446.9071c.0066,4.6746-8.18869,5.5417-13.072,5.9851,1.1801-2.797,5.5091-4.8377,5.5091-4.8377a15.44415,15.44415,0,0,1-10.2946-8.0583,29.961,29.961,0,0,1,11.4812.9584C343.97679,441.8021,347.58219,443.582,347.58869,446.9071Z" transform="translate(-253.68983 -275.4045)"/>
            <path class="cls-10" d="M320.83829,441.5544c-.1434,3.0316-1.1279,6.787-5.0332,7.3803a9.72136,9.72136,0,0,1-8.5799-2.9013A87.06654,87.06654,0,0,1,320.83829,441.5544Z" transform="translate(-253.68983 -275.4045)"/>
            <path class="cls-10" d="M304.21309,461.6742a111.394,111.394,0,0,1-12.9938,5.5092,8.35582,8.35582,0,0,1,4.38771-6.6306C298.45619,459.1576,301.78769,460.3312,304.21309,461.6742Z" transform="translate(-253.68983 -275.4045)"/>
            <path class="cls-10" d="M280.74209,458.2253c-1.9168,2.5362-4.968,5.5222-8.1105,4.2182-2.84259-1.18-3.5924-4.1465-3.6902-6.5849a15.07264,15.07264,0,0,0,11.0183,2.4906C280.22049,458.31,280.48129,458.2709,280.74209,458.2253Z" transform="translate(-253.68983 -275.4045)"/>
            <path class="cls-10" d="M258.59469,446.4116a9.82341,9.82341,0,0,1-3.4816,7.7323,25.84734,25.84734,0,0,1-.54109-15.1387C256.27359,440.4395,258.51639,442.9822,258.59469,446.4116Z" transform="translate(-253.68983 -275.4045)"/>
          </g>
          <g>
            <g>
              <path class="cls-7" d="M364.328,348.7029s10.04979,9.6755,13.02469,13.9438c0,0,7.7606-8.4304,10.4769-10.0357,2.7162-1.6052,4.3976,0,4.3976,0s4.78581-1.3465,6.0792,2.9218c0,0,2.9749,1.2935,2.0695,7.1139-.9054,5.8205-14.7452,23.2819-27.5502,21.083C360.02069,381.5309,364.328,348.7029,364.328,348.7029Z" transform="translate(-253.68983 -275.4045)"/>
              <path class="cls-9" d="M364.328,348.7029s10.04979,9.6755,13.02469,13.9438c0,0,7.7606-8.4304,10.4769-10.0357,2.7162-1.6052,4.3976,0,4.3976,0s4.78581-1.3465,6.0792,2.9218c0,0,2.9749,1.2935,2.0695,7.1139-.9054,5.8205-14.7452,23.2819-27.5502,21.083C360.02069,381.5309,364.328,348.7029,364.328,348.7029Z" transform="translate(-253.68983 -275.4045)"/>
            </g>
            <path class="cls-2" d="M396.92329,359.1251a1.58445,1.58445,0,0,0-.7812,1.0254.938.938,0,0,0,.0388.6245.87848.87848,0,0,0,.5724.4278,2.60322,2.60322,0,0,0,.732.055,2.71377,2.71377,0,0,0,.6398-.0635.91182.91182,0,0,0,.5296-.3429.99387.99387,0,0,0,.1496-.4765A1.22647,1.22647,0,0,0,396.92329,359.1251Z" transform="translate(-253.68983 -275.4045)"/>
            <path class="cls-2" d="M387.82929,354.9459a1.20829,1.20829,0,0,0,.1594.8002,1.15874,1.15874,0,0,0,1.0838.3706,1.73834,1.73834,0,0,0,.9696-.3947c.5686-.502.5226-1.6424-.3199-1.8168C388.95859,353.7472,387.899,354.0872,387.82929,354.9459Z" transform="translate(-253.68983 -275.4045)"/>
            <path class="cls-2" d="M391.51429,358.4352a7.36861,7.36861,0,0,0-4.5098.7714,2.90037,2.90037,0,0,0-1.1782,1.1295,1.41574,1.41574,0,0,0-.1458,1.0338,1.651,1.651,0,0,0,1.2612,1.0333c.5652.1402,1.6166-.1213,1.9566.4406.8241,1.362,2.1376,2.6055,3.7358,1.447,2.0327-1.4736,2.34891-4.7885-.3616-5.6712A5.26909,5.26909,0,0,0,391.51429,358.4352Z" transform="translate(-253.68983 -275.4045)"/>
            <path class="cls-2" d="M394.05519,354.43a2.112,2.112,0,0,0-.937,2.0265.60381.60381,0,0,0,.19881.4416.62178.62178,0,0,0,.34009.0877,3.45359,3.45359,0,0,0,2.0253-.5579c.5054-.3313,1.2549-1.2387.56561-1.7577A2.04868,2.04868,0,0,0,394.05519,354.43Z" transform="translate(-253.68983 -275.4045)"/>
            <g class="cls-11">
              <path class="cls-10" d="M377.35269,362.6467a5.84985,5.84985,0,0,1,1.3601,1.6567,8.32087,8.32087,0,0,1,.8268,1.9825,7.08182,7.08182,0,0,1-.0719,4.2479c-.1718-.7071-.2654-1.3764-.4183-2.0365-.1403-.6586-.28839-1.3077-.4738-1.9479C378.23729,365.2549,377.79509,364.0072,377.35269,362.6467Z" transform="translate(-253.68983 -275.4045)"/>
            </g>
          </g>
          <path class="cls-7" d="M371.60479,390.284c-2.2167,9.284-7.5694,17.7271-12.4266,21.7432-13.5284,11.1748-34.5414,14.5324-39.3399,15.1714-.6455.0847-.9975.1238-.9975.1238.3194.0392.6389.0783.9518.1109.965.1238,1.8908.2347,2.7905.3455,8.7625,1.0823,14.4085,2.0016,14.1021,5.0398-.24119,2.3927-23.8491,2.7578-30.284,2.5035-6.435-.2608-4.6617-4.1269-4.6617-4.1269a54.918,54.918,0,0,1-10.9922.7693,49.81561,49.81561,0,0,1-8.782-.9845,35.67308,35.67308,0,0,1-9.4797-3.3251,27.49352,27.49352,0,0,1-5.0919-3.4554,26.07222,26.07222,0,0,1-5.9786-7.4651,31.15617,31.15617,0,0,1-2.7382-7.1717v-.0065a41.92031,41.92031,0,0,1-1.1736-7.5629c-.0326-.4889-.0587-.9714-.0717-1.4538a41.349,41.349,0,0,1,.1695-5.7244,39.97184,39.97184,0,0,1,4.1922-14.3042,45.325,45.325,0,0,1,5.03971-7.765,53.48561,53.48561,0,0,1,5.07239-5.4896,65.00653,65.00653,0,0,1,6.2719-5.2288,80.81683,80.81683,0,0,1,7.7519-5.0267c2.1711-1.2387,4.29-2.3275,6.2785-3.2663,2.8035-1.3301,5.3397-2.3732,7.3869-3.1425,3.0968-1.1671,5.0853-1.7213,5.2027-1.7539,0,0,32.09-18.2943,53.6116-5.1375,8.756,5.3527,13.3002,16.0907,14.42811,27.435A58.4449,58.4449,0,0,1,371.60479,390.284Z" transform="translate(-253.68983 -275.4045)"/>
          <path class="cls-7" d="M301.32909,344.3439c3.1916,5.7023,9.3026,9.9241,19.2126,11.6777,18.0576,3.1986,43.0175-5.2111,43.0175-5.2111s3.3024-6.5401,3.8593-7.6225a24.7801,24.7801,0,0,0,2.6781-12.0706c-.0042-.3294-.0204-.6675-.0453-1.0081-.0571-.7512-.1378-1.5194-.2715-2.3039-.0037-.0349-.0101-.061-.01379-.096-.101-.6248-.22881-1.2724-.39451-1.9221-.0294-.1393-.0643-.2756-.1024-.4176q-.0525-.2046-.1052-.409a36.08939,36.08939,0,0,0-1.2191-3.6395c-.0899-.2401-.1882-.4683-.2925-.7082-.2181-.5114-.4535-1.0138-.70929-1.5128a1.12054,1.12054,0,0,0-.06421-.1357,23.92419,23.92419,0,0,0-1.7214-2.8586c-.16239-.2239-.3221-.4567-.4959-.6746a21.13416,21.13416,0,0,0-10.9809-7.432,36.91273,36.91273,0,0,0-11.26859-1.4647c-.04951.004-.10211.0022-.16031.0034-.1779-.0019-.3586.0049-.5392.0118-.1547.0004-.312.0097-.4724.0131-.848.0271-1.71909.0664-2.6188.1355-.3932.0231-.7949.0582-1.20229.0961-.11061.0141-.22991.0254-.34351.0337-.1339.0117-.2647.0291-.3929.0377-.3085.03-.614.0658-.91359.0985-.163.0123-.323.0304-.48311.0484q-4.4382.49425-8.3432,1.2308c-.0872.0165-.1801.036-.2673.0525-.3543.069-.7028.1348-1.0483.2064l-.8188.1665-.0058.003c-.3252.0683-.6472.1425-.9636.2135q-2.02425.4593-3.8778.9911c-.1682.0444-.3276.0916-.4869.1388-.2173.063-.4259.1288-.6345.1946-9.1962,2.7862-15.2691,6.9104-18.1515,12.1086a15.25421,15.25421,0,0,0-1.7439,4.9811q-.0384.2415-.077.4829c-.035.2691-.07.5381-.0992.8041-.02.158-.03409.3129-.0513.462a32.842,32.842,0,0,0-.08779,6.0388l.00369.035c.0215.3202.0577.6402.0937.9603.07861.6661.186,1.3171.3108,1.959A21.28463,21.28463,0,0,0,301.32909,344.3439Z" transform="translate(-253.68983 -275.4045)"/>
          <path class="cls-7" d="M341.21319,306.978a43.52168,43.52168,0,0,0,5.7886,2.4386,17.41116,17.41116,0,0,0,2.8573.6898c1.4536.2015,2.6754.0549,3.2305-.7616a4.8401,4.8401,0,0,0,.5933-1.3444c.0187-.0546.0373-.1145.0507-.1688a16.93659,16.93659,0,0,0-.5353-9.3653,3.06643,3.06643,0,0,0-.9969-1.3782,1.113,1.113,0,0,0-.4706-.1806c-2.6579-.3509-4.7786,1.2519-6.0855,3.3563-.8996,1.4454-1.4732,3.186-2.5168,4.542-.0809.1007-.7556.9929-1.2888,1.6043l-.1272.1405C341.47879,306.8145,341.28359,306.9905,341.21319,306.978Z" transform="translate(-253.68983 -275.4045)"/>
          <path class="cls-7" d="M300.63929,322.4063c.24871-.0714,16.5281-4.8949,16.0608-9.9756a8.81714,8.81714,0,0,0-.2594-1.4415c-1.1743-4.5142-5.63769-8.2585-7.4998-8.0372l-.0054.0004c-2.0539.2469-2.5481,4.7743-3.58449,8.325A106.78122,106.78122,0,0,1,300.63929,322.4063Z" transform="translate(-253.68983 -275.4045)"/>
          <path class="cls-10" d="M308.01929,315.83a19.20794,19.20794,0,0,1,5.2894-3.6064,24.20127,24.20127,0,0,1,3.132-1.2344c-1.1743-4.5142-5.63769-8.2585-7.4998-8.0372l-.0054.0004a8.33918,8.33918,0,0,0,.48151,5.0424,7.63545,7.63545,0,0,1,.22649.7776A8.1589,8.1589,0,0,1,308.01929,315.83Z" transform="translate(-253.68983 -275.4045)"/>
          <path class="cls-10" d="M346.49239,306.619s2.909.435,5.2912.8532c.7308.1248,1.4186.2516,1.95.3594a16.93659,16.93659,0,0,0-.5353-9.3653,3.06643,3.06643,0,0,0-.9969-1.3782s-.924.5237-1.4726,2.8747c-.19879.8579-.3674,1.6767-.5872,2.4389A5.75139,5.75139,0,0,1,346.49239,306.619Z" transform="translate(-253.68983 -275.4045)"/>
          <path class="cls-12" d="M324.11479,334.5819a3.237,3.237,0,0,1,.4998,4.7489,5.8834,5.8834,0,0,1-7.5729.326c-1.6684-1.5166-1.0773-4.7882.4875-5.5779a6.27073,6.27073,0,0,1,4.1884-.411A6.64745,6.64745,0,0,1,324.11479,334.5819Z" transform="translate(-253.68983 -275.4045)"/>
          <path class="cls-12" d="M354.65739,329.3519a3.02783,3.02783,0,0,0,1.0402,4.3121,5.36735,5.36735,0,0,0,6.66241-2.0468c.975-1.8417-.55221-4.5243-2.153-4.7339a5.71036,5.71036,0,0,0-3.75641.93A6.08479,6.08479,0,0,0,354.65739,329.3519Z" transform="translate(-253.68983 -275.4045)"/>
          <path class="cls-10" d="M326.67539,308.2961c.49761.6221.96,1.2332,1.395,1.7925.8548,1.0897,1.6495,2.2332,2.4039,3.3979a3.37375,3.37375,0,0,0,2.615,1.7019,3.47962,3.47962,0,0,0,3.0574-2.2389,6.85728,6.85728,0,0,0,.0545-4.7462,12.43006,12.43006,0,0,0-.43219-1.2389c-.163.0123-.323.0304-.48311.0484q-4.4382.49425-8.3432,1.2308C326.85549,308.2601,326.76259,308.2796,326.67539,308.2961Z" transform="translate(-253.68983 -275.4045)"/>
          <path class="cls-10" d="M365.15219,327.336a7.06736,7.06736,0,0,0,4.222-1.5463c-.0337-.1378-.0674-.2756-.1067-.4185-.03349-.1326-.0672-.2705-.1062-.4081a35.49191,35.49191,0,0,0-1.2168-3.6426C365.444,324.2462,362.34049,327.2396,365.15219,327.336Z" transform="translate(-253.68983 -275.4045)"/>
          <path class="cls-10" d="M366.19129,331.0734a6.99735,6.99735,0,0,0,3.9094.0471q-.01665-.4983-.0504-1.0118c-.0534-.7487-.1398-1.5172-.2702-2.305-.0069-.0319-.0082-.0586-.01509-.0905C367,328.8811,364.35409,330.2845,366.19129,331.0734Z" transform="translate(-253.68983 -275.4045)"/>
          <path class="cls-10" d="M364.63809,320.6637a5.55426,5.55426,0,0,0,2.3054-1.5582c-.0184-.0474-.0422-.0945-.0661-.1417a24.22941,24.22941,0,0,0-1.7198-2.8555C363.80809,318.6495,362.78529,321.1798,364.63809,320.6637Z" transform="translate(-253.68983 -275.4045)"/>
          <path class="cls-10" d="M318.84,310.2119c1.30959,1.2111,2.60219,2.4604,3.49329,2.5285,2.2174.1795,2.9019-1.8768,1.5059-3.8531q-2.02425.45945-3.8778.9911c-.1682.0445-.3276.0917-.487.1389C319.25719,310.0803,319.04859,310.1461,318.84,310.2119Z" transform="translate(-253.68983 -275.4045)"/>
          <path class="cls-10" d="M336.68289,306.8678a4.906,4.906,0,0,0,2.1646,1.6446c1.7657.3292,2.9467-1.0234,2.393-1.9475-.8481.0271-1.7192.0664-2.6189.1354-.3932.0232-.7949.0582-1.2023.0961-.1106.0141-.2299.0254-.3434.0337C336.94189,306.8418,336.811,306.8592,336.68289,306.8678Z" transform="translate(-253.68983 -275.4045)"/>
          <path class="cls-13" d="M368.53309,340.6716c-.3262.7147-.6509,1.4278-1.0088,2.122-.1739.3489-.3569.6926-.553,1.0255a4.27709,4.27709,0,0,1-.6642.898l-.0734.0698.01631.1107a5.06549,5.06549,0,0,1,.06229.9888c-.0091.3131-.11029.6615-.26529.7045-.07231.0224-.09891.0248-.18831-.0762a1.4228,1.4228,0,0,1-.1924-.3926,5.07489,5.07489,0,0,1-.2029-.9627l-.1263-.9721-.3338.9161a8.77584,8.77584,0,0,1-.4367,1.0017,4.03247,4.03247,0,0,1-.58059.8824.76341.76341,0,0,1-.35521.2468c-.1296.0276-.2315.0144-.2776-.0688a1.48742,1.48742,0,0,1-.0155-.9471l.1169-.5032-.3841.3258a17.55544,17.55544,0,0,1-1.4987,1.1154,9.548,9.548,0,0,1-1.6451.9031,7.93832,7.93832,0,0,0,1.7527-.7245,14.01287,14.01287,0,0,0,1.6027-1.0329l-.2672-.1774a2.96026,2.96026,0,0,0-.1158.5916,1.15513,1.15513,0,0,0,.111.6627.56931.56931,0,0,0,.3296.2568.77135.77135,0,0,0,.3821.0105,1.16488,1.16488,0,0,0,.5781-.3508,3.957,3.957,0,0,0,.6774-.976,9.24654,9.24654,0,0,0,.4735-1.0568l-.46-.056a4.92291,4.92291,0,0,0,.2319,1.0699,1.83854,1.83854,0,0,0,.2762.5315,1.76748,1.76748,0,0,0,.1272.1266.81168.81168,0,0,0,.1801.099.58208.58208,0,0,0,.4191-.02.81665.81665,0,0,0,.43571-.5377,2.258,2.258,0,0,0,.08059-.5727,4.82837,4.82837,0,0,0-.1082-1.0828l-.0569.1803a4.55011,4.55011,0,0,0,.6742-1.0267c.1808-.3546.3447-.7141.4988-1.0771C368.04219,342.1648,368.31309,341.4265,368.53309,340.6716Z" transform="translate(-253.68983 -275.4045)"/>
          <g>
            <g>
              <path class="cls-14" d="M317.01839,332.6078a10.5618,10.5618,0,0,0,9.14861-.0362,5.91633,5.91633,0,0,0,1.50389-1.1641,10.549,10.549,0,0,0,2.3338-8.1127c-.0032-.0641-.01169-.1281-.0201-.1921a7.81347,7.81347,0,0,0-4.9294-6.0987c-3.0429-1.1851-7.3404-1.1593-9.6758,1.4148a8.93331,8.93331,0,0,0-1.9473,3.7999l-.0053.0002C312.43279,326.0842,313.47239,330.8036,317.01839,332.6078Z" transform="translate(-253.68983 -275.4045)"/>
              <path class="cls-10" d="M314.76949,330.7191a8.6,8.6,0,0,1-1.331-2.6373,11.49539,11.49539,0,0,1-.4808-2.9329,11.63374,11.63374,0,0,1,.2846-2.9773l.0302-.1319.145-.011.0052-.0004-.1753.1435a9.90145,9.90145,0,0,1,1.0558-2.7463,6.69387,6.69387,0,0,1,1.9942-2.2299,8.84221,8.84221,0,0,1,5.7633-1.3502,11.819,11.819,0,0,1,2.9261.6338,8.17494,8.17494,0,0,1,2.6291,1.5113,7.95536,7.95536,0,0,1,2.789,5.2844l-.0026-.0306a11.63238,11.63238,0,0,1-.6616,5.087,9.97512,9.97512,0,0,1-1.183,2.2757,6.40113,6.40113,0,0,1-1.8295,1.7895,7.88332,7.88332,0,0,1-2.3474.9577,11.21386,11.21386,0,0,1-7.3624-.7464A6.4446,6.4446,0,0,1,314.76949,330.7191Zm7.1119,2.8677a8.78351,8.78351,0,0,0,4.6881-1.4264,6.04718,6.04718,0,0,0,1.6449-1.7842,9.482,9.482,0,0,0,1.0122-2.22,10.96332,10.96332,0,0,0,.3807-4.8107l-.0027-.0308c-.0173-.1805-.0792-.4294-.1181-.6428-.0639-.2181-.1098-.4408-.192-.653a6.9783,6.9783,0,0,0-.5557-1.2378,8.51454,8.51454,0,0,0-.7699-1.1156,8.07007,8.07007,0,0,0-.9578-.959,9.31854,9.31854,0,0,0-5.034-1.9552,8.45124,8.45124,0,0,0-5.303,1.0106,6.07879,6.07879,0,0,0-1.918,1.9403,9.4498,9.4498,0,0,0-1.1392,2.5633l-.03989.1403-.13541.0033-.0052.0001.175-.1427a10.88121,10.88121,0,0,0-.0728,5.786,7.94716,7.94716,0,0,0,1.2558,2.6479,6.433,6.433,0,0,0,2.224,1.9074A10.24392,10.24392,0,0,0,321.88139,333.5868Z" transform="translate(-253.68983 -275.4045)"/>
            </g>
            <path class="cls-10" d="M322.65529,331.2575a6.38419,6.38419,0,0,1-6.1314-2.0729,6.496,6.496,0,0,1,7.1607-10.2371c4.9199,1.7553,4.9046,9.1264.6841,11.6635A5.326,5.326,0,0,1,322.65529,331.2575Z" transform="translate(-253.68983 -275.4045)"/>
            <path class="cls-15" d="M313.43209,322.2187c9.509-5.0988,15.8071.3576,16.5726,1.0761-.0032-.0641-.01169-.1281-.0201-.1921a7.81347,7.81347,0,0,0-4.9294-6.0987c-3.0429-1.1851-7.3404-1.1593-9.6758,1.4148A8.93331,8.93331,0,0,0,313.43209,322.2187Z" transform="translate(-253.68983 -275.4045)"/>
          </g>
          <g>
            <g>
              <path class="cls-14" d="M350.34709,326.4032c1.84691,1.7929,4.8041,1.7808,7.0845.9899a5.35044,5.35044,0,0,0,.893-.4149c3.395-1.9806,4.0233-7.5966,1.5973-10.6529a5.19749,5.19749,0,0,0-.8427-.8624c-2.7623-2.2348-7.9419-1.8084-10.1587,1.0492a4.75837,4.75837,0,0,0-.8137,2.4598,10.53217,10.53217,0,0,0-.0031,1.8683A8.85538,8.85538,0,0,0,350.34709,326.4032Z" transform="translate(-253.68983 -275.4045)"/>
              <path class="cls-10" d="M348.85439,324.1473a10.91069,10.91069,0,0,1-.7437-2.6201,11.60814,11.60814,0,0,1-.137-2.7386,4.45558,4.45558,0,0,1,.93831-2.6289,7.41682,7.41682,0,0,1,4.95489-2.4983,7.59869,7.59869,0,0,1,5.4707,1.4006,5.25173,5.25173,0,0,1,1.0173,1.0662c.136.2015.28111.3976.4075.6045l.3389.645a8.09985,8.09985,0,0,1,.6568,2.7831,8.20257,8.20257,0,0,1-1.5187,5.34,5.94114,5.94114,0,0,1-2.14939,1.7738,6.50518,6.50518,0,0,1-1.31771.4256,9.77514,9.77514,0,0,1-1.355.2128,7.7803,7.7803,0,0,1-2.712-.2077,5.28376,5.28376,0,0,1-2.3581-1.302A6.81136,6.81136,0,0,1,348.85439,324.1473Zm3.86,3.523a7.35939,7.35939,0,0,0,2.6883.1108,7.72889,7.72889,0,0,0,1.31631-.2841,6.2557,6.2557,0,0,0,1.23809-.4896,5.55355,5.55355,0,0,0,1.89391-1.7806,7.65087,7.65087,0,0,0,1.08949-4.9996,7.5214,7.5214,0,0,0-.6722-2.4624l-.30129-.5551c-.11231-.1775-.24131-.3443-.35971-.5175a4.31883,4.31883,0,0,0-.865-.8841,7.1092,7.1092,0,0,0-4.8065-1.3254,6.86746,6.86746,0,0,0-4.6589,1.9888,4.06239,4.06239,0,0,0-1.0032,2.3508,10.60637,10.60637,0,0,0-.0303,2.6869,8.2157,8.2157,0,0,0,2.1038,4.8941A5.265,5.265,0,0,0,352.71439,327.6703Z" transform="translate(-253.68983 -275.4045)"/>
            </g>
            <path class="cls-10" d="M358.50219,323.5867c-.1065.173-.9223,2.3271-4.2785,2.4082-3.3563.0812-4.3321-3.9509-4.2985-5.3876a4.6596,4.6596,0,0,1,4.5377-4.8296C358.25359,315.563,360.334,320.6101,358.50219,323.5867Z" transform="translate(-253.68983 -275.4045)"/>
            <path class="cls-15" d="M348.10369,320.8402c3.3106-3.7323,8.8728-4.4277,11.8182-4.5149a5.19749,5.19749,0,0,0-.8427-.8624c-2.7623-2.2348-7.9419-1.8084-10.1587,1.0492a4.75837,4.75837,0,0,0-.8137,2.4598A10.53217,10.53217,0,0,0,348.10369,320.8402Z" transform="translate(-253.68983 -275.4045)"/>
          </g>
          <path class="cls-10" d="M298.94509,327.2991c9.4121,4.6199,11.96691-1.6413,8.2036-2.4203a25.44749,25.44749,0,0,1-6.4602-2.5608A15.2826,15.2826,0,0,0,298.94509,327.2991Z" transform="translate(-253.68983 -275.4045)"/>
          <path class="cls-10" d="M298.62909,335.0859l.0018.0376c.0302.1755.0495.3463.074.5169,3.4026,1.0814,7.5043,1.543,10.5979-.033,1.1671-.5947,2.12021-1.8281,1.62721-3.0004a2.47024,2.47024,0,0,0-1.10771-1.1256,11.9266,11.9266,0,0,0-5.0648-.9397,21.93131,21.93131,0,0,1-6.0419-1.487A32.658,32.658,0,0,0,298.62909,335.0859Z" transform="translate(-253.68983 -275.4045)"/>
          <path class="cls-10" d="M299.03909,338.0442a21.20225,21.20225,0,0,0,2.2881,6.2996,10.14906,10.14906,0,0,0,6.62-1.6707,2.4085,2.4085,0,0,0,1.2967-2.5278c-.3664-1.4307-2.3065-1.4847-3.4777-1.3996A17.72545,17.72545,0,0,1,299.03909,338.0442Z" transform="translate(-253.68983 -275.4045)"/>
          <g>
            <path class="cls-10" d="M369.02639,330.4805a37.37513,37.37513,0,0,0-4.37539-.9969,36.91833,36.91833,0,0,0-4.45661-.5262,36.91855,36.91855,0,0,0,4.3755.9968A37.35088,37.35088,0,0,0,369.02639,330.4805Z" transform="translate(-253.68983 -275.4045)"/>
            <path class="cls-10" d="M369.55219,326.7915a34.83529,34.83529,0,0,0-4.3331.0694,34.43123,34.43123,0,0,0-4.29909.5457,34.45147,34.45147,0,0,0,4.333-.0694A34.83123,34.83123,0,0,0,369.55219,326.7915Z" transform="translate(-253.68983 -275.4045)"/>
            <path class="cls-10" d="M368.19329,322.3692a34.79367,34.79367,0,0,0-3.861,1.9677,34.40394,34.40394,0,0,0-3.6214,2.3805,34.44523,34.44523,0,0,0,3.8612-1.9677A34.84629,34.84629,0,0,0,368.19329,322.3692Z" transform="translate(-253.68983 -275.4045)"/>
          </g>
          <path class="cls-14" d="M311.96859,311.0666a3.49725,3.49725,0,0,0,1.3015-.376c.2717-.255-1.3308-.213-1.3308-.213.78071-.3822,1.3873-1.3516,1.1134-1.354-.2794-.0076-1.1763.7346-1.1763.7346.8984-1.4668.1013-3.574-.9678-3.3813-.4574.0818-.9045,1.129-1.2651,2.2955a8.1589,8.1589,0,0,1-1.6242,7.0576,19.20794,19.20794,0,0,1,5.2894-3.6064A2.61637,2.61637,0,0,0,311.96859,311.0666Z" transform="translate(-253.68983 -275.4045)"/>
          <path class="cls-14" d="M351.78359,307.4722a6.52529,6.52529,0,0,0-1.2422-2.101c.071.0232.8255.3025,1.15861.0927.34839-.2213-.90711-.6473-.90711-.6473s.9514.0278,1.0122-.2597c.0665-.2823-.8934-.1595-.8934-.1595.6594-.4459,1.7989-2.3542.9288-2.7993-.5671-.2884-1.2716.3315-1.6989.8036a5.75139,5.75139,0,0,1-3.6492,4.2173S349.40139,307.054,351.78359,307.4722Z" transform="translate(-253.68983 -275.4045)"/>
          <g>
            <path class="cls-10" d="M339.78419,320.9976s1.15081-1.907,1.9072-1.6912c.75661.2159-.9718,3.1013-1.7371,3.4544-.76529.353-2.90529-2.1633-2.5481-2.7536C337.76329,319.4168,339.78419,320.9976,339.78419,320.9976Z" transform="translate(-253.68983 -275.4045)"/>
            <path class="cls-10" d="M338.76709,332.6566c.1593-.8388.28391-1.6821.4225-2.5239l.3527-2.5336c.1178-.845.2062-1.6932.2989-2.5421.0792-.8519.16181-1.697.17881-2.5708l-.45781.093c.6367,1.5185,1.2367,3.0586,1.8256,4.5993.2917.7718.5759,1.5468.8355,2.3298.2739.7791.5162,1.5678.7391,2.3659a24.78422,24.78422,0,0,0-.518-2.4327c-.2138-.8019-.4625-1.593-.7135-2.3834-.5093-1.5795-1.0984-3.1276-1.7296-4.6643l-.4412-1.074-.0167,1.1669c-.012.8306-.0862,1.684-.1545,2.529l-.2142,2.5437-.2196,2.546C338.89619,330.9559,338.81779,331.8045,338.76709,332.6566Z" transform="translate(-253.68983 -275.4045)"/>
            <path class="cls-13" d="M343.53349,322.5182a5.3814,5.3814,0,0,1,3.71951,1.9496,5.109,5.109,0,0,1,.72679,5.9153,6.62181,6.62181,0,0,1-3.0933,2.4425c-2.2963.9999-4.6477,1.8307-7.1906,1.4935a6.23235,6.23235,0,0,1-2.6644-.9234,5.66188,5.66188,0,0,1-2.3552-3.9024,5.44121,5.44121,0,0,1,1.2601-4.3145,8.21737,8.21737,0,0,1,4.9153-2.1996A22.59266,22.59266,0,0,1,343.53349,322.5182Z" transform="translate(-253.68983 -275.4045)"/>
          </g>
          <g>
            <path class="cls-10" d="M318.36459,337.6983a37.30071,37.30071,0,0,0-4.3824.9656,36.90916,36.90916,0,0,0-4.255,1.4258,36.90365,36.90365,0,0,0,4.3824-.9656A37.36916,37.36916,0,0,0,318.36459,337.6983Z" transform="translate(-253.68983 -275.4045)"/>
            <path class="cls-10" d="M308.83809,336.471a34.87176,34.87176,0,0,0,4.3321.1167,34.44909,34.44909,0,0,0,4.3186-.3607,34.44986,34.44986,0,0,0-4.3321-.1166A34.85389,34.85389,0,0,0,308.83809,336.471Z" transform="translate(-253.68983 -275.4045)"/>
            <path class="cls-10" d="M309.75169,331.9356a34.836,34.836,0,0,0,3.8396,2.0099,34.43572,34.43572,0,0,0,4.0373,1.5751,34.42494,34.42494,0,0,0-3.83959-2.0098A34.85583,34.85583,0,0,0,309.75169,331.9356Z" transform="translate(-253.68983 -275.4045)"/>
          </g>
          <path class="cls-13" d="M322.028,356.6972c-.68641-.2766-1.375-.5428-2.05221-.8353-.6782-.2874-1.3574-.5748-2.004-.912l-.4159-.2169.1828.4459a2.87486,2.87486,0,0,1,.1755.5931.63286.63286,0,0,1-.0434.4629.19649.19649,0,0,1-.14.0469.33824.33824,0,0,1-.1717-.0889,2.16282,2.16282,0,0,1-.3808-.4566,8.43829,8.43829,0,0,1-.6056-1.1354,8.66159,8.66159,0,0,1-.4474-1.2012l-.2085-.773-.2504.7573a4.61459,4.61459,0,0,1-.4025.9055c-.1633.2753-.3926.5207-.5703.4716-.2087-.0254-.4369-.297-.5894-.5767a5.14125,5.14125,0,0,1-.3848-.9226l-.04339-.1379-.13341-.0018a10.49926,10.49926,0,0,1-2.3594-.3174,8.99023,8.99023,0,0,1-1.15119-.343,9.72576,9.72576,0,0,1-1.10261-.494,8.22725,8.22725,0,0,0,2.1898,1.0653,10.694,10.694,0,0,0,2.4172.4599l-.1767-.1395a4.47586,4.47586,0,0,0,.3759,1.0303,2.33716,2.33716,0,0,0,.3218.4794,1.01453,1.01453,0,0,0,.5633.3433.71854.71854,0,0,0,.3758-.0319.972.972,0,0,0,.2924-.1812,2.07508,2.07508,0,0,0,.3722-.4602,5.05659,5.05659,0,0,0,.45991-1.0051l-.45881-.0158a8.52372,8.52372,0,0,0,.4855,1.2814,7.8574,7.8574,0,0,0,.6599,1.1952,2.55352,2.55352,0,0,0,.486.5423.7299.7299,0,0,0,.4263.1711.59948.59948,0,0,0,.4574-.193.92483.92483,0,0,0,.1124-.8113,3.20142,3.20142,0,0,0-.2372-.6658l-.2331.229c.6835.3059,1.377.5683,2.0799.8038C320.60489,356.2915,321.31039,356.515,322.028,356.6972Z" transform="translate(-253.68983 -275.4045)"/>
          <path class="cls-10" d="M330.67009,434.5302a5.089,5.089,0,0,0-.938-1.9108,5.37467,5.37467,0,0,0-.7304-.6902c-.28369-.2271-.6034-.4365-.9455-.7318a2.32945,2.32945,0,0,1,1.2967.0349,2.51218,2.51218,0,0,1,1.1436.7433A2.10419,2.10419,0,0,1,330.67009,434.5302Z" transform="translate(-253.68983 -275.4045)"/>
          <path class="cls-2" d="M371.60479,390.284c-2.2167,9.284-7.5694,17.7271-12.4266,21.7432-13.5284,11.1748-35.2546,14.5324-40.05319,15.1714.59989-3.0578,2.37289-10.946,2.15119-13.1888,0,0,13.9682-5.0208,21.6875-9.4868s5.4309-35.1739,16.96431-38.212c4.981-1.3105,9.57739.6063,12.909,4.8246A58.4449,58.4449,0,0,1,371.60479,390.284Z" transform="translate(-253.68983 -275.4045)"/>
          <g class="cls-11">
            <path class="cls-10" d="M294.26089,381.6769a14.488,14.488,0,0,1,1.6546-1.9145,5.77687,5.77687,0,0,1,2.1518-1.3836,1.90636,1.90636,0,0,1,1.33971.063,1.17837,1.17837,0,0,1,.78429,1.1414,2.6299,2.6299,0,0,1-.4918,1.2702,6.151,6.151,0,0,1-.8382,1.0135l-.3015-.4155a23.97638,23.97638,0,0,1,2.4668-1.2144,10.30892,10.30892,0,0,1,2.6823-.7976,2.34135,2.34135,0,0,1,1.5429.2383,1.07224,1.07224,0,0,1,.3386.2849,1.16689,1.16689,0,0,1,.2461.4062,1.14851,1.14851,0,0,1-.1231.9514,3.34935,3.34935,0,0,1-1.109,1.0519,8.86628,8.86628,0,0,1-1.26139.674l-.12791-.8062a19.73311,19.73311,0,0,1,11.8675,6.1173,24.61185,24.61185,0,0,1,5.8888,12.0049,40.00859,40.00859,0,0,1,.8225,6.656,60.14139,60.14139,0,0,1-.2031,6.6793,78.60213,78.60213,0,0,1-2.3365,13.0953,100.45267,100.45267,0,0,0,1.7245-13.1378,48.40364,48.40364,0,0,0-.88479-13.1006,29.07091,29.07091,0,0,0-2.09721-6.1735,22.29957,22.29957,0,0,0-3.625-5.3614,18.914,18.914,0,0,0-11.2139-5.9439l-1.55289-.2035,1.425-.6028a4.841,4.841,0,0,0,2.02869-1.3298.401.401,0,0,0,.0768-.3419.63824.63824,0,0,0-.27549-.3189,1.70094,1.70094,0,0,0-1.08421-.1653,9.739,9.739,0,0,0-2.52579.6774,23.47686,23.47686,0,0,0-2.43771,1.1117l-1.5604.8193,1.2589-1.2349a3.84883,3.84883,0,0,0,1.2755-1.9284.7949.7949,0,0,0-.5276-.8053,1.5868,1.5868,0,0,0-1.1202-.0996,5.58037,5.58037,0,0,0-2.115,1.2293A14.69909,14.69909,0,0,0,294.26089,381.6769Z" transform="translate(-253.68983 -275.4045)"/>
          </g>
          <g>
            <path class="cls-7" d="M362.738,427.7136a13.89547,13.89547,0,0,1-6.81961,1.6625h-.0326l-.0065.0066a.0492.0492,0,0,0-.0261.013,13.49737,13.49737,0,0,1-5.7374,1.6365h-.0195c-.3782.0326-.7759.0456-1.1866.0456a17.01107,17.01107,0,0,1-5.8286-.8606c-.0066,0-.01309-.0065-.0196-.0065-3.462-1.2257-7.2173-4.1857-9.8122-11.2726-.0065-.0065-.0065-.0196-.013-.0261-.0261-.0652-.0456-.1304-.0717-.1956a115.01025,115.01025,0,0,1-3.4424-12.1788c-.5021-2.1254-.9715-4.2769-1.4018-6.3698-.1825-.8736-.3586-1.7342-.5215-2.5818-.0066-.0261-.0066-.0521-.0131-.0782-.0065-.0196-.0065-.0391-.013-.0587-1.4539-7.3868-2.3602-13.4436-2.3406-13.9065.0326-.5868,19.7352-20.1916,22.5126-5.0593,1.5973,8.7103,3.86621,20.1394,5.5091,28.2759.35211,1.7473.67811,3.3447.9584,4.7334.3782,1.8646.6846,3.3446.8736,4.2965.01311.0521.0196.1043.0327.1499.026.1174.0456.2217.0652.3195.0065.0456.0195.0913.026.1304.0196.0782.0326.1434.0457.2086.013.0522.01951.0913.0261.1304.0326.163.0521.2478.0521.2478a15.76928,15.76928,0,0,1,3.6902,1.3756c.026.013.05211.0326.0782.0457.0456.026.0848.0456.1304.0717C364.51129,421.2721,365.45669,426.1098,362.738,427.7136Z" transform="translate(-253.68983 -275.4045)"/>
            <g class="cls-11">
              <path class="cls-10" d="M354.72469,416.7577a18.316,18.316,0,0,0-2.7534.1324,15.837,15.837,0,0,0-2.6244.5385,17.06459,17.06459,0,0,0-2.5126.9418c-.831.3653-1.6165.827-2.4705,1.2598a8.48832,8.48832,0,0,1,2.0894-1.9407,9.38373,9.38373,0,0,1,2.617-1.2212,9.11916,9.11916,0,0,1,2.8703-.355A6.69643,6.69643,0,0,1,354.72469,416.7577Z" transform="translate(-253.68983 -275.4045)"/>
            </g>
            <g class="cls-11">
              <path class="cls-10" d="M350.05719,390.2188l2.9524,13.3352c.9343,4.4476,1.9478,8.9023,2.9125,13.332l-.3094-.301a11.98029,11.98029,0,0,1,5.2452,2.3516,9.153,9.153,0,0,1,3.3056,4.7626,4.20552,4.20552,0,0,1-.2974,3.0568,5.17518,5.17518,0,0,1-2.3168,1.9713,14.35468,14.35468,0,0,1-5.6634,1.1416l.3482-.1443-.0063.0064-.0747.0752-.10309.0386a29.07619,29.07619,0,0,1-6.19771,1.7127,12.51538,12.51538,0,0,1-6.4658-.7097,16.86648,16.86648,0,0,1-5.3561-3.6324,18.53925,18.53925,0,0,1-2.1618-2.4143,19.92416,19.92416,0,0,1-1.662-2.7703,60.36594,60.36594,0,0,1-4.116-12.0469c-.5277-2.0523-.9217-4.1327-1.29759-6.2146-.39651-2.0778-.78321-4.1562-1.07331-6.2508l.0025.0104-.0116-.0589-.00259-.0105-.359-2.7812.48849,2.7603-.00249-.0101.01429.058.0026.0102.00011.0006c.20819,1.0356.38129,2.0769.60589,3.1084l.6884,3.0906c.4466,2.0622.9202,4.1178,1.4768,6.1503a59.75579,59.75579,0,0,0,4.3123,11.8082,21.75993,21.75993,0,0,0,1.626,2.6398,17.69658,17.69658,0,0,0,2.07761,2.2844,15.97914,15.97914,0,0,0,5.087,3.4081,11.55669,11.55669,0,0,0,5.99259.6097,30.7768,30.7768,0,0,0,5.9897-1.6762l-.1774.1136.0064-.0064.1424-.1413.2062-.003a13.45565,13.45565,0,0,0,5.26-1.012,4.28269,4.28269,0,0,0,1.9145-1.5728,3.3051,3.3051,0,0,0,.2211-2.3888,8.29308,8.29308,0,0,0-2.9623-4.2931,11.6594,11.6594,0,0,0-4.86419-2.2504l-.26181-.0567-.0479-.2445c-.8782-4.4856-1.7907-8.9293-2.6336-13.4106Z" transform="translate(-253.68983 -275.4045)"/>
            </g>
            <path class="cls-10" d="M352.46949,429.849a6.193,6.193,0,0,0-.5252-3.2924,8.2881,8.2881,0,0,0-.8922-1.3869l-.5586-.6743a8.18331,8.18331,0,0,1-.6022-.7022,6.32574,6.32574,0,0,1,.8978.3102,6.21509,6.21509,0,0,1,.8091.5089,4.51206,4.51206,0,0,1,1.2467,1.5111,3.85607,3.85607,0,0,1,.3542,1.9557A2.97226,2.97226,0,0,1,352.46949,429.849Z" transform="translate(-253.68983 -275.4045)"/>
            <path class="cls-10" d="M358.91759,428.352c.0162-.5951.00741-1.1363-.0248-1.6703a11.59738,11.59738,0,0,0-.1961-1.5582,13.08664,13.08664,0,0,0-.38-1.5293c-.1492-.5186-.35-1.026-.50869-1.6088a4.60068,4.60068,0,0,1,1.87119,2.9548,4.7428,4.7428,0,0,1-.0113,1.8009A3.36187,3.36187,0,0,1,358.91759,428.352Z" transform="translate(-253.68983 -275.4045)"/>
          </g>
          <g class="cls-11">
            <path class="cls-10" d="M363.15429,373.5456a6.46061,6.46061,0,0,1,1.949-.4965,2.58407,2.58407,0,0,1,1.0714.0985,1.36288,1.36288,0,0,1,.894.8399.99855.99855,0,0,1-.029.7218,1.41957,1.41957,0,0,1-.3912.5273,3.315,3.315,0,0,1-.95049.5785,9.37365,9.37365,0,0,1-1.99481.5843l-.0077-.9529a7.04786,7.04786,0,0,1,1.6771.4434,3.0085,3.0085,0,0,1,.8147.4856,1.53547,1.53547,0,0,1,.5535,1.0053,1.2822,1.2822,0,0,1-.4694,1.1299,1.95753,1.95753,0,0,1-.9566.3812,5.35662,5.35662,0,0,1-1.7497-.0516l.4667-.4976a6.4283,6.4283,0,0,1,.0425,1.4345,7.53987,7.53987,0,0,1-1.40829,3.8289,9.80921,9.80921,0,0,0,.65929-2.5566A7.91122,7.91122,0,0,0,363.38,379.76a5.79019,5.79019,0,0,0-.14921-1.2331l-.1404-.554.6073.0562a4.95238,4.95238,0,0,0,1.4484-.0445,1.19472,1.19472,0,0,0,.5155-.2167.30491.30491,0,0,0,.1075-.2923c.00691-.2055-.3547-.4891-.789-.6734a6.13627,6.13627,0,0,0-1.4128-.4016l-2.9316-.4853,2.9239-.4678a9.7667,9.7667,0,0,0,1.8179-.4317c.57-.1897,1.1374-.5335,1.0313-.8419-.0532-.4307-.6867-.6759-1.3075-.7256A8.47381,8.47381,0,0,0,363.15429,373.5456Z" transform="translate(-253.68983 -275.4045)"/>
          </g>
          <path class="cls-10" d="M354.41229,411.4926a.03888.03888,0,0,1-.0261-.0066,31.70107,31.70107,0,0,0-3.7944-.6715c-2.58179-.1238-5.444,1.4474-7.9606.3977a1.716,1.716,0,0,1-1.0823-1.2322c-.2673-1.7538,2.5492-2.8622,3.8206-3.2338a14.41951,14.41951,0,0,1,8.0257,0c.0196.0065.0392.0065.0587.013C353.806,408.5065,354.132,410.1039,354.41229,411.4926Z" transform="translate(-253.68983 -275.4045)"/>
          <path class="cls-10" d="M340.57749,401.2566a7.169,7.169,0,0,1-2.8491,1.3561,27.84043,27.84043,0,0,0-5.2875,2.3602c-.9063.5215-1.7864,1.0953-2.7187,1.5647-.05219.0261-.1044.0521-.163.0782-.5346-2.3406-.9714-4.5442-1.3105-6.4089a.68327.68327,0,0,0,.0717-.0391,23.39575,23.39575,0,0,1,2.9991-1.3626,16.81657,16.81657,0,0,1,7.928-1.0562,2.75339,2.75339,0,0,1,1.669.6585A2.11613,2.11613,0,0,1,340.57749,401.2566Z" transform="translate(-253.68983 -275.4045)"/>
          <path class="cls-10" d="M303.23909,362.2296a2.36164,2.36164,0,0,1-2.2037.4499,5.9054,5.9054,0,0,1-2.0406-1.141,25.095,25.095,0,0,1-6.7871-7.804c2.8035-1.3301,5.3397-2.3732,7.3869-3.1425q.176.34215.3325.6845,1.59405,3.4131,3.2011,6.8261C303.75409,359.4392,304.30829,361.2125,303.23909,362.2296Z" transform="translate(-253.68983 -275.4045)"/>
          <path class="cls-10" d="M288.15249,367.7714c-.0261-.0065-.0587-.0065-.0848-.0131-3.7814-.6975-6.84569-3.3641-9.8904-5.7308a80.81683,80.81683,0,0,1,7.7519-5.0267,23.57648,23.57648,0,0,1,4.9485,5.5222C292.52719,365.2091,292.18819,368.482,288.15249,367.7714Z" transform="translate(-253.68983 -275.4045)"/>
          <path class="cls-10" d="M274.55889,373.7826a3.8805,3.8805,0,0,1-2.0211.3455,17.208,17.208,0,0,1-5.70479-1.3822,53.48561,53.48561,0,0,1,5.07239-5.4896c.8541.652,1.6429,1.3692,2.3405,1.969a4.731,4.731,0,0,1,1.3366,1.5451A2.40855,2.40855,0,0,1,274.55889,373.7826Z" transform="translate(-253.68983 -275.4045)"/>
          <path class="cls-10" d="M270.60789,388.2237a41.10592,41.10592,0,0,1-11.4551-1.1866,39.93982,39.93982,0,0,1,2.6405-6.5262c1.8386.4303,3.6575.9519,5.4635,1.493.5998.176,1.2453.3325,1.89721.4955a10.02891,10.02891,0,0,1,4.44,2.0081C275.96709,386.822,272.51169,388.1324,270.60789,388.2237Z" transform="translate(-253.68983 -275.4045)"/>
          <path class="cls-10" d="M266.10279,398.1467a3.95634,3.95634,0,0,1-1.4343.8345,24.93011,24.93011,0,0,1-7.2369,1.5583,41.349,41.349,0,0,1,.1695-5.7244,32.30283,32.30283,0,0,1,7.1978.6976,2.19982,2.19982,0,0,1,1.7212,1.1084A1.53244,1.53244,0,0,1,266.10279,398.1467Z" transform="translate(-253.68983 -275.4045)"/>
          <path class="cls-10" d="M270.42539,412.0076a20.11474,20.11474,0,0,1-9.0103,4.7268,31.15617,31.15617,0,0,1-2.7382-7.1717v-.0065c3.2337-.9062,6.3958-2.2232,9.786-2.3601,1.3236-.0522,2.9339.2738,3.3838,1.5256C272.277,409.9148,271.35769,411.1535,270.42539,412.0076Z" transform="translate(-253.68983 -275.4045)"/>
          <path class="cls-10" d="M275.35429,423.717a18.35578,18.35578,0,0,1-2.8687,3.9379,27.49352,27.49352,0,0,1-5.0919-3.4554c.25431-.2087.5086-.4173.7628-.6324,1.1084-.9389,2.15151-1.969,3.2012-2.9926.3847-.3781.76931-.7562,1.1605-1.1279a3.89248,3.89248,0,0,1,1.4604-1.0236,1.97194,1.97194,0,0,1,1.9103.4499C277.232,420.1638,276.07139,422.4327,275.35429,423.717Z" transform="translate(-253.68983 -275.4045)"/>
          <path class="cls-10" d="M292.39029,425.6338a48.78473,48.78473,0,0,1-1.643,6.3307,49.81561,49.81561,0,0,1-8.782-.9845c.23471-.4238.4824-.8345.6976-1.2192q1.7211-3.12945,3.4489-6.2524a19.49372,19.49372,0,0,1,3.1425-4.6029,2.53128,2.53128,0,0,1,1.6495-.8802c1.1866-.013,1.8777,1.3626,2.0081,2.5427A16.27769,16.27769,0,0,1,292.39029,425.6338Z" transform="translate(-253.68983 -275.4045)"/>
        </g>
        <polygon class="cls-6" points="93.198 85.036 97.664 88.818 102.056 87.87 104.118 79.593 99.697 76.782 94.941 78.463 93.198 85.036"/>
        <path class="cls-14" d="M320.73689,354.9972s26.2689-.7877,31.2463-2.4392l-4.2624,10.6399S327.48179,359.3303,320.73689,354.9972Z" transform="translate(-253.68983 -275.4045)"/>
        <path class="cls-14" d="M351.98319,352.558l4.6264,7.7571a75.74523,75.74523,0,0,0,8.6265-11.581S361.90849,349.9495,351.98319,352.558Z" transform="translate(-253.68983 -275.4045)"/>
        <polygon class="cls-6" points="98.658 86.621 95.034 106.521 103.593 112.897 107.696 103.768 101.035 85.4 98.658 86.621"/>
      </g>
      <line class="cls-3" x1="143.61076" y1="44.5251" x2="135.21996" y2="105.8498"/>
    </g>
    <path class="cls-8" d="M373.18029,419.3803c.1405-.3606.2683-.7263.4159-1.0838a.28023.28023,0,0,1,.1863-.147c.44451-.0577.8924-.0899,1.3364-.1507a.23707.23707,0,0,1,.2772.1069c.2642.3906.539.774.8102,1.1598.044.0626.0902.1235.16871.2308.60689-.3506,1.20709-.6972,1.82239-1.0526-.23239-.523-.4359-1.0019-.6588-1.4716a.31087.31087,0,0,1,.0566-.4142c.2787-.3042.5149-.6471.778-.9662a.25414.25414,0,0,1,.1974-.0784c.4732.0699.9475.139,1.4153.2374.2245.0472.3235-.0239.3769-.2277a1.30373,1.30373,0,0,1,.1054-.2234q.147-.5292.2943-1.0585a.65034.65034,0,0,1-.0021-.1238c.0703-.4194.0838-.3447-.2859-.4904-.4504-.1774-.9038-.3473-1.2962-.4976-.0779-.6005-.1506-1.1617-.2258-1.7413.473-.3327.9674-.6803,1.4649-1.0301a6.71758,6.71758,0,0,0-1.0488-1.8167c-.5141.2295-1.0158.4521-1.5159.6784a.186.186,0,0,1-.2378-.029c-.3517-.3001-.7116-.5917-1.08289-.8669a.21877.21877,0,0,1-.10121-.2584c.085-.4782.1589-.9584.242-1.4369a.18839.18839,0,0,0-.1231-.245,5.99253,5.99253,0,0,0-1.7509-.455c-.1194-.015-.1553.0489-.1906.1446-.1637.4425-.3381.881-.4986,1.3246a.23632.23632,0,0,1-.2495.1861c-.516.0355-1.0298.101-1.586.1595-.3024-.43-.6454-.9179-.9885-1.4056a6.26247,6.26247,0,0,0-1.8478,1.0417c.25321.5596.4995,1.1041.7226,1.5973-.299.4065-.5867.7772-.849,1.165a.30061.30061,0,0,1-.3605.1549c-.4556-.0904-.91489-.1632-1.3735-.2384-.0906-.0148-.2022-.0592-.24139.0859q-.23882.88515-.47821,1.7703c-.0339.1255.0198.1877.1407.2316.4499.1637.8927.3472,1.3451.5032.1745.0602.20341.1608.2179.3245a11.03615,11.03615,0,0,0,.1603,1.2075.26426.26426,0,0,1-.1342.3354c-.445.2947-.8785.6069-1.3073.906a6.00761,6.00761,0,0,0,1.0668,1.8472c.4936-.2256.9952-.4486,1.4901-.6854a.22806.22806,0,0,1,.28981.049c.32619.2649.67109.5068,1.00019.7685a.27708.27708,0,0,1,.0936.2146c-.0646.4245-.144.8468-.2234,1.2688-.0443.236-.0631.331.0108.4011l1.8783.5223C373.02329,419.7799,373.06659,419.672,373.18029,419.3803Zm-.1686-3.4796a3.1553,3.1553,0,0,1-2.1946-3.8853h0a3.15526,3.15526,0,0,1,3.8853-2.1945h0a3.15526,3.15526,0,0,1,2.19461,3.8852h0a3.15533,3.15533,0,0,1-3.88531,2.1946Z" transform="translate(-253.68983 -275.4045)"/>
    <path class="cls-16" d="M388.41849,403.0598c-.0834-.3678-.1796-.7328-.2557-1.1021a.27378.27378,0,0,1,.0687-.2199c.3222-.2882.6609-.5575.9811-.8478a.22535.22535,0,0,1,.2782-.0641c.4214.1721.8473.3328,1.2717.4974.0688.0267.1386.0509.259.095.293-.6131.5827-1.2193.8796-1.8409-.4677-.2966-.8886-.5731-1.3199-.8318a.30541.30541,0,0,1-.1791-.3655c.0571-.3973.0594-.8028.09591-1.2037a.24583.24583,0,0,1,.11449-.1706c.4141-.2006.8286-.4023,1.2539-.5769a.26229.26229,0,0,0,.1765-.3888,1.28874,1.28874,0,0,1-.0371-.2378q-.16935-.50775-.3386-1.0156a.64719.64719,0,0,1-.0687-.0989c-.1709-.3772-.1198-.3242-.4926-.2411-.4541.1012-.9065.2101-1.29989.3018-.38681-.4432-.74831-.8573-1.12161-1.2851.1962-.5258.4012-1.0754.6075-1.6284a6.47255,6.47255,0,0,0-1.8168-.8989c-.2846.4648-.56309.9173-.8384,1.3718a.17728.17728,0,0,1-.2048.1058c-.442-.0516-.88589-.0918-1.33-.1125a.21222.21222,0,0,1-.2203-.154c-.1911-.4328-.3921-.8611-.585-1.293a.18194.18194,0,0,0-.2304-.1312,5.68334,5.68334,0,0,0-1.6383.5833c-.1032.0527-.0971.1239-.0734.2204.1092.4466.2078.8958.3201,1.3416a.23034.23034,0,0,1-.09759.2859c-.39111.3091-.76431.6412-1.17491.9905-.473-.1833-1.0098-.3914-1.5464-.5993a6.089,6.089,0,0,0-.9058,1.8458c.50411.3149.9945.6213,1.4387.8988-.0178.491-.046.9469-.0448,1.4029a.291.291,0,0,1-.20279.3211c-.41121.1744-.81581.365-1.22111.5533-.0801.0372-.1928.062-.1455.2006q.28892.84525.5775,1.6909c.0409.1198.1173.1409.2372.1107.4462-.112.8976-.2042,1.3417-.3239.1714-.0461.2488.0195.3489.144a10.79806,10.79806,0,0,0,.7807.8891.26009.26009,0,0,1,.0748.344c-.1945.48-.3703.9678-.5494,1.4425a5.7875,5.7875,0,0,0,1.8476.9138c.2705-.4505.5487-.9032.8141-1.3634a.21717.21717,0,0,1,.2569-.1179c.4028.037.8079.0452,1.2111.078a.26841.26841,0,0,1,.1906.1226c.1783.3782.3436.7627.5088,1.147.0924.2149.1289.3019.2255.3184l1.7762-.598C388.50989,403.4681,388.48589,403.3574,388.41849,403.0598Zm-2.3346-3.6752a2.04785,2.04785,0,0,1-2.5888-1.3114h0a2.06254,2.06254,0,0,1,1.28-2.614h0a2.04774,2.04774,0,0,1,2.5887,1.3114h0a2.06245,2.06245,0,0,1-1.2799,2.614Z" transform="translate(-253.68983 -275.4045)"/>
  </g>
</svg>
