<svg id="OBJECTS" xmlns="http://www.w3.org/2000/svg" viewBox="0 0 204.59151 223.90006">
  <defs>
    <style>
      .cls-1 {
        fill: #e49046;
      }

      .cls-10, .cls-2, .cls-3, .cls-8 {
        fill: #8b3433;
      }

      .cls-2 {
        opacity: 0.2;
      }

      .cls-4, .cls-7 {
        fill: #dc5656;
      }

      .cls-5 {
        fill: #8dd5b6;
      }

      .cls-6 {
        fill: #edbc89;
      }

      .cls-7, .cls-8 {
        opacity: 0.48;
      }

      .cls-9 {
        fill: #fff;
      }

      .cls-10 {
        opacity: 0.21;
      }

      .cls-11 {
        fill: #af542c;
      }
    </style>
  </defs>
  <g>
    <g>
      <path class="cls-1" d="M335.61079,348.6973s-32.55979-8.3027-44.7696,21.4894c0,0-8.954-4.5584-17.2567-4.5584s-8.6283,6.3491-4.8838,7.0004c3.7442.6511,10.7445,1.6279,13.1865,5.5351,2.4421,3.9071,11.2332,8.7911,17.0939,1.3023,0,0,9.9307,22.3035,32.39691,15.6287C353.84419,388.4201,335.61079,348.6973,335.61079,348.6973Z" transform="translate(-266.40849 -255.44059)"/>
      <path class="cls-2" d="M335.61079,348.6973s-32.55979-8.3027-44.7696,21.4894c0,0-8.954-4.5584-17.2567-4.5584s-8.6283,6.3491-4.8838,7.0004c3.7442.6511,10.7445,1.6279,13.1865,5.5351,2.4421,3.9071,11.2332,8.7911,17.0939,1.3023,0,0,9.9307,22.3035,32.39691,15.6287C353.84419,388.4201,335.61079,348.6973,335.61079,348.6973Z" transform="translate(-266.40849 -255.44059)"/>
      <path class="cls-3" d="M274.07289,372.7914s.814-3.256,6.34911-2.6047" transform="translate(-266.40849 -255.44059)"/>
    </g>
    <path class="cls-4" d="M447.27329,311.4712c.5649,0,23.72671,23.3502,23.72671,23.3502l-19.96051,25.6097-12.805-41.2392Z" transform="translate(-266.40849 -255.44059)"/>
    <path class="cls-1" d="M445.21639,319.3962a20.56641,20.56641,0,0,0,2.1053-2.0091,22.74056,22.74056,0,0,0,3.92831-6.0498c.28659-.644.55469-1.296.80329-1.9777.1184-.3272.2369-.6545.3333-.9804l.00641-.0404a35.78662,35.78662,0,0,0,1.38-6.3524c.01289-.1564.03889-.318.05049-.4967.0364-.2867.0637-.5773.091-.8681.0167-.1655.0284-.3441.0401-.5226a16.34865,16.34865,0,0,0-.5958-5.5459l.00921.0039c-.06011-.2632-2.02591-8.89-2.24931-12.8079-.2222-3.9716.3568-8.8311-1.7343-9.5966l-.013.0052c-1.89939-.6834-7.477,2.1557-9.80139,6.6028l-.00391.0091c-.7576-.4753-1.519-.9417-2.3248-1.4054-.20729-.121-.4055-.2383-.6219-.3633-.1565-.0885-.3038-.1732-.4733-.2565-1.2138-.6708-2.485-1.3335-3.8266-1.9833-.3154-.1459-.6361-.3047-.9608-.4545-.279-.1302-.5489-.2565-.82269-.3736-.34281-.1576-.69481-.319-1.05071-.4714-.08229-.0352-.1786-.0873-.2608-.1225q-3.91123-1.72245-8.45049-3.3145c-.15911-.0573-.33131-.1093-.49021-.1665-.313-.1017-.62179-.2123-.9399-.3268-.1356-.0365-.2634-.0911-.39889-.1276-.12271-.0417-.24521-.0833-.35861-.121-.4132-.1445-.8213-.276-1.2333-.3983-.9242-.2876-1.8328-.5361-2.714-.773-.16709-.039-.3299-.0871-.4876-.1222l-.0092-.0039-.0952-.1812c-.4058-.7675-.8977-1.8634-.9629-1.9885-.762-1.676-.9455-3.6441-1.5328-5.3748-.86539-2.519-2.6991-4.7185-5.5708-4.9974a1.18428,1.18428,0,0,0-.533.085,3.24046,3.24046,0,0,0-1.3785,1.2024,18.25745,18.25745,0,0,0-2.8369,9.6808c.004.0665.0079.133.01581.1902a22.70231,22.70231,0,0,0-13.30841,5.1343c-.2384.1786-.4574.3873-.6815.5829a25.57,25.57,0,0,0-2.4975,2.5808,1.44822,1.44822,0,0,0-.1081.1263c-.3817.463-.7542.9298-1.1033,1.4174q-.254.3288-.4807.6689a38.70051,38.70051,0,0,0-2.1568,3.5255c-.0769.1292-.1446.2623-.2123.3951-.0716.1423-.1393.2751-.211.4173-.3269.6376-.6172,1.2907-.8737,1.9152l-.0429.1003c-.32679.7888-.6002,1.5788-.8435,2.3492q-.162.5301-.285,1.0443a26.60008,26.60008,0,0,0-.6964,10.1541,1.31542,1.31542,0,0,0-.1916-.0063,24.11221,24.11221,0,0,0,4.55,10.1188c-11.8322,7.511-39.057,26.4848-50.3385,48.4859a43.25316,43.25316,0,0,0-4.93279,16.233c-2.80351,35.2478,34.54139,45.9938,34.54139,45.9938a59.22818,59.22818,0,0,0,2.749,10.6808,28.2707,28.2707,0,0,0,4.9547,8.9315s-7.2364,16.1027-3.0315,17.5043,8.5185-11.0394,11.55-13.5167c3.1185-2.5643,1.7602-7.9644-1.0431-9.8333a53.29434,53.29434,0,0,0,10.1268-2.7055,68.975,68.975,0,0,0,11.1262-5.1611,67.43619,67.43619,0,0,0,8.0188-5.4002,66.0703,66.0703,0,0,0,8.399-7.8559,69.18242,69.18242,0,0,0,12.8866-21.0138,79.46726,79.46726,0,0,0,3.151-9.6703,97.11275,97.11275,0,0,0,2.5533-14.0166l24.2084-22.5895S455.36349,327.5848,445.21639,319.3962Z" transform="translate(-266.40849 -255.44059)"/>
    <path class="cls-5" d="M451.78759,352.2845a21.15276,21.15276,0,0,1,3.1232,22.071c-5.4136,12.9094-7.9122,10.8273-12.0765,26.6517-4.1644,15.8246-26.4435,21.2382-39.5612,9.1617-13.1177-12.0767,28.5257-67.4624,28.5257-67.4624Z" transform="translate(-266.40849 -255.44059)"/>
    <g>
      <path class="cls-1" d="M362.19029,472.3727c-.0326.239-.076.478-.1195.717a9.48472,9.48472,0,0,1-.33679,1.2713,10.35369,10.35369,0,0,1-.47811,1.1844c-.0978.1847-.1956.3694-.2934.5433-.1087.1738-.2172.3476-.3259.5106a6.09478,6.09478,0,0,1-6.0847,2.6404,6.27176,6.27176,0,0,1-4.281-2.5425c-2.7056-3.4553-3.5531-9.3661-9.5182-11.4523-.1305-.0435-.2608-.0869-.4021-.1305-2.4882-.7823-6.5302-1.3147-11.0611-2.1947-9.1162-1.7494-20.2098-4.857-24.6864-14.0057-.1413-.2717-.2608-.5541-.3912-.8367a18.25234,18.25234,0,0,1-.6628-1.7819c-.0978-.3043-.1847-.6194-.2716-.9453-.0544-.1956-.0978-.3911-.1414-.5868-.0543-.239-.1086-.4781-.15209-.7279a23.63048,23.63048,0,0,1-.35851-2.8903,34.55265,34.55265,0,0,1,.0652-5.3132c.0978-.9997.239-1.9775.4238-2.9554a29.41677,29.41677,0,0,1,1.2169-4.3789,27.58361,27.58361,0,0,1,1.9558-4.1941c.2064-.3476.41281-.6954.6085-1.043.4237-.6845.8692-1.3582,1.369-2.021v-.0109c.326-.4346.6628-.8801,1.0105-1.3147,5.248-6.5519,13.8644-12.5822,26.68581-18.4714l10.15919,6.7149a.03363.03363,0,0,0-.0217.0109h-.0109a76.53193,76.53193,0,0,0-16.8089,8.5294,38.9294,38.9294,0,0,0-10.3223,9.9419,23.09137,23.09137,0,0,0-1.9666,3.5422,29.77427,29.77427,0,0,0-1.1735,3.0315c-.1087.326-.2065.6519-.3042.967a23.34367,23.34367,0,0,0-.7932,3.6074,14.621,14.621,0,0,0,.15211,5.009,5.51922,5.51922,0,0,0,.15209.6085l.0978.3259a3.19933,3.19933,0,0,0,.1846.5433,4.89553,4.89553,0,0,0,.2826.6953,7.08115,7.08115,0,0,0,.3803.7607c0,.0109.0109.0109.0109.0217.09771.163.1955.326.3042.489a5.84,5.84,0,0,0,.3694.5324,14.05392,14.05392,0,0,0,7.6602,4.8677,31.24218,31.24218,0,0,0,7.2473,1.1517c1.7385.087,3.4335.2283,5.0633.4238,11.3111,1.293,19.9926,4.8244,23.5565,10.2463a9.25448,9.25448,0,0,1,.49981.8257,13.56993,13.56993,0,0,1,.79319,1.7711c.1087.2933.2064.5868.2933.891a.03344.03344,0,0,0,.0109.0217c.0218.0869.0435.1738.0544.2499a12.90414,12.90414,0,0,1,.3694,1.8906A12.57589,12.57589,0,0,1,362.19029,472.3727Z" transform="translate(-266.40849 -255.44059)"/>
      <path class="cls-2" d="M362.19029,472.3727c-.0326.239-.076.478-.1195.717a9.48472,9.48472,0,0,1-.33679,1.2713c-.06521.2065-.14121.413-.21731.6085a5.49521,5.49521,0,0,1-.2608.5759c-.0978.1847-.1956.3694-.2934.5433-.0651.1195-.1412.239-.2172.3585a.77676.77676,0,0,1-.1087.1521,2.02714,2.02714,0,0,1-.2282.3043,1.56188,1.56188,0,0,1-.1521.2173c-.087.1087-.1848.2065-.2717.3042a2.06352,2.06352,0,0,1-.2282.2065c-.076.0761-.1521.1412-.2282.2064l-.0325.0326c-.0544.0543-.10869.0978-.163.1522a6.03847,6.03847,0,0,1-4.7808,1.2495,6.2686,6.2686,0,0,1-4.29189-2.5534c-2.70551-3.4553-3.54221-9.3553-9.50731-11.4306-.1305-.0434-.25-.0869-.3912-.1303-2.4882-.7824-6.552-1.3256-11.0937-2.1949-9.1162-1.7711-20.2099-4.8786-24.6756-14.0383a7.44725,7.44725,0,0,1-.3803-.8475,13.35949,13.35949,0,0,1-.6628-1.7819c-.0978-.3043-.1847-.6194-.2716-.9453-.0544-.1956-.0978-.3911-.1414-.5868-.0543-.239-.1086-.4781-.15209-.7279a23.63048,23.63048,0,0,1-.35851-2.8903,34.55265,34.55265,0,0,1,.0652-5.3132c.0978-.9997.239-1.9775.4238-2.9554a29.41677,29.41677,0,0,1,1.2169-4.3789,29.85247,29.85247,0,0,1,1.9558-4.1941c.2064-.3476.41281-.6954.6085-1.043q.6519-1.0104,1.369-2.021v-.0109c.326-.4346.6628-.8801,1.0105-1.3147.163-.2064.3369-.4129.4999-.6085.8583-1.0213,1.8036-2.021,2.82491-3.0206,5.335-5.1503,12.96259-10.018,23.361-14.7988l10.12659,6.6823h.0109l.0217.0216a76.26913,76.26913,0,0,0-16.809,8.5186,39.1412,39.1412,0,0,0-10.3548,9.9638,22.68515,22.68515,0,0,0-1.9666,3.553c-.4565,1.0322-.8475,2.0319-1.1735,2.988-.1087.326-.2065.6519-.3042.967a23.34367,23.34367,0,0,0-.7932,3.6074,14.621,14.621,0,0,0,.15211,5.009c.04339.2064.09779.4129.15209.6085l.0978.3259a4.56729,4.56729,0,0,0,.1846.5433,5.47991,5.47991,0,0,0,.2826.6953,7.08115,7.08115,0,0,0,.3803.7607c0,.0109.0109.0109.0109.0217a3.30889,3.30889,0,0,0,.3042.489,5.84,5.84,0,0,0,.3694.5324,13.92833,13.92833,0,0,0,7.67111,4.9221,32.47561,32.47561,0,0,0,7.23639,1.1408c1.72761.087,3.401.2282,5.0307.413,11.3002,1.2821,19.9817,4.8025,23.5674,10.2136.1847.2824.35851.5758.52151.8691a14.59513,14.59513,0,0,1,.79319,1.7277c.1087.2933.2064.5868.2933.891a.03344.03344,0,0,0,.0109.0217.47578.47578,0,0,0,.0218.1086.30153.30153,0,0,1,.0326.1413c.0868.3151.1629.6302.2173.9453.0652.3151.1086.6302.1521.9453A12.57589,12.57589,0,0,1,362.19029,472.3727Z" transform="translate(-266.40849 -255.44059)"/>
      <path class="cls-3" d="M362.19029,472.3727c-.5541,4.194-3.2488,7.4863-7.6384,6.8996a6.2686,6.2686,0,0,1-4.29189-2.5534.03364.03364,0,0,0,.01089-.0217c1.1299-3.1619,4.35711-10.8221,9.8876-13.2342h.0217a9.25448,9.25448,0,0,1,.49981.8257,13.42716,13.42716,0,0,1,1.52119,4.8243A12.57589,12.57589,0,0,1,362.19029,472.3727Z" transform="translate(-266.40849 -255.44059)"/>
      <path class="cls-3" d="M340.36149,465.158c-2.4882-.7824-6.552-1.3256-11.0937-2.1949a.08262.08262,0,0,1,.0217-.0434,4.85742,4.85742,0,0,1,5.4002-2.7925,6.7597,6.7597,0,0,1,5.6609,4.9872C340.35059,465.1253,340.36149,465.1471,340.36149,465.158Z" transform="translate(-266.40849 -255.44059)"/>
      <path class="cls-3" d="M336.62369,453.2167l-.0326.0327c-2.0644,1.9557-5.0633,4.0419-7.9427,3.2922a5.91636,5.91636,0,0,1-4.32439-4.846c0-.0218-.01091-.0326-.01091-.0544a31.24218,31.24218,0,0,0,7.2473,1.1517C333.29889,452.8799,334.99389,453.0212,336.62369,453.2167Z" transform="translate(-266.40849 -255.44059)"/>
      <path class="cls-3" d="M308.61239,443.1226c0,2.4231-1.8688,4.368-4.0093,5.7914l-.0109.0108a7.44725,7.44725,0,0,1-.3803-.8475,13.35949,13.35949,0,0,1-.6628-1.7819c-.0978-.3043-.1847-.6194-.2716-.9453-.0544-.1956-.0978-.3911-.1414-.5868-.0543-.239-.1086-.4781-.15209-.7279a23.63048,23.63048,0,0,1-.35851-2.8903,34.55265,34.55265,0,0,1,.0652-5.3132C304.90729,436.8532,308.61239,439.1459,308.61239,443.1226Z" transform="translate(-266.40849 -255.44059)"/>
      <path class="cls-3" d="M329.31119,416.7085a39.1412,39.1412,0,0,0-10.3548,9.9638v-.0327c-.5433-1.9992-1.5647-7.2799,1.7602-10.1592,2.6947-2.3253,6.3346-.9997,8.5621.2173C329.28949,416.6977,329.30039,416.7085,329.31119,416.7085Z" transform="translate(-266.40849 -255.44059)"/>
    </g>
    <path class="cls-6" d="M361.245,417.7951c-2.37951-.7171-37.11671-11.9086-34.41111-45.9503a43.25476,43.25476,0,0,1,4.933-16.2331c7.8232-7.432,18.73211-15.592,29.565-16.483,14.8314-1.2169,16.9176,29.1305,16.96111,45.6461C371.56729,389.6208,359.47389,400.834,361.245,417.7951Z" transform="translate(-266.40849 -255.44059)"/>
    <path class="cls-3" d="M447.21989,285.8778a20.66743,20.66743,0,0,0-4.671-5.0624,26.0211,26.0211,0,0,0-2.9841-2.0531c2.3249-4.4476,7.9114-7.291,9.8097-6.6078l.0056.0016a8.97216,8.97216,0,0,1-1.7268,5.1693,8.18639,8.18639,0,0,0-.4258.7604A8.77815,8.77815,0,0,0,447.21989,285.8778Z" transform="translate(-266.40849 -255.44059)"/>
    <path class="cls-3" d="M409.12039,266.8984s-3.1547-.2491-5.75339-.3878c-.79641-.0463-1.548-.0801-2.13121-.0959a18.22121,18.22121,0,0,1,2.8308-9.688,3.2963,3.2963,0,0,1,1.379-1.203s.8416.7727.847,3.3704c.0006.9474-.0211,1.8467.0245,2.6988A6.18869,6.18869,0,0,0,409.12039,266.8984Z" transform="translate(-266.40849 -255.44059)"/>
    <path class="cls-7" d="M424.78669,299.5435a3.20231,3.20231,0,0,0-1.5401,4.4659,5.82065,5.82065,0,0,0,7.2269,2.0018c1.9461-1.0901,2.1052-4.3753.7729-5.4852a6.20377,6.20377,0,0,0-3.9455-1.3294A6.57686,6.57686,0,0,0,424.78669,299.5435Z" transform="translate(-266.40849 -255.44059)"/>
    <path class="cls-7" d="M395.87249,287.1278a3.25779,3.25779,0,0,1-2.1354,4.2682,5.77463,5.77463,0,0,1-6.48809-3.7601c-.576-2.167,1.67519-4.6091,3.40409-4.4409a6.145,6.145,0,0,1,3.7124,1.8852A6.54616,6.54616,0,0,1,395.87249,287.1278Z" transform="translate(-266.40849 -255.44059)"/>
    <path class="cls-3" d="M429.48839,273.4589c-.67239.5315-1.3052,1.0601-1.8969,1.541-1.1601.9353-2.2703,1.9413-3.3433,2.9795a3.63016,3.63016,0,0,1-3.1538,1.1504,3.7438,3.7438,0,0,1-2.6625-3.088,7.37859,7.37859,0,0,1,1.09311-4.9887,13.39148,13.39148,0,0,1,.75319-1.1938c.168.0522.3313.11.4947.1678q4.53285,1.5936,8.44811,3.3119C429.30829,273.3775,429.40079,273.4204,429.48839,273.4589Z" transform="translate(-266.40849 -255.44059)"/>
    <path class="cls-3" d="M384.539,284.0941a7.60347,7.60347,0,0,1-4.05111-2.6442c.0686-.1363.1373-.2725.21311-.4128.06729-.1308.13609-.2673.21029-.4021a38.21438,38.21438,0,0,1,2.1583-3.5237C384.98189,280.7843,387.50979,284.6744,384.539,284.0941Z" transform="translate(-266.40849 -255.44059)"/>
    <path class="cls-3" d="M382.544,287.7601a7.52847,7.52847,0,0,1-4.10971-.8979q.1383-.5184.2981-1.0486c.2373-.7718.5142-1.5564.8418-2.3508.015-.0318.02281-.0594.03781-.0912C382.22759,285.266,384.66109,287.3784,382.544,287.7601Z" transform="translate(-266.40849 -255.44059)"/>
    <path class="cls-3" d="M386.69489,277.2241a5.97753,5.97753,0,0,1-2.0392-2.1922c.0308-.0452.06731-.0888.1037-.1324a26.06133,26.06133,0,0,1,2.4948-2.5767C388.053,275.3137,388.51209,278.2141,386.69489,277.2241Z" transform="translate(-266.40849 -255.44059)"/>
    <path class="cls-3" d="M437.238,277.366c-1.66641.9523-3.32421,1.9487-4.27491,1.8041-2.3679-.3492-2.5872-2.6708-.6448-4.4041q2.01045.97215,3.825,1.9786c.1655.0876.321.1756.4768.2638C436.83259,277.127,437.03539,277.2466,437.238,277.366Z" transform="translate(-266.40849 -255.44059)"/>
    <path class="cls-3" d="M419.34369,269.5365a5.27935,5.27935,0,0,1-2.6678,1.1994c-1.9307-.0828-2.8411-1.787-2.0365-2.6214.8824.2338,1.786.4862,2.7125.7766.4067.1194.81911.2534,1.23711.392.11239.0416.23479.0823.35189.1186C419.07839,269.4464,419.21139,269.4964,419.34369,269.5365Z" transform="translate(-266.40849 -255.44059)"/>
    <path class="cls-8" d="M377.763,297.2545c.16879.8281.33639,1.6545.54339,2.4688.09761.4081.2063.8127.3311,1.2091a4.59514,4.59514,0,0,0,.4788,1.1024l.0599.091-.0439.1121a5.46632,5.46632,0,0,0-.305,1.0216c-.0662.3303-.0447.7201.1074.8027.0704.041.0977.0499.216-.0343a1.53121,1.53121,0,0,0,.2967-.365,5.45428,5.45428,0,0,0,.4461-.96l.368-.9884.1279,1.0412a9.47063,9.47063,0,0,0,.2149,1.156,4.34318,4.34318,0,0,0,.395,1.0656.82272.82272,0,0,0,.3124.3449c.1292.0603.2394.0712.3077-.0048a1.59941,1.59941,0,0,0,.2457-.9891l-.0004-.5559.3237.4346a18.86618,18.86618,0,0,0,1.3007,1.5325,10.27951,10.27951,0,0,0,1.5056,1.3453,8.53706,8.53706,0,0,1-1.66169-1.1841,15.07166,15.07166,0,0,1-1.42981-1.4712l.3231-.1212a3.18565,3.18565,0,0,1-.0219.6481,1.24384,1.24384,0,0,1-.277.6679.61229.61229,0,0,1-.4077.1893.83266.83266,0,0,1-.4032-.0815,1.25578,1.25578,0,0,1-.521-.5078,4.25245,4.25245,0,0,1-.47349-1.1874,9.91933,9.91933,0,0,1-.24051-1.2226l.496.0528a5.29311,5.29311,0,0,1-.5024,1.0653,1.981,1.981,0,0,1-.4184.4904,1.91593,1.91593,0,0,1-.1639.1017.882.882,0,0,1-.213.0603.62807.62807,0,0,1-.4344-.1225.87878.87878,0,0,1-.32639-.6694,2.43792,2.43792,0,0,1,.05419-.62,5.19757,5.19757,0,0,1,.376-1.1088l.01581.2029a4.89774,4.89774,0,0,1-.45791-1.2397c-.1036-.4156-.1883-.8322-.2619-1.25C377.91589,298.9387,377.81079,298.0991,377.763,297.2545Z" transform="translate(-266.40849 -255.44059)"/>
    <g>
      <g>
        <path class="cls-9" d="M434.24969,299.6865a11.36377,11.36377,0,0,1-9.5818-2.2549,6.36878,6.36878,0,0,1-1.2944-1.5849,11.35009,11.35009,0,0,1-.48049-9.07c.01889-.0665.04329-.1315.06759-.1966a8.40692,8.40692,0,0,1,6.64541-5.1986c3.47709-.505,7.976.5635,9.80039,3.8278a9.61045,9.61045,0,0,1,1.1204,4.4554l.0055.0016C440.63759,293.959,438.40409,298.6545,434.24969,299.6865Z" transform="translate(-266.40849 -255.44059)"/>
        <path class="cls-3" d="M434.24969,299.6865a12.06458,12.06458,0,0,1-7.8989-1.0017,8.47506,8.47506,0,0,1-2.2286-1.5729,6.87872,6.87872,0,0,1-1.48419-2.3193,10.719,10.719,0,0,1-.68871-2.6722,12.51807,12.51807,0,0,1,.5391-5.4931l-.0101.0314a8.55828,8.55828,0,0,1,4.2043-4.8635,8.78768,8.78768,0,0,1,3.12241-.9473,12.71213,12.71213,0,0,1,3.221.0447,9.51338,9.51338,0,0,1,5.71439,2.812,7.2018,7.2018,0,0,1,1.5502,2.821,10.64955,10.64955,0,0,1,.4412,3.1347l-.1491-.1929.0055.0016.1493.0468-.0003.1454a12.52027,12.52027,0,0,1-.423,3.1901,12.36182,12.36182,0,0,1-1.215,2.9581,9.24724,9.24724,0,0,1-2.0344,2.4422A6.93081,6.93081,0,0,1,434.24969,299.6865Zm0,0a6.921,6.921,0,0,0,2.7936-1.4606,8.54507,8.54507,0,0,0,1.9581-2.4714,11.70852,11.70852,0,0,0,1.326-6.0831l.1488.1919-.0054-.0013-.1413-.0362-.0078-.1568a10.16177,10.16177,0,0,0-.5729-2.9632,6.54255,6.54255,0,0,0-1.5404-2.4987,9.09232,9.09232,0,0,0-5.3143-2.3446,10.0265,10.0265,0,0,0-5.75109.8296,8.68618,8.68618,0,0,0-1.23641.7734,9.142,9.142,0,0,0-1.0774.9828,7.50922,7.50922,0,0,0-.8825,1.1629c-.1375.2026-.2396.4248-.3596.638-.0924.2143-.2177.4602-.2795.6452l-.0103.0318a11.79447,11.79447,0,0,0-.7667,5.1351,10.20466,10.20466,0,0,0,.5231,2.5725,6.50624,6.50624,0,0,0,1.2919,2.269,9.44874,9.44874,0,0,0,4.5689,2.6315A11.02239,11.02239,0,0,0,434.24969,299.6865Z" transform="translate(-266.40849 -255.44059)"/>
      </g>
      <path class="cls-3" d="M428.66769,296.9048a6.86918,6.86918,0,0,0,6.93-.6869,6.98941,6.98941,0,0,0-5.0258-12.467c-5.5828.6479-7.3531,8.3787-3.5436,12.0612A5.72539,5.72539,0,0,0,428.66769,296.9048Z" transform="translate(-266.40849 -255.44059)"/>
      <path class="cls-10" d="M440.52679,289.6647c-8.7326-7.6495-16.6572-3.4557-17.63379-2.888.01889-.0665.04329-.1315.06759-.1966a8.40692,8.40692,0,0,1,6.64541-5.1986c3.47709-.505,7.976.5635,9.80039,3.8278A9.61045,9.61045,0,0,1,440.52679,289.6647Z" transform="translate(-266.40849 -255.44059)"/>
    </g>
    <g>
      <g>
        <path class="cls-9" d="M403.55159,282.417c-1.9453,1.9714-5.1265,2.0267-7.5979,1.2288a5.74838,5.74838,0,0,1-.9702-.4257c-3.6977-2.052-4.50349-8.0786-1.9648-11.4224a5.59885,5.59885,0,0,1,.8866-.9471c2.9198-2.468,8.5013-2.1291,10.952.8936a5.121,5.121,0,0,1,.9324,2.6272,11.34373,11.34373,0,0,1,.0465,2.0097A9.52915,9.52915,0,0,1,403.55159,282.417Z" transform="translate(-266.40849 -255.44059)"/>
        <path class="cls-3" d="M403.55149,282.4172a5.68353,5.68353,0,0,1-2.50649,1.455,8.3663,8.3663,0,0,1-2.91251.2862,10.504,10.504,0,0,1-1.46249-.1976,6.9744,6.9744,0,0,1-1.42731-.4273,6.39328,6.39328,0,0,1-2.3531-1.8583,8.82619,8.82619,0,0,1-1.7572-5.7091,8.70767,8.70767,0,0,1,.6423-3.009l.34931-.7016c.13139-.2256.28279-.4398.42449-.6597a5.647,5.647,0,0,1,1.0697-1.1704,8.17568,8.17568,0,0,1,5.8524-1.6333,7.98057,7.98057,0,0,1,5.3878,2.5729,4.7945,4.7945,0,0,1,1.0701,2.8063,12.47811,12.47811,0,0,1-.0841,2.9489,11.72618,11.72618,0,0,1-.7393,2.8356A7.32861,7.32861,0,0,1,403.55149,282.4172Zm0,0a8.83919,8.83919,0,0,0,2.1498-5.3132,11.41318,11.41318,0,0,0-.0947-2.8896,4.3698,4.3698,0,0,0-1.13359-2.5056,7.38939,7.38939,0,0,0-5.05751-2.0316,7.64964,7.64964,0,0,0-5.1397,1.537,4.641,4.641,0,0,0-.91.9709c-.1233.1891-.2582.3715-.375.5651l-.3113.6041a8.09474,8.09474,0,0,0-.6661,2.6644,8.23191,8.23191,0,0,0,1.2877,5.3528,5.97594,5.97594,0,0,0,2.0783,1.8716,6.73551,6.73551,0,0,0,1.3433.4981,8.33267,8.33267,0,0,0,1.4226.275,7.91982,7.91982,0,0,0,2.8892-.1813A5.66728,5.66728,0,0,0,403.55149,282.4172Z" transform="translate(-266.40849 -255.44059)"/>
      </g>
      <path class="cls-3" d="M394.71409,279.5761c.1185.1836,1.0458,2.4819,4.6581,2.4914,3.6121.0097,4.5685-4.3501,4.4992-5.8948a5.01358,5.01358,0,0,0-4.993-5.0902C394.79579,270.9392,392.67469,276.4165,394.71409,279.5761Z" transform="translate(-266.40849 -255.44059)"/>
      <path class="cls-10" d="M405.83619,276.3811c-3.6476-3.9383-9.647-4.5577-12.8175-4.5834a5.59885,5.59885,0,0,1,.8866-.9471c2.9198-2.468,8.5013-2.1291,10.952.8936a5.121,5.121,0,0,1,.9324,2.6272A11.34373,11.34373,0,0,1,405.83619,276.3811Z" transform="translate(-266.40849 -255.44059)"/>
    </g>
    <path class="cls-3" d="M453.95289,300.1c-10.9863,2.5622-12.147-4.6207-8.0132-4.5254a27.374,27.374,0,0,0,7.3927-1.1189A16.43991,16.43991,0,0,1,453.95289,300.1Z" transform="translate(-266.40849 -255.44059)"/>
    <path class="cls-3" d="M452.39719,308.3394l-.011.0389c-.07419.1766-.1358.3511-.2029.5239-3.8289.3092-8.2407-.2009-11.1016-2.6028-1.0795-.9063-1.7798-2.4302-.979-3.5397a2.659,2.659,0,0,1,1.4342-.9114c1.7175-.4953,3.7502-.0737,5.5372.2424a23.60445,23.60445,0,0,0,6.694-.0948A35.16733,35.16733,0,0,1,452.39719,308.3394Z" transform="translate(-266.40849 -255.44059)"/>
    <path class="cls-3" d="M451.25049,311.3414a22.81429,22.81429,0,0,1-3.9254,6.0492,10.92116,10.92116,0,0,1-6.5348-3.3556,2.5915,2.5915,0,0,1-.7467-2.9642c.7308-1.411,2.7777-.9975,3.9848-.6245A19.07651,19.07651,0,0,0,451.25049,311.3414Z" transform="translate(-266.40849 -255.44059)"/>
    <g>
      <path class="cls-3" d="M379.71559,286.4515a40.23033,40.23033,0,0,1,4.8283.0154,39.73183,39.73183,0,0,1,4.7993.5283,39.71788,39.71788,0,0,1-4.8283-.0154A40.15251,40.15251,0,0,1,379.71559,286.4515Z" transform="translate(-266.40849 -255.44059)"/>
      <path class="cls-3" d="M380.05849,282.4571a37.46212,37.46212,0,0,1,4.5254,1.1227,37.05567,37.05567,0,0,1,4.3745,1.6139,37.08677,37.08677,0,0,1-4.52539-1.1228A37.478,37.478,0,0,1,380.05849,282.4571Z" transform="translate(-266.40849 -255.44059)"/>
      <path class="cls-3" d="M382.55459,278.1504a37.43308,37.43308,0,0,1,3.5707,2.9984,37.00923,37.00923,0,0,1,3.2194,3.3731,37.0893,37.0893,0,0,1-3.5709-2.9984A37.50564,37.50564,0,0,1,382.55459,278.1504Z" transform="translate(-266.40849 -255.44059)"/>
    </g>
    <path class="cls-9" d="M444.23409,279.9273a3.75979,3.75979,0,0,1-1.2732-.7097c-.2231-.3331,1.4466.0993,1.4466.0993-.7256-.5899-1.1267-1.7531-.839-1.6893.2947.0597,1.0552,1.0553,1.0552,1.0553-.5864-1.7556.7598-3.7713,1.8338-3.3103.4598.1967.6747,1.4029.77,2.7132a8.77815,8.77815,0,0,0-.0076,7.792,20.66743,20.66743,0,0,0-4.671-5.0624A2.81443,2.81443,0,0,1,444.23409,279.9273Z" transform="translate(-266.40849 -255.44059)"/>
    <path class="cls-9" d="M403.367,266.5106a7.02134,7.02134,0,0,1,1.81139-1.9015c-.0801.0072-.9388.1171-1.237-.1836-.3116-.3164,1.1078-.4588,1.1078-.4588s-1.00419-.2013-.9981-.5174c-.0014-.3121.9752.0492.9752.0492-.58329-.6272-1.3154-2.9038-.2954-3.1596.6645-.165,1.2527.6557,1.5862,1.254a6.18869,6.18869,0,0,0,2.8033,5.3055S405.96569,266.6493,403.367,266.5106Z" transform="translate(-266.40849 -255.44059)"/>
    <g>
      <path class="cls-3" d="M412.82629,284.2393s-.7708-2.269-1.6155-2.2161c-.8449.0528.3083,3.4831,1.0313,4.0302.7231.5471,3.5512-1.6057,3.3116-2.3082C415.31409,283.0426,412.82629,284.2393,412.82629,284.2393Z" transform="translate(-266.40849 -255.44059)"/>
      <path class="cls-3" d="M411.21409,296.7277c.0254-.9182.0884-1.8332.1364-2.7499l.2119-2.7441c.0705-.9153.1727-1.8272.2705-2.7407.1127-.9137.2202-1.821.4033-2.7432l.45981.2029c-1.01841,1.4497-2.00331,2.9305-2.97661,4.4145-.4841.7441-.9611,1.4934-1.4139,2.2566-.4671.7558-.9034,1.5292-1.321,2.3167a26.67385,26.67385,0,0,1,1.1038-2.4377c.4093-.7938.8525-1.568,1.2982-2.3411.8986-1.5431,1.8738-3.0348,2.89051-4.5047l.71079-1.0275-.25079,1.2304c-.17831.8758-.29671,1.79-.41921,2.6937l-.3599,2.7229-.3548,2.7266C411.46949,294.9105,411.35669,295.8205,411.21409,296.7277Z" transform="translate(-266.40849 -255.44059)"/>
      <path class="cls-8" d="M408.53589,284.9754a5.78922,5.78922,0,0,0-4.35789,1.1938c-1.83371,1.4827-2.93261,3.7879-2.12441,6.0501a7.12333,7.12333,0,0,0,2.6896,3.2786c2.1836,1.5792,4.4641,2.9934,7.2144,3.2236a6.70313,6.70313,0,0,0,3.0128-.3577,6.09183,6.09183,0,0,0,3.3731-3.56,5.85428,5.85428,0,0,0-.3323-4.8248,8.84047,8.84047,0,0,0-4.6605-3.4423A24.29882,24.29882,0,0,0,408.53589,284.9754Z" transform="translate(-266.40849 -255.44059)"/>
    </g>
    <g>
      <path class="cls-3" d="M431.07519,306.2953a45.37592,45.37592,0,0,1,8.4752,4.6001,39.68956,39.68956,0,0,1-4.3601-2.0743A40.20257,40.20257,0,0,1,431.07519,306.2953Z" transform="translate(-266.40849 -255.44059)"/>
      <path class="cls-3" d="M441.35929,307.3174a37.5313,37.5313,0,0,1-4.5696-.9276,37.07635,37.07635,0,0,1-4.4398-1.4245,37.02048,37.02048,0,0,1,4.5696.9274A37.48183,37.48183,0,0,1,441.35929,307.3174Z" transform="translate(-266.40849 -255.44059)"/>
      <path class="cls-3" d="M441.50069,302.3414a37.50658,37.50658,0,0,1-4.512,1.1767,37.10193,37.10193,0,0,1-4.6141.6728,37.03145,37.03145,0,0,1,4.5121-1.1766A37.55339,37.55339,0,0,1,441.50069,302.3414Z" transform="translate(-266.40849 -255.44059)"/>
    </g>
    <path class="cls-11" d="M408.93279,320.1554c.794.0602,1.585.1316,2.3776.172.7914.0461,1.5834.0925,2.3679.0753l.50471-.011-.38891.3431a3.08035,3.08035,0,0,0-.45209.4884.68209.68209,0,0,0-.17871.4673.211.211,0,0,0,.1128.1118.36263.36263,0,0,0,.2078-.0037,2.33226,2.33226,0,0,0,.585-.2591,9.07969,9.07969,0,0,0,1.1254-.8068,9.319,9.319,0,0,0,1.0039-.9455l.5695-.6462-.1192.8498a4.9573,4.9573,0,0,0-.0434,1.0652c.0264.3434.1307.6894.3255.7266a1.13138,1.13138,0,0,0,.84341-.2754,5.53567,5.53567,0,0,0,.81079-.7064l.1077-.1125.12951.0618a11.3004,11.3004,0,0,0,2.42729.8182,9.69382,9.69382,0,0,0,1.2739.2178,10.46187,10.46187,0,0,0,1.299.0487,8.8554,8.8554,0,0,1-2.6201-.0157,11.52168,11.52168,0,0,1-2.5509-.7083l.2371-.0504a4.82019,4.82019,0,0,1-.8537.8148,2.50766,2.50766,0,0,1-.5387.3091,1.09183,1.09183,0,0,1-.7072.0628.77581.77581,0,0,1-.3474-.2099,1.04891,1.04891,0,0,1-.1956-.3142,2.22953,2.22953,0,0,1-.13969-.6212,5.419,5.419,0,0,1,.03539-1.1889l.45.2035a9.166,9.166,0,0,1-1.0791,1.0047,8.44983,8.44983,0,0,1-1.206.8386,2.74935,2.74935,0,0,1-.72729.2915.786.786,0,0,1-.49281-.0379.64629.64629,0,0,1-.3493-.4043.996.996,0,0,1,.2782-.8363,3.44874,3.44874,0,0,1,.5462-.5291l.11571.332c-.80521-.0307-1.59911-.108-2.38961-.2158C410.49879,320.4423,409.71189,320.3216,408.93279,320.1554Z" transform="translate(-266.40849 -255.44059)"/>
    <path class="cls-11" d="M367.22109,434.8105a41.91273,41.91273,0,0,1-5.9812-14.3689,31.47812,31.47812,0,0,1,.8824-15.5938,32.22679,32.22679,0,0,1,3.3316-7.1326,36.22155,36.22155,0,0,1,4.7595-6.2428,46.11414,46.11414,0,0,1,12.37161-9.4466,48.87865,48.87865,0,0,0-6.26881,4.5708,49.40858,49.40858,0,0,0-5.5323,5.3918c-.8568.9609-1.6332,1.9844-2.4292,2.9916-.733,1.0531-1.4896,2.0906-2.1222,3.2064a32.43248,32.43248,0,0,0-4.2392,22.1183,39.16467,39.16467,0,0,0,2.0199,7.4395A55.8913,55.8913,0,0,0,367.22109,434.8105Z" transform="translate(-266.40849 -255.44059)"/>
    <path class="cls-5" d="M452.984,329.1565s-.81121-5.3537-3.08241-6.6515c-2.2713-1.2979-24.1731-2.9203-41.8567,28.0666l1.7846,14.439S427.83759,328.8321,452.984,329.1565Z" transform="translate(-266.40849 -255.44059)"/>
    <g>
      <path class="cls-1" d="M417.95219,406.093c-4.0854.4889-25.8599-9.0076-38.2357-15.4726a60.55864,60.55864,0,0,1-7.7907-4.5852c-4.2375-3.3249-30.7494-51.9589-45.3962-79.188-.6845-1.2821-1.3472-2.5099-1.9775-3.6942-.1303-.25-.2608-.489-.39109-.7281-.489-.9126-.96711-1.7819-1.41261-2.6294-3.6399-6.7909-5.9216-11.0829-5.9216-11.0829,9.29-30.6189,42.2233-25.5557,44.7551-23.6542.4889.3586,2.8794,4.1398,6.4324,10.0072.5976.9996,1.2386,2.0536,1.9014,3.1619.2282.3803.45631.7714.6845,1.1626.3586.5976.728,1.206,1.0974,1.8253,14.3208,24.0237,39.3332,67.4532,45.6353,78.3948.9453,1.6515,1.4668,2.5643,1.4668,2.5643s.3585,3.5313.7606,8.5947C420.53819,383.4274,421.72249,405.6474,417.95219,406.093Z" transform="translate(-266.40849 -255.44059)"/>
      <path class="cls-3" d="M419.56029,370.7692l-10.2027,2.0535L356.16,283.1495l14.44019-3.7594c.3586.5976.728,1.206,1.0974,1.8253,14.3208,24.0237,39.3332,67.4532,45.6353,78.3948.9453,1.6515,1.4668,2.5643,1.4668,2.5643S419.15819,365.7058,419.56029,370.7692Z" transform="translate(-266.40849 -255.44059)"/>
      <path class="cls-3" d="M395.22149,383.4383l-15.505,7.1821a60.55864,60.55864,0,0,1-7.7907-4.5852c-4.2375-3.3249-30.7494-51.9589-45.3962-79.188-.6845-1.2821-1.3472-2.5099-1.9775-3.6942-.1303-.25-.2608-.489-.39109-.7281l17.00449-12.9408Z" transform="translate(-266.40849 -255.44059)"/>
      <path class="cls-6" d="M417.95219,406.093c-2.184.2607-9.4096-2.3252-17.5586-5.7805-11.5719-4.9004-25.0017-11.5501-28.4678-14.2773,0,0-4.4331-12.6692,2.749-16.0484,7.1713-3.3792,14.1469,6.3346,16.0376,5.9108,1.9014-.4237-4.4332-11.1806,2.3252-14.5598,6.7583-3.3791,11.8217,8.0188,14.1469,7.3886,2.3252-.6411-4.2268-12.4628,1.4777-14.5707,2.7707-1.0214,6.0412,2.0319,8.6707,5.4545.9453,1.6515,1.4668,2.5643,1.4668,2.5643s1.6081,15.7333,1.7277,28.359C420.61419,398.8674,420.04929,405.8431,417.95219,406.093Z" transform="translate(-266.40849 -255.44059)"/>
      <path class="cls-4" d="M417.95219,406.093c-2.184.2607-9.4096-2.3252-17.5586-5.7805,3.14-4.4332,9.9093-11.9413,20.1338-9.779C420.61419,398.8674,420.04929,405.8431,417.95219,406.093Z" transform="translate(-266.40849 -255.44059)"/>
      <path class="cls-4" d="M369.91569,278.2275c-19.6014,4.6504-36.845,17.6238-45.3636,24.9255-.6302-1.1735-1.2386-2.2927-1.8037-3.3575-3.6399-6.7909-5.9216-11.0829-5.9216-11.0829,9.29-30.6189,42.2233-25.5557,44.7551-23.6542.4889.3586,2.8794,4.1398,6.4324,10.0072C368.61189,276.0652,369.25289,277.1192,369.91569,278.2275Z" transform="translate(-266.40849 -255.44059)"/>
      <path class="cls-5" d="M371.69759,281.2154a70.10468,70.10468,0,0,0-45.168,25.6318c-1.369-2.5534-2.6403-4.922-3.7812-7.0517,3.4445-6.5301,14.462-20.5575,45.2659-24.7299C369.13339,276.9236,370.372,278.988,371.69759,281.2154Z" transform="translate(-266.40849 -255.44059)"/>
    </g>
    <g>
      <path class="cls-1" d="M330.82159,347.832a14.93549,14.93549,0,0,1-8.3665-9.4312,15.10223,15.10223,0,0,1-.2608-8.7034c1.1735-4.281,4.47671-8.3121,10.7461-10.8872l5.5305,10.1267c4.4658.0869,12.7235,1.1299,16.07011,7.0735a10.493,10.493,0,0,1,.95609,2.2817C358.62639,348.9837,340.69829,351.6132,330.82159,347.832Z" transform="translate(-266.40849 -255.44059)"/>
      <path class="cls-3" d="M355.33559,342.5672a13.80554,13.80554,0,0,1-2.99259,1.3372,18.21437,18.21437,0,0,1-3.20751.7289,14.87318,14.87318,0,0,1-3.3096.0417,8.76813,8.76813,0,0,1-3.1568-.9563,24.11657,24.11657,0,0,0,3.194.1768c1.0532-.0377,2.1002-.1201,3.1467-.2537C351.10779,343.3777,353.18259,342.95,355.33559,342.5672Z" transform="translate(-266.40849 -255.44059)"/>
      <path class="cls-3" d="M345.46549,336.6451a29.92373,29.92373,0,0,1,4.5903-.6011,37.06624,37.06624,0,0,1,4.6218-.0568,12.92559,12.92559,0,0,1-4.5565,1.0541A14.28853,14.28853,0,0,1,345.46549,336.6451Z" transform="translate(-266.40849 -255.44059)"/>
    </g>
    <path class="cls-3" d="M370.26869,452.2425a1.51433,1.51433,0,0,1-.9066-1.0294,3.48783,3.48783,0,0,1-.1632-1.3439,4.02556,4.02556,0,0,1,.9987-2.3908,5.99273,5.99273,0,0,1,.0668,1.2825c-.0072.4073-.044.7973-.0688,1.1821-.03459.3828-.0534.7568-.0687,1.1311A3.1083,3.1083,0,0,0,370.26869,452.2425Z" transform="translate(-266.40849 -255.44059)"/>
    <path class="cls-11" d="M353.21789,370.3052a20.74264,20.74264,0,0,0-1.63089-2.202,6.43537,6.43537,0,0,0-.95721-.9123c-.3332-.2523-.7339-.4087-.9042-.2258-.1914.1474-.2251.5619-.1611.9689a6.15585,6.15585,0,0,0,.3394,1.2497,18.05142,18.05142,0,0,0,1.08911,2.4435l.56469,1.0612-1.1504-.4041c-.7265-.2552-1.477-.5039-2.2242-.6931a7.42913,7.42913,0,0,0-2.1646-.3044l-.1873.0392a.29375.29375,0,0,1-.0755.0379c.0378-.0292-.0461.0407-.009.1432a1.57772,1.57772,0,0,0,.4446.7584,8.52922,8.52922,0,0,0,1.7416,1.4044l.5753.3636-.5538.3767a15.48853,15.48853,0,0,0-1.7249,1.357,15.0733,15.0733,0,0,0-1.5368,1.6139,16.4882,16.4882,0,0,0-1.318,1.8128,16.7,16.7,0,0,0-1.0513,2.0057,12.60283,12.60283,0,0,1,1.927-4.1564,15.71247,15.71247,0,0,1,1.4712-1.7942,12.34725,12.34725,0,0,1,1.7551-1.5657l.0215.74a9.19747,9.19747,0,0,1-2.01319-1.5102,2.441,2.441,0,0,1-.70431-1.2861,1.1322,1.1322,0,0,1,.2899-.9651,1.56112,1.56112,0,0,1,.43141-.2639c.12969-.0342.26479-.0691.39369-.092a7.29425,7.29425,0,0,1,2.5369.336,21.84037,21.84037,0,0,1,2.3135.7652l-.5856.657a17.42025,17.42025,0,0,1-1.0454-2.6279,6.87255,6.87255,0,0,1-.2737-1.4294,2.45492,2.45492,0,0,1,.0441-.787,1.05915,1.05915,0,0,1,.9558-.9295,1.24894,1.24894,0,0,1,.4505.0772,2.14012,2.14012,0,0,1,.66621.4154,5.55331,5.55331,0,0,1,.92269,1.0914A14.7267,14.7267,0,0,1,353.21789,370.3052Z" transform="translate(-266.40849 -255.44059)"/>
    <g>
      <g>
        <path class="cls-1" d="M457.15509,349.2119v.0109a.76735.76735,0,0,1-.0109.1521c-.06519.9562-.163,1.9014-.2935,2.8468a52.13682,52.13682,0,0,1-1.2603,6.4215c-.2391.9019-.489,1.7385-.7389,2.4882a.18437.18437,0,0,1-.0217.0543,10.28142,10.28142,0,0,1-.3477.9779,10.65582,10.65582,0,0,1-1.3365,2.7056,16.25248,16.25248,0,0,1-3.02059,2.8576,5.77551,5.77551,0,0,1-.76061.5433c-.2716.1847-.5433.3585-.8366.5324a1.34154,1.34154,0,0,1-.2717.1521,1.856,1.856,0,0,1-.2498.1412,18.31329,18.31329,0,0,1-10.8222,2.2601,22.71725,22.71725,0,0,1-5.8129-1.3691,34.04758,34.04758,0,0,1-8.7685-5.0416.13494.13494,0,0,1-.03269.0218c-.49971.3259-6.23671,3.9006-12.45181.7931-5.0743-2.5317-2.4665-16.4721,9.29-18.7213a4.69541,4.69541,0,0,1,.5867-.1086,21.08377,21.08377,0,0,1,8.0622.4455,1.29453,1.29453,0,0,1,.1956.0543,29.681,29.681,0,0,1,3.3901,1.0322s5.9434-16.5808,18.1997-15.2118C456.27489,333.9785,457.69829,341.5844,457.15509,349.2119Z" transform="translate(-266.40849 -255.44059)"/>
        <path class="cls-11" d="M457.14419,347.1149l.0313,1.1297.0157.5655c.00081.1925.0211.3686.003.5747l.0009-.0085-.1404,3.0136c-.091,1.0019-.2156,2.0015-.3831,2.9955-.1681.9937-.3749,1.9825-.63659,2.9589-.26421.9724-.62711,1.9233-.94671,2.8851l.0195-.0977a.57632.57632,0,0,1-.0479.1683l.0078-.0173a18.75789,18.75789,0,0,1-2.2059,4.0358,15.08365,15.08365,0,0,1-1.506,1.7617,12.79508,12.79508,0,0,1-1.8149,1.4922l.0353-.0235-.8824.5734.05-.0315-.3401.196.0635-.0363a16.19464,16.19464,0,0,1-6.7774,1.8252,33.96315,33.96315,0,0,1-6.9526-.0178,23.72964,23.72964,0,0,1-6.7649-1.7396,15.52766,15.52766,0,0,1-5.7695-4.0797l.75021.0577a.76484.76484,0,0,1-.15661.1119l-.0431.0207-.0736.0344-.1448.0655-.28489.1231-.573.2255c-.38411.1429-.77291.2691-1.16461.3854a19.523,19.523,0,0,1-2.3883.548,16.18622,16.18622,0,0,1-4.9078.0644,13.99761,13.99761,0,0,1-2.4026-.5942c-.3874-.1438-.76469-.316-1.1469-.4736a3.17472,3.17472,0,0,1-1.095-.8252,4.80984,4.80984,0,0,1-1.0359-2.3888,9.18812,9.18812,0,0,1-.0458-2.5015,15.81048,15.81048,0,0,1,4.0807-8.7575,14.6559,14.6559,0,0,1,8.3953-4.6776l-.0236.0035a17.72692,17.72692,0,0,1,8.1547.5677l-.0148-.0032c.6649.192,1.26761.3903,1.8922.6243q.92535.3468,1.8233.7572a34.32983,34.32983,0,0,1,3.4739,1.8552,36.38953,36.38953,0,0,0-3.5429-1.6967q-.90615-.37575-1.8344-.69c-.6106-.2074-1.26249-.3937-1.86249-.5482l-.01521-.0033a17.93207,17.93207,0,0,0-7.9693-.3232l-.024.0036a14.04429,14.04429,0,0,0-7.8947,4.6281,15.57729,15.57729,0,0,0-3.7659,8.3485,5.70144,5.70144,0,0,0,.8933,4.2022,2.24323,2.24323,0,0,0,.8003.5935c.35551.1421.7048.3,1.0641.431a13.076,13.076,0,0,0,2.2333.5356,15.23055,15.23055,0,0,0,4.6104-.094,18.54645,18.54645,0,0,0,2.2628-.5356c.37091-.1129.7396-.2352,1.101-.3727l.5402-.2084.2642-.112.1278-.0566.0619-.0284.0245-.0112a.28806.28806,0,0,0-.0946.0705l.7506.0577a14.72158,14.72158,0,0,0,5.3477,3.8,22.80846,22.80846,0,0,0,6.4901,1.7134,33.09824,33.09824,0,0,0,6.7707.0622,30.2842,30.2842,0,0,0,3.3484-.4546,12.38841,12.38841,0,0,0,3.0852-1.1142l.0639-.0364.2029-.1081.05041-.0317.79049-.4912.005-.0031.0306-.0207a12.32621,12.32621,0,0,0,1.7117-1.3557,14.46012,14.46012,0,0,0,1.4751-1.6558,18.2095,18.2095,0,0,0,2.217-3.8672l.008-.0176a.07115.07115,0,0,0-.0047.0601l.0195-.0981c.3282-.9367.7258-1.8477,1.0169-2.8038.2902-.953.5275-1.9233.7271-2.902.199-.9789.3562-1.9675.4802-2.9605l.2543-2.9932.0003-.004.0007-.0049c.0227-.1692.0137-.3707.0205-.5547l.0098-.5646Z" transform="translate(-266.40849 -255.44059)"/>
        <path class="cls-3" d="M414.24119,366.0586a8.72937,8.72937,0,0,1,.6776-3.0891,9.75912,9.75912,0,0,1,1.677-2.7421,7.60977,7.60977,0,0,1,2.6013-1.9339,6.63614,6.63614,0,0,1,3.1228-.5923,13.30924,13.30924,0,0,0-2.7546,1.2803,9.996,9.996,0,0,0-2.2214,1.9086A19.59146,19.59146,0,0,0,414.24119,366.0586Z" transform="translate(-266.40849 -255.44059)"/>
      </g>
      <path class="cls-3" d="M408.53019,363.6907a7.88212,7.88212,0,0,1,.4221-3.03,8.677,8.677,0,0,1,1.4922-2.7355,6.97582,6.97582,0,0,1,2.4669-1.9402,6.57267,6.57267,0,0,1,3.0012-.6518,14.1689,14.1689,0,0,0-2.6165,1.3308,8.97282,8.97282,0,0,0-2.0796,1.8959A16.50859,16.50859,0,0,0,408.53019,363.6907Z" transform="translate(-266.40849 -255.44059)"/>
    </g>
    <path class="cls-3" d="M327.30109,332.0227c-.0108,1.5755-1.2169,2.8467-2.3469,3.9441-.8259.8041-1.6625,1.619-2.4991,2.434a15.10223,15.10223,0,0,1-.2608-8.7034,6.18212,6.18212,0,0,1,4.2485.8367,1.93558,1.93558,0,0,1,.6845.6737A1.62412,1.62412,0,0,1,327.30109,332.0227Z" transform="translate(-266.40849 -255.44059)"/>
    <path class="cls-3" d="M457.15509,349.2119v.0109a.76735.76735,0,0,1-.0109.1521c-.0218.8258-.0761,1.8471-.1957,2.988a34.949,34.949,0,0,1-1.2712,6.4541,1.31032,1.31032,0,0,0-.0869-.1738c-1.3147-2.4556-3.2379-4.7808-3.04239-7.519a2.80053,2.80053,0,0,1,1.86889-2.662,2.83408,2.83408,0,0,1,1.206.0652A5.00905,5.00905,0,0,1,457.15509,349.2119Z" transform="translate(-266.40849 -255.44059)"/>
    <path class="cls-3" d="M448.25609,368.9546a1.856,1.856,0,0,1-.2498.1412,18.31329,18.31329,0,0,1-10.8222,2.2601c-.0108-.0218-.0108-.0326-.0216-.0543a4.58449,4.58449,0,0,1-.13049-.5216c-.45631-2.4556,1.19529-4.9546,1.49949-7.508a24.12018,24.12018,0,0,1,.2717-3.0859,4.49247,4.49247,0,0,1,6.7149-2.7272c2.2708,1.4016,2.8358,4.4222,2.9771,7.0951A19.236,19.236,0,0,1,448.25609,368.9546Z" transform="translate(-266.40849 -255.44059)"/>
    <path class="cls-3" d="M397.80749,423.7386a68.975,68.975,0,0,1-11.1262,5.1611,5.27157,5.27157,0,0,1-.7715-1.4451,9.71277,9.71277,0,0,1-.3369-3.4118c.0435-2.4882.087-4.9655.1304-7.4538.0326-1.7601.239-3.8354,1.7385-4.7373a3.49069,3.49069,0,0,1,3.6073.2499,8.96664,8.96664,0,0,1,2.51,2.825A45.35512,45.35512,0,0,1,397.80749,423.7386Z" transform="translate(-266.40849 -255.44059)"/>
    <path class="cls-3" d="M414.22529,410.4826a66.07034,66.07034,0,0,1-8.3991,7.8558.1551.1551,0,0,0-.0216-.0652c-.92359-2.3144-1.858-4.6178-2.78159-6.9322-.652-1.6298-1.27131-3.6183-.239-5.0416a3.4988,3.4988,0,0,1,3.42249-1.1626,8.85821,8.85821,0,0,1,3.401,1.6189A39.77925,39.77925,0,0,1,414.22529,410.4826Z" transform="translate(-266.40849 -255.44059)"/>
    <path class="cls-3" d="M430.26289,379.7984a79.47894,79.47894,0,0,1-3.151,9.6703c-1.1626-1.0866-2.3145-2.1731-3.4771-3.2597-1.2929-1.206-2.6946-2.738-2.3577-4.4657a3.50613,3.50613,0,0,1,2.6077-2.4991,9.05406,9.05406,0,0,1,3.7811.0218C428.54609,379.4181,429.40449,379.592,430.26289,379.7984Z" transform="translate(-266.40849 -255.44059)"/>
    <path class="cls-9" d="M421.34279,345.5029a.25054.25054,0,0,1-.21779-.373s.17869-.3174.541-.8682a.25028.25028,0,0,1,.418.2754c-.34771.5274-.52051.834-.52351.8389A.25049.25049,0,0,1,421.34279,345.5029Zm1.6933-2.4883a.24989.24989,0,0,1-.1992-.4013q.2856-.3765.62011-.7949a.25015.25015,0,1,1,.39069.3125c-.22069.2744-.4239.5361-.6123.7851A.25019.25019,0,0,1,423.03609,343.0146Zm1.9102-2.3173a.24551.24551,0,0,1-.166-.0635.24916.24916,0,0,1-.0205-.3525q.3237-.3648.6787-.7432a.24942.24942,0,1,1,.3652.3398c-.2324.251-.457.4961-.6709.7354A.24849.24849,0,0,1,424.94629,340.6973Zm2.081-2.1651a.25.25,0,0,1-.1738-.4297q.356-.34425.7334-.6904a.25024.25024,0,0,1,.3379.3692c-.248.2275-.4902.455-.7236.6806A.25044.25044,0,0,1,427.02729,338.5322Zm2.2354-2.0019a.25008.25008,0,0,1-.1602-.4424q.38235-.31635.7823-.6338a.25027.25027,0,0,1,.3105.3926q-.3969.3135-.7724.626A.249.249,0,0,1,429.26269,336.5303Zm2.3789-1.8291a.25.25,0,0,1-.1445-.4541q.40575-.2871.8281-.5713a.2497.2497,0,1,1,.2793.414q-.41745.28125-.8184.5655A.24891.24891,0,0,1,431.64159,334.7012Zm2.5117-1.6416a.25018.25018,0,0,1-.1289-.4649q.4278-.25635.8701-.5058a.25011.25011,0,1,1,.2461.4355q-.4365.24615-.8584.5A.258.258,0,0,1,434.15329,333.0596Zm2.6309-1.4395a.2499.2499,0,0,1-.1113-.4736q.4467-.22275.9072-.4365a.24989.24989,0,0,1,.21091.4531q-.45406.2109-.89551.4307A.24934.24934,0,0,1,436.78419,331.6201Zm2.7363-1.2256a.25009.25009,0,0,1-.0928-.4824q.4629-.1845.9395-.3623a.25.25,0,0,1,.17381.4688q-.47161.1743-.92771.3584A.25658.25658,0,0,1,439.52049,330.3945Zm2.8262-1.0029a.25021.25021,0,0,1-.0742-.4893q.47595-.1464.9648-.2851a.24978.24978,0,0,1,.13671.4805c-.32221.0918-.63961.1855-.95311.2832A.27958.27958,0,0,1,442.34669,329.3916Zm2.8955-.7754a.25015.25015,0,0,1-.0557-.4941q.4878-.10995.9854-.209a.24991.24991,0,1,1,.0976.4902c-.3281.0655-.6523.1338-.9716.2071A.27093.27093,0,0,1,445.24219,328.6162Zm2.9473-.5459a.24988.24988,0,0,1-.0362-.4971q.49365-.0732.9981-.1328a.24978.24978,0,0,1,.05861.4961q-.49666.06015-.98441.1309A.24125.24125,0,0,1,448.18949,328.0703Zm2.9804-.3203a.24982.24982,0,0,1-.0176-.499l.4678-.0303a.24236.24236,0,0,1,.2656.2334.25012.25012,0,0,1-.2343.2647l-.4639.0302Z" transform="translate(-266.40849 -255.44059)"/>
    <path class="cls-9" d="M414.11909,415.4971a.25.25,0,0,1-.0869-.4844c.003-.001.336-.126.917-.377a.25018.25018,0,1,1,.1992.459c-.5996.2588-.9423.3867-.9423.3867A.24349.24349,0,0,1,414.11909,415.4971Zm2.7461-1.2266a.25006.25006,0,0,1-.1103-.4746c.2793-.1377.57711-.2881.8887-.4502a.24985.24985,0,1,1,.23041.4434q-.47312.246-.89841.456A.24661.24661,0,0,1,416.86519,414.2705Zm2.6494-1.416a.2501.2501,0,0,1-.125-.4668q.42045-.24165.85841-.5059a.24976.24976,0,0,1,.25789.4278c-.294.1777-.584.3486-.8663.5117A.24908.24908,0,0,1,419.51459,412.8545Zm2.5518-1.582a.25.25,0,0,1-.1387-.458c.2715-.1807.5459-.3672.82031-.5606a.2501.2501,0,1,1,.28909.4082c-.2783.1973-.5566.3858-.832.5684A.25085.25085,0,0,1,422.06639,411.2725Zm2.4414-1.7471a.24708.24708,0,0,1-.1982-.0977.25024.25024,0,0,1,.0459-.3506q.38955-.30015.7793-.6162a.25.25,0,0,1,.3144.3887c-.2617.2129-.5254.4219-.789.624A.24578.24578,0,0,1,424.50779,409.5254Zm2.3057-1.9199a.25.25,0,0,1-.167-.4356q.36615-.331.72751-.6748a.25353.25353,0,0,1,.35349.0078.25.25,0,0,1-.0078.3535q-.36615.3501-.7392.6846A.2494.2494,0,0,1,426.81349,407.6055Zm2.1426-2.1016a.25.25,0,0,1-.1827-.4209q.33691-.3603.667-.7353a.24976.24976,0,1,1,.375.33c-.2236.2539-.4482.503-.6767.7471A.24893.24893,0,0,1,428.95609,405.5039Zm1.9384-2.2881a.24993.24993,0,0,1-.1982-.4023q.3003-.3912.5879-.7979a.2501.2501,0,0,1,.4082.2891q-.29295.4146-.5996.8135A.25051.25051,0,0,1,430.89449,403.2158Zm1.68851-2.4775a.24.24,0,0,1-.12691-.0352.24906.24906,0,0,1-.0879-.3418q.2475-.4203.4756-.8623a.24489.24489,0,0,1,.3359-.1074.24847.24847,0,0,1,.1074.3359c-.1562.3038-.3183.5996-.4892.8877A.24858.24858,0,0,1,432.583,400.7383Zm1.30569-2.6973a.25464.25464,0,0,1-.0928-.0176.25046.25046,0,0,1-.1396-.3252q.183-.4569.3525-.9267a.25359.25359,0,0,1,.3203-.1504.25031.25031,0,0,1,.1504.3203q-.1728.47895-.3584.9424A.2521.2521,0,0,1,433.88869,398.041Zm.9785-2.8369a.23654.23654,0,0,1-.0723-.0107.2504.2504,0,0,1-.167-.3116q.1422-.4731.2764-.956a.25043.25043,0,0,1,.4824.1347q-.1362.48645-.2803.9659A.24917.24917,0,0,1,434.86719,395.2041Zm.7939-2.8965a.26443.26443,0,0,1-.0615-.0078.24984.24984,0,0,1-.1807-.3037q.12317-.48345.2432-.9678a.24564.24564,0,0,1,.3027-.1816.2492.2492,0,0,1,.1817.3027c-.0801.3233-.1611.6475-.2432.9697A.24986.24986,0,0,1,435.66109,392.3076Zm.7198-2.9121a.24671.24671,0,0,1-.0596-.0068.25174.25174,0,0,1-.1836-.3028l.2432-.9746a.2439.2439,0,0,1,.3027-.1816.24883.24883,0,0,1,.1816.3027l-.24119.9727A.25087.25087,0,0,1,436.38089,389.3955Zm.75-2.9111a.26652.26652,0,0,1-.0664-.0088.25131.25131,0,0,1-.1749-.3076c.0899-.3242.1807-.6475.2745-.9668a.25056.25056,0,1,1,.4804.1426q-.14055.4731-.2724.957A.25038.25038,0,0,1,437.13089,386.4844Zm.8818-2.8701a.26707.26707,0,0,1-.082-.0137.25063.25063,0,0,1-.1543-.3184c.1113-.3203.2265-.6367.34661-.9463a.25009.25009,0,0,1,.46679.1797q-.17715.45855-.34079.9307A.25019.25019,0,0,1,438.01269,383.6143Zm1.1357-2.7735a.24179.24179,0,0,1-.1093-.0254.24947.24947,0,0,1-.1153-.334q.22275-.4584.4668-.8994a.25052.25052,0,0,1,.4375.2442q-.2388.4263-.45509.874A.24892.24892,0,0,1,439.14839,380.8408Zm1.5391-2.5674a.25005.25005,0,0,1-.2002-.3994c.2041-.2734.417-.539.63971-.7939a.25051.25051,0,1,1,.37689.3301q-.3222.36765-.6162.7627A.24966.24966,0,0,1,440.68749,378.2734Zm2.0684-2.1533a.24989.24989,0,0,1-.1553-.4453,10.15692,10.15692,0,0,1,.8281-.5947.25.25,0,1,1,.2715.4199c-.2734.1768-.5381.3672-.7891.5654A.2453.2453,0,0,1,442.75589,376.1201Zm2.5722-1.498a.25007.25007,0,0,1-.0947-.4815c.3184-.1299.64061-.2441.96-.3418a.25444.25444,0,0,1,.3125.166.2503.2503,0,0,1-.1661.3125c-.3056.0928-.6132.2022-.9169.3262A.25188.25188,0,0,1,445.32809,374.6221Zm9.21291-.6348a.25727.25727,0,0,1-.03811-.0029l-.3115-.0469-.0098-.2539.0821-.2402.3154.0468a.25.25,0,0,1-.03809.4971Zm-6.334-.1387a.2499.2499,0,0,1-.03711-.497c.3252-.0489.6612-.0889,1.0049-.1182a.24993.24993,0,0,1,.043.498q-.501.04395-.9737.1143A.24017.24017,0,0,1,448.207,373.8486Zm3.98539-.1279-.0176-.001q-.50385-.0336-.9863-.0449a.25064.25064,0,0,1-.2442-.2559.24358.24358,0,0,1,.2559-.2441c.3291.0078.666.0225,1.00981.0469a.24982.24982,0,0,1-.01761.499Zm1.9892-.0371.0362-.2471Z" transform="translate(-266.40849 -255.44059)"/>
  </g>
</svg>
