<svg id="OBJECTS" xmlns="http://www.w3.org/2000/svg" viewBox="0 0 177.40484 223.49428">
  <defs>
    <style>
      .cls-1 {
        fill: #e49046;
      }

      .cls-2, .cls-3, .cls-6, .cls-8 {
        fill: #8b3433;
      }

      .cls-2 {
        opacity: 0.2;
      }

      .cls-4 {
        fill: #edbc89;
      }

      .cls-5 {
        fill: #fff;
      }

      .cls-6, .cls-7 {
        opacity: 0.48;
      }

      .cls-10, .cls-7 {
        fill: #dc5656;
      }

      .cls-8 {
        opacity: 0.21;
      }

      .cls-9 {
        fill: #af542c;
      }

      .cls-11 {
        fill: #8dd5b6;
      }

      .cls-12 {
        fill: #ade5dc;
      }
    </style>
  </defs>
  <g>
    <g>
      <g>
        <path class="cls-1" d="M461.97719,174.2332c3.7635,14.7944-5.8498,34.4604-24.278,28.8301l-1.5175-7.1575a23.8616,23.8616,0,0,0,15.1739-8.4455,9.02673,9.02673,0,0,0,1.7969-3.504c1.9466-7.5469-5.1711-18.2285-5.9099-31.6053-.0099-.1298-.0099-.2496-.0199-.3794a24.60086,24.60086,0,0,1,1.4974-9.5933,22.3005,22.3005,0,0,1,9.873-11.8396c2.7153-1.4475,5.3707-1.8369,7.2874-.9484,4.8416,2.2461.1397,6.8582-4.1628,11.7197-1.0682,1.218-2.1263,2.4558-2.9948,3.6738-2.7353,3.8233-1.7071,10.5916.0399,17.5097.8684,3.454,1.9267,6.9379,2.7851,10.1125C461.69769,173.155,461.83749,173.7041,461.97719,174.2332Z" transform="translate(-290.52481 -20.65932)"/>
        <path class="cls-2" d="M461.97719,174.2332c3.7635,14.7944-5.8498,34.4604-24.278,28.8301l-1.5175-7.1575a23.8616,23.8616,0,0,0,15.1739-8.4455,9.02673,9.02673,0,0,0,1.7969-3.504c1.9466-7.5469-5.1711-18.2285-5.9099-31.6053-.0099-.1298-.0099-.2496-.0199-.3794a24.60086,24.60086,0,0,1,1.4974-9.5933,22.3005,22.3005,0,0,1,9.873-11.8396c2.7153-1.4475,5.3707-1.8369,7.2874-.9484,4.8416,2.2461.1397,6.8582-4.1628,11.7197-1.0682,1.218-2.1263,2.4558-2.9948,3.6738-2.7353,3.8233-1.7071,10.5916.0399,17.5097.8684,3.454,1.9267,6.9379,2.7851,10.1125C461.69769,173.155,461.83749,173.7041,461.97719,174.2332Z" transform="translate(-290.52481 -20.65932)"/>
      </g>
      <path class="cls-3" d="M461.71769,141.31c-.0699-4.3723,3.9032-8.3256,3.9032-8.3256-4.2726-.1797-6.2591-1.6372-7.0278-2.4457,2.7153-1.4475,5.3707-1.8369,7.2874-.9484C470.72209,131.8364,466.02019,136.4485,461.71769,141.31Z" transform="translate(-290.52481 -20.65932)"/>
      <path class="cls-3" d="M447.22269,151.9716a24.60086,24.60086,0,0,1,1.4974-9.5933,8.91942,8.91942,0,0,1,3.2145,5.171C452.23409,149.7455,449.359,151.203,447.22269,151.9716Z" transform="translate(-290.52481 -20.65932)"/>
      <path class="cls-3" d="M461.54789,172.606c-1.9465-.2296-4.4023-.9983-5.3307-3.3043-1.05819-2.6454.9983-5.2909,2.5456-6.8082C459.63119,165.9475,460.68949,169.4314,461.54789,172.606Z" transform="translate(-290.52481 -20.65932)"/>
      <path class="cls-3" d="M454.82949,189.0975c-.8484,1.5373-3.5838,1.1679-5.6203.6389a24.84231,24.84231,0,0,0,2.1464-2.2761,9.02673,9.02673,0,0,0,1.7969-3.504C454.52009,185.0544,456.00749,186.9512,454.82949,189.0975Z" transform="translate(-290.52481 -20.65932)"/>
    </g>
    <path class="cls-1" d="M439.72809,199.581c-.2097,2.1462-.5192,4.3923-.9284,6.7583q-.5391,3.0996-1.34769,6.4689l-27.46261,4.9814-2.7352-3.6538s-1.9466,18.8775-10.3921,19.4064c-10.2822.6489-14.2853.1998-14.9342-3.7135-.01989-.1097-.02989-.2097-.03989-.3194a11.31751,11.31751,0,0,1,.86839-5.1811s-12.6979,2.9848-24.2779,1.2678c-4.95149-.7288-9.7033-2.3259-13.1673-5.3806-11.56-10.1925-9.12419-27.0833-7.4571-33.0231,0,0-3.99309-4.3824-6.6685-12.678a46.07823,46.07823,0,0,1-1.6472-6.7683c-1.5573-9.1342-1.0181-21.3431,5.45061-36.2774.55909-1.2877,1.158-2.5955,1.80689-3.9232,12.8977-26.4243,49.7142-28.3709,58.479-28.4508,1.2079-.01,1.8868.01,1.8868.01a15.15225,15.15225,0,0,1,1.148,1.5672c.2895.4493.6188.9884.9882,1.6373a35.656,35.656,0,0,1,2.6055,6.0195c.2695.8286.5391,1.7171.77861,2.6555.32959,1.2678.619,2.6354.84859,4.1029a54.30319,54.30319,0,0,1,.1698,15.3635s1.4774,1.3376,3.5837,3.6536a76.24155,76.24155,0,0,1,4.9914,6.1094,59.40125,59.40125,0,0,1,4.0131,6.2393,43.91643,43.91643,0,0,1,3.1346,6.8481,34.17273,34.17273,0,0,1,1.0681,3.6138s6.7683,2.2561,12.34871,10.0427a33.20871,33.20871,0,0,1,3.33419,5.78,41.67384,41.67384,0,0,1,3.1346,10.402,53.27746,53.27746,0,0,1,.7387,7.517A71.15288,71.15288,0,0,1,439.72809,199.581Z" transform="translate(-290.52481 -20.65932)"/>
    <path class="cls-4" d="M386.15069,207.8068a54.03,54.03,0,0,1-3.6138,16.5614c-1.727.3893-13.36689,2.8151-24.0584,1.2278-5.54049-3.0946-10.18249-8.3955-11.4703-17.37-3.7435-26.045,4.5023-55.0848,19.2967-56.0231,11.0609-.6989,16.9707,14.9841,18.3982,19.3266,0,.0099,0,.0099.01.0199C385.47179,178.8069,386.91929,194.9889,386.15069,207.8068Z" transform="translate(-290.52481 -20.65932)"/>
    <path class="cls-1" d="M399.847,113.8492q-.10487.7635-.26961,1.4973c-.0199.0898-.0399.1597-.0499.2397-.1298.5789-.27949,1.138-.4692,1.7169a20.20169,20.20169,0,0,1-1.2977,3.1546c-.1597.3194-.3395.6388-.5192.9583a22.19212,22.19212,0,0,1-2.6353,3.6338c-25.4262,20.235-57.3709,7.9563-57.3709,7.9563a15.32253,15.32253,0,0,1-2.24619-1.5375l-.17971-.1496c-.1896-.1599-.37929-.3295-.569-.4992a17.9412,17.9412,0,0,1-3.1046-3.8833c-.1298-.2197-.2495-.4493-.3793-.6888a13.807,13.807,0,0,1-.6788-1.3876,19.364,19.364,0,0,1-.82859-2.0465c-.14981-.4392-.29951-.8784-.43931-1.3277-.16969-.6289-.3294-1.2579-.4691-1.8868a22.65265,22.65265,0,0,1-.4094-2.5555,16.55967,16.55967,0,0,1-.1298-1.717,20.94452,20.94452,0,0,1,.1199-3.3643c.0299-.3693.0798-.7287.13971-1.088.05989-.3695.12979-.7488.20959-1.1181a22.74983,22.74983,0,0,1,1.1281-3.5939,21.23766,21.23766,0,0,1,3.3342-5.4505,11.31064,11.31064,0,0,1-.9782-1.2379h-.0101a11.14027,11.14027,0,0,1-.8984-1.5672l-.0099-.01c-2.7054-5.6702-.9186-12.8079,1.0182-13.2272a3.42851,3.42851,0,0,1,.7087-.0799c2.346-.0099,5.0913,2.2462,7.4572,5.4307a10.80315,10.80315,0,0,0,3.7335,3.0447c1.757-.7088,3.6537-1.4076,5.6802-2.0265,1.5073-.4692,3.0847-.8984,4.7018-1.2978.659-.1697,1.3277-.3194,1.9966-.4691a85.79327,85.79327,0,0,1,9.2641-1.5474c.7985-.0898,1.5871-.1697,2.3858-.2296,2.0664-.1596,4.1228-.2295,6.1194-.1996,1.4475.0199,2.865.1098,4.2427.2495,1.128-5.9797,7.1776-10.1824,9.0344-9.4037l.1198.0599c2.266,1.0582,3.3742,4.7218,3.4939,8.9944a12.58125,12.58125,0,0,0,2.64541,6.7584,22.74575,22.74575,0,0,1,2.925,3.7534c.27949.4493.54909.9186.79869,1.3977.2795.5191.539,1.0482.7685,1.5972a3.48912,3.48912,0,0,1,.1797.3994c.2197.4991.4094,1.0082.589,1.5272.03.08.06.1698.0899.2497.1997.6089.3894,1.2278.5391,1.8567a.26151.26151,0,0,1,.0299.1099c.1198.5191.2397,1.0281.3394,1.5573a.96091.96091,0,0,1,.03.1797,16.7979,16.7979,0,0,1,.2196,1.6971c.0299.2295.05.4492.0599.6687A22.40725,22.40725,0,0,1,399.847,113.8492Z" transform="translate(-290.52481 -20.65932)"/>
    <path class="cls-3" d="M378.40719,92.4479c-2.5361-8.3906,6.44081-15.2913,8.7652-14.3063.0398.0158.0843.0357.1242.0557a6.94625,6.94625,0,0,0-1.7565,2.4875,13.05606,13.05606,0,0,0-.9305,5.3792c.0535,4.3727-2.4815,6.0362-4.5499,6.384A4.4979,4.4979,0,0,1,378.40719,92.4479Z" transform="translate(-290.52481 -20.65932)"/>
    <g>
      <path class="cls-3" d="M330.83489,97.8946l.0065.0071a5.936,5.936,0,0,0,.9024,1.5685c.0011.0042.0065.0071.0076.0114a5.16662,5.16662,0,0,0,5.5897,1.3797c3.1644-1.6052-3.1099-6.7031-4.9247-11.6209a5.235,5.235,0,0,1,.1422-4.6474,3.80736,3.80736,0,0,0-.7005.0747C329.91849,85.086,328.12219,92.2314,330.83489,97.8946Z" transform="translate(-290.52481 -20.65932)"/>
      <path class="cls-5" d="M333.715,96.9619a5.33874,5.33874,0,0,0-.39971,3.6908,4.61338,4.61338,0,0,0,4.0258.2086c3.1644-1.6052-3.1099-6.7031-4.9247-11.6209a8.37205,8.37205,0,0,0,.9128,5.3584s-1.7135-.9274-2.0394-.6038c-.3091.3189,1.67021,1.723,1.7816,1.8007-.0905-.0339-1.13539-.4282-1.3457.0216C331.50729,96.2871,333.715,96.9619,333.715,96.9619Z" transform="translate(-290.52481 -20.65932)"/>
    </g>
    <path class="cls-5" d="M380.05969,92.448c-2.6371-4.5899,1.92-6.7691,1.92-6.7691s-1.16069-.199-.9903-.9061c.1671-.6769,1.2522-.1094,1.3454-.0612-.0281-.0509-.637-1.0863-.4595-1.5157.1815-.4425,1.0188.5443,1.0188.5443a4.40945,4.40945,0,0,1,2.646-3.0554,13.05606,13.05606,0,0,0-.9305,5.3792C384.66309,90.4367,382.12809,92.1002,380.05969,92.448Z" transform="translate(-290.52481 -20.65932)"/>
    <path class="cls-3" d="M337.89279,121.193c-1.0639,1.6332-3.0544,2.3703-4.8521,2.9078-.9858.2846-1.9753.5601-2.9656.7664a21.82509,21.82509,0,0,1-.825-2.0516q-.23025-.6606-.433-1.3324c-.1796-.6274-.3437-1.2557-.4793-1.8795a22.512,22.512,0,0,1-.4076-2.5585,2.27752,2.27752,0,0,0,.5051.1569,12.89766,12.89766,0,0,0,4.061.0042,11.57228,11.57228,0,0,1,3.7308-.1156,2.579,2.579,0,0,1,2.2357,2.3398A3.13951,3.13951,0,0,1,337.89279,121.193Z" transform="translate(-290.52481 -20.65932)"/>
    <path class="cls-3" d="M330.158,114.6619a7.85161,7.85161,0,0,1-2.36231.6604,21.65553,21.65553,0,0,1,.1221-3.361c.0359-.3664.0848-.7272.14-1.0852.0636-.3773.1335-.7517.2166-1.1208l.0323.0141c1.3547.4167,3.0774.0529,4.1097,1.0943a1.38887,1.38887,0,0,1,.4401.9614C332.89969,113.2641,331.31769,114.1162,330.158,114.6619Z" transform="translate(-290.52481 -20.65932)"/>
    <path class="cls-3" d="M335.918,128.9703a11.75487,11.75487,0,0,1-1.67671,1.8499,17.60766,17.60766,0,0,1-3.1017-3.8897,9.76973,9.76973,0,0,0,3.443-.9881,3.18009,3.18009,0,0,1,1.0432-.3821,1.19575,1.19575,0,0,1,1.1907,1.3463A3.96649,3.96649,0,0,1,335.918,128.9703Z" transform="translate(-290.52481 -20.65932)"/>
    <g>
      <path class="cls-3" d="M361.96649,96.1029s1.4602-2.045,2.4421-1.7603c.9819.2848-.477,2.6309-2.2892,3.2897,0,0-3.1959-1.3209-2.5671-2.7235C360.181,93.5062,361.96649,96.1029,361.96649,96.1029Z" transform="translate(-290.52481 -20.65932)"/>
      <path class="cls-3" d="M367.58839,110.0149c-.4171-1.1014-.8597-2.1918-1.2911-3.2868l-1.3358-3.2675-1.3697-3.253c-.4626-1.0816-.9082-2.1707-1.3846-3.2464l-.2385-.5383-.1692.5581c-.3287,1.0844-.6159,2.1716-.8828,3.2676-.26669,1.095-.5035,2.1975-.6959,3.3082-.1937,1.1102-.3545,2.2266-.4712,3.3472a31.19806,31.19806,0,0,0-.13959,3.3734c.07159-1.1225.17739-2.2394.34379-3.3487.1671-1.1088.3551-2.2136.58821-3.31.47449-2.1889.99959-4.3745,1.67269-6.5055l-.40769.0201c.45369,1.0855.93819,2.1579,1.406,3.2373l1.421,3.2308,1.45479,3.2164C366.58749,107.884,367.07509,108.955,367.58839,110.0149Z" transform="translate(-290.52481 -20.65932)"/>
      <path class="cls-6" d="M365.62079,97.5875a4.85742,4.85742,0,0,1,3.1095,2.306,5.848,5.848,0,0,1,.3296,5.9873,5.46,5.46,0,0,1-2.7905,2.1477c-2.0306.7808-4.1002,1.3868-6.276.8061a5.26244,5.26244,0,0,1-2.2513-1.1786,6.29325,6.29325,0,0,1-1.8347-4.1296,5.80182,5.80182,0,0,1,1.3035-4.1958,6.27482,6.27482,0,0,1,4.3493-1.7302A16.75856,16.75856,0,0,1,365.62079,97.5875Z" transform="translate(-290.52481 -20.65932)"/>
    </g>
    <path class="cls-7" d="M344.87319,108.0766a2.369,2.369,0,0,1,.49481,4.0535c-2.04521,1.6383-6.24911,1.8858-8.423.3753a2.80871,2.80871,0,0,1,.61369-4.7749,8.96056,8.96056,0,0,1,4.66131-.4047A8.68,8.68,0,0,1,344.87319,108.0766Z" transform="translate(-290.52481 -20.65932)"/>
    <path class="cls-7" d="M387.00159,101.5746a3.07355,3.07355,0,0,1,2.1823,4.2453c-1.16689,2.4762-4.8973,4.169-7.5257,3.2607-2.2189-.7667-2.7784-4.0567-1.4784-5.4058a7.3079,7.3079,0,0,1,4.0805-2.0192A7.51359,7.51359,0,0,1,387.00159,101.5746Z" transform="translate(-290.52481 -20.65932)"/>
    <g>
      <path class="cls-3" d="M395.41369,105.0579a34.69661,34.69661,0,0,0-4.1654-.2787,34.25475,34.25475,0,0,0-4.1716.1666,34.272,34.272,0,0,0,4.1656.2786A34.67758,34.67758,0,0,0,395.41369,105.0579Z" transform="translate(-290.52481 -20.65932)"/>
      <path class="cls-3" d="M395.29559,101.588a32.7611,32.7611,0,0,0-3.9941.6942,32.32082,32.32082,0,0,0-3.8941,1.1279,36.911,36.911,0,0,0,7.8882-1.8221Z" transform="translate(-290.52481 -20.65932)"/>
      <path class="cls-3" d="M393.49469,97.7259a33.0927,33.0927,0,0,0-3.3215,2.3671,32.71884,32.71884,0,0,0-3.044,2.7149,32.67723,32.67723,0,0,0,3.3216-2.367A33.07911,33.07911,0,0,0,393.49469,97.7259Z" transform="translate(-290.52481 -20.65932)"/>
    </g>
    <g>
      <path class="cls-3" d="M339.61549,110.3503a35.29523,35.29523,0,0,0-4.18449.4896,34.858,34.858,0,0,0-4.10991.9286,34.89363,34.89363,0,0,0,4.1846-.4897A35.34917,35.34917,0,0,0,339.61549,110.3503Z" transform="translate(-290.52481 -20.65932)"/>
      <path class="cls-3" d="M330.89479,108.3597a32.5948,32.5948,0,0,0,4.0191.5011,32.26862,32.26862,0,0,0,4.05011.0571,32.24446,32.24446,0,0,0-4.01931-.5012A32.6497,32.6497,0,0,0,330.89479,108.3597Z" transform="translate(-290.52481 -20.65932)"/>
      <path class="cls-3" d="M332.24549,104.2709a31.92328,31.92328,0,0,0,3.3518,2.1976,31.58436,31.58436,0,0,0,3.5746,1.8122,31.5773,31.5773,0,0,0-3.3517-2.1975A31.97318,31.97318,0,0,0,332.24549,104.2709Z" transform="translate(-290.52481 -20.65932)"/>
    </g>
    <g>
      <g>
        <path class="cls-5" d="M345.26249,109.1619a9.93422,9.93422,0,0,0,6.8478-4.4216,4.83285,4.83285,0,0,0,.5546-1.5153,8.14841,8.14841,0,0,0-2.2486-6.6426c-.0342-.0423-.072-.0816-.1099-.1211A7.19544,7.19544,0,0,0,343.6,94.68c-2.86791.6561-6.08051,2.7391-6.56381,5.6134a6.86133,6.86133,0,0,0,.4123,3.5218l-.0038.0028C338.60459,106.9262,341.71179,109.6383,345.26249,109.1619Z" transform="translate(-290.52481 -20.65932)"/>
        <path class="cls-3" d="M342.64359,108.9571a7.58954,7.58954,0,0,1-2.2984-1.1558,9.42168,9.42168,0,0,1-1.8055-1.7656,9.1014,9.1014,0,0,1-1.252-2.1629l-.0405-.1003.0985-.0747.0036-.0029-.0577.1753a7.57166,7.57166,0,0,1-.5594-2.3749,5.271,5.271,0,0,1,.3985-2.4724,7.97819,7.97819,0,0,1,3.6565-3.682,11.46944,11.46944,0,0,1,2.5055-.9735,7.94514,7.94514,0,0,1,2.7137-.2347,7.04439,7.04439,0,0,1,4.69161,2.2502l-.01681-.0191a9.05288,9.05288,0,0,1,2.01281,3.7748,7.645,7.645,0,0,1,.23609,2.1156,5.10169,5.10169,0,0,1-.4887,2.0958,6.87,6.87,0,0,1-1.2872,1.7799,9.93354,9.93354,0,0,1-1.7215,1.4108,10.403,10.403,0,0,1-4.1702,1.6212A6.15694,6.15694,0,0,1,342.64359,108.9571Zm6.7516-1.4654a7.83125,7.83125,0,0,0,2.8179-3.2234,4.78414,4.78414,0,0,0,.3566-2.0063,7.25449,7.25449,0,0,0-.3333-1.9993,8.61248,8.61248,0,0,0-2.0851-3.4617l-.0169-.0192c-.1023-.1154-.2716-.2549-.40639-.382-.15571-.1179-.30021-.2481-.46661-.3529a6.09892,6.09892,0,0,0-1.0291-.5769,6.99163,6.99163,0,0,0-2.3235-.5833,9.09053,9.09053,0,0,0-4.7493,1.0908,7.70311,7.70311,0,0,0-3.4841,3.2435,4.846,4.846,0,0,0-.48139,2.2457,7.23,7.23,0,0,0,.41139,2.2932l.03761.11-.09531.0655-.0039.0027.0578-.1746a8.80235,8.80235,0,0,0,1.1031,2.1651,8.16648,8.16648,0,0,0,1.69931,1.8067,6.98379,6.98379,0,0,0,2.24889,1.1977,6.13718,6.13718,0,0,0,2.6096.2289A9.92951,9.92951,0,0,0,349.39519,107.4917Z" transform="translate(-290.52481 -20.65932)"/>
      </g>
      <path class="cls-3" d="M348.82679,105.5336a6.17344,6.17344,0,0,1-5.6233,1.5363,5.35145,5.35145,0,0,1-3.6106-7.1466,6.18433,6.18433,0,0,1,3.9368-3.2618,5.50625,5.50625,0,0,1,6.2642,7.6087A4.6718,4.6718,0,0,1,348.82679,105.5336Z" transform="translate(-290.52481 -20.65932)"/>
      <path class="cls-8" d="M337.44849,103.8152c4.6219-8.0403,12.0388-7.354,12.9678-7.2328-.0342-.0423-.072-.0816-.1099-.1211A7.19544,7.19544,0,0,0,343.6,94.68c-2.86791.6561-6.08051,2.7391-6.56381,5.6134A6.86133,6.86133,0,0,0,337.44849,103.8152Z" transform="translate(-290.52481 -20.65932)"/>
    </g>
    <g>
      <g>
        <path class="cls-5" d="M374.91509,103.4291a11.14355,11.14355,0,0,0,8.6081-.3388,4.70463,4.70463,0,0,0,1.2677-1.013,7.42421,7.42421,0,0,0,1.1642-6.783c-.0112-.053-.0274-.1056-.0437-.1581a7.90709,7.90709,0,0,0-5.4169-4.8736c-3.0154-.8766-7.0581-.7101-8.9288,1.496a6.20888,6.20888,0,0,0-1.3494,3.2059l-.005.0003A7.913,7.913,0,0,0,374.91509,103.4291Z" transform="translate(-290.52481 -20.65932)"/>
        <path class="cls-3" d="M372.55769,101.944A8.02583,8.02583,0,0,1,370.97,99.8093a9.21917,9.21917,0,0,1-.82421-2.4073,8.40571,8.40571,0,0,1-.10879-2.4689l.01149-.1079.1323-.0125.0049-.0004-.1438.1209a6.8242,6.8242,0,0,1,.6458-2.303,4.931,4.931,0,0,1,1.5929-1.9066,8.61178,8.61178,0,0,1,5.248-1.3059,13.24573,13.24573,0,0,1,2.8317.4247,9.20346,9.20346,0,0,1,2.6632,1.1583,7.46341,7.46341,0,0,1,3.2944,4.2644l-.0063-.0245a8.3417,8.3417,0,0,1,.0283,4.2226,6.8995,6.8995,0,0,1-.8216,1.92,4.83258,4.83258,0,0,1-1.4919,1.5404,7.14769,7.14769,0,0,1-2.0861.8717,10.948,10.948,0,0,1-2.3114.34,11.99446,11.99446,0,0,1-4.7138-.7062A7.01406,7.01406,0,0,1,372.55769,101.944Zm7.06031,2.1309a8.33241,8.33241,0,0,0,4.23439-1.3353,4.48479,4.48479,0,0,0,1.324-1.5302,6.53459,6.53459,0,0,0,.67261-1.8695,7.99534,7.99534,0,0,0-.25041-3.9919l-.0063-.0247c-.0395-.1503-.1294-.3534-.1931-.5289-.08819-.1785-.1599-.3615-.264-.5344a6.39858,6.39858,0,0,0-.6816-1.0063,8.45891,8.45891,0,0,0-.8682-.8978,8.60959,8.60959,0,0,0-1.0255-.7617,10.53855,10.53855,0,0,0-4.99589-1.448,8.3835,8.3835,0,0,0-4.86961,1.019,4.57514,4.57514,0,0,0-1.5592,1.6715,6.51946,6.51946,0,0,0-.7445,2.1594l-.0191.1147-.1248.0062-.005.0003.1437-.1203a8.07976,8.07976,0,0,0-.0322,2.3963,7.90876,7.90876,0,0,0,.7046,2.3891,7.32863,7.32863,0,0,0,1.5203,2.1457,6.98023,6.98023,0,0,0,2.3369,1.501A11.43644,11.43644,0,0,0,379.618,104.0749Z" transform="translate(-290.52481 -20.65932)"/>
      </g>
      <path class="cls-3" d="M380.05,102.1227a7.105,7.105,0,0,1-6.03611-1.5059c-2.4961-2.2736-2.4541-6.1407.1342-7.894a6.79732,6.79732,0,0,1,5.3035-.8078c4.8552,1.2845,5.7792,7.3764,2.1291,9.6157A4.89722,4.89722,0,0,1,380.05,102.1227Z" transform="translate(-290.52481 -20.65932)"/>
      <path class="cls-8" d="M370.21629,94.9645a15.00886,15.00886,0,0,1,15.7388.3298c-.0112-.053-.0274-.1056-.0437-.1581a7.90709,7.90709,0,0,0-5.4169-4.8736c-3.0154-.8766-7.0581-.7101-8.9288,1.496A6.20888,6.20888,0,0,0,370.21629,94.9645Z" transform="translate(-290.52481 -20.65932)"/>
    </g>
    <path class="cls-9" d="M401.62969,124.2326a12.16485,12.16485,0,0,1,.0958,1.3386,3.80439,3.80439,0,0,1-.1701,1.2949.641.641,0,0,1-.3653.4158.56123.56123,0,0,1-.52-.1069,2.89612,2.89612,0,0,1-.7922-.9791l-.2791-.5084-.03279.5838a9.9933,9.9933,0,0,1-.19211,1.424,3.85974,3.85974,0,0,1-.489,1.2983,1.14565,1.14565,0,0,1-.4523.4203.63206.63206,0,0,1-.5432.0407,1.70208,1.70208,0,0,1-.7649-.9871l-.11549-.3104-.24591.2186a17.81232,17.81232,0,0,1-2.1936,1.6423,22.03212,22.03212,0,0,1-2.4141,1.3218,15.62342,15.62342,0,0,1-2.5825.9592,14.96725,14.96725,0,0,1-2.7213.5076,13.062,13.062,0,0,0,2.7739-.297,15.56454,15.56454,0,0,0,2.668-.8579,17.4235,17.4235,0,0,0,2.4918-1.2915,18.14906,18.14906,0,0,0,2.2791-1.6572l-.361-.0918a2.87238,2.87238,0,0,0,.3782.7045,1.53162,1.53162,0,0,0,.6552.5353,1.05527,1.05527,0,0,0,.8769-.0645,1.558,1.558,0,0,0,.608-.5702,4.23464,4.23464,0,0,0,.5268-1.4439,8.243,8.243,0,0,0,.1492-1.4951l-.3121.0755a3.16107,3.16107,0,0,0,.93741,1.0524.81819.81819,0,0,0,.75379.1048.844.844,0,0,0,.4759-.5743,3.93344,3.93344,0,0,0,.0862-1.3694A9.03315,9.03315,0,0,0,401.62969,124.2326Z" transform="translate(-290.52481 -20.65932)"/>
    <path class="cls-9" d="M359.08339,132.8429c-.70339-.0215-1.4065-.042-2.108-.0781-.7006-.0389-1.4031-.0861-2.09-.1767l-.3238-.0427.2013.2684a2.20326,2.20326,0,0,1,.4758,1.0478.5829.5829,0,0,1-.1392.4551c-.058.0728-.09649.0869-.1388.0908a.35082.35082,0,0,1-.1819-.0704,3.35858,3.35858,0,0,1-.7396-.8977,10.7708,10.7708,0,0,1-.5873-1.0795l-.2436-.5132-.1585.5496a6.23706,6.23706,0,0,1-.3767.9893,1.7291,1.7291,0,0,1-.578.7447c-.059.0287-.0443.0102-.0363.021a.324.324,0,0,1-.0585-.1083,1.8234,1.8234,0,0,1-.0917-.473,8.06354,8.06354,0,0,1-.0062-1.0593l.0129-.2484-.246-.0061a16.19871,16.19871,0,0,1-3.2238-.4116,9.14771,9.14771,0,0,1-2.9708-1.2269l-.4555-.3089.1976.5088a2.82607,2.82607,0,0,1,.2495,1.3146.64592.64592,0,0,1-.0401.1426c-.0115.0353-.0121.0182-.0031.0198.00091-.0046.003.002-.015.0012a.7072.7072,0,0,1-.2805-.0793,5.37306,5.37306,0,0,1-.612-.3406c-.8022-.512-1.5545-1.1124-2.308-1.7059a22.59608,22.59608,0,0,0,2.19,1.8803,4.35829,4.35829,0,0,0,.6235.394.89578.89578,0,0,0,.4044.1169.29454.29454,0,0,0,.1553-.0477.31273.31273,0,0,0,.0951-.1273.94621.94621,0,0,0,.06611-.2003,3.08429,3.08429,0,0,0-.21021-1.4949l-.25779.2a7.8104,7.8104,0,0,0,1.46969.8444,12.49619,12.49619,0,0,0,1.5999.5251,16.63054,16.63054,0,0,0,3.3205.4683l-.233-.2545a6.47283,6.47283,0,0,0,.00591,1.1419,2.227,2.227,0,0,0,.13069.602.65479.65479,0,0,0,.2555.3317.49592.49592,0,0,0,.484-.0121,2.09212,2.09212,0,0,0,.7661-.9586,6.624,6.624,0,0,0,.3919-1.0729l-.40219.0362a11.15884,11.15884,0,0,0,.628,1.1189,3.27117,3.27117,0,0,0,.88719.995.6945.6945,0,0,0,.4084.1149.54185.54185,0,0,0,.3809-.2266.92713.92713,0,0,0,.196-.7154,2.47394,2.47394,0,0,0-.5898-1.1932l-.1225.2256a18.63766,18.63766,0,0,0,2.1212.0617C357.67709,132.9141,358.381,132.8903,359.08339,132.8429Z" transform="translate(-290.52481 -20.65932)"/>
    <path class="cls-1" d="M424.59589,209.9191a22.21479,22.21479,0,0,0-13.1405,4.0393,5.12538,5.12538,0,0,0-2.4167,3.3958,3.93325,3.93325,0,0,0,2.2161,3.5632,10.80627,10.80627,0,0,0,4.2919,1.0067,104.08565,104.08565,0,0,0,16.9.105c2.3051-.1766,4.7864-.5145,6.4554-2.1143,2.4471-2.3458,1.2745-5.8878-1.4532-7.1105A32.35692,32.35692,0,0,0,424.59589,209.9191Z" transform="translate(-290.52481 -20.65932)"/>
    <path class="cls-3" d="M417.80349,221.6916s-2.6773-7.3181,3.3914-11.0663" transform="translate(-290.52481 -20.65932)"/>
    <path class="cls-3" d="M429.22689,221.87c0-.5354-1.6065-5.7116,1.0709-9.9952" transform="translate(-290.52481 -20.65932)"/>
    <path class="cls-1" d="M337.29509,134.0642l-5.2609,21.7224a36.84747,36.84747,0,0,1-10.35219-5.3008,33.89269,33.89269,0,0,1-6.13931-5.8299,38.86894,38.86894,0,0,1-5.5305-9.0843,48.92445,48.92445,0,0,1-2.6454-7.7067A65.27935,65.27935,0,0,1,305.52,109.4268c.30939-7.3773,4.91149-6.4389,4.91149-6.4389,2.9449-5.3508,8.9046-2.0964,8.9046-2.0964,8.7748-1.5673,7.6668,8.5552,10.0127,17.949A36.54161,36.54161,0,0,0,337.29509,134.0642Z" transform="translate(-290.52481 -20.65932)"/>
    <path class="cls-4" d="M316.28209,106.5748a7.28167,7.28167,0,0,0-4.8517,2.3873,4.2838,4.2838,0,0,0-.96539,1.7619,3.40981,3.40981,0,0,0,1.84969,3.7574,3.64307,3.64307,0,0,0,4.1361-.8967,3.98607,3.98607,0,0,1,.81921-.8443,5.07927,5.07927,0,0,0,3.16159.9908,3.79153,3.79153,0,0,0,2.8879-1.5175,3.05791,3.05791,0,0,0-.57049-4.049C321.08159,106.7225,318.39659,106.3877,316.28209,106.5748Z" transform="translate(-290.52481 -20.65932)"/>
    <path class="cls-4" d="M313.26549,102.8975a3.57486,3.57486,0,0,0,.138,1.0069,2.20678,2.20678,0,0,0,2.4828,1.4291,1.3016,1.3016,0,0,0,.7612-.4312,1.63935,1.63935,0,0,0,.2618-.9991c.013-.8955-.3277-2.1889-1.3261-2.467C314.627,101.1701,313.23839,101.8426,313.26549,102.8975Z" transform="translate(-290.52481 -20.65932)"/>
    <path class="cls-4" d="M308.25069,105.0565a1.5276,1.5276,0,0,0-.3785,1.7327,2.34955,2.34955,0,0,0,.8973.8798,2.52937,2.52937,0,0,0,.92251.4132,1.02846,1.02846,0,0,0,.93589-.2741,1.41261,1.41261,0,0,0,.2826-.6977c.1417-.7531.1747-2.0145-.6292-2.4549A2.07318,2.07318,0,0,0,308.25069,105.0565Z" transform="translate(-290.52481 -20.65932)"/>
    <path class="cls-4" d="M320.424,103.8129a2.4488,2.4488,0,0,0,.53689,1.3117,1.45872,1.45872,0,0,0,.7439.6874,1.04752,1.04752,0,0,0,.8675-.2223c.85171-.6279,1.6899-2.3983.4885-3.0837C322.08149,101.9473,320.43379,102.5774,320.424,103.8129Z" transform="translate(-290.52481 -20.65932)"/>
    <path class="cls-9" d="M384.27389,167.716l.5514,3.8006.00071.0126a.07493.07493,0,0,0-.02531-.0668l.0352.0742c.3512,2.5984.64,5.2048.8818,7.8167.2654,2.6095.527,5.221.6904,7.8401.30891,5.2373.5307,10.4888.4184,15.7456-.1026,2.628-.1984,5.256-.4849,7.885a45.35934,45.35934,0,0,1-1.5392,7.7656c-.7082,2.5447-1.7752,4.9738-2.5253,7.4446a6.866,6.866,0,0,0-.1772,3.7851,10.18626,10.18626,0,0,0,1.8346,3.4135,9.59919,9.59919,0,0,1-2.07649-3.3429,7.22407,7.22407,0,0,1-.03051-3.971c.3019-1.2975.7599-2.5318,1.1571-3.7763.40841-1.2416.7845-2.4881,1.1066-3.7479a54.90458,54.90458,0,0,0,1.3613-7.6678c.25351-2.5858.3206-5.1974.3941-7.8064.0892-5.2226-.0174-10.454-.2865-15.6798-.0997-2.6151-.2589-5.2271-.4434-7.8384l-.5263-7.8399.0351.0739a.18876.18876,0,0,1-.0452-.1064l.0006.0122Z" transform="translate(-290.52481 -20.65932)"/>
    <path class="cls-9" d="M410.42869,180.5239c.0454,2.7344-.019,5.4761-.1005,8.2195-.0249,2.7507-.3356,5.4724-.5715,8.202-.2973,2.7229-.6595,5.4381-1.0639,8.1474l-.6222,4.0606c-.24359,1.3485-.4531,2.701-.72659,4.044.04889-1.3737.16169-2.738.24039-4.1064l.34461-4.0896c.224-2.7261.55909-5.4388.83349-8.1573.2601-2.7191.5959-5.4344.8018-8.153C409.80439,185.9723,410.06169,183.2518,410.42869,180.5239Z" transform="translate(-290.52481 -20.65932)"/>
    <path class="cls-3" d="M393.81379,233.318s-.9131-5.0221,1.9023-7.3048" transform="translate(-290.52481 -20.65932)"/>
    <path class="cls-3" d="M386.12849,233.2418s-.9891-3.7285.6849-6.5437" transform="translate(-290.52481 -20.65932)"/>
    <path class="cls-9" d="M383.31329,221.5999a11.78054,11.78054,0,0,1,3.85671-1.206,18.15471,18.15471,0,0,1,4.06409-.1292,19.46122,19.46122,0,0,1,3.9817.7868,18.59213,18.59213,0,0,1,1.8994.6957c.6101.2892,1.2142.5858,1.7967.918-1.3136-.2999-2.5944-.6139-3.88489-.8565a38.19042,38.19042,0,0,0-3.87731-.5481,32.72741,32.72741,0,0,0-3.9052-.0929A25.386,25.386,0,0,0,383.31329,221.5999Z" transform="translate(-290.52481 -20.65932)"/>
    <path class="cls-9" d="M409.51369,215.4002a13.91751,13.91751,0,0,1,2.5395-2.8861,16.03855,16.03855,0,0,1,1.558-1.1552l.8167-.5308.8624-.4535a18.04332,18.04332,0,0,1,7.5222-1.8955l1.9529.0237c.64761.0413,1.2894.1497,1.9328.23l.9627.1365c.3183.0574.6283.1541.9425.2293.6272.1567,1.2509.3258,1.8715.4996,1.2222.4057,2.4075.9142,3.60011,1.3771,1.13029.6134,2.27,1.194,3.37389,1.8291-1.207-.4331-2.3781-.9205-3.5587-1.3751-1.2127-.3639-2.4058-.7833-3.6234-1.0906a32.90412,32.90412,0,0,0-3.6954-.6676c-.6212-.0558-1.2388-.1637-1.86-.1927l-1.8656-.0004a20.03761,20.03761,0,0,0-7.2273,1.5884A17.7345,17.7345,0,0,0,409.51369,215.4002Z" transform="translate(-290.52481 -20.65932)"/>
    <path class="cls-1" d="M329.62689,151.9523s-5.158,1.3574-4.4793,2.4432c.6786,1.0859,3.6649-.1358,3.6649-.1358s-2.9863,3.2577-1.9004,4.3436,2.8505-2.036,2.8505-2.036.2715,5.9724,2.5789,7.7369c2.3076,1.7646,3.5292-10.5873,3.5292-10.5873Z" transform="translate(-290.52481 -20.65932)"/>
    <path class="cls-9" d="M411.58629,165.8759a4.5176,4.5176,0,0,0,.7004,2.4666,1.31312,1.31312,0,0,0,.9325.5467c.3111.0476.4973-.1429.6814-.4938a7.73033,7.73033,0,0,0,.5012-2.4655c.05721-.8698.07421-1.764.0441-2.6311l-.0983-2.8341,1.05141,2.6585a3.29133,3.29133,0,0,0,1.30589,1.6346,1.72927,1.72927,0,0,0,.9516.2272c.3436-.0213.7147-.0799.8226-.2284a.90547.90547,0,0,0,.10391-.7888,5.2621,5.2621,0,0,0-.37261-1.0803,12.77621,12.77621,0,0,0-1.2248-2.0912l-.2701-.3815.4307-.12a4.75858,4.75858,0,0,0,1.09981-.4812,5.44387,5.44387,0,0,0,.98309-.7403,4.76928,4.76928,0,0,0,1.2622-2.1586,4.48046,4.48046,0,0,1-.3074,1.2676,4.39447,4.39447,0,0,1-.6738,1.1459,4.66323,4.66323,0,0,1-.9747.9295,5.273,5.273,0,0,1-1.2137.6461l.1605-.5014a13.46569,13.46569,0,0,1,1.4605,2.1233,5.123,5.123,0,0,1,.4979,1.259,1.76515,1.76515,0,0,1-.273,1.5881,1.534,1.534,0,0,1-.7457.4568,3.19,3.19,0,0,1-.7307.1181,2.70808,2.70808,0,0,1-1.4548-.3262,3.98293,3.98293,0,0,1-1.76539-2.1866l.953-.1756a19.66694,19.66694,0,0,1-.11321,2.7565,7.267,7.267,0,0,1-.74079,2.7491,1.85679,1.85679,0,0,1-.568.6186,1.17412,1.17412,0,0,1-.89941.151,1.90742,1.90742,0,0,1-1.24159-.9109A4.21382,4.21382,0,0,1,411.58629,165.8759Z" transform="translate(-290.52481 -20.65932)"/>
    <path class="cls-3" d="M436.17419,172.7374c-1.01819.5091-2.1064.9283-3.1046,1.4275-1.6472.8285-3.2544,1.9866-5.1012,2.0165a2.29224,2.29224,0,0,1-1.9767-.8386,2.0687,2.0687,0,0,1-.2894-.9982c-.0599-1.5573,1.148-2.8451,2.336-3.8434a34.6638,34.6638,0,0,1,4.80171-3.5438A33.20871,33.20871,0,0,1,436.17419,172.7374Z" transform="translate(-290.52481 -20.65932)"/>
    <path class="cls-3" d="M440.04749,190.6564a17.7407,17.7407,0,0,1-9.8131-1.0882,5.32087,5.32087,0,0,1-1.8268-1.138,2.2175,2.2175,0,0,1-.6389-1.9766c.2296-.9683,1.2379-1.5273,2.16631-1.8767a27.63273,27.63273,0,0,1,9.37379-1.4375A53.27746,53.27746,0,0,1,440.04749,190.6564Z" transform="translate(-290.52481 -20.65932)"/>
    <path class="cls-3" d="M439.72809,199.581c-.2097,2.1462-.5192,4.3923-.9284,6.7583a11.75707,11.75707,0,0,1-5.97969-1.8568c-.95831-.6788-1.83681-1.8868-1.34771-2.9648a2.842,2.842,0,0,1,2.0365-1.3178A19.31783,19.31783,0,0,1,439.72809,199.581Z" transform="translate(-290.52481 -20.65932)"/>
    <path class="cls-9" d="M368.41329,167.0594a9.65629,9.65629,0,0,0-1.8764-1.4949,2.0036,2.0036,0,0,0-1.0071-.3049.605.605,0,0,0-.3629.1598c-.0188.0538-.05289.0829-.0691.13.0123.062-.028.0901-.0019.1671a2.16558,2.16558,0,0,0,.445.9103,9.6099,9.6099,0,0,0,.7432.8887,20.47324,20.47324,0,0,0,1.7213,1.625l1.3053,1.117-1.7061-.2775a9.005,9.005,0,0,0-1.9564-.1174,2.65823,2.65823,0,0,0-.8275.1741c-.2119.1096-.2379.1725-.2339.314.0286.3085.6138.7855,1.16621,1.0768a12.41353,12.41353,0,0,0,1.83249.796l.7073.2533-.5741.437a4.54405,4.54405,0,0,0-.949,1.0283,3.71855,3.71855,0,0,0-.5706,1.304,3.43612,3.43612,0,0,0-.0483,1.4538,6.00971,6.00971,0,0,0,.4628,1.4455,4.66547,4.66547,0,0,1-.724-1.3822,3.8224,3.8224,0,0,1-.1815-1.5978,4.27925,4.27925,0,0,1,.493-1.565,4.95274,4.95274,0,0,1,1.0348-1.3094l.13311.6902a10.61068,10.61068,0,0,1-2.03751-.75,5.05846,5.05846,0,0,1-.9714-.6029,1.90032,1.90032,0,0,1-.7374-1.1465,1.20846,1.20846,0,0,1,.1726-.8253,1.02071,1.02071,0,0,1,.278-.3101,1.17769,1.17769,0,0,1,.31371-.1986,3.22165,3.22165,0,0,1,1.19589-.2779,9.90917,9.90917,0,0,1,2.19911.1639l-.40091.8395a18.03668,18.03668,0,0,1-1.7433-1.7887,7.955,7.955,0,0,1-.7487-1.0308,2.75028,2.75028,0,0,1-.4784-1.3102,1.22047,1.22047,0,0,1,.077-.4304,1.43474,1.43474,0,0,1,.2737-.3652,1.19936,1.19936,0,0,1,.7558-.2452,2.21738,2.21738,0,0,1,1.2391.5282A7.82154,7.82154,0,0,1,368.41329,167.0594Z" transform="translate(-290.52481 -20.65932)"/>
    <path class="cls-3" d="M401.90339,108.3286a9.85358,9.85358,0,0,1-1.9566-.0498,2.58391,2.58391,0,0,1-.3893-.04,3.67691,3.67691,0,0,1-2.4059-1.158,2.67523,2.67523,0,0,1-.0698-2.935,4.41358,4.41358,0,0,1,1.6171-1.5174,5.69081,5.69081,0,0,1,.599-.3193A35.656,35.656,0,0,1,401.90339,108.3286Z" transform="translate(-290.52481 -20.65932)"/>
    <path class="cls-3" d="M398.30969,100.6718c-.1298.0101-.24969.0201-.3795.03a4.48553,4.48553,0,0,1-2.0564-.3993,1.15551,1.15551,0,0,1-.5889-.5191.91408.91408,0,0,1-.01-.6888,3.50327,3.50327,0,0,1,1.0082-1.3277c.03-.02.05-.0399.07991-.06.27949.4493.54909.9186.79869,1.3977A15.15225,15.15225,0,0,1,398.30969,100.6718Z" transform="translate(-290.52481 -20.65932)"/>
    <path class="cls-3" d="M403.53059,115.087a4.52167,4.52167,0,0,1-2.845-.8786,1.48113,1.48113,0,0,1-.6689-.9283,1.21687,1.21687,0,0,1,.1597-.7387,2.93676,2.93676,0,0,1,1.8469-1.3876c.2096-.06.4292-.1198.65871-.1697C403.01159,112.2519,403.301,113.6195,403.53059,115.087Z" transform="translate(-290.52481 -20.65932)"/>
    <path class="cls-3" d="M412.27549,140.2135a7.8852,7.8852,0,0,1-.6789.619,14.36472,14.36472,0,0,1-3.7833,2.2461,6.79808,6.79808,0,0,1-4.7619.3993,3.37621,3.37621,0,0,1-2.2661-3.8134,5.49438,5.49438,0,0,1,2.4758-2.6354c1.2778-.8586,2.5256-1.767,3.7535-2.7054.0898-.0698.1797-.1397.2695-.2196A76.24155,76.24155,0,0,1,412.27549,140.2135Z" transform="translate(-290.52481 -20.65932)"/>
    <path class="cls-3" d="M419.42319,153.3009a12.21881,12.21881,0,0,1-5.3109.04,4.41858,4.41858,0,0,1-2.7852-1.4076,2.1653,2.1653,0,0,1-.48909-2.296c.71869-1.6871,3.79349-2.7752,5.45059-3.1845A43.91643,43.91643,0,0,1,419.42319,153.3009Z" transform="translate(-290.52481 -20.65932)"/>
    <path class="cls-3" d="M317.29959,131.1991a4.471,4.471,0,0,1-1.8768,1.9966,17.74027,17.74027,0,0,1-5.4106,2.3759,48.92445,48.92445,0,0,1-2.6454-7.7067c.8385-.2796,1.6871-.5092,2.5456-.7088a10.48527,10.48527,0,0,1,4.1229-.3194,4.45805,4.45805,0,0,1,2.6753,1.4575A3.007,3.007,0,0,1,317.29959,131.1991Z" transform="translate(-290.52481 -20.65932)"/>
    <path class="cls-3" d="M324.80669,147.2014a6.69763,6.69763,0,0,1-3.12469,3.2844,33.89269,33.89269,0,0,1-6.13931-5.8299,9.84865,9.84865,0,0,1,5.8798-2.2761,4.13726,4.13726,0,0,1,1.9666.3594A3.62275,3.62275,0,0,1,324.80669,147.2014Z" transform="translate(-290.52481 -20.65932)"/>
    <path class="cls-3" d="M395.63419,209.0346a8.66562,8.66562,0,0,1-3.4141,1.1181,47.81724,47.81724,0,0,1-6.319.589c.0997-.9185.1896-1.8967.2496-2.9349.0899-1.4675.1497-2.9849.1797-4.5322a26.54011,26.54011,0,0,1,6.3689-.1996,7.56836,7.56836,0,0,1,2.7753.7287,3.16336,3.16336,0,0,1,1.7169,2.1862A3.24481,3.24481,0,0,1,395.63419,209.0346Z" transform="translate(-290.52481 -20.65932)"/>
    <path class="cls-3" d="M409.78979,191.3752c-.1797,2.1163-.3894,4.2626-.6089,6.3389-.2097,0-.3994-.0099-.599-.0199a18.002,18.002,0,0,1-5.5305-1.0681c-1.088-.3993-2.2661-1.0881-2.4557-2.2361-.2196-1.2878.9584-2.4059,2.1762-2.8751a11.50526,11.50526,0,0,1,5.5304-.3395C408.80149,191.2253,409.30059,191.3052,409.78979,191.3752Z" transform="translate(-290.52481 -20.65932)"/>
    <path class="cls-3" d="M394.50619,179.356a3.37058,3.37058,0,0,1-1.9267,2.1063,16.7847,16.7847,0,0,1-6.8381,1.8467c-.2197-3.1744-.4693-6.0695-.6989-8.4753a17.61359,17.61359,0,0,1,6.8981,1.198C393.32829,176.6306,394.79569,177.8685,394.50619,179.356Z" transform="translate(-290.52481 -20.65932)"/>
    <path class="cls-3" d="M339.52119,169.2434c-.0399,1.3476-1.3576,2.266-2.5656,2.8851a36.4026,36.4026,0,0,1-5.77,2.3858,46.07823,46.07823,0,0,1-1.6472-6.7683,25.20209,25.20209,0,0,1,4.1728-1.108,7.14293,7.14293,0,0,1,4.0231.2095A2.75507,2.75507,0,0,1,339.52119,169.2434Z" transform="translate(-290.52481 -20.65932)"/>
    <g>
      <path class="cls-10" d="M305.23529,231.2851s-3.0676,8.5131-2.1825,9.2212c.8851.708,19.8053-4.9352,39.5128,3.6473,0,0,19.787-8.7058,35.7295-4.2542a1.44856,1.44856,0,0,0,1.81291-1.7446l-2.69-10.5156Z" transform="translate(-290.52481 -20.65932)"/>
      <path class="cls-11" d="M342.73229,239.3934s-17.7227-9.2307-35.4171-3.2179l-3.2641-7.3871,4.8102-23.3635,33.8006,7.7622,29.7117-11.4177,6.4066,25.3011-2.0616,8.7615S362.68839,232.132,342.73229,239.3934Z" transform="translate(-290.52481 -20.65932)"/>
      <path class="cls-12" d="M375.72759,225.7128c-22.6832-1.2613-33.184,12.9647-33.184,12.9647l.1183-26.5827c9.3265-15.208,23.52311-14.0713,32.2152-13.4748C375.21929,207.703,375.63959,219.3771,375.72759,225.7128Z" transform="translate(-290.52481 -20.65932)"/>
      <path class="cls-12" d="M342.655,212.2012l-.11141,26.4763s-12.4758-16.9049-39.6175-12.2119c.6942-7.2547,1.8381-18.8995,2.6692-27.3275C314.70769,197.5445,334.511,197.6506,342.655,212.2012Z" transform="translate(-290.52481 -20.65932)"/>
      <path class="cls-5" d="M377.44129,232.1097a14.84482,14.84482,0,0,0-3.1075-.9103,26.7692,26.7692,0,0,0-3.2114-.4225,51.07257,51.07257,0,0,0-6.4926-.0612l1.6203-.1768,1.6287-.088a32.02926,32.02926,0,0,1,3.2638.0771,23.4048,23.4048,0,0,1,3.2311.4842A12.01775,12.01775,0,0,1,377.44129,232.1097Z" transform="translate(-290.52481 -20.65932)"/>
      <path class="cls-5" d="M342.65509,212.2012c.0887,4.4132.0428,8.8258.069,13.2387-.0628,4.4125-.05409,8.8253-.1805,13.2376-.0892-4.4132-.0434-8.8258-.069-13.2387C342.53779,221.0263,342.52919,216.6135,342.65509,212.2012Z" transform="translate(-290.52481 -20.65932)"/>
      <path class="cls-5" d="M378.78019,227.0705a40.3482,40.3482,0,0,0-4.84019-.2324c-1.61571-.0081-3.22921.0794-4.83871.209a49.7568,49.7568,0,0,0-9.49729,1.7999c-.76841.2428-1.56.4173-2.31051.7141l-2.2682.843c-.7498.2964-1.4681.6673-2.204.9973l-1.0979.5096-1.0509.5999c-.6973.4054-1.4062.7933-2.0946,1.2134l-1.9807,1.3929c-.3285.2343-.6726.4489-.9886.6996l-.9238.7836-1.8499,1.5689a37.57873,37.57873,0,0,1,7.7563-5.8035l1.0506-.6116,1.098-.5214c.7361-.338,1.4553-.717,2.206-1.0214l2.27221-.867c.75249-.3044,1.54539-.4883,2.31679-.7371a49.96954,49.96954,0,0,1,9.5523-1.7253A45.42732,45.42732,0,0,1,378.78019,227.0705Z" transform="translate(-290.52481 -20.65932)"/>
      <path class="cls-5" d="M304.05109,228.7884a55.85314,55.85314,0,0,1,10.2425-.9782,53.95675,53.95675,0,0,1,10.2628.8648,43.56518,43.56518,0,0,1,4.9907,1.3053,35.71665,35.71665,0,0,1,4.7502,2.0075,29.15969,29.15969,0,0,1,4.32971,2.7948,27.10521,27.10521,0,0,1,3.65869,3.6177,27.07173,27.07173,0,0,0-8.06469-6.2648,35.534,35.534,0,0,0-4.73921-1.9573,43.6673,43.6673,0,0,0-4.9727-1.2582,53.74728,53.74728,0,0,0-10.2149-.9441A64.64814,64.64814,0,0,0,304.05109,228.7884Z" transform="translate(-290.52481 -20.65932)"/>
      <path class="cls-5" d="M305.43269,231.8769a56.1278,56.1278,0,0,1,9.7564-1.0196,54.64973,54.64973,0,0,1,9.7935.6751,41.32613,41.32613,0,0,1,9.4485,2.6618,31.83474,31.83474,0,0,1,8.3767,5.1107l-.1484-.0021a36.437,36.437,0,0,1,6.63261-3.8989,39.96284,39.96284,0,0,1,7.259-2.5292,34.74105,34.74105,0,0,1,7.61929-.9713,33.45383,33.45383,0,0,1,7.6286.8037,33.40387,33.40387,0,0,0-7.6266-.6944,35.60418,35.60418,0,0,0-7.5842,1.0148,39.79462,39.79462,0,0,0-7.21409,2.5532,36.26431,36.26431,0,0,0-6.56861,3.9031l-.07639.0583-.07231-.0604a33.02926,33.02926,0,0,0-8.3119-5.0841,41.12483,41.12483,0,0,0-9.3907-2.6929,54.49083,54.49083,0,0,0-9.76309-.7191A57.01856,57.01856,0,0,0,305.43269,231.8769Z" transform="translate(-290.52481 -20.65932)"/>
      <path class="cls-5" d="M306.35959,234.1059a38.89652,38.89652,0,0,1,5.8541-1.079,35.96554,35.96554,0,0,1,5.9498-.1857c-.9918.0433-1.9808.0846-2.9676.1619-.9868.0717-1.97289.1521-2.955.272-.9845.097-1.9651.2305-2.9451.3689C308.31619,233.7858,307.33639,233.9323,306.35959,234.1059Z" transform="translate(-290.52481 -20.65932)"/>
    </g>
    <g>
      <path class="cls-10" d="M327.08609,69.8787s8.9963,11.84,12.0675,11.2891c2.5529-.4579-1.7517-16.5443-1.7517-16.5443s13.43011-8.9534,9.5373-29.1959c-3.8928-20.2424-34.0618-18.6853-47.8811-1.3624-13.8195,17.3229-8.9535,32.5047,1.1677,37.9545C310.34709,77.4696,327.08609,69.8787,327.08609,69.8787Z" transform="translate(-290.52481 -20.65932)"/>
      <path class="cls-1" d="M325.42619,33.7383a9.34129,9.34129,0,0,1,.0263,6.6948,11.13979,11.13979,0,0,1-1.1224,2.1636,17.12758,17.12758,0,0,0-1.4337,2.4907,5.06669,5.06669,0,0,0-.4532,1.5785,2.08019,2.08019,0,0,0,.17081,1.0688,6.71785,6.71785,0,0,1,.36249.9321,2.21742,2.21742,0,0,1-1.5732,2.4924,1.6643,1.6643,0,0,1-1.933-.1647,4.72555,4.72555,0,0,1-1.0765-1.5792,6.95532,6.95532,0,0,1-.4247-1.5464,6.86464,6.86464,0,0,1-.0463-1.8424,8.28754,8.28754,0,0,1,.4929-2.0137,7.5226,7.5226,0,0,1,1.1986-2.0576,11.163,11.163,0,0,0,1.4723-2.4639,7.16814,7.16814,0,0,0,.3573-3.0258,3.127,3.127,0,0,0-2.6862-3.0746,4.26322,4.26322,0,0,0-1.367-.0122,4.67435,4.67435,0,0,0-.984.2439,6.64637,6.64637,0,0,0-1.1795.6311,3.11231,3.11231,0,0,0-.8949.9872,5.45809,5.45809,0,0,0-.5956,1.638,16.48292,16.48292,0,0,0-.29869,2.5433,1.90656,1.90656,0,0,1-1.21661,1.3434,2.58188,2.58188,0,0,1-1.8676.0568,2.30561,2.30561,0,0,1-1.4203-1.4061,11.23,11.23,0,0,1,.48051-4.3703,10.01148,10.01148,0,0,1,1.55329-2.9297,7.582,7.582,0,0,1,1.9956-1.8071,14.64285,14.64285,0,0,1,1.7794-.9384,9.00351,9.00351,0,0,1,3.7116-.83,6.73943,6.73943,0,0,1,2.8588.7233,9.61411,9.61411,0,0,1,3.8579,3.9298Q325.30979,33.4603,325.42619,33.7383Zm1.5617,23.2034a1.76085,1.76085,0,0,1,.0986.961,2.95928,2.95928,0,0,1-.3558,1.0106,4.668,4.668,0,0,1-.6838.8968,2.5469,2.5469,0,0,1-.8312.5985,5.11332,5.11332,0,0,1-1.9775.4647,2.67133,2.67133,0,0,1-2.2887-1.1561,5.33029,5.33029,0,0,1-.5444-.9669,3.98931,3.98931,0,0,1-.1354-2.5858,2.71061,2.71061,0,0,1,1.6385-1.936,7.04035,7.04035,0,0,1,1.057-.3287,2.51816,2.51816,0,0,1,1.3304.0545,3.48,3.48,0,0,1,1.3985.8882A6.27363,6.27363,0,0,1,326.98789,56.9417Z" transform="translate(-290.52481 -20.65932)"/>
    </g>
    <g>
      <path class="cls-10" d="M384.18849,66.5561a24.64073,24.64073,0,0,0-4.3596-3.3798c.03511-.1478.0735-.3092.10711-.4499-.29351-.0048-.58811.0039-.88231.0179-.2981-.1566-.6002-.3069-.908-.4411-.0318.1626-.0682.3479-.1019.5196a24.644,24.644,0,0,0-5.37,1.2682s-3.3304,2.0899-1.5841,5.3153c.0567.1047-.0229.4884-.0092.6188a3.19405,3.19405,0,0,0,.5662,1.4746,6.90061,6.90061,0,0,0,3.9912,2.2974c2.29311.6657,7.0452,1.489,7.78811-1.7472C386.35259,69.8388,384.18849,66.5561,384.18849,66.5561Z" transform="translate(-290.52481 -20.65932)"/>
      <path class="cls-1" d="M371.388,67.3713a4.8928,4.8928,0,0,1-.84961-5.779c1.69261-3.6459,2.4821-4.8531-1.706-9.0412-4.2612-4.2611-6.6327-16.2385,4.8309-23.381a19.60841,19.60841,0,0,1,30.0786,16.5366c0,15.2346-15.8857,15.1043-16.4065,18.0992-.5209,2.9947-1.0417,6.7708-6.3803,6.3802a25.08154,25.08154,0,0,1-6.11409-1.267,19.32759,19.32759,0,0,1-2.48391-.8991A4.38182,4.38182,0,0,1,371.388,67.3713Z" transform="translate(-290.52481 -20.65932)"/>
      <path class="cls-5" d="M380.01759,68.1123a.52016.52016,0,0,1-.0869-.0073.5.5,0,0,1-.4063-.5791c.39061-2.2324,2.0527-5.8472,3.97661-8.9619a4.19087,4.19087,0,0,1-.76661-.2051,3.35745,3.35745,0,0,1-1.98639-2.2193,4.45384,4.45384,0,0,1-2.68061.274,3.64169,3.64169,0,0,1-1.0723-.3999,41.43137,41.43137,0,0,1-1.7109,9.5532.49969.49969,0,1,1-.95119-.3066,41.36831,41.36831,0,0,0,1.67869-10.0054c-1.9482-1.9561-2.751-5.7798-2.72169-7.9693.01569-1.2275.293-1.8706.84669-1.9663.6602-.1128,1.1797.564,1.835,2.3286a20.10634,20.10634,0,0,1,1.0625,7.19,2.8469,2.8469,0,0,0,1.2285.5952,3.43876,3.43876,0,0,0,2.249-.2822,10.21059,10.21059,0,0,1,.1465-3.563c.4453-2.1196,1.502-4.2368,2.8574-4.1494a1.19807,1.19807,0,0,1,1.0401.7715c.622,1.3901-.168,4.3559-1.6563,6.2212a6.21232,6.21232,0,0,1-1.2598,1.2055,2.511,2.511,0,0,0,1.4463,1.7857,3.45782,3.45782,0,0,0,1.0098.2085c1.5244-2.3204,3.1445-4.2256,4.3897-4.8384a1.70811,1.70811,0,0,1,1.6015-.0899,1.55552,1.55552,0,0,1,.6524,2.1983c-.7452,1.6645-3.5274,3.5805-6.1182,3.7217-1.958,3.0957-3.7246,6.8618-4.1123,9.0761A.49891.49891,0,0,1,380.01759,68.1123Zm9.4082-14.5679a1.18155,1.18155,0,0,0-.499.1451,12.29756,12.29756,0,0,0-3.587,3.8422,7.04764,7.04764,0,0,0,4.4864-3.039c.289-.646-.0313-.814-.2041-.9043A.41583.41583,0,0,0,389.42579,53.5444Zm-5.9795-5.1079c-.4561,0-1.3516,1.1787-1.8096,3.357a9.61017,9.61017,0,0,0-.1953,2.7285,5.61646,5.61646,0,0,0,.6758-.7144c1.4307-1.7915,1.9043-4.3432,1.5254-5.1894-.0791-.1758-.1485-.1797-.1817-.1817Zm-9.0957-1.9189a12.05072,12.05072,0,0,0,.8359,5.4834,9.21674,9.21674,0,0,0,.8291,1.667,17.84192,17.84192,0,0,0-.9814-5.6724A7.5241,7.5241,0,0,0,374.35059,46.5176Z" transform="translate(-290.52481 -20.65932)"/>
      <path class="cls-5" d="M379.32209,31.4332a1.84,1.84,0,0,0,.7957.3367,4.47528,4.47528,0,0,0,1.484.1327c.8581-.0935,1.8693-.6786,1.5279-1.6478a3.22009,3.22009,0,0,0-1.8312-1.6592C379.74279,28.0752,377.84649,30.1817,379.32209,31.4332Z" transform="translate(-290.52481 -20.65932)"/>
      <path class="cls-5" d="M369.78349,35.783a7.87119,7.87119,0,0,0-.7736,2.699c-.1647,1.0269.3217,2.5548,1.5419,2.6418,1.59721.114,2.0417-1.9076,2.51121-2.9959a7.971,7.971,0,0,1,1.915-2.0908c.81839-.8186,3.51159-3.447,1.46059-4.3167C373.83539,30.6167,370.903,33.8252,369.78349,35.783Z" transform="translate(-290.52481 -20.65932)"/>
      <path class="cls-3" d="M371.08969,69.4063c.9758.5173,1.8966,1.0497,2.8687,1.4632a16.162,16.162,0,0,0,2.9683.9779,14.84213,14.84213,0,0,0,3.09331.3614,24.2806,24.2806,0,0,0,3.20129-.2353,8.82633,8.82633,0,0,1-3.1546,1.0142,9.9165,9.9165,0,0,1-3.3592-.1652,10.46031,10.46031,0,0,1-3.1084-1.2637A10.13032,10.13032,0,0,1,371.08969,69.4063Z" transform="translate(-290.52481 -20.65932)"/>
    </g>
    <path class="cls-1" d="M390.34529,69.7403c-.8745-.1152-1.4341.268-1.1698,1.1876a9.62562,9.62562,0,0,0,2.2036,3.6034c1.6445,1.8778,3.1217,4.0519,5.3776,5.2651a4.75586,4.75586,0,0,0,4.4845.0686c2.008-1.2455.7152-2.9504-.6589-4.0757a72.17333,72.17333,0,0,0-6.6292-4.6689,9.41923,9.41923,0,0,0-3.5762-1.3758Z" transform="translate(-290.52481 -20.65932)"/>
    <path class="cls-1" d="M390.78789,66.4713c-.5658.396-.6863.9133-.0472,1.3046a7.54017,7.54017,0,0,0,3.1788.9151c1.9429.2143,3.9459.6883,5.89051.1956a3.72453,3.72453,0,0,0,2.62579-2.3329c.5006-1.7812-1.1477-2.0819-2.5365-2.0048a56.51382,56.51382,0,0,0-6.2979.8107,7.37473,7.37473,0,0,0-2.7928,1.0974Z" transform="translate(-290.52481 -20.65932)"/>
  </g>
</svg>
